M48
;DRILL file {KiCad no-vcs-found-bf44d39~61~ubuntu16.04.1} date Wed Jan 10 12:05:41 2018
;FORMAT={-:-/ absolute / inch / decimal}
FMAT,2
INCH,TZ
T1C0.0118
T2C0.0236
T3C0.0276
T4C0.0354
T5C0.0394
T6C0.0472
%
G90
G05
M72
T1
X5.025Y-2.53
X5.0875Y-3.81
X5.095Y-3.5025
X5.095Y-3.525
X5.115Y-3.145
X5.12Y-2.565
X5.125Y-3.045
X5.1287Y-3.8936
X5.13Y-3.29
X5.13Y-3.32
X5.1387Y-3.3757
X5.1393Y-3.19
X5.1485Y-3.8773
X5.1517Y-3.3978
X5.1745Y-3.4098
X5.176Y-3.4354
X5.18Y-2.48
X5.18Y-2.51
X5.18Y-2.54
X5.18Y-4.15
X5.185Y-3.9725
X5.185Y-3.99
X5.19Y-2.855
X5.19Y-2.875
X5.196Y-3.0399
X5.205Y-3.145
X5.2142Y-2.9841
X5.2142Y-4.005
X5.2277Y-3.2015
X5.2506Y-3.655
X5.255Y-3.335
X5.26Y-2.615
X5.26Y-2.86
X5.26Y-2.8825
X5.26Y-3.525
X5.265Y-3.38
X5.2652Y-3.7644
X5.27Y-2.6
X5.27Y-3.695
X5.275Y-2.475
X5.28Y-3.565
X5.29Y-2.6
X5.2975Y-3.9004
X5.3025Y-3.595
X5.305Y-3.3876
X5.3053Y-3.8628
X5.31Y-2.6
X5.31Y-2.635
X5.3132Y-3.8232
X5.315Y-3.4493
X5.3158Y-3.4758
X5.3241Y-3.5183
X5.3292Y-2.67
X5.33Y-2.6
X5.33Y-2.635
X5.33Y-4.17
X5.3349Y-3.495
X5.3416Y-3.5793
X5.345Y-3.06
X5.3466Y-4.0752
X5.35Y-2.6
X5.35Y-2.635
X5.35Y-4.17
X5.3583Y-3.8766
X5.3666Y-3.5851
X5.37Y-2.6
X5.37Y-3.7
X5.37Y-4.11
X5.37Y-4.13
X5.37Y-4.15
X5.37Y-4.17
X5.375Y-3.06
X5.3759Y-2.88
X5.3839Y-3.875
X5.385Y-3.315
X5.39Y-2.6
X5.3908Y-2.925
X5.3919Y-3.9723
X5.405Y-3.06
X5.41Y-2.6
X5.4125Y-3.475
X5.4133Y-3.5695
X5.415Y-3.8732
X5.4158Y-3.4018
X5.4195Y-3.4273
X5.4206Y-3.9708
X5.4225Y-2.875
X5.4226Y-2.8468
X5.428Y-3.4515
X5.43Y-2.525
X5.43Y-2.58
X5.43Y-2.6
X5.4425Y-2.8225
X5.445Y-3.33
X5.45Y-2.425
X5.45Y-2.45
X5.45Y-2.47
X5.45Y-2.49
X5.45Y-2.51
X5.45Y-2.53
X5.45Y-2.555
X5.45Y-2.58
X5.45Y-2.6
X5.45Y-2.62
X5.45Y-2.64
X5.45Y-2.66
X5.4673Y-3.935
X5.4724Y-3.2972
X5.4724Y-2.425
X5.4724Y-2.45
X5.4724Y-2.47
X5.4724Y-2.49
X5.4724Y-2.51
X5.4724Y-2.53
X5.4724Y-2.555
X5.4724Y-2.58
X5.4724Y-2.6
X5.4724Y-2.62
X5.4724Y-2.6378
X5.4724Y-3.2382
X5.4724Y-3.2677
X5.4724Y-3.44
X5.4921Y-2.6378
X5.495Y-2.815
X5.5Y-2.66
X5.5118Y-2.6378
X5.5123Y-2.86
X5.5133Y-2.795
X5.52Y-2.66
X5.5227Y-2.9724
X5.5262Y-3.2876
X5.53Y-3.485
X5.5315Y-2.6378
X5.535Y-2.76
X5.5393Y-3.415
X5.54Y-2.66
X5.55Y-3.685
X5.5512Y-2.6378
X5.56Y-2.66
X5.5648Y-3.6103
X5.565Y-3.34
X5.565Y-3.415
X5.5669Y-3.5827
X5.5709Y-2.6378
X5.575Y-3.13
X5.585Y-2.675
X5.585Y-3.635
X5.59Y-3.815
X5.59Y-3.835
X5.5906Y-2.6378
X5.5911Y-3.4149
X5.5951Y-3.1853
X5.6Y-4.06
X5.605Y-4.1859
X5.605Y-2.81
X5.6064Y-2.838
X5.6102Y-2.6378
X5.6113Y-3.545
X5.6181Y-3.4149
X5.6203Y-3.9663
X5.6299Y-2.6378
X5.6299Y-3.5827
X5.6438Y-3.4148
X5.645Y-4.1859
X5.6496Y-2.6378
X5.6499Y-2.6938
X5.6524Y-3.9623
X5.6526Y-3.44
X5.665Y-3.175
X5.6693Y-2.6378
X5.6742Y-2.7542
X5.689Y-2.6378
X5.7003Y-2.6918
X5.7087Y-2.6378
X5.71Y-3.55
X5.713Y-3.423
X5.7134Y-3.1163
X5.725Y-3.71
X5.725Y-3.73
X5.725Y-4.1458
X5.7251Y-2.7654
X5.7283Y-2.6378
X5.74Y-4.1859
X5.745Y-3.5827
X5.745Y-3.99
X5.755Y-3.115
X5.755Y-3.855
X5.7579Y-2.6378
X5.76Y-4.1859
X5.77Y-2.795
X5.77Y-3.825
X5.775Y-3.17
X5.78Y-4.01
X5.785Y-3.23
X5.79Y-3.415
X5.7973Y-3.1127
X5.8046Y-3.6668
X5.8169Y-2.6378
X5.8192Y-3.5553
X5.825Y-2.82
X5.825Y-3.17
X5.835Y-2.6378
X5.845Y-2.82
X5.845Y-3.06
X5.845Y-3.545
X5.85Y-3.775
X5.859Y-2.6378
X5.875Y-2.67
X5.88Y-2.6378
X5.88Y-3.83
X5.88Y-4.0742
X5.9Y-2.94
X5.9Y-2.6378
X5.9Y-3.09
X5.9001Y-4.1698
X5.9048Y-2.8568
X5.92Y-2.6378
X5.92Y-4.195
X5.9286Y-3.9836
X5.935Y-2.67
X5.935Y-2.72
X5.94Y-2.6378
X5.945Y-2.8567
X5.945Y-3.9368
X5.955Y-2.72
X5.96Y-2.6378
X5.96Y-2.97
X5.96Y-3.4526
X5.975Y-2.72
X5.975Y-2.985
X5.98Y-2.6378
X5.9803Y-3.9566
X5.9923Y-4.0779
X5.995Y-3.805
X6.Y-2.6378
X6.Y-2.67
X6.Y-2.69
X6.0028Y-2.71
X6.0079Y-3.8851
X6.0084Y-2.84
X6.01Y-2.655
X6.01Y-2.93
X6.02Y-2.6378
X6.02Y-2.67
X6.02Y-2.69
X6.02Y-2.71
X6.0204Y-4.0509
X6.025Y-3.465
X6.0316Y-3.1222
X6.035Y-2.92
X6.0353Y-3.1488
X6.039Y-3.8033
X6.04Y-2.6378
X6.04Y-2.67
X6.04Y-2.69
X6.04Y-2.71
X6.04Y-3.69
X6.0425Y-3.625
X6.0436Y-3.385
X6.05Y-2.655
X6.055Y-2.92
X6.06Y-3.11
X6.06Y-2.6378
X6.06Y-2.67
X6.06Y-2.69
X6.06Y-2.71
X6.0725Y-2.92
X6.075Y-4.165
X6.075Y-4.135
X6.0792Y-3.265
X6.08Y-2.6378
X6.08Y-2.67
X6.08Y-2.69
X6.08Y-2.71
X6.0841Y-3.5387
X6.09Y-2.655
X6.0946Y-3.1359
X6.1Y-2.6378
X6.1Y-2.67
X6.1Y-2.69
X6.1Y-2.71
X6.1Y-3.385
X6.105Y-3.985
X6.12Y-2.6378
X6.12Y-2.67
X6.12Y-2.69
X6.12Y-2.71
X6.1209Y-3.2497
X6.1258Y-3.535
X6.13Y-2.655
X6.14Y-2.6378
X6.14Y-2.67
X6.14Y-2.69
X6.1466Y-3.5551
X6.15Y-2.73
X6.15Y-2.815
X6.1512Y-3.1951
X6.16Y-2.6378
X6.16Y-2.67
X6.16Y-2.69
X6.1643Y-3.615
X6.176Y-3.7
X6.1811Y-2.6378
X6.1811Y-2.67
X6.1811Y-2.71
X6.1811Y-2.874
X6.205Y-2.655
X6.21Y-2.805
X6.215Y-2.6378
X6.215Y-2.67
X6.215Y-2.69
X6.235Y-2.6378
X6.235Y-2.67
X6.235Y-2.69
X6.245Y-2.655
X6.255Y-2.6378
X6.255Y-2.67
X6.255Y-2.69
X6.275Y-2.6378
X6.275Y-2.67
X6.275Y-2.69
T2
X5.075Y-2.62
X5.115Y-2.62
X5.13Y-2.695
X5.255Y-4.17
X5.28Y-4.2445
X5.365Y-2.47
T3
X5.6663Y-2.8849
X5.6663Y-2.9952
X5.7765Y-2.8849
X5.7765Y-2.9952
T4
X5.1953Y-4.0509
X5.2745Y-4.0508
T5
X5.05Y-2.75
X5.05Y-2.85
X5.05Y-2.95
X5.05Y-3.05
X5.05Y-3.15
X5.05Y-3.25
X5.05Y-3.35
X5.05Y-3.45
X5.05Y-3.55
X5.05Y-3.65
X5.05Y-3.75
X5.05Y-3.85
X5.05Y-3.95
X5.05Y-4.05
X5.05Y-4.15
X5.05Y-4.25
X6.25Y-2.75
X6.25Y-2.85
X6.25Y-2.95
X6.25Y-3.05
X6.25Y-3.15
X6.25Y-3.25
X6.25Y-3.35
X6.25Y-3.45
X6.25Y-3.55
X6.25Y-3.65
X6.25Y-3.75
X6.25Y-3.85
X6.25Y-3.95
X6.25Y-4.05
X6.25Y-4.15
X6.25Y-4.25
T6
X5.7214Y-2.94
T2
X5.5583Y-4.0264G85X5.5583Y-4.05
G05
X5.5583Y-4.163G85X5.5583Y-4.1867
G05
X5.8417Y-4.0264G85X5.8417Y-4.05
G05
X5.8417Y-4.163G85X5.8417Y-4.1867
G05
T0
M30
