G04 #@! TF.GenerationSoftware,KiCad,Pcbnew,no-vcs-found-bf44d39~61~ubuntu16.04.1*
G04 #@! TF.CreationDate,2018-01-10T12:05:35+02:00*
G04 #@! TF.ProjectId,ESP32-PRO_Rev_B,45535033322D50524F5F5265765F422E,C*
G04 #@! TF.SameCoordinates,Original*
G04 #@! TF.FileFunction,Copper,L2,Bot,Mixed*
G04 #@! TF.FilePolarity,Positive*
%FSLAX46Y46*%
G04 Gerber Fmt 4.6, Leading zero omitted, Abs format (unit mm)*
G04 Created by KiCad (PCBNEW no-vcs-found-bf44d39~61~ubuntu16.04.1) date Wed Jan 10 12:05:35 2018*
%MOMM*%
%LPD*%
G01*
G04 APERTURE LIST*
%ADD10O,1.800000X1.800000*%
%ADD11O,1.200000X1.800000*%
%ADD12R,1.500000X0.800000*%
%ADD13R,1.524000X1.270000*%
%ADD14R,0.500000X0.550000*%
%ADD15R,1.500000X4.500000*%
%ADD16R,1.500000X1.200000*%
%ADD17R,0.500000X1.000000*%
%ADD18R,1.270000X1.524000*%
%ADD19C,1.000000*%
%ADD20R,1.400000X1.400000*%
%ADD21C,1.400000*%
%ADD22R,1.016000X1.016000*%
%ADD23C,1.778000*%
%ADD24R,1.778000X1.778000*%
%ADD25R,1.798320X2.397760*%
%ADD26R,2.000000X0.400000*%
%ADD27R,0.400000X2.000000*%
%ADD28R,0.550000X0.500000*%
%ADD29C,0.500000*%
%ADD30C,0.900000*%
%ADD31C,0.200000*%
%ADD32C,0.152400*%
%ADD33C,0.508000*%
%ADD34C,0.762000*%
%ADD35C,0.381000*%
%ADD36C,1.270000*%
%ADD37C,1.016000*%
%ADD38C,1.524000*%
%ADD39C,0.254000*%
G04 APERTURE END LIST*
D10*
X145323000Y-74677000D03*
X143923000Y-73277000D03*
X146723000Y-73277000D03*
X143923000Y-76077000D03*
X146723000Y-76077000D03*
D11*
X148380000Y-106041000D03*
X148380000Y-102571000D03*
X141180000Y-102571000D03*
X141180000Y-106041000D03*
D12*
X154432000Y-86868000D03*
X151232000Y-86868000D03*
X151232000Y-81368000D03*
X154432000Y-81368000D03*
D13*
X136652000Y-95250000D03*
X136652000Y-97282000D03*
D14*
X145288000Y-101092000D03*
X144272000Y-101092000D03*
D15*
X141190000Y-73406000D03*
X130590000Y-73406000D03*
D16*
X130590000Y-75806000D03*
X141190000Y-75806000D03*
X130590000Y-71356000D03*
X141190000Y-71356000D03*
D17*
X139740000Y-69606000D03*
X138640000Y-69606000D03*
X137540000Y-69606000D03*
X136790000Y-69606000D03*
X136090000Y-69606000D03*
X135340000Y-69606000D03*
X134240000Y-69606000D03*
X133140000Y-69606000D03*
X132040000Y-69606000D03*
D18*
X134747000Y-81026000D03*
X136779000Y-81026000D03*
D19*
X128270000Y-62230000D03*
X130810000Y-107950000D03*
X154940000Y-107950000D03*
D20*
X131960620Y-102892860D03*
D21*
X133972300Y-102890320D03*
D22*
X145669000Y-102362000D03*
X143891000Y-102362000D03*
D19*
X135890000Y-107950000D03*
D18*
X133477000Y-104902000D03*
X135509000Y-104902000D03*
X136779000Y-78994000D03*
X134747000Y-78994000D03*
D23*
X128270000Y-105410000D03*
X128270000Y-107950000D03*
X128270000Y-102870000D03*
X128270000Y-100330000D03*
X128270000Y-95250000D03*
X128270000Y-97790000D03*
X128270000Y-92710000D03*
X128270000Y-90170000D03*
X128270000Y-85090000D03*
X128270000Y-87630000D03*
X128270000Y-82550000D03*
X128270000Y-80010000D03*
D24*
X128270000Y-69850000D03*
D23*
X128270000Y-72390000D03*
X128270000Y-74930000D03*
X128270000Y-77470000D03*
X158750000Y-77470000D03*
X158750000Y-74930000D03*
X158750000Y-72390000D03*
D24*
X158750000Y-69850000D03*
D23*
X158750000Y-80010000D03*
X158750000Y-82550000D03*
X158750000Y-87630000D03*
X158750000Y-85090000D03*
X158750000Y-90170000D03*
X158750000Y-92710000D03*
X158750000Y-97790000D03*
X158750000Y-95250000D03*
X158750000Y-100330000D03*
X158750000Y-102870000D03*
X158750000Y-107950000D03*
X158750000Y-105410000D03*
D19*
X133350000Y-107950000D03*
D25*
X148810980Y-82296000D03*
X144813020Y-82296000D03*
D26*
X150710000Y-97865000D03*
X150710000Y-97065000D03*
X150710000Y-96265000D03*
X150710000Y-95465000D03*
X150710000Y-94665000D03*
X150710000Y-93865000D03*
X150710000Y-93065000D03*
X150710000Y-92265000D03*
X150710000Y-91465000D03*
X150710000Y-90665000D03*
X150710000Y-89865000D03*
D27*
X149110000Y-88265000D03*
X148310000Y-88265000D03*
X147510000Y-88265000D03*
X146710000Y-88265000D03*
X145910000Y-88265000D03*
X145110000Y-88265000D03*
X144310000Y-88265000D03*
X143510000Y-88265000D03*
X142710000Y-88265000D03*
X141910000Y-88265000D03*
X141110000Y-88265000D03*
D26*
X139510000Y-89865000D03*
X139510000Y-90665000D03*
X139510000Y-91465000D03*
X139510000Y-92265000D03*
X139510000Y-93065000D03*
X139510000Y-93865000D03*
X139510000Y-94665000D03*
X139510000Y-95465000D03*
X139510000Y-96265000D03*
X139510000Y-97065000D03*
X139510000Y-97865000D03*
D27*
X141110000Y-99465000D03*
X141910000Y-99465000D03*
X142710000Y-99465000D03*
X143510000Y-99465000D03*
X144310000Y-99465000D03*
X145110000Y-99465000D03*
X145910000Y-99465000D03*
X146710000Y-99465000D03*
X147510000Y-99465000D03*
X148310000Y-99465000D03*
X149110000Y-99465000D03*
D28*
X151892000Y-99695000D03*
X151892000Y-98679000D03*
X136017000Y-92964000D03*
X136017000Y-93980000D03*
D14*
X137922000Y-93980000D03*
X136906000Y-93980000D03*
D28*
X152908000Y-93472000D03*
X152908000Y-94488000D03*
X144653000Y-86487000D03*
X144653000Y-85471000D03*
X142748000Y-102489000D03*
X142748000Y-101473000D03*
D14*
X136906000Y-92075000D03*
X135890000Y-92075000D03*
X145669000Y-84582000D03*
X144653000Y-84582000D03*
X149987000Y-84582000D03*
X148971000Y-84582000D03*
X154178000Y-88773000D03*
X155194000Y-88773000D03*
D28*
X149352000Y-85471000D03*
X149352000Y-86487000D03*
D14*
X147574000Y-84582000D03*
X146558000Y-84582000D03*
X153289000Y-88773000D03*
X152273000Y-88773000D03*
X135890000Y-83693000D03*
X134874000Y-83693000D03*
D28*
X148463000Y-86487000D03*
X148463000Y-85471000D03*
D14*
X152273000Y-89789000D03*
X153289000Y-89789000D03*
X137795000Y-82804000D03*
X136779000Y-82804000D03*
X135890000Y-82804000D03*
X134874000Y-82804000D03*
X136779000Y-84582000D03*
X137795000Y-84582000D03*
X136779000Y-83693000D03*
X137795000Y-83693000D03*
X136906000Y-92964000D03*
X137922000Y-92964000D03*
X134937500Y-84582000D03*
X135953500Y-84582000D03*
D29*
X141351000Y-84836000D03*
X136779000Y-84200994D03*
X133604000Y-89535000D03*
X133731000Y-85852000D03*
X152205512Y-103577451D03*
X150368008Y-106553000D03*
X130537759Y-81026579D03*
X129921000Y-79883000D03*
X130302000Y-83566004D03*
X150587407Y-101184407D03*
X153391277Y-96604584D03*
X149862707Y-105914118D03*
X135021933Y-88285924D03*
X135001008Y-87612589D03*
X133476647Y-84709353D03*
X132207000Y-79883000D03*
X134956420Y-97110420D03*
X131826000Y-73025000D03*
X131826000Y-72517000D03*
X136398000Y-104394000D03*
X136398000Y-104902000D03*
X136398000Y-105410000D03*
X136398000Y-105918000D03*
X135890000Y-105918000D03*
X135382000Y-105918000D03*
D30*
X130302000Y-68453000D03*
X136271000Y-62737990D03*
D29*
X129413000Y-89535000D03*
X127635000Y-64262000D03*
X131572000Y-64516000D03*
X131572000Y-63754000D03*
X133985000Y-62864996D03*
X131572000Y-62992000D03*
X139000000Y-83000000D03*
X139000000Y-82250000D03*
X138999902Y-83750000D03*
X157000000Y-73000000D03*
X141605000Y-79502000D03*
X137922000Y-64135000D03*
X130175000Y-77343000D03*
X129413000Y-88963500D03*
X137477500Y-88265000D03*
X136398000Y-93980000D03*
X129222500Y-96774000D03*
X139000000Y-87376000D03*
X137541000Y-98378198D03*
X141400000Y-91000000D03*
X143000000Y-91000000D03*
D30*
X133477000Y-105918000D03*
X134112000Y-107809432D03*
D29*
X131572000Y-105410000D03*
X136525000Y-77724000D03*
X140277810Y-75500000D03*
X147955000Y-80518000D03*
X145923000Y-91000000D03*
X153034996Y-88011000D03*
X141986000Y-97409000D03*
X141986000Y-96901000D03*
X145923000Y-101346000D03*
X130048000Y-65151000D03*
X153479500Y-92075000D03*
X153416000Y-93726000D03*
X149860000Y-78485992D03*
X157000000Y-68834000D03*
X152471801Y-68834000D03*
X152908000Y-68834000D03*
X153416000Y-68834000D03*
X153924000Y-68834000D03*
X154432000Y-68834000D03*
X154940000Y-68834000D03*
X155448000Y-68834000D03*
X154241500Y-74168000D03*
X153797000Y-74168000D03*
X153289000Y-74168000D03*
X152613758Y-72136000D03*
X151765000Y-75819000D03*
X152400000Y-68326000D03*
X152908000Y-68326000D03*
X153416000Y-68326000D03*
X153924000Y-68326000D03*
X154432000Y-68326000D03*
X154940000Y-68326000D03*
X155448000Y-68326000D03*
X155956000Y-68326000D03*
X156464000Y-68326000D03*
X133604000Y-66421000D03*
X133858000Y-66040000D03*
X134366000Y-66040000D03*
X134874000Y-66040000D03*
X135382000Y-66040000D03*
X135890000Y-66040000D03*
X136398000Y-66040000D03*
X136906000Y-66040000D03*
X137414000Y-66040000D03*
X149225000Y-67818000D03*
X139000000Y-61594980D03*
X139000000Y-62738000D03*
X139000000Y-63246000D03*
X137922000Y-66040000D03*
X137922000Y-65532000D03*
X139000000Y-63754000D03*
X139000000Y-64897000D03*
X139000000Y-66040000D03*
X139000000Y-65532000D03*
X139000000Y-64262000D03*
X138430000Y-66040000D03*
X139000000Y-66548000D03*
X138430000Y-61594980D03*
X138430000Y-62230000D03*
X138430000Y-62738000D03*
X138430000Y-63246000D03*
X138430000Y-63754000D03*
X138430000Y-65532000D03*
X138430000Y-66548000D03*
X138430000Y-67056000D03*
X138430000Y-67564000D03*
X139700000Y-67564000D03*
X140208000Y-67564000D03*
X140716000Y-67564000D03*
X141224000Y-67564000D03*
X158876970Y-67818000D03*
X158623000Y-67437000D03*
X157607000Y-67437000D03*
X158369000Y-67818000D03*
X157861000Y-67818000D03*
X157861000Y-68326000D03*
X158369000Y-68326000D03*
X158877000Y-68326000D03*
X159385000Y-68326004D03*
X159385000Y-67818000D03*
X155702000Y-67437000D03*
X154686000Y-67437000D03*
X153670000Y-67437000D03*
X152654000Y-67437000D03*
X152400000Y-67818000D03*
X157000000Y-67818000D03*
X156464000Y-67818000D03*
X155956000Y-67818000D03*
X155448000Y-67818000D03*
X154940000Y-67818000D03*
X154432000Y-67818000D03*
X153924000Y-67818000D03*
X153416000Y-67818000D03*
X152908000Y-67818000D03*
X158876970Y-67000000D03*
X158369000Y-67000000D03*
X157861000Y-67000000D03*
X159385000Y-67000000D03*
X156464000Y-67000000D03*
X155956000Y-67000000D03*
X155448000Y-67000000D03*
X154940000Y-67000000D03*
X154432000Y-67000000D03*
X153924000Y-67000000D03*
X153416000Y-67000000D03*
X152908000Y-67000000D03*
X152400000Y-67000000D03*
X151892000Y-67000000D03*
X151384000Y-67000000D03*
X150876000Y-67000000D03*
X150368000Y-67000000D03*
X149860000Y-67000000D03*
X149352000Y-67000000D03*
X148819000Y-67000000D03*
X148209000Y-67000000D03*
X147750000Y-67000000D03*
X146250000Y-67000000D03*
X145500000Y-67000000D03*
X145000000Y-67000000D03*
X144500000Y-67000000D03*
X144000000Y-67000000D03*
X143500000Y-67000000D03*
X143000000Y-67000000D03*
X142500000Y-67000000D03*
X142000000Y-67000000D03*
X141500000Y-67000000D03*
X141000000Y-67000000D03*
X140500000Y-67000000D03*
X140000000Y-67000000D03*
X139500000Y-67000000D03*
X139000000Y-67000000D03*
X138430000Y-64262000D03*
X139000000Y-62230000D03*
X138430000Y-64897000D03*
X152654000Y-74422000D03*
X157000000Y-67000000D03*
X151384000Y-75438000D03*
X151003000Y-72559814D03*
X150749000Y-67818000D03*
X131699000Y-100901490D03*
X131699000Y-101346000D03*
X136751099Y-98424994D03*
X134683500Y-91313000D03*
X133604000Y-72644000D03*
X131978400Y-77212588D03*
X133604000Y-73215500D03*
X137682770Y-100857810D03*
X145110000Y-86944000D03*
X142240000Y-103124000D03*
X134874000Y-66929000D03*
X135382000Y-66929000D03*
X149859992Y-74676000D03*
X151765000Y-69088000D03*
X151257000Y-69088000D03*
X150749000Y-69088000D03*
X148463000Y-71628000D03*
X147955000Y-71628000D03*
X146558000Y-70993000D03*
X149983001Y-72563801D03*
X135890000Y-66929000D03*
X141859000Y-67944992D03*
X148463000Y-77724000D03*
X134556500Y-99071212D03*
X134753501Y-98114001D03*
X132439590Y-75795137D03*
X130267821Y-98896920D03*
X146939010Y-82042000D03*
X143891000Y-80645000D03*
X136954076Y-100897114D03*
D30*
X129921000Y-66548000D03*
X128905000Y-66548000D03*
D29*
X141345475Y-91702840D03*
X146304000Y-106322810D03*
X145796000Y-106322810D03*
X142367000Y-106322810D03*
X143383000Y-106322810D03*
X135506498Y-88773007D03*
X134747000Y-86045755D03*
X135232582Y-89365433D03*
X130522964Y-85742498D03*
X140037446Y-70993000D03*
X134112000Y-90551000D03*
X140698587Y-86741000D03*
X139573000Y-71501000D03*
X130853347Y-86305071D03*
X152918417Y-102892009D03*
X140462000Y-88519000D03*
X132783086Y-81318499D03*
X135362190Y-67816987D03*
X143506240Y-68422136D03*
X156869486Y-93980000D03*
X138303000Y-84582000D03*
X130302000Y-84328000D03*
X141351000Y-86741000D03*
X131470377Y-87259387D03*
X131431083Y-86608159D03*
X152599510Y-98682458D03*
X140365347Y-83505447D03*
X155067000Y-101219008D03*
X151898521Y-100498246D03*
X142114997Y-80907219D03*
X142015038Y-86737286D03*
X130772928Y-98483993D03*
X146177000Y-97917000D03*
X145415000Y-105302810D03*
X142754699Y-100744573D03*
X143572209Y-100642623D03*
X138870426Y-99948996D03*
X147437704Y-93136156D03*
X141859008Y-92329000D03*
X136099901Y-98464769D03*
X132441190Y-101727000D03*
X135803759Y-103511051D03*
X136312787Y-91061145D03*
X133735349Y-95614635D03*
X133858000Y-93853000D03*
X133365939Y-92836994D03*
X151384000Y-87695802D03*
X153923993Y-78994676D03*
X147251975Y-79062034D03*
X153201969Y-79303531D03*
X143576535Y-87375999D03*
X154940000Y-85979000D03*
X153506577Y-85979000D03*
X154802757Y-79651200D03*
X154412190Y-82930994D03*
X154535801Y-89882673D03*
X149352000Y-103485190D03*
X154305000Y-105029010D03*
X156122620Y-90299137D03*
X135677033Y-90914658D03*
X137498598Y-90665957D03*
X154304994Y-105791000D03*
X146812000Y-101854000D03*
X142401726Y-72085712D03*
X137871568Y-87667491D03*
X156210000Y-71501000D03*
X156210000Y-69342000D03*
X144786846Y-68372810D03*
X145417626Y-70241243D03*
X156574379Y-91821000D03*
X144125190Y-69957190D03*
X157734000Y-71247000D03*
X153296647Y-79980600D03*
X136925309Y-74294478D03*
X140589000Y-70104000D03*
X156241313Y-81156796D03*
X155470105Y-82542841D03*
X142367804Y-71373390D03*
X140012184Y-72644000D03*
X137654678Y-87052186D03*
X138239500Y-71691492D03*
X151003000Y-99995836D03*
X137561579Y-86406451D03*
X137733417Y-72309810D03*
X136547498Y-73152213D03*
X137287000Y-77724000D03*
X135763000Y-77724000D03*
X146558000Y-97155000D03*
X149352000Y-97282000D03*
X155594810Y-89789000D03*
X137731500Y-73025000D03*
X142699098Y-86738418D03*
X147066000Y-86741000D03*
X146685000Y-80518000D03*
X145121396Y-79155179D03*
X142528180Y-90043000D03*
X148463000Y-90043000D03*
X143351508Y-86737079D03*
X146177000Y-79121000D03*
X145034000Y-90170000D03*
X147806926Y-90303689D03*
X140970000Y-93599000D03*
X145415000Y-94234000D03*
X145415000Y-94742000D03*
X148590000Y-95885000D03*
X152273000Y-96647000D03*
D31*
X133192022Y-88214806D02*
X133018233Y-88388595D01*
X134706421Y-96860421D02*
X134956420Y-97110420D01*
X131065589Y-80362533D02*
X131344980Y-80641924D01*
X133018233Y-88388595D02*
X133018233Y-91151507D01*
X131344980Y-80641924D02*
X131344980Y-82446791D01*
X131344980Y-82446791D02*
X132053044Y-83154855D01*
X134360402Y-92493676D02*
X134360402Y-96514402D01*
X132053044Y-84788910D02*
X133192023Y-85927889D01*
X134360402Y-96514402D02*
X134706421Y-96860421D01*
X133192023Y-85927889D02*
X133192022Y-88214806D01*
X132053044Y-83154855D02*
X132053044Y-84788910D01*
X131065589Y-77474008D02*
X131065589Y-80362533D01*
X133018233Y-91151507D02*
X134360402Y-92493676D01*
D32*
X131196599Y-77311874D02*
X131292473Y-77216000D01*
X131292473Y-77216000D02*
X131433893Y-77074580D01*
X131065589Y-77442884D02*
X131292473Y-77216000D01*
X131065589Y-77474008D02*
X131065589Y-77442884D01*
D33*
X141351000Y-85025000D02*
X141351000Y-84836000D01*
X139000000Y-87376000D02*
X141351000Y-85025000D01*
D31*
X129410940Y-85250397D02*
X129410940Y-86234599D01*
X129413000Y-85248337D02*
X129410940Y-85250397D01*
X129413000Y-88218860D02*
X129413000Y-88582500D01*
X129410940Y-86234599D02*
X129413000Y-86236659D01*
X129413000Y-86236659D02*
X129413000Y-88218860D01*
X129413000Y-78613000D02*
X129413000Y-85248337D01*
X129286000Y-78486000D02*
X129413000Y-78613000D01*
D34*
X128270000Y-77470000D02*
X128397000Y-77470000D01*
X128397000Y-77470000D02*
X129286000Y-78359000D01*
D35*
X129527212Y-96469288D02*
X129472499Y-96524001D01*
X129472499Y-96524001D02*
X129222500Y-96774000D01*
X129527212Y-89649212D02*
X129527212Y-96469288D01*
X129413000Y-89535000D02*
X129527212Y-89649212D01*
D31*
X153893687Y-99881161D02*
X153507368Y-100267480D01*
X152205512Y-103223898D02*
X152205512Y-103577451D01*
X153893687Y-94838687D02*
X153893687Y-99881161D01*
X152908000Y-94488000D02*
X153543000Y-94488000D01*
X152205512Y-102832299D02*
X152205512Y-103223898D01*
X153543000Y-94488000D02*
X153893687Y-94838687D01*
X153507368Y-100267480D02*
X153507368Y-101530443D01*
X153507368Y-101530443D02*
X152205512Y-102832299D01*
D33*
X132791744Y-77212588D02*
X132972412Y-77212588D01*
X132972412Y-77212588D02*
X133756410Y-76428590D01*
X133756410Y-76428590D02*
X133756410Y-73660000D01*
X135890000Y-82804000D02*
X136779000Y-82804000D01*
X136779000Y-81026000D02*
X136779000Y-82804000D01*
D35*
X131550599Y-77640389D02*
X131550599Y-80167503D01*
X131978400Y-77212588D02*
X131550599Y-77640389D01*
X133731000Y-85840496D02*
X133731000Y-85852000D01*
X131787891Y-82263332D02*
X132495955Y-82971396D01*
X132495955Y-84605451D02*
X133731000Y-85840496D01*
X132495955Y-82971396D02*
X132495955Y-84605451D01*
X131787891Y-80404795D02*
X131787891Y-82263332D01*
X131550599Y-80167503D02*
X131787891Y-80404795D01*
D33*
X136779000Y-84582000D02*
X136779000Y-84200994D01*
X136779000Y-83693000D02*
X136779000Y-84200994D01*
X136779000Y-83058000D02*
X136779000Y-83693000D01*
X133604000Y-88519000D02*
X133604000Y-89181447D01*
X133731000Y-85852000D02*
X133731000Y-88392000D01*
X133731000Y-88392000D02*
X133604000Y-88519000D01*
X133604000Y-89181447D02*
X133604000Y-89535000D01*
X132461000Y-77216000D02*
X132210412Y-77216000D01*
X132210412Y-77216000D02*
X132207000Y-77212588D01*
D31*
X150368008Y-105609823D02*
X152205512Y-103772319D01*
X150368008Y-106553000D02*
X150368008Y-105609823D01*
X152205512Y-103772319D02*
X152205512Y-103577451D01*
D32*
X132384811Y-95622686D02*
X132384811Y-88126224D01*
X131419622Y-85051281D02*
X131419622Y-83417225D01*
X133935018Y-97676518D02*
X132647125Y-96388625D01*
X132558601Y-86190260D02*
X131419622Y-85051281D01*
X132647125Y-95885000D02*
X132384811Y-95622686D01*
X134556500Y-99071212D02*
X133935018Y-98449730D01*
X132558601Y-87952433D02*
X132558601Y-86190260D01*
X133935018Y-98449730D02*
X133935018Y-97676518D01*
X132384811Y-88126224D02*
X132558601Y-87952433D01*
X131419622Y-83417225D02*
X130537759Y-82535362D01*
X132647125Y-96388625D02*
X132647125Y-95885000D01*
X130537759Y-82535362D02*
X130537759Y-81380132D01*
X130537759Y-81380132D02*
X130537759Y-81026579D01*
X132086037Y-75795137D02*
X131597389Y-76283785D01*
X131724433Y-83290970D02*
X131724433Y-84925025D01*
X131016369Y-82582906D02*
X131724433Y-83290970D01*
X130736978Y-77337893D02*
X130736978Y-80498648D01*
X132439590Y-75795137D02*
X132086037Y-75795137D01*
X131597389Y-76283785D02*
X131597389Y-76477484D01*
X131724433Y-84925025D02*
X132863412Y-86064004D01*
X130736978Y-80498648D02*
X131016369Y-80778039D01*
X132863412Y-86064004D02*
X132863412Y-88078690D01*
X134753501Y-97606007D02*
X134753501Y-97760448D01*
X132863412Y-88078690D02*
X132689622Y-88252480D01*
X132689623Y-91287623D02*
X133921500Y-92519500D01*
X134753501Y-97760448D02*
X134753501Y-98114001D01*
X132689622Y-88252480D02*
X132689623Y-91287623D01*
X133921500Y-92519500D02*
X133921500Y-93037330D01*
X131016369Y-80778039D02*
X131016369Y-82582906D01*
X133256747Y-93702083D02*
X133256747Y-96109253D01*
X131597389Y-76477484D02*
X130736978Y-77337893D01*
X133256747Y-96109253D02*
X134753501Y-97606007D01*
X133921500Y-93037330D02*
X133256747Y-93702083D01*
X129739551Y-86098484D02*
X129739551Y-85386512D01*
X129739551Y-85386512D02*
X129741611Y-85384452D01*
X129946323Y-96641792D02*
X129946323Y-88287457D01*
X129741611Y-86100544D02*
X129739551Y-86098484D01*
X129946323Y-88287457D02*
X129741611Y-88082745D01*
X129741611Y-88082745D02*
X129741611Y-86100544D01*
X130196410Y-96891878D02*
X129946323Y-96641792D01*
X130267821Y-98896920D02*
X130267821Y-98543367D01*
X130267821Y-98543367D02*
X130196410Y-98471956D01*
X130196410Y-98471956D02*
X130196410Y-96891878D01*
X129741611Y-85384452D02*
X129741611Y-80062389D01*
X129741611Y-80062389D02*
X129921000Y-79883000D01*
X133878269Y-82036729D02*
X133878269Y-78134797D01*
X134967641Y-77045425D02*
X134967641Y-76631663D01*
X134134310Y-82292770D02*
X133878269Y-82036729D01*
X133878269Y-78134797D02*
X134967641Y-77045425D01*
X134134310Y-82953310D02*
X134134310Y-82292770D01*
X134874000Y-83693000D02*
X134134310Y-82953310D01*
X134615231Y-76449768D02*
X134615231Y-76966769D01*
X133829499Y-83500309D02*
X134911189Y-84582000D01*
X134615231Y-76966769D02*
X133573458Y-78008541D01*
X133573458Y-82162985D02*
X133829499Y-82419026D01*
X133573458Y-78008541D02*
X133573458Y-82162985D01*
X134911189Y-84582000D02*
X134937500Y-84582000D01*
X133829499Y-82419026D02*
X133829499Y-83500309D01*
X132037503Y-96146569D02*
X131775189Y-95884255D01*
X133219808Y-97836874D02*
X132037503Y-96654569D01*
X131775189Y-95884255D02*
X131775189Y-87873711D01*
X130551999Y-83816003D02*
X130302000Y-83566004D01*
X130810000Y-84074004D02*
X130551999Y-83816003D01*
X131948979Y-86442772D02*
X130810000Y-85303793D01*
X133219808Y-99586593D02*
X133219808Y-97836874D01*
X132037503Y-96654569D02*
X132037503Y-96146569D01*
X131775189Y-87873711D02*
X131948979Y-87699921D01*
X131948979Y-87699921D02*
X131948979Y-86442772D01*
X130810000Y-85303793D02*
X130810000Y-84074004D01*
D31*
X141859000Y-104013000D02*
X142494000Y-104648000D01*
X145535622Y-104019378D02*
X147447000Y-102108000D01*
X150233854Y-101184407D02*
X150587407Y-101184407D01*
X143959009Y-104019380D02*
X145535622Y-104019378D01*
X148116593Y-101184407D02*
X150233854Y-101184407D01*
X133590061Y-99956846D02*
X135157495Y-99956846D01*
X142494000Y-104648000D02*
X143330391Y-104648000D01*
X135157495Y-99956846D02*
X139213650Y-104013000D01*
X139213650Y-104013000D02*
X141859000Y-104013000D01*
X147447000Y-102108000D02*
X147447000Y-101854000D01*
X147447000Y-101854000D02*
X148116593Y-101184407D01*
X143330391Y-104648000D02*
X143959009Y-104019380D01*
X133219808Y-99586593D02*
X133590061Y-99956846D01*
X153154957Y-101384468D02*
X153154957Y-100089185D01*
X153541276Y-97917000D02*
X153391277Y-97767001D01*
X151664040Y-103759232D02*
X151664040Y-102875383D01*
X153391277Y-97767001D02*
X153391277Y-96958137D01*
X149862707Y-105914118D02*
X149862707Y-105560565D01*
X151664040Y-102875383D02*
X153154957Y-101384468D01*
X149862707Y-105560565D02*
X151664040Y-103759232D01*
X153541276Y-99702866D02*
X153541276Y-97917000D01*
X153391277Y-96958137D02*
X153391277Y-96604584D01*
X153154957Y-100089185D02*
X153541276Y-99702866D01*
D32*
X132253790Y-87826177D02*
X132080000Y-87999968D01*
X132080000Y-95757999D02*
X132342314Y-96020313D01*
X132080000Y-87999968D02*
X132080000Y-95757999D01*
X129159000Y-70739000D02*
X129540000Y-71120000D01*
X132253790Y-86316516D02*
X132253790Y-87826177D01*
X129540000Y-77597000D02*
X130399601Y-78456601D01*
X130046422Y-82475092D02*
X131114811Y-83543481D01*
X131114811Y-85177537D02*
X132253790Y-86316516D01*
X133604000Y-97789999D02*
X133604000Y-98933000D01*
X132342314Y-96528313D02*
X133604000Y-97789999D01*
X130046422Y-80519578D02*
X130046422Y-82475092D01*
X133604000Y-98933000D02*
X134112000Y-99441000D01*
X129540000Y-71120000D02*
X129540000Y-77597000D01*
X132342314Y-96020313D02*
X132342314Y-96528313D01*
X130399601Y-80166399D02*
X130046422Y-80519578D01*
X131114811Y-83543481D02*
X131114811Y-85177537D01*
X130399601Y-78456601D02*
X130399601Y-80166399D01*
X134751003Y-89149997D02*
X135021933Y-88879067D01*
X134751003Y-89565870D02*
X134751003Y-89149997D01*
X135050133Y-89865000D02*
X134751003Y-89565870D01*
X139510000Y-89865000D02*
X135050133Y-89865000D01*
X135021933Y-88879067D02*
X135021933Y-88639477D01*
X135021933Y-88639477D02*
X135021933Y-88285924D01*
X134936810Y-90182744D02*
X134446192Y-89692126D01*
X137875344Y-90182744D02*
X134936810Y-90182744D01*
X134522399Y-88108601D02*
X135001008Y-87629992D01*
X139510000Y-90665000D02*
X138357600Y-90665000D01*
X134446192Y-88790390D02*
X134522399Y-88714183D01*
X138357600Y-90665000D02*
X137875344Y-90182744D01*
X134522399Y-88714183D02*
X134522399Y-88108601D01*
X134446192Y-89692126D02*
X134446192Y-88790390D01*
X135001008Y-87629992D02*
X135001008Y-87612589D01*
X132915066Y-82797794D02*
X132915066Y-84147772D01*
X132915066Y-84147772D02*
X133226648Y-84459354D01*
X132207000Y-82089728D02*
X132915066Y-82797794D01*
X132207000Y-79883000D02*
X132207000Y-82089728D01*
X133226648Y-84459354D02*
X133476647Y-84709353D01*
X134141381Y-89818381D02*
X134141381Y-88664134D01*
X134239000Y-89916000D02*
X134141381Y-89818381D01*
X134213611Y-88591904D02*
X134213611Y-85622678D01*
X134213611Y-85622678D02*
X133726646Y-85135713D01*
X133726646Y-85135713D02*
X133726646Y-84959352D01*
X133726646Y-84959352D02*
X133476647Y-84709353D01*
X134141381Y-88664134D02*
X134213611Y-88591904D01*
X134239000Y-89916000D02*
X135166111Y-90843111D01*
X134175500Y-89852500D02*
X134239000Y-89916000D01*
X135645832Y-91567000D02*
X137287000Y-91567000D01*
X137287000Y-91567000D02*
X137922000Y-92202000D01*
X137922000Y-92536600D02*
X137922000Y-92964000D01*
X135166111Y-90843111D02*
X135166111Y-91087279D01*
X135166111Y-91087279D02*
X135645832Y-91567000D01*
X137922000Y-92202000D02*
X137922000Y-92536600D01*
X131996567Y-76511906D02*
X132080000Y-76511906D01*
X132588000Y-76511906D02*
X132702150Y-76511906D01*
D33*
X132588000Y-76511906D02*
X132080000Y-76511906D01*
X133096000Y-75565000D02*
X133096000Y-76118056D01*
X133096000Y-76118056D02*
X132702150Y-76511906D01*
D31*
X133096000Y-75565000D02*
X133096000Y-74295000D01*
D33*
X133096000Y-74676000D02*
X133096000Y-75565000D01*
X132969000Y-74168000D02*
X133096000Y-74168000D01*
X133096000Y-74168000D02*
X133096000Y-73787000D01*
X133096000Y-73787000D02*
X131826000Y-72517000D01*
X132969000Y-74168000D02*
X133096000Y-74295000D01*
X133096000Y-74295000D02*
X133096000Y-74676000D01*
X131826000Y-73025000D02*
X132715000Y-73914000D01*
X132715000Y-73914000D02*
X132969000Y-74168000D01*
D31*
X133096000Y-74295000D02*
X132715000Y-73914000D01*
D33*
X131826000Y-72517000D02*
X131826000Y-73025000D01*
X135509000Y-104902000D02*
X136398000Y-104902000D01*
D32*
X131433893Y-77074580D02*
X131996567Y-76511906D01*
D36*
X131902189Y-66852811D02*
X130751999Y-68003001D01*
X131902189Y-66470405D02*
X131902189Y-66852811D01*
X135634604Y-62737990D02*
X131902189Y-66470405D01*
X136271000Y-62737990D02*
X135634604Y-62737990D01*
X130751999Y-68003001D02*
X130302000Y-68453000D01*
D33*
X136398000Y-104394000D02*
X135890000Y-104394000D01*
X135890000Y-104394000D02*
X135509000Y-104775000D01*
X136398000Y-104902000D02*
X136398000Y-104394000D01*
X136044447Y-104902000D02*
X136398000Y-104902000D01*
X135636000Y-104902000D02*
X136044447Y-104902000D01*
X135509000Y-104775000D02*
X135636000Y-104902000D01*
X136398000Y-105410000D02*
X136398000Y-104902000D01*
X136398000Y-105918000D02*
X136398000Y-105410000D01*
X136398000Y-105918000D02*
X136398000Y-105664000D01*
X136398000Y-105664000D02*
X135509000Y-104775000D01*
X135890000Y-105918000D02*
X136398000Y-105918000D01*
X135382000Y-105156000D02*
X135763000Y-105156000D01*
X135763000Y-105156000D02*
X135890000Y-105283000D01*
X135890000Y-105283000D02*
X135890000Y-105918000D01*
X135509000Y-105537000D02*
X135640001Y-105668001D01*
X135640001Y-105668001D02*
X135890000Y-105918000D01*
X135509000Y-104775000D02*
X135509000Y-105537000D01*
X135382000Y-105918000D02*
X135890000Y-105918000D01*
X135382000Y-105564447D02*
X135382000Y-105918000D01*
X135382000Y-104902000D02*
X135382000Y-105564447D01*
X135509000Y-104775000D02*
X135382000Y-104902000D01*
D31*
X135992000Y-93980000D02*
X136017000Y-93980000D01*
X135542000Y-94430000D02*
X135992000Y-93980000D01*
X135542000Y-95927616D02*
X135542000Y-94430000D01*
X135880384Y-96266000D02*
X135542000Y-95927616D01*
X137921984Y-96266000D02*
X135880384Y-96266000D01*
X155194000Y-88773000D02*
X155194000Y-87757000D01*
X155194000Y-87757000D02*
X155575000Y-87376000D01*
X153543000Y-85344000D02*
X152781000Y-84582000D01*
X155575000Y-87376000D02*
X155575000Y-85598000D01*
X155575000Y-85598000D02*
X155321000Y-85344000D01*
X155321000Y-85344000D02*
X153543000Y-85344000D01*
X152781000Y-84582000D02*
X152400000Y-84582000D01*
D33*
X152781000Y-85344000D02*
X152781000Y-84963000D01*
X152781000Y-84963000D02*
X152400000Y-84582000D01*
D35*
X129413000Y-88963500D02*
X129402677Y-88592824D01*
X129402677Y-88592824D02*
X129413000Y-88582500D01*
D33*
X129413000Y-88963500D02*
X129413000Y-88603147D01*
X129413000Y-88603147D02*
X129402677Y-88592824D01*
X129413000Y-89535000D02*
X129413000Y-88963500D01*
X129667000Y-98488500D02*
X129667000Y-97218500D01*
X129222500Y-96774000D02*
X129472499Y-97023999D01*
X129472499Y-97023999D02*
X129667000Y-97218500D01*
X131572000Y-105410000D02*
X131218447Y-105410000D01*
X131218447Y-105410000D02*
X130048000Y-104239553D01*
X130048000Y-104239553D02*
X130048000Y-100190806D01*
X130048000Y-100190806D02*
X129476500Y-99619306D01*
X129476500Y-99619306D02*
X129476500Y-98679000D01*
X129476500Y-98679000D02*
X129667000Y-98488500D01*
X128270000Y-65151000D02*
X127635000Y-64516000D01*
X127635000Y-64516000D02*
X127635000Y-64262000D01*
X130048000Y-65151000D02*
X128270000Y-65151000D01*
D31*
X131572000Y-63754000D02*
X131572000Y-64516000D01*
D33*
X133985000Y-62511443D02*
X133985000Y-62864996D01*
X133985000Y-61721980D02*
X133985000Y-62511443D01*
X134112000Y-61594980D02*
X133985000Y-61721980D01*
X134112000Y-61594980D02*
X132969020Y-61594980D01*
X138430000Y-61594980D02*
X134112000Y-61594980D01*
X132969020Y-61594980D02*
X131572000Y-62992000D01*
X130590000Y-73406000D02*
X130590000Y-74583000D01*
X130683000Y-74676000D02*
X132207000Y-74676000D01*
X130590000Y-74583000D02*
X130683000Y-74676000D01*
X132062000Y-71356000D02*
X132715000Y-72009000D01*
X130590000Y-71356000D02*
X132062000Y-71356000D01*
D34*
X133477000Y-105918000D02*
X133477000Y-104902000D01*
D33*
X149352000Y-85471000D02*
X149860000Y-85471000D01*
X149860000Y-85471000D02*
X149987000Y-85344000D01*
X152781000Y-85979000D02*
X152146000Y-85344000D01*
X152146000Y-85344000D02*
X149987000Y-85344000D01*
X138999902Y-83750000D02*
X139000000Y-83750000D01*
X150241000Y-80010000D02*
X150622000Y-79629000D01*
X149733000Y-80518000D02*
X150241000Y-80010000D01*
X150241000Y-80010000D02*
X150241000Y-78866992D01*
X150241000Y-78866992D02*
X149860000Y-78485992D01*
X149860000Y-78485992D02*
X149860000Y-80391000D01*
X149860000Y-80391000D02*
X149733000Y-80518000D01*
X150622000Y-79629000D02*
X150622000Y-78359000D01*
X150622000Y-78359000D02*
X150622000Y-77723992D01*
X149860000Y-78485992D02*
X150495008Y-78485992D01*
X150495008Y-78485992D02*
X150622000Y-78359000D01*
D34*
X149860000Y-78485992D02*
X150622000Y-77723992D01*
X150622000Y-77723992D02*
X152654000Y-75691992D01*
D33*
X147955000Y-80518000D02*
X149733000Y-80518000D01*
X141355001Y-79252001D02*
X141605000Y-79502000D01*
X141577553Y-79121000D02*
X141605000Y-79148447D01*
X141224000Y-76708000D02*
X141224000Y-79121000D01*
X141478000Y-79121000D02*
X141577553Y-79121000D01*
X141605000Y-79148447D02*
X141605000Y-79502000D01*
X141224000Y-79121000D02*
X141355001Y-79252001D01*
X135890000Y-64135000D02*
X137568447Y-64135000D01*
X133604000Y-66421000D02*
X135890000Y-64135000D01*
X137568447Y-64135000D02*
X137922000Y-64135000D01*
X130590000Y-73406000D02*
X130590000Y-75721500D01*
X130590000Y-75721500D02*
X130175000Y-76136500D01*
X130175000Y-76136500D02*
X130175000Y-77343000D01*
D31*
X129540000Y-96520000D02*
X129286000Y-96774000D01*
X129286000Y-96774000D02*
X129222500Y-96774000D01*
D33*
X139000000Y-87376000D02*
X139000000Y-87949000D01*
X139000000Y-87949000D02*
X138620500Y-88328500D01*
X137541000Y-88328500D02*
X137477500Y-88265000D01*
X138620500Y-88328500D02*
X137541000Y-88328500D01*
X136017000Y-93980000D02*
X136398000Y-93980000D01*
X128270000Y-77533500D02*
X128270000Y-77470000D01*
D34*
X140990620Y-76005380D02*
X141190000Y-75806000D01*
X140990620Y-76474620D02*
X140990620Y-76005380D01*
X141224000Y-76708000D02*
X140990620Y-76474620D01*
D31*
X137921984Y-96266000D02*
X137921984Y-97281984D01*
X137922000Y-97282000D02*
X137795000Y-97409000D01*
X137921984Y-97281984D02*
X137922000Y-97282000D01*
X137795000Y-97409000D02*
X137795000Y-98124198D01*
X137795000Y-98124198D02*
X137541000Y-98378198D01*
D33*
X137921984Y-95236141D02*
X137921984Y-96266000D01*
X138493125Y-94665000D02*
X137921984Y-95236141D01*
X139510000Y-94665000D02*
X138493125Y-94665000D01*
X143000000Y-91000000D02*
X141400000Y-91000000D01*
D37*
X133477000Y-104775000D02*
X133477000Y-105918000D01*
D36*
X133477000Y-104775000D02*
X133478396Y-104775000D01*
X133972300Y-102890320D02*
X133972300Y-104279700D01*
X133972300Y-104279700D02*
X133477000Y-104775000D01*
D34*
X134057106Y-107950000D02*
X134112000Y-107895106D01*
X133350000Y-107950000D02*
X134057106Y-107950000D01*
X134112000Y-107895106D02*
X134112000Y-107809432D01*
D36*
X133477000Y-104775000D02*
X133471308Y-104775000D01*
X133471308Y-104775000D02*
X133477000Y-104775000D01*
D33*
X136906000Y-93980000D02*
X136017000Y-93980000D01*
X132842000Y-68199000D02*
X132842000Y-67437000D01*
X132842000Y-68580000D02*
X132842000Y-68199000D01*
X131699000Y-68580000D02*
X132080000Y-68199000D01*
X132080000Y-68199000D02*
X132969000Y-67310000D01*
X132842000Y-68199000D02*
X132080000Y-68199000D01*
X131699000Y-68580000D02*
X132842000Y-68580000D01*
X132842000Y-67437000D02*
X132969000Y-67310000D01*
X132969000Y-67310000D02*
X133223000Y-67310000D01*
X133223000Y-67310000D02*
X133477000Y-67310000D01*
X133604000Y-66421000D02*
X133223000Y-66802000D01*
X133223000Y-66802000D02*
X133223000Y-67310000D01*
X133604000Y-67183000D02*
X133604000Y-66774553D01*
X132969000Y-67310000D02*
X132969000Y-67056000D01*
X132969000Y-67056000D02*
X133604000Y-66421000D01*
X136525000Y-77724000D02*
X136525000Y-78740000D01*
X136525000Y-78740000D02*
X136779000Y-78994000D01*
X140277810Y-75500000D02*
X140884000Y-75500000D01*
X140884000Y-75500000D02*
X141190000Y-75806000D01*
X152781000Y-85979000D02*
X152781000Y-86741000D01*
X152781000Y-86741000D02*
X153034996Y-86994996D01*
X153034996Y-86994996D02*
X153034996Y-88011000D01*
X147955000Y-78613000D02*
X147955000Y-80518000D01*
X141478000Y-79121000D02*
X141478000Y-76962000D01*
X141478000Y-79121000D02*
X142621000Y-77978000D01*
X141478000Y-76962000D02*
X141224000Y-76708000D01*
X141732000Y-78613000D02*
X141986000Y-78359000D01*
X141986000Y-78359000D02*
X141605000Y-77978000D01*
X141732000Y-78613000D02*
X141732000Y-78105000D01*
X141732000Y-78105000D02*
X141605000Y-77978000D01*
X141986000Y-78359000D02*
X142367000Y-77978000D01*
X142367000Y-77978000D02*
X142494000Y-77978000D01*
D34*
X141986000Y-77470000D02*
X142494000Y-77978000D01*
X142494000Y-77978000D02*
X142748000Y-77978000D01*
X146685000Y-77978000D02*
X143891000Y-77978000D01*
X143891000Y-77978000D02*
X142621000Y-77978000D01*
X143923000Y-76077000D02*
X143923000Y-77946000D01*
X143923000Y-77946000D02*
X143891000Y-77978000D01*
X146723000Y-76077000D02*
X146723000Y-77762000D01*
X146723000Y-77762000D02*
X146939000Y-77978000D01*
X146685000Y-77978000D02*
X147320000Y-77978000D01*
X146939000Y-77978000D02*
X147320000Y-77978000D01*
X147320000Y-77978000D02*
X147574000Y-78232000D01*
X147574000Y-78232000D02*
X147955000Y-78613000D01*
D33*
X144653000Y-85471000D02*
X144780000Y-85471000D01*
X144780000Y-85471000D02*
X145796000Y-86487000D01*
X145796000Y-86487000D02*
X145796000Y-88151000D01*
X145796000Y-88151000D02*
X145910000Y-88265000D01*
D34*
X141986000Y-77470000D02*
X141224000Y-76708000D01*
D33*
X141986000Y-78359000D02*
X141986000Y-77470000D01*
X145910000Y-88265000D02*
X145910000Y-90987000D01*
X145910000Y-90987000D02*
X145923000Y-91000000D01*
X144653000Y-84582000D02*
X144653000Y-85471000D01*
X150114000Y-78105000D02*
X152654000Y-75565000D01*
X152654000Y-75565000D02*
X154305000Y-75565000D01*
X154305000Y-75565000D02*
X154535190Y-75334810D01*
X154535190Y-75334810D02*
X154535190Y-74168000D01*
X152781000Y-85344000D02*
X152781000Y-85979000D01*
X149987000Y-84963000D02*
X149987000Y-84582000D01*
X149987000Y-85344000D02*
X149987000Y-84963000D01*
X152400000Y-84582000D02*
X149987000Y-84582000D01*
X144018000Y-94869000D02*
X141164908Y-94869000D01*
X141164908Y-94869000D02*
X140960908Y-94665000D01*
X143814810Y-94665810D02*
X144018000Y-94869000D01*
X140961718Y-94665810D02*
X143814810Y-94665810D01*
X139510000Y-94665000D02*
X140960908Y-94665000D01*
X140960908Y-94665000D02*
X140961718Y-94665810D01*
X145110000Y-100533000D02*
X145669000Y-101092000D01*
X145110000Y-99465000D02*
X145110000Y-100533000D01*
X141986000Y-97409000D02*
X144018000Y-97409000D01*
X144018000Y-97409000D02*
X144562000Y-97409000D01*
X145110000Y-98374000D02*
X144145000Y-97409000D01*
X144145000Y-97409000D02*
X144018000Y-97409000D01*
X145110000Y-99465000D02*
X145110000Y-98374000D01*
X145110000Y-97957000D02*
X144943000Y-97790000D01*
X144943000Y-97790000D02*
X144054000Y-96901000D01*
X144562000Y-97409000D02*
X144943000Y-97790000D01*
X141986000Y-97409000D02*
X141986000Y-96901000D01*
X142339553Y-96901000D02*
X141986000Y-96901000D01*
X144018002Y-96901000D02*
X142339553Y-96901000D01*
X145110000Y-99465000D02*
X145110000Y-97957000D01*
X144054000Y-96901000D02*
X142339553Y-96901000D01*
D31*
X143002000Y-102997000D02*
X142621000Y-102616000D01*
X142621000Y-102616000D02*
X142748000Y-102489000D01*
X143002000Y-102743000D02*
X143002000Y-102997000D01*
X142748000Y-102489000D02*
X143002000Y-102743000D01*
X143002000Y-102997000D02*
X143383000Y-103378000D01*
D33*
X144907000Y-103378000D02*
X143383000Y-103378000D01*
X145034000Y-103251000D02*
X144907000Y-103378000D01*
X145669000Y-102362000D02*
X145669000Y-102616000D01*
X145669000Y-102616000D02*
X145034000Y-103251000D01*
X145288000Y-101092000D02*
X145669000Y-101092000D01*
X145669000Y-101092000D02*
X145923000Y-101346000D01*
X145923000Y-101346000D02*
X145923000Y-102108000D01*
X145923000Y-102108000D02*
X145669000Y-102362000D01*
X145288000Y-101092000D02*
X145288000Y-101473000D01*
X145288000Y-101473000D02*
X145288000Y-101981000D01*
X145923000Y-101346000D02*
X145415000Y-101346000D01*
X145415000Y-101346000D02*
X145288000Y-101473000D01*
X145288000Y-101092000D02*
X145288000Y-101346000D01*
X145288000Y-101346000D02*
X145923000Y-101981000D01*
X145923000Y-101981000D02*
X145923000Y-102362000D01*
X145923000Y-102362000D02*
X145669000Y-102362000D01*
X145110000Y-100584000D02*
X145110000Y-100914000D01*
X145110000Y-100584000D02*
X145110000Y-101803000D01*
X145110000Y-99465000D02*
X145110000Y-100584000D01*
X145110000Y-101803000D02*
X145288000Y-101981000D01*
X145288000Y-101981000D02*
X145669000Y-102362000D01*
X145110000Y-100914000D02*
X145288000Y-101092000D01*
X130048000Y-65151000D02*
X131699000Y-65151000D01*
X131699000Y-65151000D02*
X135255020Y-61594980D01*
X135255020Y-61594980D02*
X138430000Y-61594980D01*
X152261000Y-93865000D02*
X152908000Y-93218000D01*
X152908000Y-93218000D02*
X152908000Y-92646500D01*
X152654000Y-93472000D02*
X152527000Y-93599000D01*
X152527000Y-93599000D02*
X152261000Y-93865000D01*
X153416000Y-93726000D02*
X152654000Y-93726000D01*
X152654000Y-93726000D02*
X152527000Y-93599000D01*
X153416000Y-93726000D02*
X153416000Y-92138500D01*
X153416000Y-92138500D02*
X153479500Y-92075000D01*
X152908000Y-93472000D02*
X152908000Y-92646500D01*
X152908000Y-92646500D02*
X153229501Y-92324999D01*
X153229501Y-92324999D02*
X153479500Y-92075000D01*
X153166001Y-93476001D02*
X153416000Y-93726000D01*
X153162000Y-93472000D02*
X153166001Y-93476001D01*
X152908000Y-93472000D02*
X153162000Y-93472000D01*
X152908000Y-93472000D02*
X152654000Y-93472000D01*
X152261000Y-93865000D02*
X150710000Y-93865000D01*
X152781000Y-85344000D02*
X149987000Y-85344000D01*
X137414000Y-66040000D02*
X137414000Y-67483119D01*
X137414000Y-67483119D02*
X137494881Y-67564000D01*
X137494881Y-67564000D02*
X137922000Y-67564000D01*
X137922000Y-67564000D02*
X138430000Y-67564000D01*
X137922000Y-66040000D02*
X137922000Y-67564000D01*
X136478881Y-66548000D02*
X136859881Y-66929000D01*
X136859881Y-66929000D02*
X137494881Y-67564000D01*
X139000000Y-67000000D02*
X136930881Y-67000000D01*
X136930881Y-67000000D02*
X136859881Y-66929000D01*
X135970881Y-66040000D02*
X136478881Y-66548000D01*
X139000000Y-66548000D02*
X136478881Y-66548000D01*
X135382000Y-66040000D02*
X139000000Y-66040000D01*
X135890000Y-66040000D02*
X135970881Y-66040000D01*
D34*
X148971000Y-78613000D02*
X147955000Y-78613000D01*
X152654000Y-75691992D02*
X152654000Y-75311000D01*
X148971000Y-78613000D02*
X149733000Y-78613000D01*
X149733000Y-78613000D02*
X149860000Y-78486000D01*
X149860000Y-78486000D02*
X149860000Y-78485992D01*
X149860000Y-77724000D02*
X149860000Y-78132439D01*
X149860000Y-78132439D02*
X149860000Y-78485992D01*
X149987000Y-77597000D02*
X149860000Y-77724000D01*
D37*
X141859000Y-70358000D02*
X142875000Y-70358000D01*
X141190000Y-73406000D02*
X141190000Y-71027000D01*
X141190000Y-71027000D02*
X141859000Y-70358000D01*
D33*
X157000000Y-68834000D02*
X157353000Y-68834000D01*
X157353000Y-68834000D02*
X157861000Y-68326000D01*
X156464000Y-68326000D02*
X156492000Y-68326000D01*
X156492000Y-68326000D02*
X157000000Y-68834000D01*
X155448000Y-68834000D02*
X155956000Y-68326000D01*
X152471801Y-68834000D02*
X155448000Y-68834000D01*
D34*
X152654000Y-75057000D02*
X152654000Y-74422000D01*
X152654000Y-74422000D02*
X152654000Y-75311000D01*
X152654000Y-75311000D02*
X152273000Y-75692000D01*
X149987000Y-77597000D02*
X148971000Y-78613000D01*
X150368000Y-77216000D02*
X151765000Y-75819000D01*
X151003000Y-76581000D02*
X149987000Y-77597000D01*
D33*
X152613758Y-72136000D02*
X154432000Y-72136000D01*
X154432000Y-72136000D02*
X154535190Y-72239190D01*
X154535190Y-72239190D02*
X154535190Y-74168000D01*
X154535190Y-74168000D02*
X154408190Y-74168000D01*
X154241500Y-74168000D02*
X154535190Y-74168000D01*
D37*
X143923000Y-73277000D02*
X145161000Y-73277000D01*
X145161000Y-73277000D02*
X146723000Y-73277000D01*
X145323000Y-74677000D02*
X145323000Y-73404208D01*
X145323000Y-73404208D02*
X145195792Y-73277000D01*
X145195792Y-73277000D02*
X145161000Y-73277000D01*
X143923000Y-76077000D02*
X145542000Y-76077000D01*
X145542000Y-76077000D02*
X146723000Y-76077000D01*
X145323000Y-75949792D02*
X145450208Y-76077000D01*
X145323000Y-74677000D02*
X145323000Y-75949792D01*
X145450208Y-76077000D02*
X145542000Y-76077000D01*
X146723000Y-76077000D02*
X146723000Y-74803000D01*
X146723000Y-74803000D02*
X146723000Y-73277000D01*
X145323000Y-74677000D02*
X146597000Y-74677000D01*
X146597000Y-74677000D02*
X146723000Y-74803000D01*
X143923000Y-73277000D02*
X143923000Y-74676000D01*
X143923000Y-74676000D02*
X143923000Y-76077000D01*
X145323000Y-74677000D02*
X144050208Y-74677000D01*
X144050208Y-74677000D02*
X144049208Y-74676000D01*
X144049208Y-74676000D02*
X143923000Y-74676000D01*
X141190000Y-75806000D02*
X143652000Y-75806000D01*
X143652000Y-75806000D02*
X143923000Y-76077000D01*
X141190000Y-73406000D02*
X143794000Y-73406000D01*
X143794000Y-73406000D02*
X143923000Y-73277000D01*
D34*
X141190000Y-75806000D02*
X141986000Y-76602000D01*
X141986000Y-76602000D02*
X141986000Y-77470000D01*
D33*
X151003000Y-72136000D02*
X152613758Y-72136000D01*
X151003000Y-72559814D02*
X151003000Y-72136000D01*
X153289000Y-74168000D02*
X152908000Y-74168000D01*
X152908000Y-74168000D02*
X152654000Y-74422000D01*
X154241500Y-74168000D02*
X153289000Y-74168000D01*
X152654000Y-74422000D02*
X152654000Y-72176242D01*
X152654000Y-72176242D02*
X152613758Y-72136000D01*
D34*
X152654000Y-74422000D02*
X152654000Y-73279000D01*
X152654000Y-73279000D02*
X152654000Y-72644000D01*
D33*
X152613758Y-72136000D02*
X152613758Y-73238758D01*
X152613758Y-73238758D02*
X152654000Y-73279000D01*
X152613758Y-72136000D02*
X151426814Y-72136000D01*
X151426814Y-72136000D02*
X151003000Y-72559814D01*
X154432000Y-68326000D02*
X153924000Y-68326000D01*
X154940000Y-68326000D02*
X154432000Y-68326000D01*
X155448000Y-68326000D02*
X154940000Y-68326000D01*
X155956000Y-68326000D02*
X155448000Y-68326000D01*
X156464000Y-68326000D02*
X155956000Y-68326000D01*
X157861000Y-68326000D02*
X156464000Y-68326000D01*
X133604000Y-66774553D02*
X133604000Y-66421000D01*
X134874000Y-66040000D02*
X134366000Y-66040000D01*
X135890000Y-66040000D02*
X135382000Y-66040000D01*
X136906000Y-66040000D02*
X136398000Y-66040000D01*
X137922000Y-66040000D02*
X137414000Y-66040000D01*
X148819000Y-67000000D02*
X149637000Y-67818000D01*
X149637000Y-67818000D02*
X149027000Y-67818000D01*
X149027000Y-67818000D02*
X148209000Y-67000000D01*
X148209000Y-67000000D02*
X148103553Y-67000000D01*
X148103553Y-67000000D02*
X147750000Y-67000000D01*
X149637000Y-67818000D02*
X150749000Y-67818000D01*
D34*
X152654000Y-72644000D02*
X152569814Y-72559814D01*
X152569814Y-72559814D02*
X151511000Y-72559814D01*
D36*
X152273000Y-73025000D02*
X152273000Y-74549000D01*
X152273000Y-74549000D02*
X151384000Y-75438000D01*
D33*
X150749000Y-67818000D02*
X159385000Y-67818000D01*
X142146447Y-67000000D02*
X142500000Y-67000000D01*
X141788000Y-67000000D02*
X142146447Y-67000000D01*
X141224000Y-67564000D02*
X141788000Y-67000000D01*
X149352000Y-67056000D02*
X149733000Y-67437000D01*
X149733000Y-67437000D02*
X159131000Y-67437000D01*
X157861000Y-68326000D02*
X157861000Y-67818000D01*
X159385000Y-68326004D02*
X157861004Y-68326004D01*
X157861004Y-68326004D02*
X157861000Y-68326000D01*
X139000000Y-64897000D02*
X139000000Y-65532000D01*
X138430000Y-61594980D02*
X138430000Y-64262000D01*
X138430000Y-61594980D02*
X138684000Y-61594980D01*
X138684000Y-61594980D02*
X139000000Y-61594980D01*
X138684000Y-66802000D02*
X138684000Y-61848980D01*
X138684000Y-61848980D02*
X138684000Y-61594980D01*
X138430000Y-67056000D02*
X138684000Y-66802000D01*
X138430000Y-67564000D02*
X138430000Y-64262000D01*
X141478000Y-67310000D02*
X141788000Y-67000000D01*
X138684000Y-67310000D02*
X138430000Y-67056000D01*
X141224000Y-67564000D02*
X141478000Y-67310000D01*
X141478000Y-67310000D02*
X138684000Y-67310000D01*
X141788000Y-67000000D02*
X142000000Y-67000000D01*
X141224000Y-67564000D02*
X138430000Y-67564000D01*
X158940500Y-67627500D02*
X159131000Y-67437000D01*
X142500000Y-67000000D02*
X142057000Y-67000000D01*
X142057000Y-67000000D02*
X141986000Y-66929000D01*
X141986000Y-66929000D02*
X142049506Y-66929000D01*
X159385000Y-68326004D02*
X159385000Y-67000000D01*
X146603553Y-67000000D02*
X146250000Y-67000000D01*
X147899000Y-67000000D02*
X146603553Y-67000000D01*
X159384996Y-68326000D02*
X159385000Y-68326004D01*
X139000000Y-67000000D02*
X158186000Y-67000000D01*
X158186000Y-67000000D02*
X159385000Y-67000000D01*
X139000000Y-67000000D02*
X139261500Y-66738500D01*
X139261500Y-66738500D02*
X159385000Y-66738500D01*
X159385000Y-66738500D02*
X159385000Y-67000000D01*
X139000000Y-61594980D02*
X139000000Y-67000000D01*
X146250000Y-67000000D02*
X145500000Y-67000000D01*
X134240000Y-69606000D02*
X134240000Y-68581000D01*
X130590000Y-71356000D02*
X130590000Y-69689000D01*
X130590000Y-69689000D02*
X131699000Y-68580000D01*
D37*
X141190000Y-75806000D02*
X141190000Y-73406000D01*
X143923000Y-76077000D02*
X141461000Y-76077000D01*
X141461000Y-76077000D02*
X141190000Y-75806000D01*
X143923000Y-73277000D02*
X141319000Y-73277000D01*
X141319000Y-73277000D02*
X141190000Y-73406000D01*
D31*
X130590000Y-71356000D02*
X130828000Y-71356000D01*
D37*
X130590000Y-75806000D02*
X130590000Y-71356000D01*
D34*
X151003000Y-75692000D02*
X151892000Y-75692000D01*
X151003000Y-76581000D02*
X151892000Y-75692000D01*
X151003000Y-75692000D02*
X151003000Y-76581000D01*
X151003000Y-72559814D02*
X151003000Y-75692000D01*
X151003000Y-72559814D02*
X151511000Y-72559814D01*
X151511000Y-72559814D02*
X151384000Y-72686814D01*
X151384000Y-72686814D02*
X151384000Y-75438000D01*
D33*
X132842000Y-68580000D02*
X133223000Y-68580000D01*
X133223000Y-68580000D02*
X133477000Y-68580000D01*
X133223000Y-67310000D02*
X133223000Y-68580000D01*
X133604000Y-68453000D02*
X133604000Y-67183000D01*
X133477000Y-67310000D02*
X133604000Y-67183000D01*
X133477000Y-68580000D02*
X133604000Y-68453000D01*
X134240000Y-68581000D02*
X134239000Y-68580000D01*
X134239000Y-68580000D02*
X133477000Y-68580000D01*
X131699000Y-101346000D02*
X131699000Y-100901490D01*
X131960620Y-102892860D02*
X131848860Y-102892860D01*
X131848860Y-102892860D02*
X131699000Y-102743000D01*
X131699000Y-102743000D02*
X131699000Y-101409500D01*
X131699000Y-101409500D02*
X131699000Y-101346000D01*
D35*
X136652000Y-97282000D02*
X136751099Y-97381099D01*
X136751099Y-97381099D02*
X136751099Y-98424994D01*
D31*
X135890000Y-92075000D02*
X135017624Y-92075000D01*
X135017624Y-92075000D02*
X135017624Y-95901624D01*
X135017624Y-95901624D02*
X136398000Y-97282000D01*
X136398000Y-97282000D02*
X136652000Y-97282000D01*
D33*
X135890000Y-92075000D02*
X135132000Y-92075000D01*
X134683500Y-91626500D02*
X134683500Y-91313000D01*
X135132000Y-92075000D02*
X134683500Y-91626500D01*
X133756410Y-73660000D02*
X133756410Y-72796410D01*
X133756410Y-72796410D02*
X133731000Y-72771000D01*
X133731000Y-72771000D02*
X133604000Y-72644000D01*
X133756410Y-73660000D02*
X133756410Y-73367910D01*
X133604000Y-73215500D02*
X133604000Y-72644000D01*
X133756410Y-73367910D02*
X133604000Y-73215500D01*
X132791744Y-77212588D02*
X132790611Y-77212588D01*
X131978400Y-77212588D02*
X132207000Y-77212588D01*
X132207000Y-77212588D02*
X132791744Y-77212588D01*
D31*
X141910000Y-101016000D02*
X141693570Y-101232430D01*
X141693570Y-101232430D02*
X138062430Y-101232430D01*
X138062430Y-101232430D02*
X137687810Y-100857810D01*
X137687810Y-100857810D02*
X137682770Y-100857810D01*
D33*
X144653000Y-86487000D02*
X145110000Y-86944000D01*
X145110000Y-88265000D02*
X145110000Y-86944000D01*
D31*
X142113000Y-102083000D02*
X142113000Y-101854000D01*
X142113000Y-101854000D02*
X142113000Y-101219000D01*
X142367000Y-101473000D02*
X142367000Y-101600000D01*
X142367000Y-101600000D02*
X142113000Y-101854000D01*
D33*
X141910000Y-101016000D02*
X142113000Y-101219000D01*
X142113000Y-101219000D02*
X142367000Y-101473000D01*
D31*
X142113000Y-102997000D02*
X142113000Y-102083000D01*
X142113000Y-102083000D02*
X142723000Y-101473000D01*
X142723000Y-101473000D02*
X142748000Y-101473000D01*
X142240000Y-103124000D02*
X142113000Y-102997000D01*
D33*
X142367000Y-101473000D02*
X142748000Y-101473000D01*
X141910000Y-99465000D02*
X141910000Y-101016000D01*
D31*
X150710000Y-94665000D02*
X152731000Y-94665000D01*
X152731000Y-94665000D02*
X152908000Y-94488000D01*
D33*
X135382000Y-66929000D02*
X134874000Y-66929000D01*
X135890000Y-66929000D02*
X135382000Y-66929000D01*
D34*
X149983001Y-72563801D02*
X149983001Y-76203999D01*
X149983001Y-76203999D02*
X149860000Y-76327000D01*
X148534801Y-77652199D02*
X149860000Y-76327000D01*
X149860000Y-76327000D02*
X149860000Y-74676008D01*
X149860000Y-74676008D02*
X149859992Y-74676000D01*
X149859992Y-74676000D02*
X149859992Y-72686810D01*
X149859992Y-72686810D02*
X149983001Y-72563801D01*
X149779801Y-72563801D02*
X148844000Y-71628000D01*
D33*
X141859000Y-67944992D02*
X142112992Y-67691000D01*
X142112992Y-67691000D02*
X147828000Y-67691000D01*
X147828000Y-67691000D02*
X148640811Y-68503811D01*
X148640811Y-68503811D02*
X150164811Y-68503811D01*
X150164811Y-68503811D02*
X150499001Y-68838001D01*
X150499001Y-68838001D02*
X150749000Y-69088000D01*
D34*
X149983001Y-72563801D02*
X149779801Y-72563801D01*
X148844000Y-71628000D02*
X148463000Y-71628000D01*
D33*
X151257000Y-69088000D02*
X151765000Y-69088000D01*
X150749000Y-69088000D02*
X151257000Y-69088000D01*
X137210811Y-68249811D02*
X136139999Y-67178999D01*
X136139999Y-67178999D02*
X135890000Y-66929000D01*
X141554181Y-68249811D02*
X137210811Y-68249811D01*
X141859000Y-67944992D02*
X141554181Y-68249811D01*
D34*
X147955000Y-71628000D02*
X148463000Y-71628000D01*
X147601447Y-71628000D02*
X147955000Y-71628000D01*
X146685000Y-71120000D02*
X147193000Y-71628000D01*
X147193000Y-71628000D02*
X147601447Y-71628000D01*
D33*
X146558000Y-70993000D02*
X146685000Y-71120000D01*
D31*
X148463000Y-77724000D02*
X148534801Y-77652199D01*
X134967641Y-76631663D02*
X134967641Y-71187720D01*
X134967641Y-71187720D02*
X135162361Y-70993000D01*
X135162361Y-70993000D02*
X135162361Y-69815639D01*
X135162361Y-69815639D02*
X135255000Y-69723000D01*
X135255000Y-69723000D02*
X135255000Y-70442000D01*
X135255000Y-70442000D02*
X135340000Y-70527000D01*
X135340000Y-70527000D02*
X135509000Y-70358000D01*
X135509000Y-70358000D02*
X135509000Y-70646361D01*
X135509000Y-70646361D02*
X135162361Y-70993000D01*
D33*
X135340000Y-69606000D02*
X135340000Y-70358000D01*
X135340000Y-70358000D02*
X135340000Y-70527000D01*
D31*
X133140000Y-69606000D02*
X133140000Y-69894000D01*
X133140000Y-69894000D02*
X134615231Y-71369231D01*
X134615231Y-71369231D02*
X134615231Y-76449768D01*
D33*
X136017000Y-92964000D02*
X136906000Y-92964000D01*
X136906000Y-92075000D02*
X136906000Y-92964000D01*
X139510000Y-93865000D02*
X138303000Y-93865000D01*
X138303000Y-93865000D02*
X138037000Y-93865000D01*
X137922000Y-94266242D02*
X137922000Y-94246000D01*
X137922000Y-94246000D02*
X138303000Y-93865000D01*
X136652000Y-95250000D02*
X136938242Y-95250000D01*
X136938242Y-95250000D02*
X137922000Y-94266242D01*
X137922000Y-94266242D02*
X137922000Y-93980000D01*
X138037000Y-93865000D02*
X137922000Y-93980000D01*
X144272000Y-101092000D02*
X144272000Y-101981000D01*
X144272000Y-101981000D02*
X143891000Y-102362000D01*
X144310000Y-99465000D02*
X144310000Y-101054000D01*
X144310000Y-101054000D02*
X144272000Y-101092000D01*
X147574000Y-84582000D02*
X148463000Y-84582000D01*
X148463000Y-84582000D02*
X148971000Y-84582000D01*
X148463000Y-85471000D02*
X148463000Y-84582000D01*
X148971000Y-84582000D02*
X148971000Y-82329020D01*
X148971000Y-82329020D02*
X148937980Y-82296000D01*
X154178000Y-88773000D02*
X154178000Y-87274000D01*
X154178000Y-87274000D02*
X154457000Y-86995000D01*
X154178000Y-88773000D02*
X153289000Y-88773000D01*
X153289000Y-89789000D02*
X153289000Y-88773000D01*
D31*
X136790000Y-70222633D02*
X136790000Y-69606000D01*
X134747000Y-77978000D02*
X135320052Y-77404948D01*
X135320052Y-71692581D02*
X136790000Y-70222633D01*
X135320052Y-77404948D02*
X135320052Y-71692581D01*
D33*
X134747000Y-77978000D02*
X134747000Y-78994000D01*
D37*
X134747000Y-78994000D02*
X134747000Y-81026000D01*
D33*
X143891000Y-80645000D02*
X145840524Y-80645000D01*
X145840524Y-80645000D02*
X146939000Y-81743476D01*
X146939000Y-81743476D02*
X146939000Y-82041990D01*
X146939000Y-82041990D02*
X146939010Y-82042000D01*
D31*
X134112000Y-99441000D02*
X134250035Y-99579035D01*
X136632068Y-100897114D02*
X136954076Y-100897114D01*
X134250035Y-99579035D02*
X135313989Y-99579035D01*
X135313989Y-99579035D02*
X136632068Y-100897114D01*
D34*
X128270000Y-69850000D02*
X129159000Y-70739000D01*
D38*
X128397000Y-68072000D02*
X129471001Y-66997999D01*
X128270000Y-68072000D02*
X128397000Y-68072000D01*
X129471001Y-66997999D02*
X129921000Y-66548000D01*
X128905000Y-66548000D02*
X129921000Y-66548000D01*
X128270000Y-67183000D02*
X128455001Y-66997999D01*
X128270000Y-68072000D02*
X128270000Y-67183000D01*
X128455001Y-66997999D02*
X128905000Y-66548000D01*
X128270000Y-69850000D02*
X128270000Y-68072000D01*
D31*
X142710000Y-88265000D02*
X142710000Y-89065000D01*
X142710000Y-89065000D02*
X141732000Y-90043000D01*
X141732000Y-90043000D02*
X141287500Y-90043000D01*
X141287500Y-90043000D02*
X140868189Y-90462311D01*
X140868189Y-90462311D02*
X140868189Y-91225554D01*
X140868189Y-91225554D02*
X141095476Y-91452841D01*
X141095476Y-91452841D02*
X141345475Y-91702840D01*
D33*
X139510000Y-93065000D02*
X138023000Y-93065000D01*
X138023000Y-93065000D02*
X137922000Y-92964000D01*
D37*
X146304000Y-106322810D02*
X145796000Y-106322810D01*
X145796000Y-106322810D02*
X144780000Y-106322810D01*
X144780000Y-106322810D02*
X143383000Y-106322810D01*
X143383000Y-106322810D02*
X141461810Y-106322810D01*
X148098190Y-106322810D02*
X146304000Y-106322810D01*
X148380000Y-106041000D02*
X148098190Y-106322810D01*
X141461810Y-106322810D02*
X141180000Y-106041000D01*
D31*
X153101920Y-98243142D02*
X153101920Y-99643838D01*
X149922597Y-104775000D02*
X148007610Y-104775000D01*
X147229801Y-105552809D02*
X145664999Y-105552809D01*
X148007610Y-104775000D02*
X147229801Y-105552809D01*
X151311629Y-103385968D02*
X149922597Y-104775000D01*
X152778842Y-97920064D02*
X153101920Y-98243142D01*
X152802544Y-101174940D02*
X151311629Y-102665854D01*
X151910000Y-95465000D02*
X152778842Y-96333842D01*
X151311629Y-102665854D02*
X151311629Y-103385968D01*
X150710000Y-95465000D02*
X151910000Y-95465000D01*
X152802544Y-99943214D02*
X152802544Y-101174940D01*
X153101920Y-99643838D02*
X152802544Y-99943214D01*
X145664999Y-105552809D02*
X145415000Y-105302810D01*
X152778842Y-96333842D02*
X152778842Y-97920064D01*
X154950920Y-100319080D02*
X154564598Y-100705402D01*
X154789146Y-89354872D02*
X155067000Y-89632726D01*
X153127415Y-104967124D02*
X153127414Y-106032294D01*
X154950920Y-90823018D02*
X154950920Y-100319080D01*
X132461000Y-107081913D02*
X131551087Y-106172000D01*
X155067000Y-89632726D02*
X155067000Y-90706938D01*
X132857801Y-108727801D02*
X132461000Y-108331000D01*
X131551087Y-106172000D02*
X129032000Y-106172000D01*
X154564598Y-100705402D02*
X154564598Y-103529941D01*
X137398199Y-108727801D02*
X132857801Y-108727801D01*
X154564598Y-103529941D02*
X153127415Y-104967124D01*
X153127414Y-106032294D02*
X150807465Y-108352243D01*
X155067000Y-90706938D02*
X154950920Y-90823018D01*
X132461000Y-108331000D02*
X132461000Y-107081913D01*
X137773757Y-108352243D02*
X137398199Y-108727801D01*
X150807465Y-108352243D02*
X137773757Y-108352243D01*
D32*
X140999396Y-89124604D02*
X135858095Y-89124604D01*
X141110000Y-88265000D02*
X141110000Y-89014000D01*
X135756497Y-89023006D02*
X135506498Y-88773007D01*
X135506498Y-88773007D02*
X135506498Y-86805253D01*
X135506498Y-86805253D02*
X134996999Y-86295754D01*
X135858095Y-89124604D02*
X135756497Y-89023006D01*
X141110000Y-89014000D02*
X140999396Y-89124604D01*
X134996999Y-86295754D02*
X134747000Y-86045755D01*
X140677813Y-89433313D02*
X135654015Y-89433313D01*
X135654015Y-89433313D02*
X135586135Y-89365433D01*
X141910000Y-88265000D02*
X141910000Y-89065000D01*
X141910000Y-89065000D02*
X141313000Y-89662000D01*
X135586135Y-89365433D02*
X135232582Y-89365433D01*
X140906500Y-89662000D02*
X140677813Y-89433313D01*
X141313000Y-89662000D02*
X140906500Y-89662000D01*
D31*
X144093917Y-86753417D02*
X144093917Y-86848917D01*
X144310000Y-87065000D02*
X144310000Y-88265000D01*
X143637000Y-80010000D02*
X143354412Y-80292588D01*
X143354412Y-80292588D02*
X143354412Y-81226798D01*
X147251975Y-79062034D02*
X146304009Y-80010000D01*
X143354412Y-81226798D02*
X143654381Y-81526767D01*
X146304009Y-80010000D02*
X143637000Y-80010000D01*
X143654381Y-86313881D02*
X144093917Y-86753417D01*
X143654381Y-81526767D02*
X143654381Y-86313881D01*
X144093917Y-86848917D02*
X144310000Y-87065000D01*
D32*
X130555945Y-87950686D02*
X130359887Y-87754628D01*
X130555945Y-96389280D02*
X130555945Y-87950686D01*
X131698998Y-98186414D02*
X130818259Y-97305675D01*
X130359887Y-85905575D02*
X130522964Y-85742498D01*
X130818259Y-97305675D02*
X130818259Y-96651593D01*
X130818259Y-96651593D02*
X130555945Y-96389280D01*
X130359887Y-87754628D02*
X130359887Y-85905575D01*
D31*
X153859778Y-100413454D02*
X153859778Y-103237993D01*
X140635767Y-107596621D02*
X134512148Y-101473002D01*
X154246098Y-100027134D02*
X153859778Y-100413454D01*
X153746885Y-91543189D02*
X154246098Y-92042402D01*
X150566319Y-107596621D02*
X140635767Y-107596621D01*
X133032502Y-101473002D02*
X131698998Y-100139498D01*
X153031811Y-91543189D02*
X153746885Y-91543189D01*
X154246098Y-92042402D02*
X154246098Y-100027134D01*
X151510000Y-93065000D02*
X153031811Y-91543189D01*
X152422594Y-105740346D02*
X150566319Y-107596621D01*
X131698998Y-100139498D02*
X131698998Y-98186414D01*
X153859778Y-103237993D02*
X152422595Y-104675176D01*
X134512148Y-101473002D02*
X133032502Y-101473002D01*
X152422595Y-104675176D02*
X152422594Y-105740346D01*
X150710000Y-93065000D02*
X151510000Y-93065000D01*
X155655742Y-103678268D02*
X154554999Y-104779011D01*
X154554999Y-104779011D02*
X154305000Y-105029010D01*
X156122620Y-90846919D02*
X155655742Y-91313797D01*
X155655742Y-91313797D02*
X155655742Y-103678268D01*
X156122620Y-90299137D02*
X156122620Y-90846919D01*
X150015972Y-100809028D02*
X150241000Y-100584000D01*
X150241000Y-100584000D02*
X150739092Y-100584000D01*
X149352000Y-103131637D02*
X149352000Y-103485190D01*
X148310000Y-99465000D02*
X148310000Y-100265000D01*
X151119208Y-100964116D02*
X151119208Y-101363123D01*
X148310000Y-100265000D02*
X148854028Y-100809028D01*
X148854028Y-100809028D02*
X150015972Y-100809028D01*
X150739092Y-100584000D02*
X151119208Y-100964116D01*
X149352000Y-103130331D02*
X149352000Y-103131637D01*
X151119208Y-101363123D02*
X149352000Y-103130331D01*
X140081000Y-80580506D02*
X140081000Y-77036395D01*
X140081000Y-77036395D02*
X139001500Y-75956895D01*
X139001500Y-74168000D02*
X139445999Y-73723501D01*
X139445999Y-72498557D02*
X140075402Y-71869154D01*
X141892330Y-82391836D02*
X140081000Y-80580506D01*
X140698587Y-86458586D02*
X141892330Y-85264843D01*
X140698587Y-86741000D02*
X140698587Y-86458586D01*
X139001500Y-75956895D02*
X139001500Y-74168000D01*
X140075402Y-71869154D02*
X140075402Y-71030956D01*
X141892330Y-85264843D02*
X141892330Y-82391836D01*
X139445999Y-73723501D02*
X139445999Y-72498557D01*
X140075402Y-71030956D02*
X140037446Y-70993000D01*
D32*
X134689012Y-92357560D02*
X134112000Y-91780548D01*
X135509000Y-96984726D02*
X134689014Y-96164740D01*
X134112000Y-91780548D02*
X134112000Y-90904553D01*
X134112000Y-90904553D02*
X134112000Y-90551000D01*
X134689014Y-96164740D02*
X134689012Y-92357560D01*
X135509000Y-97409000D02*
X135509000Y-96984726D01*
D31*
X150368000Y-82296000D02*
X151257000Y-82296000D01*
X155066999Y-75867089D02*
X154734088Y-76200000D01*
X142401726Y-72085712D02*
X144713194Y-72085712D01*
X146963276Y-70461190D02*
X147471275Y-70969189D01*
X156008153Y-104087841D02*
X154554993Y-105541001D01*
X149116885Y-70969189D02*
X149751880Y-71604188D01*
X154662189Y-71604189D02*
X155067000Y-72009000D01*
X155067000Y-72009000D02*
X155066999Y-75867089D01*
X150114000Y-80899000D02*
X150114000Y-82042000D01*
X150114000Y-82042000D02*
X150368000Y-82296000D01*
X151257000Y-82296000D02*
X153924000Y-84963000D01*
X153924000Y-84963000D02*
X155554086Y-84963000D01*
X156008153Y-91495691D02*
X156008153Y-104087841D01*
X154554993Y-105541001D02*
X154304994Y-105791000D01*
X155554086Y-84963000D02*
X155962378Y-85371292D01*
X153157475Y-76200000D02*
X151130000Y-78227475D01*
X155962378Y-89382686D02*
X156718000Y-90138306D01*
X146337716Y-70461190D02*
X146963276Y-70461190D01*
X156718000Y-90138306D02*
X156718000Y-90785844D01*
X151130000Y-79883000D02*
X150114000Y-80899000D01*
X154734088Y-76200000D02*
X153157475Y-76200000D01*
X151130000Y-78227475D02*
X151130000Y-79883000D01*
X155962378Y-85371292D02*
X155962378Y-89382686D01*
X149751880Y-71604188D02*
X154662189Y-71604189D01*
X144713194Y-72085712D02*
X146337716Y-70461190D01*
X156718000Y-90785844D02*
X156008153Y-91495691D01*
X147471275Y-70969189D02*
X149116885Y-70969189D01*
X139323001Y-71750999D02*
X139573000Y-71501000D01*
X141539920Y-82537810D02*
X139699999Y-80697889D01*
X138121567Y-87349260D02*
X141539920Y-83930907D01*
X139068189Y-72005811D02*
X139323001Y-71750999D01*
X137871568Y-87667491D02*
X138121567Y-87417492D01*
X141539920Y-83930907D02*
X141539920Y-82537810D01*
X138586549Y-74074950D02*
X139068189Y-73593312D01*
X139068189Y-73593312D02*
X139068189Y-72005811D01*
X139699999Y-77189697D02*
X138586549Y-76076248D01*
X138121567Y-87417492D02*
X138121567Y-87349260D01*
X139699999Y-80697889D02*
X139699999Y-77189697D01*
X138586549Y-76076248D02*
X138586549Y-74074950D01*
D32*
X130665545Y-86846426D02*
X130853347Y-86658624D01*
X131123070Y-97076179D02*
X131123070Y-96525338D01*
X130860756Y-87824430D02*
X130665545Y-87629219D01*
X130853347Y-86658624D02*
X130853347Y-86305071D01*
X130665545Y-87629219D02*
X130665545Y-86846426D01*
X132079998Y-98033107D02*
X131123070Y-97076179D01*
X131123070Y-96525338D02*
X130860756Y-96263024D01*
X130860756Y-96263024D02*
X130860756Y-87824430D01*
D31*
X152918417Y-103245562D02*
X152918417Y-102892009D01*
X133153075Y-101095191D02*
X134668642Y-101095191D01*
X134668642Y-101095191D02*
X140792261Y-107218810D01*
X150445746Y-107218810D02*
X152070184Y-105594372D01*
X152070184Y-105594372D02*
X152070184Y-104467824D01*
X132079998Y-98033107D02*
X132079998Y-100022114D01*
X152070184Y-104467824D02*
X152918417Y-103619591D01*
X152918417Y-103619591D02*
X152918417Y-103245562D01*
X132079998Y-100022114D02*
X133153075Y-101095191D01*
X140792261Y-107218810D02*
X150445746Y-107218810D01*
X156360564Y-92388368D02*
X156574379Y-92174553D01*
X157861000Y-107061000D02*
X156360564Y-105560564D01*
X156360564Y-105560564D02*
X156360564Y-92388368D01*
X156574379Y-92174553D02*
X156574379Y-91821000D01*
D32*
X134493000Y-85471000D02*
X135128000Y-85471000D01*
X132783086Y-81318499D02*
X132783086Y-82234747D01*
X132783086Y-82234747D02*
X133219877Y-82671538D01*
X133219877Y-82671538D02*
X133219877Y-83752821D01*
X133219877Y-83752821D02*
X134112000Y-84644944D01*
X134112000Y-84644944D02*
X134112000Y-85090000D01*
X134112000Y-85090000D02*
X134493000Y-85471000D01*
X135128000Y-85471000D02*
X135890000Y-86233000D01*
X135890000Y-88265000D02*
X136436111Y-88811111D01*
X135890000Y-86233000D02*
X135890000Y-88265000D01*
X140212001Y-88768999D02*
X140462000Y-88519000D01*
X140169889Y-88811111D02*
X140212001Y-88768999D01*
X136436111Y-88811111D02*
X140169889Y-88811111D01*
D31*
X156743417Y-94459622D02*
X156869486Y-94333553D01*
X156869486Y-94333553D02*
X156869486Y-93980000D01*
X135715743Y-67816987D02*
X136680378Y-68781622D01*
X135362190Y-67816987D02*
X135715743Y-67816987D01*
X136680378Y-68781622D02*
X141885073Y-68781622D01*
X141885073Y-68781622D02*
X142244559Y-68422136D01*
X142244559Y-68422136D02*
X143152687Y-68422136D01*
X143152687Y-68422136D02*
X143506240Y-68422136D01*
D37*
X157861000Y-104521000D02*
X158750000Y-105410000D01*
D31*
X156743417Y-103403417D02*
X156743417Y-94459622D01*
X157861000Y-104521000D02*
X156743417Y-103403417D01*
D35*
X137949447Y-84582000D02*
X138303000Y-84582000D01*
X137795000Y-84582000D02*
X138303000Y-84582000D01*
X137922000Y-84609447D02*
X137949447Y-84582000D01*
D31*
X140589000Y-70104000D02*
X140329403Y-70363597D01*
X140329403Y-70363597D02*
X139715693Y-70363597D01*
X139715693Y-70363597D02*
X138915599Y-71163691D01*
X137075308Y-73790926D02*
X136925309Y-73940925D01*
X136925309Y-73940925D02*
X136925309Y-74294478D01*
X137986161Y-71163691D02*
X137075308Y-72074544D01*
X137075308Y-72074544D02*
X137075308Y-73790926D01*
X138915599Y-71163691D02*
X137986161Y-71163691D01*
D32*
X130044362Y-85972228D02*
X130044362Y-85512768D01*
X130047277Y-85975143D02*
X130044362Y-85972228D01*
X130302000Y-85255130D02*
X130302000Y-84681553D01*
X130044362Y-85512768D02*
X130302000Y-85255130D01*
X130302000Y-84681553D02*
X130302000Y-84328000D01*
X130251134Y-96515536D02*
X130251134Y-88161201D01*
X130513448Y-96777850D02*
X130251134Y-96515536D01*
X130513448Y-97499248D02*
X130513448Y-96777850D01*
X130251134Y-88161201D02*
X130047277Y-87957344D01*
X131278677Y-98264477D02*
X130513448Y-97499248D01*
X130047277Y-87957344D02*
X130047277Y-85975143D01*
D31*
X154598509Y-91860508D02*
X154598509Y-100173107D01*
X152775004Y-105886320D02*
X150686892Y-107974432D01*
X131278677Y-99924823D02*
X131278677Y-98264477D01*
X140511832Y-107974432D02*
X139241211Y-106703811D01*
X139241211Y-106703811D02*
X133151507Y-106703811D01*
X152609622Y-91165378D02*
X153903379Y-91165378D01*
X152775005Y-104821150D02*
X152775004Y-105886320D01*
X150710000Y-92265000D02*
X151510000Y-92265000D01*
X150686892Y-107974432D02*
X140511832Y-107974432D01*
X154212188Y-100559428D02*
X154212188Y-103383967D01*
X132558506Y-106110810D02*
X132558506Y-104491506D01*
X132558506Y-104491506D02*
X132059379Y-103992379D01*
X153903379Y-91165378D02*
X154598509Y-91860508D01*
X131000500Y-103695500D02*
X131000500Y-100203000D01*
X132059379Y-103992379D02*
X131297379Y-103992379D01*
X131000500Y-100203000D02*
X131278677Y-99924823D01*
X154598509Y-100173107D02*
X154212188Y-100559428D01*
X133151507Y-106703811D02*
X132558506Y-106110810D01*
X154212188Y-103383967D02*
X152775005Y-104821150D01*
X131297379Y-103992379D02*
X131000500Y-103695500D01*
X151510000Y-92265000D02*
X152609622Y-91165378D01*
X139382500Y-74485500D02*
X139382500Y-75792695D01*
X140012184Y-73855816D02*
X139382500Y-74485500D01*
X142244740Y-85493707D02*
X141351000Y-86387447D01*
X140458811Y-80459933D02*
X142244740Y-82245862D01*
X141351000Y-86387447D02*
X141351000Y-86741000D01*
X140458811Y-76869006D02*
X140458811Y-80459933D01*
X140012184Y-72644000D02*
X140012184Y-73855816D01*
X139382500Y-75792695D02*
X140458811Y-76869006D01*
X142244740Y-82245862D02*
X142244740Y-85493707D01*
D32*
X137904677Y-86802187D02*
X138176531Y-86802187D01*
X138176531Y-86802187D02*
X141211309Y-83767409D01*
X141211309Y-83767409D02*
X141211309Y-82707583D01*
X137654678Y-87052186D02*
X137904677Y-86802187D01*
X141211309Y-82707583D02*
X141171610Y-82667884D01*
D31*
X138208738Y-73918456D02*
X138208738Y-76232742D01*
X139322188Y-77346191D02*
X139322188Y-80818462D01*
X138208738Y-76232742D02*
X139322188Y-77346191D01*
X138690378Y-72142370D02*
X138690378Y-73436818D01*
X139322188Y-80818462D02*
X141171610Y-82667884D01*
X138690378Y-73436818D02*
X138208738Y-73918456D01*
X138239500Y-71691492D02*
X138690378Y-72142370D01*
D32*
X131470377Y-87612940D02*
X131470377Y-87259387D01*
X132841997Y-97890131D02*
X131732692Y-96780825D01*
X131732692Y-96272825D02*
X131470377Y-96010510D01*
X131470377Y-96010510D02*
X131470377Y-87612940D01*
X132841997Y-99743085D02*
X132841997Y-97890131D01*
X131732692Y-96780825D02*
X131732692Y-96272825D01*
D31*
X150377181Y-102603534D02*
X150377181Y-103316211D01*
X147701000Y-104013000D02*
X146939000Y-104775000D01*
X146079494Y-104397189D02*
X144115506Y-104397190D01*
X149680392Y-104013000D02*
X147701000Y-104013000D01*
X143483698Y-105029000D02*
X142266304Y-105029000D01*
X151512589Y-101468126D02*
X150377181Y-102603534D01*
X141628115Y-104390811D02*
X139057156Y-104390811D01*
X151003000Y-100349389D02*
X151512589Y-100858978D01*
X133433569Y-100334657D02*
X132841997Y-99743085D01*
X146939000Y-104775000D02*
X146457304Y-104775000D01*
X151003000Y-99995836D02*
X151003000Y-100349389D01*
X142266304Y-105029000D02*
X141628115Y-104390811D01*
X146457304Y-104775000D02*
X146079494Y-104397189D01*
X144115506Y-104397190D02*
X143483698Y-105029000D01*
X150377181Y-103316211D02*
X149680392Y-104013000D01*
X151512589Y-100858978D02*
X151512589Y-101468126D01*
X139057156Y-104390811D02*
X135001002Y-100334657D01*
X135001002Y-100334657D02*
X133433569Y-100334657D01*
D32*
X138141200Y-86406451D02*
X137915132Y-86406451D01*
X140906498Y-83641153D02*
X138141200Y-86406451D01*
X138944377Y-80892623D02*
X138944377Y-80905377D01*
X137915132Y-86406451D02*
X137561579Y-86406451D01*
X138944377Y-80905377D02*
X140906498Y-82867498D01*
X140906498Y-82867498D02*
X140906498Y-83641153D01*
D31*
X137830928Y-73761964D02*
X137830928Y-76389236D01*
X138312567Y-73280325D02*
X137830928Y-73761964D01*
X138312567Y-72888960D02*
X138312567Y-73280325D01*
X137733417Y-72309810D02*
X138312567Y-72888960D01*
X137830928Y-76389236D02*
X138944377Y-77502685D01*
X138944377Y-77502685D02*
X138944377Y-80892623D01*
D32*
X131165567Y-96136768D02*
X131165567Y-87698174D01*
X130970356Y-87068886D02*
X131181084Y-86858158D01*
X131427881Y-96907081D02*
X131427881Y-96399081D01*
X132457809Y-97937010D02*
X131427881Y-96907081D01*
X131427881Y-96399081D02*
X131165567Y-96136768D01*
X130970356Y-87502963D02*
X130970356Y-87068886D01*
X132457809Y-99893201D02*
X132457809Y-97937010D01*
X131181084Y-86858158D02*
X131431083Y-86608159D01*
X131165567Y-87698174D02*
X130970356Y-87502963D01*
D31*
X146300808Y-105152810D02*
X147095494Y-105152811D01*
X149808402Y-104390811D02*
X150729592Y-103469621D01*
X132457809Y-99893201D02*
X133281988Y-100717380D01*
X152450133Y-99185388D02*
X152599510Y-99036011D01*
X147857494Y-104390811D02*
X149808402Y-104390811D01*
X141478000Y-104775000D02*
X142109810Y-105406811D01*
X147095494Y-105152811D02*
X147857494Y-104390811D01*
X145923000Y-104775000D02*
X146300808Y-105152810D01*
X143640192Y-105406811D02*
X144272002Y-104775000D01*
X150729592Y-102749507D02*
X152450133Y-101028966D01*
X152450133Y-101028966D02*
X152450133Y-99185388D01*
X144272002Y-104775000D02*
X145923000Y-104775000D01*
X142109810Y-105406811D02*
X143640192Y-105406811D01*
X134849420Y-100717380D02*
X138907040Y-104775000D01*
X138907040Y-104775000D02*
X141478000Y-104775000D01*
X133281988Y-100717380D02*
X134849420Y-100717380D01*
X150729592Y-103469621D02*
X150729592Y-102749507D01*
X152599510Y-99036011D02*
X152599510Y-98682458D01*
X152599510Y-98328905D02*
X152599510Y-98682458D01*
X152135605Y-97865000D02*
X152599510Y-98328905D01*
X150710000Y-97865000D02*
X152135605Y-97865000D01*
X136397508Y-76082057D02*
X138175999Y-77860548D01*
X138175999Y-77860548D02*
X138175999Y-82168999D01*
X136397508Y-73655756D02*
X136397508Y-76082057D01*
X136547498Y-73505766D02*
X136397508Y-73655756D01*
X136547498Y-73152213D02*
X136547498Y-73505766D01*
X138175999Y-82168999D02*
X138303000Y-82296000D01*
X138303000Y-82296000D02*
X138303000Y-83254000D01*
X138303000Y-83254000D02*
X137864000Y-83693000D01*
X137287000Y-77724000D02*
X137748978Y-78185978D01*
X137748978Y-78185978D02*
X137748978Y-82757978D01*
X137748978Y-82757978D02*
X137795000Y-82804000D01*
X134874000Y-82804000D02*
X135763000Y-81915000D01*
X135763000Y-81915000D02*
X135763000Y-77724000D01*
X137540000Y-70006937D02*
X135672462Y-71874475D01*
X135672462Y-76744462D02*
X135763000Y-76835000D01*
X135763000Y-76835000D02*
X135763000Y-77724000D01*
X135672462Y-71874475D02*
X135672462Y-76744462D01*
X137540000Y-69606000D02*
X137540000Y-70006937D01*
D32*
X135800377Y-85712311D02*
X138404274Y-85712311D01*
X140365347Y-83751238D02*
X140365347Y-83505447D01*
X134669321Y-85166189D02*
X135254256Y-85166189D01*
X133524688Y-83626565D02*
X134416811Y-84518688D01*
X134262821Y-76303179D02*
X134262821Y-76874679D01*
X134262821Y-76874679D02*
X133268647Y-77868853D01*
X133268647Y-77868853D02*
X133268647Y-82289241D01*
X133268647Y-82289241D02*
X133524688Y-82545282D01*
X133524688Y-82545282D02*
X133524688Y-83626565D01*
X134416811Y-84913678D02*
X134669321Y-85166189D01*
X135254256Y-85166189D02*
X135800377Y-85712311D01*
X138404274Y-85712311D02*
X140365347Y-83751238D01*
X134416811Y-84518688D02*
X134416811Y-84913678D01*
D31*
X155594810Y-89789000D02*
X155594810Y-90713433D01*
X155303331Y-100629124D02*
X155067000Y-100865455D01*
X155303331Y-91004912D02*
X155303331Y-100629124D01*
X155067000Y-100865455D02*
X155067000Y-101219008D01*
X155594810Y-90713433D02*
X155303331Y-91004912D01*
D33*
X151892000Y-100491725D02*
X151898521Y-100498246D01*
X151892000Y-99695000D02*
X151892000Y-100491725D01*
D32*
X139827000Y-83858518D02*
X139827000Y-82296000D01*
X138278018Y-85407500D02*
X139827000Y-83858518D01*
X135890000Y-83693000D02*
X135890000Y-83718000D01*
X135926633Y-85407500D02*
X138278018Y-85407500D01*
X135445500Y-84162500D02*
X135445500Y-84926366D01*
X135445500Y-84926366D02*
X135926633Y-85407500D01*
X139827000Y-82296000D02*
X138557000Y-81026000D01*
X135890000Y-83718000D02*
X135445500Y-84162500D01*
D31*
X138557000Y-80899000D02*
X138557000Y-81026000D01*
X137033000Y-74969119D02*
X137453119Y-74549000D01*
X138557000Y-77649613D02*
X137033000Y-76125613D01*
X137033000Y-76125613D02*
X137033000Y-74969119D01*
X138557000Y-80899000D02*
X138557000Y-77649613D01*
X137453119Y-74549000D02*
X137453119Y-73303381D01*
X137453119Y-73303381D02*
X137731500Y-73025000D01*
X142364996Y-81234150D02*
X142364996Y-81157218D01*
X142949560Y-81818714D02*
X142364996Y-81234150D01*
X142949560Y-86134403D02*
X142949560Y-81818714D01*
X142364996Y-81157218D02*
X142114997Y-80907219D01*
X142699098Y-86384865D02*
X142949560Y-86134403D01*
X142699098Y-86738418D02*
X142699098Y-86384865D01*
X142015038Y-86383733D02*
X142015038Y-86737286D01*
X142597150Y-82099888D02*
X142597150Y-85776610D01*
X145121396Y-79155179D02*
X143094821Y-79155179D01*
X142597150Y-85776610D02*
X142015038Y-86358722D01*
X141585190Y-80664810D02*
X141585190Y-81087928D01*
X141585190Y-81087928D02*
X142597150Y-82099888D01*
X143094821Y-79155179D02*
X141585190Y-80664810D01*
X142015038Y-86358722D02*
X142015038Y-86383733D01*
X143481411Y-79657589D02*
X143002001Y-80136999D01*
X143301970Y-86687541D02*
X143351508Y-86737079D01*
X145640411Y-79657589D02*
X143481411Y-79657589D01*
X146177000Y-79121000D02*
X145640411Y-79657589D01*
X143301971Y-81672741D02*
X143301970Y-86687541D01*
X143002001Y-81372771D02*
X143301971Y-81672741D01*
X143002001Y-80136999D02*
X143002001Y-81372771D01*
X130772928Y-99932188D02*
X130772928Y-98837546D01*
X132180695Y-104748695D02*
X131802190Y-104370190D01*
X132180695Y-106267304D02*
X132180695Y-104748695D01*
X132995013Y-107081622D02*
X132180695Y-106267304D01*
X130619500Y-100085616D02*
X130772928Y-99932188D01*
X135021622Y-107081622D02*
X132995013Y-107081622D01*
X135890000Y-107950000D02*
X135021622Y-107081622D01*
X131802190Y-104370190D02*
X131103690Y-104370190D01*
X131103690Y-104370190D02*
X130619500Y-103886000D01*
X130772928Y-98837546D02*
X130772928Y-98483993D01*
X130619500Y-103886000D02*
X130619500Y-100085616D01*
X139510000Y-96265000D02*
X140336000Y-96265000D01*
X140336000Y-96265000D02*
X140716000Y-95885000D01*
X140716000Y-95885000D02*
X144498553Y-95885000D01*
X144498553Y-95885000D02*
X146177000Y-97563447D01*
X146177000Y-97563447D02*
X146177000Y-97917000D01*
X142710000Y-100699874D02*
X142754699Y-100744573D01*
X142710000Y-99465000D02*
X142710000Y-100699874D01*
X143572209Y-100289070D02*
X143572209Y-100642623D01*
X143572209Y-99527209D02*
X143572209Y-100289070D01*
X143510000Y-99465000D02*
X143572209Y-99527209D01*
X146710000Y-88265000D02*
X146710000Y-87528000D01*
X146710000Y-87528000D02*
X146558000Y-87376000D01*
X146558000Y-87376000D02*
X146558000Y-84582000D01*
D33*
X145669000Y-84582000D02*
X146558000Y-84582000D01*
X144940020Y-82296000D02*
X145669000Y-83024980D01*
X145669000Y-83024980D02*
X145669000Y-84582000D01*
X149352000Y-87249000D02*
X149733000Y-86868000D01*
X149352000Y-86487000D02*
X149733000Y-86868000D01*
X149733000Y-86868000D02*
X151232000Y-86868000D01*
X149110000Y-87491000D02*
X149352000Y-87249000D01*
X149352000Y-87249000D02*
X149352000Y-86487000D01*
X149110000Y-88265000D02*
X149110000Y-87491000D01*
X152273000Y-88773000D02*
X152273000Y-87376000D01*
X152273000Y-87376000D02*
X151892000Y-86995000D01*
D31*
X149110000Y-87364000D02*
X149110000Y-88265000D01*
X139510000Y-97865000D02*
X138938000Y-97865000D01*
X138938000Y-97865000D02*
X138938000Y-99881422D01*
X138938000Y-99881422D02*
X138870426Y-99948996D01*
D37*
X128270000Y-105410000D02*
X129032000Y-106172000D01*
D31*
X150710000Y-90665000D02*
X150965244Y-90409756D01*
X153924000Y-89662000D02*
X154231128Y-89354872D01*
X150965244Y-90409756D02*
X153657940Y-90409756D01*
X153657940Y-90409756D02*
X153924000Y-90143696D01*
X153924000Y-90143696D02*
X153924000Y-89662000D01*
X154231128Y-89354872D02*
X154789146Y-89354872D01*
X154789146Y-89354872D02*
X154842274Y-89408000D01*
X149054389Y-89809389D02*
X149054389Y-91519471D01*
X148310000Y-89065000D02*
X149054389Y-89809389D01*
X147687703Y-92886157D02*
X147437704Y-93136156D01*
X149054389Y-91519471D02*
X147687703Y-92886157D01*
X148310000Y-88265000D02*
X148310000Y-89065000D01*
X141505455Y-92329000D02*
X141859008Y-92329000D01*
X140310000Y-91465000D02*
X141174000Y-92329000D01*
X139510000Y-91465000D02*
X140310000Y-91465000D01*
X141174000Y-92329000D02*
X141505455Y-92329000D01*
X136417810Y-98952810D02*
X136099901Y-98634901D01*
X138710000Y-97065000D02*
X138176000Y-97599000D01*
X137902190Y-98952810D02*
X136417810Y-98952810D01*
X138176000Y-97599000D02*
X138176000Y-98679000D01*
X136099901Y-98634901D02*
X136099901Y-98464769D01*
X139510000Y-97065000D02*
X138710000Y-97065000D01*
X138176000Y-98679000D02*
X137902190Y-98952810D01*
X135803759Y-103511051D02*
X135255000Y-102962292D01*
X135255000Y-102962292D02*
X135255000Y-102743000D01*
X135255000Y-102743000D02*
X134362811Y-101850811D01*
X134362811Y-101850811D02*
X132565001Y-101850811D01*
X132565001Y-101850811D02*
X132441190Y-101727000D01*
D32*
X138710000Y-92265000D02*
X138357600Y-91912600D01*
X137225645Y-91061145D02*
X136666340Y-91061145D01*
X138077100Y-91912600D02*
X137225645Y-91061145D01*
X139510000Y-92265000D02*
X138710000Y-92265000D01*
X138357600Y-91912600D02*
X138077100Y-91912600D01*
X136666340Y-91061145D02*
X136312787Y-91061145D01*
D31*
X133858000Y-95491984D02*
X133735349Y-95614635D01*
X133858000Y-93853000D02*
X133858000Y-95491984D01*
D32*
X134861859Y-98592602D02*
X134523772Y-98592602D01*
X132951936Y-96248936D02*
X132951936Y-93250997D01*
X134268399Y-98337229D02*
X134268399Y-97565399D01*
X134523772Y-98592602D02*
X134268399Y-98337229D01*
X132951936Y-93250997D02*
X133115940Y-93086993D01*
X135470482Y-99201225D02*
X134861859Y-98592602D01*
X134268399Y-97565399D02*
X132951936Y-96248936D01*
X133115940Y-93086993D02*
X133365939Y-92836994D01*
D31*
X140520380Y-100854620D02*
X138476925Y-100854620D01*
X141110000Y-99465000D02*
X141110000Y-100265000D01*
X136596068Y-100326811D02*
X135470482Y-99201225D01*
X138476925Y-100854620D02*
X137949116Y-100326811D01*
X137949116Y-100326811D02*
X136596068Y-100326811D01*
X141110000Y-100265000D02*
X140520380Y-100854620D01*
X151384000Y-87695802D02*
X151279198Y-87695802D01*
X151279198Y-87695802D02*
X149432199Y-89542801D01*
X149432199Y-89542801D02*
X149432199Y-95974499D01*
X149432199Y-95974499D02*
X148862888Y-96543811D01*
X144614000Y-95465000D02*
X139510000Y-95465000D01*
X148862888Y-96543811D02*
X145692811Y-96543811D01*
X145692811Y-96543811D02*
X144614000Y-95465000D01*
X157861000Y-78359000D02*
X157734000Y-78486000D01*
X157734000Y-78486000D02*
X154432669Y-78486000D01*
X154432669Y-78486000D02*
X153923993Y-78994676D01*
D37*
X158750000Y-77470000D02*
X157861000Y-78359000D01*
D31*
X155575000Y-78105000D02*
X154046947Y-78105000D01*
X157353000Y-76327000D02*
X155575000Y-78105000D01*
X154046947Y-78105000D02*
X153201969Y-78949978D01*
X153201969Y-78949978D02*
X153201969Y-79303531D01*
D34*
X158750000Y-74930000D02*
X157353000Y-76327000D01*
D33*
X143576535Y-87729552D02*
X143576535Y-87375999D01*
X143576535Y-88198465D02*
X143576535Y-87729552D01*
X143510000Y-88265000D02*
X143576535Y-88198465D01*
D31*
X154940000Y-85979000D02*
X153506577Y-85979000D01*
D34*
X158750000Y-80010000D02*
X155161557Y-80010000D01*
X155161557Y-80010000D02*
X154802757Y-79651200D01*
D31*
X157492765Y-80010000D02*
X155161557Y-80010000D01*
D33*
X158750000Y-80010000D02*
X157492765Y-80010000D01*
D31*
X154916195Y-83434999D02*
X154662189Y-83180993D01*
X154662189Y-83180993D02*
X154412190Y-82930994D01*
X157476812Y-84748510D02*
X156163301Y-83434999D01*
X157476812Y-86356812D02*
X157476812Y-84748510D01*
X157988000Y-86868000D02*
X157476812Y-86356812D01*
X156163301Y-83434999D02*
X154916195Y-83434999D01*
X150710000Y-91465000D02*
X151510000Y-91465000D01*
X151510000Y-91465000D02*
X152187433Y-90787567D01*
X152187433Y-90787567D02*
X154195433Y-90787567D01*
X154195433Y-90787567D02*
X154535801Y-90447199D01*
X154535801Y-90447199D02*
X154535801Y-89882673D01*
D37*
X158750000Y-87630000D02*
X157988000Y-86868000D01*
D31*
X148463000Y-86487000D02*
X147510000Y-87440000D01*
X147510000Y-87440000D02*
X147510000Y-88265000D01*
D33*
X150710000Y-89865000D02*
X152197000Y-89865000D01*
X152197000Y-89865000D02*
X152273000Y-89789000D01*
D31*
X151384000Y-98679000D02*
X151892000Y-98679000D01*
X147510000Y-99465000D02*
X147510000Y-98665000D01*
X147510000Y-98665000D02*
X148131000Y-98044000D01*
X148131000Y-98044000D02*
X149283000Y-98044000D01*
X149283000Y-98044000D02*
X149918000Y-98679000D01*
X149918000Y-98679000D02*
X151384000Y-98679000D01*
X145910000Y-99465000D02*
X145641810Y-99196810D01*
X145641810Y-99196810D02*
X145641810Y-97635810D01*
X145641810Y-97635810D02*
X144272000Y-96266000D01*
X136752565Y-99949000D02*
X135509000Y-98705435D01*
X144272000Y-96266000D02*
X141605000Y-96266000D01*
X138105610Y-99949000D02*
X136752565Y-99949000D01*
X141605000Y-96266000D02*
X141351000Y-96520000D01*
X141351000Y-96520000D02*
X141351000Y-97624000D01*
X141351000Y-97624000D02*
X140462000Y-98513000D01*
X140462000Y-98513000D02*
X140462000Y-100076000D01*
X140061191Y-100476809D02*
X138633419Y-100476809D01*
X140462000Y-100076000D02*
X140061191Y-100476809D01*
X138633419Y-100476809D02*
X138105610Y-99949000D01*
X135509000Y-98705435D02*
X135509000Y-97409000D01*
D32*
X135927032Y-90664659D02*
X135677033Y-90914658D01*
X136040691Y-90551000D02*
X135927032Y-90664659D01*
X137498598Y-90665957D02*
X137145045Y-90665957D01*
X137145045Y-90665957D02*
X137030088Y-90551000D01*
X137030088Y-90551000D02*
X136040691Y-90551000D01*
D31*
X146710000Y-99465000D02*
X146710000Y-101752000D01*
X146812000Y-101500447D02*
X146812000Y-101854000D01*
X146710000Y-101752000D02*
X146812000Y-101854000D01*
X146812000Y-99617000D02*
X146812000Y-101500447D01*
X146685000Y-99490000D02*
X146812000Y-99617000D01*
X156210000Y-71501000D02*
X155829000Y-71882000D01*
X155829000Y-71882000D02*
X155829000Y-76173696D01*
X156718000Y-85058305D02*
X156718000Y-89069698D01*
X155040696Y-76962000D02*
X153464085Y-76962000D01*
X155829000Y-76173696D02*
X155040696Y-76962000D01*
X157480000Y-99060000D02*
X157861001Y-99441001D01*
X153464085Y-76962000D02*
X151892000Y-78534085D01*
X151892000Y-78534085D02*
X151892000Y-79856696D01*
X152781000Y-80745696D02*
X152781000Y-82703305D01*
X154278695Y-84201000D02*
X155860694Y-84201000D01*
X151892000Y-79856696D02*
X152781000Y-80745696D01*
X152781000Y-82703305D02*
X154278695Y-84201000D01*
X155860694Y-84201000D02*
X156718000Y-85058305D01*
X156718000Y-89069698D02*
X157480000Y-89831697D01*
X157480000Y-89831697D02*
X157480000Y-93191695D01*
X157480000Y-93191695D02*
X157861000Y-93572696D01*
X157861000Y-93572696D02*
X157861000Y-94488000D01*
X157861000Y-94488000D02*
X157480000Y-94869000D01*
X157480000Y-94869000D02*
X157480000Y-99060000D01*
X157861001Y-99441001D02*
X158115000Y-99695000D01*
D37*
X158750000Y-100330000D02*
X158115000Y-99695000D01*
D31*
X156210000Y-69342000D02*
X155836866Y-69715134D01*
X150534354Y-69715134D02*
X155836866Y-69715134D01*
X155836866Y-69715134D02*
X155836867Y-69715135D01*
X144786846Y-68372810D02*
X147620810Y-68372810D01*
X147620810Y-68372810D02*
X148283622Y-69035622D01*
X148283622Y-69035622D02*
X149854842Y-69035622D01*
X149854842Y-69035622D02*
X150534354Y-69715134D01*
X157861000Y-101981000D02*
X157099000Y-101219000D01*
X157099000Y-101219000D02*
X157099000Y-94615000D01*
X157099000Y-94615000D02*
X157480000Y-94234000D01*
X157480000Y-94234000D02*
X157480000Y-93726000D01*
X156340189Y-89226192D02*
X156340189Y-85214799D01*
X157480000Y-93726000D02*
X157102189Y-93348190D01*
X157102189Y-89988191D02*
X156340189Y-89226192D01*
X157102189Y-93348190D02*
X157102189Y-89988191D01*
X156340189Y-85214799D02*
X155707390Y-84582000D01*
X146070621Y-70083379D02*
X145912757Y-70241243D01*
X152400000Y-82856610D02*
X152400000Y-80899000D01*
X154919378Y-71226378D02*
X149908376Y-71226378D01*
X155707390Y-84582000D02*
X154125390Y-84582000D01*
X154125390Y-84582000D02*
X152400000Y-82856610D01*
X149228867Y-70546866D02*
X147583256Y-70546866D01*
X153310780Y-76581000D02*
X154887392Y-76581000D01*
X154887392Y-76581000D02*
X155448000Y-76020392D01*
X152400000Y-80899000D02*
X151511000Y-80010000D01*
X151511000Y-80010000D02*
X151511000Y-78380780D01*
X151511000Y-78380780D02*
X153310780Y-76581000D01*
X155448000Y-76020392D02*
X155448000Y-71755000D01*
X155448000Y-71755000D02*
X154919378Y-71226378D01*
X149908376Y-71226378D02*
X149228867Y-70546866D01*
X147119770Y-70083379D02*
X146070621Y-70083379D01*
X145912757Y-70241243D02*
X145771179Y-70241243D01*
X147583256Y-70546866D02*
X147119770Y-70083379D01*
X145771179Y-70241243D02*
X145417626Y-70241243D01*
D37*
X158750000Y-102870000D02*
X157861000Y-101981000D01*
X158750000Y-107950000D02*
X157861000Y-107061000D01*
D31*
X149541854Y-69791244D02*
X147896244Y-69791244D01*
X156957756Y-70470756D02*
X150221366Y-70470756D01*
X144375189Y-69707191D02*
X144125190Y-69957190D01*
X144754623Y-69327757D02*
X144375189Y-69707191D01*
X150221366Y-70470756D02*
X149541854Y-69791244D01*
X157734000Y-71247000D02*
X156957756Y-70470756D01*
X147896244Y-69791244D02*
X147432758Y-69327757D01*
X147432758Y-69327757D02*
X144754623Y-69327757D01*
D32*
X135953500Y-84582000D02*
X135953500Y-84645500D01*
X135953500Y-84645500D02*
X136398000Y-85090000D01*
X136398000Y-85090000D02*
X137312000Y-85090000D01*
X137312000Y-85090000D02*
X137795000Y-84607000D01*
X137795000Y-84607000D02*
X137795000Y-84582000D01*
D31*
X156594189Y-76551507D02*
X155421696Y-77724000D01*
X157353000Y-73787000D02*
X156594189Y-74545811D01*
X152654000Y-78840695D02*
X152654000Y-79502000D01*
X153132600Y-79980600D02*
X153296647Y-79980600D01*
X156594189Y-74545811D02*
X156594189Y-76551507D01*
X155421696Y-77724000D02*
X153770695Y-77724000D01*
X152654000Y-79502000D02*
X153132600Y-79980600D01*
X153770695Y-77724000D02*
X152654000Y-78840695D01*
D34*
X158750000Y-72390000D02*
X157353000Y-73787000D01*
D31*
X140589000Y-70104000D02*
X140589000Y-69469000D01*
X147663642Y-68949946D02*
X148127129Y-69413433D01*
X140589000Y-69469000D02*
X140843000Y-69215000D01*
X148127129Y-69413433D02*
X149698348Y-69413433D01*
X157237055Y-70092945D02*
X157480000Y-69850000D01*
X140843000Y-69215000D02*
X141986000Y-69215000D01*
X141986000Y-69215000D02*
X142251054Y-68949946D01*
X142251054Y-68949946D02*
X147663642Y-68949946D01*
X149698348Y-69413433D02*
X150377860Y-70092945D01*
X150377860Y-70092945D02*
X157237055Y-70092945D01*
D37*
X158750000Y-69850000D02*
X157480000Y-69850000D01*
D34*
X156594866Y-81156796D02*
X156241313Y-81156796D01*
X157356796Y-81156796D02*
X156594866Y-81156796D01*
X158750000Y-82550000D02*
X157356796Y-81156796D01*
X156202841Y-82542841D02*
X155823658Y-82542841D01*
X155823658Y-82542841D02*
X155470105Y-82542841D01*
X158750000Y-85090000D02*
X156202841Y-82542841D01*
D31*
X158737096Y-85077096D02*
X158750000Y-85090000D01*
X157607000Y-89027000D02*
X157099001Y-88519001D01*
X147276264Y-69705568D02*
X145152128Y-69705568D01*
X156845000Y-71247000D02*
X156446567Y-70848567D01*
X157099001Y-84905003D02*
X157095811Y-84901811D01*
X154435189Y-83823189D02*
X153162000Y-82550000D01*
X157099001Y-88519001D02*
X157099001Y-84905003D01*
X156206811Y-72520189D02*
X156845000Y-71882000D01*
X156206811Y-76330190D02*
X156206811Y-72520189D01*
X157095811Y-84901811D02*
X156017188Y-83823189D01*
X156017188Y-83823189D02*
X154435189Y-83823189D01*
X156845000Y-71882000D02*
X156845000Y-71247000D01*
X155194001Y-77343000D02*
X156206811Y-76330190D01*
X142721357Y-71373390D02*
X142367804Y-71373390D01*
X153162000Y-82550000D02*
X153162000Y-80592392D01*
X149385361Y-70169055D02*
X147739750Y-70169055D01*
X143484306Y-71373390D02*
X142721357Y-71373390D01*
X153162000Y-80592392D02*
X152273000Y-79703392D01*
X152273000Y-79703392D02*
X152273000Y-78687390D01*
X152273000Y-78687390D02*
X153617390Y-77343000D01*
X153617390Y-77343000D02*
X155194001Y-77343000D01*
X156446567Y-70848567D02*
X150064870Y-70848567D01*
X150064870Y-70848567D02*
X149385361Y-70169055D01*
X147739750Y-70169055D02*
X147276264Y-69705568D01*
X145152128Y-69705568D02*
X143484306Y-71373390D01*
D34*
X158750000Y-90170000D02*
X157607000Y-89027000D01*
D33*
X151003000Y-99995836D02*
X149144836Y-99995836D01*
X149144836Y-99995836D02*
X149110000Y-99961000D01*
X149110000Y-99961000D02*
X149110000Y-99465000D01*
D31*
X138649339Y-70785886D02*
X137829661Y-70785886D01*
X139740000Y-69606000D02*
X139740000Y-69695225D01*
X137829661Y-70785886D02*
X136547498Y-72068049D01*
X136547498Y-72798660D02*
X136547498Y-73152213D01*
X139740000Y-69695225D02*
X138649339Y-70785886D01*
X136547498Y-72068049D02*
X136547498Y-72798660D01*
X137287000Y-77724000D02*
X136024872Y-76461872D01*
X136024872Y-76461872D02*
X136024872Y-72056370D01*
X136024872Y-72056370D02*
X137673167Y-70408075D01*
X137673167Y-70408075D02*
X138087925Y-70408075D01*
X138087925Y-70408075D02*
X138640000Y-69856000D01*
X138640000Y-69856000D02*
X138640000Y-69606000D01*
X132040000Y-69606000D02*
X132040000Y-69937000D01*
X132040000Y-69937000D02*
X134262821Y-72159821D01*
X134262821Y-72159821D02*
X134262821Y-76303179D01*
D33*
X149202000Y-97065000D02*
X149112000Y-97155000D01*
X149112000Y-97155000D02*
X146558000Y-97155000D01*
X150710000Y-97065000D02*
X149202000Y-97065000D01*
X146685000Y-97282000D02*
X146558000Y-97155000D01*
X149352000Y-97282000D02*
X146685000Y-97282000D01*
X150710000Y-97065000D02*
X149569000Y-97065000D01*
X149569000Y-97065000D02*
X149352000Y-97282000D01*
D31*
X147066000Y-86387447D02*
X147066000Y-86741000D01*
X147447000Y-82296000D02*
X147066000Y-82677000D01*
X146685000Y-80518000D02*
X147447000Y-81280000D01*
X147066000Y-82677000D02*
X147066000Y-86387447D01*
X147447000Y-81280000D02*
X147447000Y-82296000D01*
X148463000Y-90043000D02*
X148463000Y-90396553D01*
X148463000Y-90396553D02*
X146931355Y-91928198D01*
X145428198Y-91928198D02*
X143543000Y-90043000D01*
X146931355Y-91928198D02*
X145428198Y-91928198D01*
X143543000Y-90043000D02*
X142528180Y-90043000D01*
X145034000Y-90523553D02*
X145034000Y-90170000D01*
X145034000Y-90904553D02*
X145034000Y-90523553D01*
X145679834Y-91550387D02*
X145034000Y-90904553D01*
X147806926Y-90303689D02*
X146560228Y-91550387D01*
X146560228Y-91550387D02*
X145679834Y-91550387D01*
X146050000Y-79248000D02*
X146177000Y-79121000D01*
D33*
X144272000Y-93599000D02*
X141323553Y-93599000D01*
X144399000Y-93726000D02*
X144272000Y-93599000D01*
X141323553Y-93599000D02*
X140970000Y-93599000D01*
D34*
X148590000Y-95885000D02*
X148209000Y-95504000D01*
X148209000Y-95504000D02*
X146304000Y-93599000D01*
D37*
X144399000Y-93726000D02*
X146431000Y-93726000D01*
X146431000Y-93726000D02*
X148209000Y-95504000D01*
D34*
X145796000Y-93853000D02*
X145664999Y-93984001D01*
X147066000Y-95885000D02*
X145664999Y-94483999D01*
X145664999Y-94483999D02*
X145415000Y-94234000D01*
X145796000Y-93599000D02*
X145796000Y-93853000D01*
D37*
X145415000Y-94742000D02*
X145415000Y-94234000D01*
D34*
X145165001Y-93984001D02*
X145415000Y-94234000D01*
X145034000Y-93726000D02*
X145034000Y-93853000D01*
X145034000Y-93853000D02*
X145165001Y-93984001D01*
D37*
X145415000Y-94488000D02*
X145415000Y-94234000D01*
D34*
X145664999Y-93984001D02*
X145415000Y-94234000D01*
X144907000Y-93726000D02*
X145165001Y-93984001D01*
X148590000Y-95885000D02*
X147066000Y-95885000D01*
X144907000Y-93599000D02*
X144907000Y-93726000D01*
X145415000Y-94614996D02*
X145415000Y-94234000D01*
D37*
X144399000Y-93726000D02*
X146431000Y-95758000D01*
X146431000Y-95758000D02*
X146558000Y-95758000D01*
D34*
X146304000Y-95631000D02*
X145415000Y-94742000D01*
X145415000Y-94614996D02*
X145415000Y-94742000D01*
X146430996Y-95631000D02*
X146304000Y-95631000D01*
D37*
X144399000Y-93726000D02*
X145034000Y-93726000D01*
D34*
X145034000Y-93599000D02*
X145034000Y-93726000D01*
X146304000Y-95631000D02*
X146558000Y-95885000D01*
X146558000Y-95885000D02*
X148590000Y-95885000D01*
D37*
X146430996Y-95631000D02*
X146430996Y-95630992D01*
X146430996Y-95630992D02*
X145415000Y-94614996D01*
D34*
X146304000Y-93599000D02*
X145796000Y-93599000D01*
X148590000Y-95885000D02*
X148082000Y-95885000D01*
X148082000Y-95885000D02*
X145796000Y-93599000D01*
D35*
X150710000Y-96265000D02*
X151891000Y-96265000D01*
X151891000Y-96265000D02*
X152273000Y-96647000D01*
D39*
G36*
X132995013Y-107562622D02*
X133316175Y-107562622D01*
X133350000Y-107596447D01*
X133383825Y-107562622D01*
X134090931Y-107562622D01*
X133703553Y-107950000D01*
X134000354Y-108246801D01*
X133057038Y-108246801D01*
X132942000Y-108131764D01*
X132942000Y-108004447D01*
X132996447Y-107950000D01*
X132942000Y-107895553D01*
X132942000Y-107552077D01*
X132995013Y-107562622D01*
X132995013Y-107562622D01*
G37*
X132995013Y-107562622D02*
X133316175Y-107562622D01*
X133350000Y-107596447D01*
X133383825Y-107562622D01*
X134090931Y-107562622D01*
X133703553Y-107950000D01*
X134000354Y-108246801D01*
X133057038Y-108246801D01*
X132942000Y-108131764D01*
X132942000Y-108004447D01*
X132996447Y-107950000D01*
X132942000Y-107895553D01*
X132942000Y-107552077D01*
X132995013Y-107562622D01*
G36*
X133972300Y-102395345D02*
X134035834Y-102331811D01*
X134163575Y-102331811D01*
X134594679Y-102762916D01*
X134467275Y-102890320D01*
X135033198Y-103456244D01*
X135059252Y-103446780D01*
X135172716Y-103560245D01*
X135172650Y-103636014D01*
X135220382Y-103751536D01*
X134874000Y-103751536D01*
X134725341Y-103781106D01*
X134666849Y-103820189D01*
X134650327Y-103780302D01*
X134471699Y-103601673D01*
X134238310Y-103505000D01*
X134092005Y-103505000D01*
X133972300Y-103385295D01*
X133406376Y-103951218D01*
X133482292Y-104160214D01*
X133794500Y-104214422D01*
X133794500Y-104521000D01*
X134485536Y-104521000D01*
X134485536Y-105283000D01*
X133794500Y-105283000D01*
X133794500Y-106140250D01*
X133877061Y-106222811D01*
X133350743Y-106222811D01*
X133159500Y-106031568D01*
X133159500Y-105283000D01*
X133039506Y-105283000D01*
X133039506Y-104521000D01*
X133159500Y-104521000D01*
X133159500Y-103663750D01*
X133049084Y-103553334D01*
X133049084Y-103318562D01*
X133477325Y-102890320D01*
X133049084Y-102462078D01*
X133049084Y-102331811D01*
X133908766Y-102331811D01*
X133972300Y-102395345D01*
X133972300Y-102395345D01*
G37*
X133972300Y-102395345D02*
X134035834Y-102331811D01*
X134163575Y-102331811D01*
X134594679Y-102762916D01*
X134467275Y-102890320D01*
X135033198Y-103456244D01*
X135059252Y-103446780D01*
X135172716Y-103560245D01*
X135172650Y-103636014D01*
X135220382Y-103751536D01*
X134874000Y-103751536D01*
X134725341Y-103781106D01*
X134666849Y-103820189D01*
X134650327Y-103780302D01*
X134471699Y-103601673D01*
X134238310Y-103505000D01*
X134092005Y-103505000D01*
X133972300Y-103385295D01*
X133406376Y-103951218D01*
X133482292Y-104160214D01*
X133794500Y-104214422D01*
X133794500Y-104521000D01*
X134485536Y-104521000D01*
X134485536Y-105283000D01*
X133794500Y-105283000D01*
X133794500Y-106140250D01*
X133877061Y-106222811D01*
X133350743Y-106222811D01*
X133159500Y-106031568D01*
X133159500Y-105283000D01*
X133039506Y-105283000D01*
X133039506Y-104521000D01*
X133159500Y-104521000D01*
X133159500Y-103663750D01*
X133049084Y-103553334D01*
X133049084Y-103318562D01*
X133477325Y-102890320D01*
X133049084Y-102462078D01*
X133049084Y-102331811D01*
X133908766Y-102331811D01*
X133972300Y-102395345D01*
G36*
X129489123Y-96641793D02*
X129523925Y-96816756D01*
X129623034Y-96965082D01*
X129739210Y-97081257D01*
X129739210Y-98471956D01*
X129749344Y-98522902D01*
X129733197Y-98539021D01*
X129636931Y-98770856D01*
X129636712Y-99021883D01*
X129732573Y-99253886D01*
X129909922Y-99431544D01*
X130141757Y-99527810D01*
X130291928Y-99527941D01*
X130291928Y-99732952D01*
X130279382Y-99745498D01*
X130175114Y-99901545D01*
X130138500Y-100085616D01*
X130138500Y-103886000D01*
X130172528Y-104057070D01*
X130175114Y-104070071D01*
X130279382Y-104226118D01*
X130763572Y-104710308D01*
X130919619Y-104814576D01*
X131103690Y-104851190D01*
X131602954Y-104851190D01*
X131699695Y-104947931D01*
X131699695Y-105720560D01*
X131551087Y-105691000D01*
X129759253Y-105691000D01*
X129660618Y-105543382D01*
X129539989Y-105422753D01*
X129540220Y-105158490D01*
X129347282Y-104691542D01*
X128990337Y-104333974D01*
X128523727Y-104140221D01*
X128521512Y-104140219D01*
X128988458Y-103947282D01*
X129346026Y-103590337D01*
X129539779Y-103123727D01*
X129540220Y-102618490D01*
X129347282Y-102151542D01*
X128990337Y-101793974D01*
X128523727Y-101600221D01*
X128521512Y-101600219D01*
X128988458Y-101407282D01*
X129346026Y-101050337D01*
X129539779Y-100583727D01*
X129540220Y-100078490D01*
X129347282Y-99611542D01*
X128990337Y-99253974D01*
X128523727Y-99060221D01*
X128521512Y-99060219D01*
X128988458Y-98867282D01*
X129346026Y-98510337D01*
X129539779Y-98043727D01*
X129540220Y-97538490D01*
X129347282Y-97071542D01*
X128990337Y-96713974D01*
X128523727Y-96520221D01*
X128521512Y-96520219D01*
X128988458Y-96327282D01*
X129346026Y-95970337D01*
X129489123Y-95625720D01*
X129489123Y-96641793D01*
X129489123Y-96641793D01*
G37*
X129489123Y-96641793D02*
X129523925Y-96816756D01*
X129623034Y-96965082D01*
X129739210Y-97081257D01*
X129739210Y-98471956D01*
X129749344Y-98522902D01*
X129733197Y-98539021D01*
X129636931Y-98770856D01*
X129636712Y-99021883D01*
X129732573Y-99253886D01*
X129909922Y-99431544D01*
X130141757Y-99527810D01*
X130291928Y-99527941D01*
X130291928Y-99732952D01*
X130279382Y-99745498D01*
X130175114Y-99901545D01*
X130138500Y-100085616D01*
X130138500Y-103886000D01*
X130172528Y-104057070D01*
X130175114Y-104070071D01*
X130279382Y-104226118D01*
X130763572Y-104710308D01*
X130919619Y-104814576D01*
X131103690Y-104851190D01*
X131602954Y-104851190D01*
X131699695Y-104947931D01*
X131699695Y-105720560D01*
X131551087Y-105691000D01*
X129759253Y-105691000D01*
X129660618Y-105543382D01*
X129539989Y-105422753D01*
X129540220Y-105158490D01*
X129347282Y-104691542D01*
X128990337Y-104333974D01*
X128523727Y-104140221D01*
X128521512Y-104140219D01*
X128988458Y-103947282D01*
X129346026Y-103590337D01*
X129539779Y-103123727D01*
X129540220Y-102618490D01*
X129347282Y-102151542D01*
X128990337Y-101793974D01*
X128523727Y-101600221D01*
X128521512Y-101600219D01*
X128988458Y-101407282D01*
X129346026Y-101050337D01*
X129539779Y-100583727D01*
X129540220Y-100078490D01*
X129347282Y-99611542D01*
X128990337Y-99253974D01*
X128523727Y-99060221D01*
X128521512Y-99060219D01*
X128988458Y-98867282D01*
X129346026Y-98510337D01*
X129539779Y-98043727D01*
X129540220Y-97538490D01*
X129347282Y-97071542D01*
X128990337Y-96713974D01*
X128523727Y-96520221D01*
X128521512Y-96520219D01*
X128988458Y-96327282D01*
X129346026Y-95970337D01*
X129489123Y-95625720D01*
X129489123Y-96641793D01*
G36*
X145571750Y-102002000D02*
X145664309Y-102002000D01*
X145897698Y-101905327D01*
X145923000Y-101880025D01*
X145923000Y-102108000D01*
X146234208Y-102108000D01*
X146276752Y-102210966D01*
X146454101Y-102388624D01*
X146476739Y-102398024D01*
X146258763Y-102616000D01*
X145923000Y-102616000D01*
X145923000Y-102951764D01*
X145336386Y-103538378D01*
X143959008Y-103538380D01*
X143774937Y-103574994D01*
X143722319Y-103610153D01*
X143618890Y-103679262D01*
X143461047Y-103837105D01*
X143461118Y-103756135D01*
X143357661Y-103505748D01*
X143203666Y-103351485D01*
X143382699Y-103277327D01*
X143401562Y-103258464D01*
X144399000Y-103258464D01*
X144547659Y-103228894D01*
X144606151Y-103189811D01*
X144622673Y-103229699D01*
X144801302Y-103408327D01*
X145034691Y-103505000D01*
X145256250Y-103505000D01*
X145415000Y-103346250D01*
X145415000Y-102616000D01*
X144787464Y-102616000D01*
X144787464Y-102330563D01*
X144858664Y-102224005D01*
X144881738Y-102108000D01*
X145415000Y-102108000D01*
X145415000Y-101845250D01*
X145571750Y-102002000D01*
X145571750Y-102002000D01*
G37*
X145571750Y-102002000D02*
X145664309Y-102002000D01*
X145897698Y-101905327D01*
X145923000Y-101880025D01*
X145923000Y-102108000D01*
X146234208Y-102108000D01*
X146276752Y-102210966D01*
X146454101Y-102388624D01*
X146476739Y-102398024D01*
X146258763Y-102616000D01*
X145923000Y-102616000D01*
X145923000Y-102951764D01*
X145336386Y-103538378D01*
X143959008Y-103538380D01*
X143774937Y-103574994D01*
X143722319Y-103610153D01*
X143618890Y-103679262D01*
X143461047Y-103837105D01*
X143461118Y-103756135D01*
X143357661Y-103505748D01*
X143203666Y-103351485D01*
X143382699Y-103277327D01*
X143401562Y-103258464D01*
X144399000Y-103258464D01*
X144547659Y-103228894D01*
X144606151Y-103189811D01*
X144622673Y-103229699D01*
X144801302Y-103408327D01*
X145034691Y-103505000D01*
X145256250Y-103505000D01*
X145415000Y-103346250D01*
X145415000Y-102616000D01*
X144787464Y-102616000D01*
X144787464Y-102330563D01*
X144858664Y-102224005D01*
X144881738Y-102108000D01*
X145415000Y-102108000D01*
X145415000Y-101845250D01*
X145571750Y-102002000D01*
G36*
X142885500Y-102364000D02*
X142994536Y-102364000D01*
X142994536Y-102614000D01*
X142885500Y-102614000D01*
X142885500Y-103210091D01*
X142870925Y-103210079D01*
X142871109Y-102999037D01*
X142775248Y-102767034D01*
X142597899Y-102589376D01*
X142594000Y-102587757D01*
X142594000Y-102364000D01*
X142610500Y-102364000D01*
X142610500Y-102265736D01*
X142764773Y-102111464D01*
X142885500Y-102111464D01*
X142885500Y-102364000D01*
X142885500Y-102364000D01*
G37*
X142885500Y-102364000D02*
X142994536Y-102364000D01*
X142994536Y-102614000D01*
X142885500Y-102614000D01*
X142885500Y-103210091D01*
X142870925Y-103210079D01*
X142871109Y-102999037D01*
X142775248Y-102767034D01*
X142597899Y-102589376D01*
X142594000Y-102587757D01*
X142594000Y-102364000D01*
X142610500Y-102364000D01*
X142610500Y-102265736D01*
X142764773Y-102111464D01*
X142885500Y-102111464D01*
X142885500Y-102364000D01*
G36*
X145160810Y-97835046D02*
X145160810Y-99196810D01*
X145192355Y-99355398D01*
X145197424Y-99380881D01*
X145301692Y-99536928D01*
X145321536Y-99556772D01*
X145321536Y-99965000D01*
X145210000Y-99965000D01*
X145210000Y-100941250D01*
X145368750Y-101100000D01*
X145436309Y-101100000D01*
X145669698Y-101003327D01*
X145718525Y-100954500D01*
X146014250Y-100954500D01*
X146116599Y-100852151D01*
X146229000Y-100829794D01*
X146229000Y-101219000D01*
X146081750Y-101219000D01*
X146042750Y-101258000D01*
X146014250Y-101229500D01*
X145413000Y-101229500D01*
X145413000Y-101375750D01*
X145256250Y-101219000D01*
X145034691Y-101219000D01*
X145009342Y-101229500D01*
X144910464Y-101229500D01*
X144910464Y-101227626D01*
X144945000Y-101054000D01*
X144945000Y-101006250D01*
X144996750Y-100954500D01*
X145163000Y-100954500D01*
X145163000Y-100340750D01*
X145010000Y-100187750D01*
X145010000Y-99965000D01*
X144945000Y-99965000D01*
X144945000Y-99465000D01*
X144898464Y-99231045D01*
X144898464Y-98965000D01*
X145010000Y-98965000D01*
X145010000Y-97988750D01*
X144851250Y-97830000D01*
X144783691Y-97830000D01*
X144550302Y-97926673D01*
X144400438Y-98076536D01*
X144110000Y-98076536D01*
X143961341Y-98106106D01*
X143910000Y-98140411D01*
X143858659Y-98106106D01*
X143710000Y-98076536D01*
X143310000Y-98076536D01*
X143161341Y-98106106D01*
X143110000Y-98140411D01*
X143058659Y-98106106D01*
X142910000Y-98076536D01*
X142510000Y-98076536D01*
X142361341Y-98106106D01*
X142310000Y-98140411D01*
X142258659Y-98106106D01*
X142110000Y-98076536D01*
X141710000Y-98076536D01*
X141561341Y-98106106D01*
X141524542Y-98130694D01*
X141691118Y-97964118D01*
X141706439Y-97941188D01*
X141795386Y-97808071D01*
X141832000Y-97624000D01*
X141832000Y-96747000D01*
X144072764Y-96747000D01*
X145160810Y-97835046D01*
X145160810Y-97835046D01*
G37*
X145160810Y-97835046D02*
X145160810Y-99196810D01*
X145192355Y-99355398D01*
X145197424Y-99380881D01*
X145301692Y-99536928D01*
X145321536Y-99556772D01*
X145321536Y-99965000D01*
X145210000Y-99965000D01*
X145210000Y-100941250D01*
X145368750Y-101100000D01*
X145436309Y-101100000D01*
X145669698Y-101003327D01*
X145718525Y-100954500D01*
X146014250Y-100954500D01*
X146116599Y-100852151D01*
X146229000Y-100829794D01*
X146229000Y-101219000D01*
X146081750Y-101219000D01*
X146042750Y-101258000D01*
X146014250Y-101229500D01*
X145413000Y-101229500D01*
X145413000Y-101375750D01*
X145256250Y-101219000D01*
X145034691Y-101219000D01*
X145009342Y-101229500D01*
X144910464Y-101229500D01*
X144910464Y-101227626D01*
X144945000Y-101054000D01*
X144945000Y-101006250D01*
X144996750Y-100954500D01*
X145163000Y-100954500D01*
X145163000Y-100340750D01*
X145010000Y-100187750D01*
X145010000Y-99965000D01*
X144945000Y-99965000D01*
X144945000Y-99465000D01*
X144898464Y-99231045D01*
X144898464Y-98965000D01*
X145010000Y-98965000D01*
X145010000Y-97988750D01*
X144851250Y-97830000D01*
X144783691Y-97830000D01*
X144550302Y-97926673D01*
X144400438Y-98076536D01*
X144110000Y-98076536D01*
X143961341Y-98106106D01*
X143910000Y-98140411D01*
X143858659Y-98106106D01*
X143710000Y-98076536D01*
X143310000Y-98076536D01*
X143161341Y-98106106D01*
X143110000Y-98140411D01*
X143058659Y-98106106D01*
X142910000Y-98076536D01*
X142510000Y-98076536D01*
X142361341Y-98106106D01*
X142310000Y-98140411D01*
X142258659Y-98106106D01*
X142110000Y-98076536D01*
X141710000Y-98076536D01*
X141561341Y-98106106D01*
X141524542Y-98130694D01*
X141691118Y-97964118D01*
X141706439Y-97941188D01*
X141795386Y-97808071D01*
X141832000Y-97624000D01*
X141832000Y-96747000D01*
X144072764Y-96747000D01*
X145160810Y-97835046D01*
G36*
X137695000Y-98471810D02*
X137382058Y-98471810D01*
X137382203Y-98305464D01*
X137414000Y-98305464D01*
X137562659Y-98275894D01*
X137688686Y-98191686D01*
X137695000Y-98182236D01*
X137695000Y-98471810D01*
X137695000Y-98471810D01*
G37*
X137695000Y-98471810D02*
X137382058Y-98471810D01*
X137382203Y-98305464D01*
X137414000Y-98305464D01*
X137562659Y-98275894D01*
X137688686Y-98191686D01*
X137695000Y-98182236D01*
X137695000Y-98471810D01*
G36*
X137971673Y-95224698D02*
X138121536Y-95374562D01*
X138121536Y-95665000D01*
X138151106Y-95813659D01*
X138185411Y-95865000D01*
X138151106Y-95916341D01*
X138121536Y-96065000D01*
X138121536Y-96465000D01*
X138151106Y-96613659D01*
X138185411Y-96665000D01*
X138151106Y-96716341D01*
X138121536Y-96865000D01*
X138121536Y-96973228D01*
X137835882Y-97258882D01*
X137802464Y-97308895D01*
X137802464Y-96647000D01*
X137772894Y-96498341D01*
X137688686Y-96372314D01*
X137562659Y-96288106D01*
X137451524Y-96266000D01*
X137562659Y-96243894D01*
X137688686Y-96159686D01*
X137772894Y-96033659D01*
X137802464Y-95885000D01*
X137802464Y-95283804D01*
X137939425Y-95146843D01*
X137971673Y-95224698D01*
X137971673Y-95224698D01*
G37*
X137971673Y-95224698D02*
X138121536Y-95374562D01*
X138121536Y-95665000D01*
X138151106Y-95813659D01*
X138185411Y-95865000D01*
X138151106Y-95916341D01*
X138121536Y-96065000D01*
X138121536Y-96465000D01*
X138151106Y-96613659D01*
X138185411Y-96665000D01*
X138151106Y-96716341D01*
X138121536Y-96865000D01*
X138121536Y-96973228D01*
X137835882Y-97258882D01*
X137802464Y-97308895D01*
X137802464Y-96647000D01*
X137772894Y-96498341D01*
X137688686Y-96372314D01*
X137562659Y-96288106D01*
X137451524Y-96266000D01*
X137562659Y-96243894D01*
X137688686Y-96159686D01*
X137772894Y-96033659D01*
X137802464Y-95885000D01*
X137802464Y-95283804D01*
X137939425Y-95146843D01*
X137971673Y-95224698D01*
G36*
X143711331Y-94266242D02*
X143770382Y-94354618D01*
X144399764Y-94984000D01*
X141145000Y-94984000D01*
X141145000Y-94923750D01*
X140986250Y-94765000D01*
X140010000Y-94765000D01*
X140010000Y-94876536D01*
X139010000Y-94876536D01*
X139010000Y-94765000D01*
X138321268Y-94765000D01*
X138371013Y-94715255D01*
X138411774Y-94654252D01*
X138501026Y-94565000D01*
X139010000Y-94565000D01*
X139010000Y-94500000D01*
X139510000Y-94500000D01*
X139743955Y-94453464D01*
X140010000Y-94453464D01*
X140010000Y-94565000D01*
X140986250Y-94565000D01*
X141145000Y-94406250D01*
X141145000Y-94338691D01*
X141101636Y-94234000D01*
X143689788Y-94234000D01*
X143711331Y-94266242D01*
X143711331Y-94266242D01*
G37*
X143711331Y-94266242D02*
X143770382Y-94354618D01*
X144399764Y-94984000D01*
X141145000Y-94984000D01*
X141145000Y-94923750D01*
X140986250Y-94765000D01*
X140010000Y-94765000D01*
X140010000Y-94876536D01*
X139010000Y-94876536D01*
X139010000Y-94765000D01*
X138321268Y-94765000D01*
X138371013Y-94715255D01*
X138411774Y-94654252D01*
X138501026Y-94565000D01*
X139010000Y-94565000D01*
X139010000Y-94500000D01*
X139510000Y-94500000D01*
X139743955Y-94453464D01*
X140010000Y-94453464D01*
X140010000Y-94565000D01*
X140986250Y-94565000D01*
X141145000Y-94406250D01*
X141145000Y-94338691D01*
X141101636Y-94234000D01*
X143689788Y-94234000D01*
X143711331Y-94266242D01*
G36*
X136021000Y-93683750D02*
X136154500Y-93817250D01*
X136154500Y-93855000D01*
X136768250Y-93855000D01*
X136780750Y-93842500D01*
X136781000Y-93842500D01*
X136781000Y-93842250D01*
X136927000Y-93696250D01*
X136927000Y-93627464D01*
X137031000Y-93627464D01*
X137031000Y-93842500D01*
X137283536Y-93842500D01*
X137283536Y-94006680D01*
X137172716Y-94117500D01*
X137031000Y-94117500D01*
X137031000Y-94226536D01*
X136889786Y-94226536D01*
X136781000Y-94117750D01*
X136781000Y-94117500D01*
X136780750Y-94117500D01*
X136768250Y-94105000D01*
X136154500Y-94105000D01*
X136154500Y-94142750D01*
X136070714Y-94226536D01*
X135890000Y-94226536D01*
X135879500Y-94228625D01*
X135879500Y-94105000D01*
X135498624Y-94105000D01*
X135498624Y-93855000D01*
X135879500Y-93855000D01*
X135879500Y-93602464D01*
X136021000Y-93602464D01*
X136021000Y-93683750D01*
X136021000Y-93683750D01*
G37*
X136021000Y-93683750D02*
X136154500Y-93817250D01*
X136154500Y-93855000D01*
X136768250Y-93855000D01*
X136780750Y-93842500D01*
X136781000Y-93842500D01*
X136781000Y-93842250D01*
X136927000Y-93696250D01*
X136927000Y-93627464D01*
X137031000Y-93627464D01*
X137031000Y-93842500D01*
X137283536Y-93842500D01*
X137283536Y-94006680D01*
X137172716Y-94117500D01*
X137031000Y-94117500D01*
X137031000Y-94226536D01*
X136889786Y-94226536D01*
X136781000Y-94117750D01*
X136781000Y-94117500D01*
X136780750Y-94117500D01*
X136768250Y-94105000D01*
X136154500Y-94105000D01*
X136154500Y-94142750D01*
X136070714Y-94226536D01*
X135890000Y-94226536D01*
X135879500Y-94228625D01*
X135879500Y-94105000D01*
X135498624Y-94105000D01*
X135498624Y-93855000D01*
X135879500Y-93855000D01*
X135879500Y-93602464D01*
X136021000Y-93602464D01*
X136021000Y-93683750D01*
G36*
X151210000Y-93765000D02*
X151998000Y-93765000D01*
X151998000Y-93848309D01*
X152046335Y-93965000D01*
X151210000Y-93965000D01*
X151210000Y-94076536D01*
X150210000Y-94076536D01*
X150210000Y-93965000D01*
X149913199Y-93965000D01*
X149913199Y-93765000D01*
X150210000Y-93765000D01*
X150210000Y-93653464D01*
X151210000Y-93653464D01*
X151210000Y-93765000D01*
X151210000Y-93765000D01*
G37*
X151210000Y-93765000D02*
X151998000Y-93765000D01*
X151998000Y-93848309D01*
X152046335Y-93965000D01*
X151210000Y-93965000D01*
X151210000Y-94076536D01*
X150210000Y-94076536D01*
X150210000Y-93965000D01*
X149913199Y-93965000D01*
X149913199Y-93765000D01*
X150210000Y-93765000D01*
X150210000Y-93653464D01*
X151210000Y-93653464D01*
X151210000Y-93765000D01*
G36*
X153765098Y-92241639D02*
X153765098Y-92967974D01*
X153721327Y-92862302D01*
X153542699Y-92683673D01*
X153309310Y-92587000D01*
X153204250Y-92587000D01*
X153045500Y-92745750D01*
X153045500Y-93347000D01*
X153659250Y-93347000D01*
X153765098Y-93241152D01*
X153765098Y-93702848D01*
X153659250Y-93597000D01*
X153045500Y-93597000D01*
X153045500Y-93849536D01*
X152770500Y-93849536D01*
X152770500Y-93597000D01*
X152345000Y-93597000D01*
X152345000Y-93538691D01*
X152265599Y-93347000D01*
X152770500Y-93347000D01*
X152770500Y-92745750D01*
X152639993Y-92615243D01*
X153231048Y-92024189D01*
X153547649Y-92024189D01*
X153765098Y-92241639D01*
X153765098Y-92241639D01*
G37*
X153765098Y-92241639D02*
X153765098Y-92967974D01*
X153721327Y-92862302D01*
X153542699Y-92683673D01*
X153309310Y-92587000D01*
X153204250Y-92587000D01*
X153045500Y-92745750D01*
X153045500Y-93347000D01*
X153659250Y-93347000D01*
X153765098Y-93241152D01*
X153765098Y-93702848D01*
X153659250Y-93597000D01*
X153045500Y-93597000D01*
X153045500Y-93849536D01*
X152770500Y-93849536D01*
X152770500Y-93597000D01*
X152345000Y-93597000D01*
X152345000Y-93538691D01*
X152265599Y-93347000D01*
X152770500Y-93347000D01*
X152770500Y-92745750D01*
X152639993Y-92615243D01*
X153231048Y-92024189D01*
X153547649Y-92024189D01*
X153765098Y-92241639D01*
G36*
X142170281Y-90577624D02*
X142402116Y-90673890D01*
X142653143Y-90674109D01*
X142885146Y-90578248D01*
X142939489Y-90524000D01*
X143343764Y-90524000D01*
X145088080Y-92268317D01*
X145244128Y-92372585D01*
X145428198Y-92409198D01*
X146931355Y-92409198D01*
X147115426Y-92372584D01*
X147271473Y-92268316D01*
X148573389Y-90966400D01*
X148573389Y-91320235D01*
X147388511Y-92505113D01*
X147312741Y-92505047D01*
X147080738Y-92600908D01*
X146903080Y-92778257D01*
X146833347Y-92946193D01*
X146771206Y-92904671D01*
X146431000Y-92837000D01*
X144399000Y-92837000D01*
X144058794Y-92904671D01*
X143970002Y-92964000D01*
X140970000Y-92964000D01*
X140949978Y-92967983D01*
X140898464Y-92967938D01*
X140898464Y-92865000D01*
X140868894Y-92716341D01*
X140840132Y-92673295D01*
X140989930Y-92773387D01*
X141174000Y-92810000D01*
X141447578Y-92810000D01*
X141501109Y-92863624D01*
X141732944Y-92959890D01*
X141983971Y-92960109D01*
X142215974Y-92864248D01*
X142393632Y-92686899D01*
X142489898Y-92455064D01*
X142490117Y-92204037D01*
X142394256Y-91972034D01*
X142216907Y-91794376D01*
X141985072Y-91698110D01*
X141976479Y-91698103D01*
X141976584Y-91577877D01*
X141880723Y-91345874D01*
X141703374Y-91168216D01*
X141471539Y-91071950D01*
X141394755Y-91071883D01*
X141349189Y-91026317D01*
X141349189Y-90661547D01*
X141486737Y-90524000D01*
X141732000Y-90524000D01*
X141916071Y-90487386D01*
X142014527Y-90421599D01*
X142170281Y-90577624D01*
X142170281Y-90577624D01*
G37*
X142170281Y-90577624D02*
X142402116Y-90673890D01*
X142653143Y-90674109D01*
X142885146Y-90578248D01*
X142939489Y-90524000D01*
X143343764Y-90524000D01*
X145088080Y-92268317D01*
X145244128Y-92372585D01*
X145428198Y-92409198D01*
X146931355Y-92409198D01*
X147115426Y-92372584D01*
X147271473Y-92268316D01*
X148573389Y-90966400D01*
X148573389Y-91320235D01*
X147388511Y-92505113D01*
X147312741Y-92505047D01*
X147080738Y-92600908D01*
X146903080Y-92778257D01*
X146833347Y-92946193D01*
X146771206Y-92904671D01*
X146431000Y-92837000D01*
X144399000Y-92837000D01*
X144058794Y-92904671D01*
X143970002Y-92964000D01*
X140970000Y-92964000D01*
X140949978Y-92967983D01*
X140898464Y-92967938D01*
X140898464Y-92865000D01*
X140868894Y-92716341D01*
X140840132Y-92673295D01*
X140989930Y-92773387D01*
X141174000Y-92810000D01*
X141447578Y-92810000D01*
X141501109Y-92863624D01*
X141732944Y-92959890D01*
X141983971Y-92960109D01*
X142215974Y-92864248D01*
X142393632Y-92686899D01*
X142489898Y-92455064D01*
X142490117Y-92204037D01*
X142394256Y-91972034D01*
X142216907Y-91794376D01*
X141985072Y-91698110D01*
X141976479Y-91698103D01*
X141976584Y-91577877D01*
X141880723Y-91345874D01*
X141703374Y-91168216D01*
X141471539Y-91071950D01*
X141394755Y-91071883D01*
X141349189Y-91026317D01*
X141349189Y-90661547D01*
X141486737Y-90524000D01*
X141732000Y-90524000D01*
X141916071Y-90487386D01*
X142014527Y-90421599D01*
X142170281Y-90577624D01*
G36*
X144778000Y-84444500D02*
X145030536Y-84444500D01*
X145030536Y-84586000D01*
X144949250Y-84586000D01*
X144815750Y-84719500D01*
X144778000Y-84719500D01*
X144778000Y-85333250D01*
X144790500Y-85345750D01*
X144790500Y-85346000D01*
X144790750Y-85346000D01*
X144936750Y-85492000D01*
X145029309Y-85492000D01*
X145262698Y-85395327D01*
X145312025Y-85346000D01*
X145404250Y-85346000D01*
X145504786Y-85245464D01*
X145919000Y-85245464D01*
X146062099Y-85217000D01*
X146077000Y-85217000D01*
X146077000Y-86721750D01*
X146010000Y-86788750D01*
X146010000Y-87765000D01*
X146121536Y-87765000D01*
X146121536Y-88765000D01*
X146010000Y-88765000D01*
X146010000Y-89741250D01*
X146168750Y-89900000D01*
X146236309Y-89900000D01*
X146469698Y-89803327D01*
X146619562Y-89653464D01*
X146910000Y-89653464D01*
X147058659Y-89623894D01*
X147110000Y-89589589D01*
X147161341Y-89623894D01*
X147310000Y-89653464D01*
X147710000Y-89653464D01*
X147858659Y-89623894D01*
X147910000Y-89589589D01*
X147961341Y-89623894D01*
X147984979Y-89628596D01*
X147938435Y-89675060D01*
X147932990Y-89672799D01*
X147681963Y-89672580D01*
X147449960Y-89768441D01*
X147272302Y-89945790D01*
X147176036Y-90177625D01*
X147175969Y-90254409D01*
X146360992Y-91069387D01*
X145879071Y-91069387D01*
X145515000Y-90705317D01*
X145515000Y-90581430D01*
X145568624Y-90527899D01*
X145664890Y-90296064D01*
X145665109Y-90045037D01*
X145605181Y-89900000D01*
X145651250Y-89900000D01*
X145810000Y-89741250D01*
X145810000Y-88765000D01*
X145698464Y-88765000D01*
X145698464Y-88498955D01*
X145745000Y-88265000D01*
X145745000Y-87765000D01*
X145810000Y-87765000D01*
X145810000Y-86788750D01*
X145671275Y-86650025D01*
X145645248Y-86587034D01*
X145570454Y-86512110D01*
X145559013Y-86494987D01*
X145316464Y-86252438D01*
X145316464Y-86237000D01*
X145315396Y-86231630D01*
X145466327Y-86080698D01*
X145563000Y-85847309D01*
X145563000Y-85754750D01*
X145404250Y-85596000D01*
X144790500Y-85596000D01*
X144790500Y-85848536D01*
X144515500Y-85848536D01*
X144515500Y-85596000D01*
X144135381Y-85596000D01*
X144135381Y-85433467D01*
X144276691Y-85492000D01*
X144369250Y-85492000D01*
X144515250Y-85346000D01*
X144515500Y-85346000D01*
X144515500Y-85345750D01*
X144528000Y-85333250D01*
X144528000Y-84719500D01*
X144490250Y-84719500D01*
X144356750Y-84586000D01*
X144251690Y-84586000D01*
X144135381Y-84634177D01*
X144135381Y-84444500D01*
X144528000Y-84444500D01*
X144528000Y-83883344D01*
X144778000Y-83883344D01*
X144778000Y-84444500D01*
X144778000Y-84444500D01*
G37*
X144778000Y-84444500D02*
X145030536Y-84444500D01*
X145030536Y-84586000D01*
X144949250Y-84586000D01*
X144815750Y-84719500D01*
X144778000Y-84719500D01*
X144778000Y-85333250D01*
X144790500Y-85345750D01*
X144790500Y-85346000D01*
X144790750Y-85346000D01*
X144936750Y-85492000D01*
X145029309Y-85492000D01*
X145262698Y-85395327D01*
X145312025Y-85346000D01*
X145404250Y-85346000D01*
X145504786Y-85245464D01*
X145919000Y-85245464D01*
X146062099Y-85217000D01*
X146077000Y-85217000D01*
X146077000Y-86721750D01*
X146010000Y-86788750D01*
X146010000Y-87765000D01*
X146121536Y-87765000D01*
X146121536Y-88765000D01*
X146010000Y-88765000D01*
X146010000Y-89741250D01*
X146168750Y-89900000D01*
X146236309Y-89900000D01*
X146469698Y-89803327D01*
X146619562Y-89653464D01*
X146910000Y-89653464D01*
X147058659Y-89623894D01*
X147110000Y-89589589D01*
X147161341Y-89623894D01*
X147310000Y-89653464D01*
X147710000Y-89653464D01*
X147858659Y-89623894D01*
X147910000Y-89589589D01*
X147961341Y-89623894D01*
X147984979Y-89628596D01*
X147938435Y-89675060D01*
X147932990Y-89672799D01*
X147681963Y-89672580D01*
X147449960Y-89768441D01*
X147272302Y-89945790D01*
X147176036Y-90177625D01*
X147175969Y-90254409D01*
X146360992Y-91069387D01*
X145879071Y-91069387D01*
X145515000Y-90705317D01*
X145515000Y-90581430D01*
X145568624Y-90527899D01*
X145664890Y-90296064D01*
X145665109Y-90045037D01*
X145605181Y-89900000D01*
X145651250Y-89900000D01*
X145810000Y-89741250D01*
X145810000Y-88765000D01*
X145698464Y-88765000D01*
X145698464Y-88498955D01*
X145745000Y-88265000D01*
X145745000Y-87765000D01*
X145810000Y-87765000D01*
X145810000Y-86788750D01*
X145671275Y-86650025D01*
X145645248Y-86587034D01*
X145570454Y-86512110D01*
X145559013Y-86494987D01*
X145316464Y-86252438D01*
X145316464Y-86237000D01*
X145315396Y-86231630D01*
X145466327Y-86080698D01*
X145563000Y-85847309D01*
X145563000Y-85754750D01*
X145404250Y-85596000D01*
X144790500Y-85596000D01*
X144790500Y-85848536D01*
X144515500Y-85848536D01*
X144515500Y-85596000D01*
X144135381Y-85596000D01*
X144135381Y-85433467D01*
X144276691Y-85492000D01*
X144369250Y-85492000D01*
X144515250Y-85346000D01*
X144515500Y-85346000D01*
X144515500Y-85345750D01*
X144528000Y-85333250D01*
X144528000Y-84719500D01*
X144490250Y-84719500D01*
X144356750Y-84586000D01*
X144251690Y-84586000D01*
X144135381Y-84634177D01*
X144135381Y-84444500D01*
X144528000Y-84444500D01*
X144528000Y-83883344D01*
X144778000Y-83883344D01*
X144778000Y-84444500D01*
G36*
X129418322Y-88406034D02*
X129489123Y-88476835D01*
X129489123Y-89794825D01*
X129347282Y-89451542D01*
X128990337Y-89093974D01*
X128523727Y-88900221D01*
X128521512Y-88900219D01*
X128988458Y-88707282D01*
X129346026Y-88350337D01*
X129359471Y-88317958D01*
X129418322Y-88406034D01*
X129418322Y-88406034D01*
G37*
X129418322Y-88406034D02*
X129489123Y-88476835D01*
X129489123Y-89794825D01*
X129347282Y-89451542D01*
X128990337Y-89093974D01*
X128523727Y-88900221D01*
X128521512Y-88900219D01*
X128988458Y-88707282D01*
X129346026Y-88350337D01*
X129359471Y-88317958D01*
X129418322Y-88406034D01*
G36*
X155481378Y-87863000D02*
X155477750Y-87863000D01*
X155319000Y-88021750D01*
X155319000Y-88635500D01*
X155481378Y-88635500D01*
X155481378Y-88910500D01*
X155319000Y-88910500D01*
X155319000Y-89204490D01*
X155182394Y-89067884D01*
X155182392Y-89067881D01*
X155129264Y-89014754D01*
X155069000Y-88974487D01*
X155069000Y-88910500D01*
X154973238Y-88910500D01*
X154973217Y-88910486D01*
X154961890Y-88908233D01*
X154816464Y-88879306D01*
X154816464Y-88635500D01*
X155069000Y-88635500D01*
X155069000Y-88021750D01*
X154910250Y-87863000D01*
X154817691Y-87863000D01*
X154813000Y-87864943D01*
X154813000Y-87656464D01*
X155182000Y-87656464D01*
X155330659Y-87626894D01*
X155456686Y-87542686D01*
X155481378Y-87505732D01*
X155481378Y-87863000D01*
X155481378Y-87863000D01*
G37*
X155481378Y-87863000D02*
X155477750Y-87863000D01*
X155319000Y-88021750D01*
X155319000Y-88635500D01*
X155481378Y-88635500D01*
X155481378Y-88910500D01*
X155319000Y-88910500D01*
X155319000Y-89204490D01*
X155182394Y-89067884D01*
X155182392Y-89067881D01*
X155129264Y-89014754D01*
X155069000Y-88974487D01*
X155069000Y-88910500D01*
X154973238Y-88910500D01*
X154973217Y-88910486D01*
X154961890Y-88908233D01*
X154816464Y-88879306D01*
X154816464Y-88635500D01*
X155069000Y-88635500D01*
X155069000Y-88021750D01*
X154910250Y-87863000D01*
X154817691Y-87863000D01*
X154813000Y-87864943D01*
X154813000Y-87656464D01*
X155182000Y-87656464D01*
X155330659Y-87626894D01*
X155456686Y-87542686D01*
X155481378Y-87505732D01*
X155481378Y-87863000D01*
G36*
X141411330Y-85065606D02*
X140358469Y-86118468D01*
X140254201Y-86274515D01*
X140249608Y-86297605D01*
X140163963Y-86383101D01*
X140067697Y-86614936D01*
X140067478Y-86865963D01*
X140163339Y-87097966D01*
X140340688Y-87275624D01*
X140521536Y-87350718D01*
X140521536Y-87888052D01*
X140337037Y-87887891D01*
X140105034Y-87983752D01*
X139927376Y-88161101D01*
X139847315Y-88353911D01*
X136625490Y-88353911D01*
X136347200Y-88075622D01*
X136347200Y-86233000D01*
X136334571Y-86169511D01*
X136976729Y-86169511D01*
X136930689Y-86280387D01*
X136930470Y-86531414D01*
X137026331Y-86763417D01*
X137072249Y-86809415D01*
X137023788Y-86926122D01*
X137023569Y-87177149D01*
X137119430Y-87409152D01*
X137243850Y-87533789D01*
X137240678Y-87541427D01*
X137240459Y-87792454D01*
X137336320Y-88024457D01*
X137513669Y-88202115D01*
X137745504Y-88298381D01*
X137996531Y-88298600D01*
X138228534Y-88202739D01*
X138406192Y-88025390D01*
X138502458Y-87793555D01*
X138502543Y-87696463D01*
X138565953Y-87601563D01*
X138570038Y-87581025D01*
X141411330Y-84739733D01*
X141411330Y-85065606D01*
X141411330Y-85065606D01*
G37*
X141411330Y-85065606D02*
X140358469Y-86118468D01*
X140254201Y-86274515D01*
X140249608Y-86297605D01*
X140163963Y-86383101D01*
X140067697Y-86614936D01*
X140067478Y-86865963D01*
X140163339Y-87097966D01*
X140340688Y-87275624D01*
X140521536Y-87350718D01*
X140521536Y-87888052D01*
X140337037Y-87887891D01*
X140105034Y-87983752D01*
X139927376Y-88161101D01*
X139847315Y-88353911D01*
X136625490Y-88353911D01*
X136347200Y-88075622D01*
X136347200Y-86233000D01*
X136334571Y-86169511D01*
X136976729Y-86169511D01*
X136930689Y-86280387D01*
X136930470Y-86531414D01*
X137026331Y-86763417D01*
X137072249Y-86809415D01*
X137023788Y-86926122D01*
X137023569Y-87177149D01*
X137119430Y-87409152D01*
X137243850Y-87533789D01*
X137240678Y-87541427D01*
X137240459Y-87792454D01*
X137336320Y-88024457D01*
X137513669Y-88202115D01*
X137745504Y-88298381D01*
X137996531Y-88298600D01*
X138228534Y-88202739D01*
X138406192Y-88025390D01*
X138502458Y-87793555D01*
X138502543Y-87696463D01*
X138565953Y-87601563D01*
X138570038Y-87581025D01*
X141411330Y-84739733D01*
X141411330Y-85065606D01*
G36*
X150171310Y-82731954D02*
X150183929Y-82740386D01*
X150368000Y-82777000D01*
X151057764Y-82777000D01*
X153583882Y-85303119D01*
X153681708Y-85368484D01*
X153632641Y-85348110D01*
X153381614Y-85347891D01*
X153149611Y-85443752D01*
X152971953Y-85621101D01*
X152875687Y-85852936D01*
X152875468Y-86103963D01*
X152971329Y-86335966D01*
X153148678Y-86513624D01*
X153293536Y-86573774D01*
X153293536Y-87268000D01*
X153323106Y-87416659D01*
X153407314Y-87542686D01*
X153533341Y-87626894D01*
X153543000Y-87628815D01*
X153543000Y-88110332D01*
X153539000Y-88109536D01*
X153039000Y-88109536D01*
X152908000Y-88135593D01*
X152908000Y-87376000D01*
X152890824Y-87289651D01*
X152859664Y-87132995D01*
X152722013Y-86926987D01*
X152370464Y-86575438D01*
X152370464Y-86468000D01*
X152340894Y-86319341D01*
X152256686Y-86193314D01*
X152130659Y-86109106D01*
X151982000Y-86079536D01*
X150482000Y-86079536D01*
X150333341Y-86109106D01*
X150207314Y-86193314D01*
X150180797Y-86233000D01*
X150014668Y-86233000D01*
X150014396Y-86231630D01*
X150165327Y-86080698D01*
X150262000Y-85847309D01*
X150262000Y-85754750D01*
X150103250Y-85596000D01*
X149489500Y-85596000D01*
X149489500Y-85848536D01*
X149214500Y-85848536D01*
X149214500Y-85596000D01*
X149126464Y-85596000D01*
X149126464Y-85346000D01*
X149214500Y-85346000D01*
X149214500Y-85245464D01*
X149221000Y-85245464D01*
X149226370Y-85244396D01*
X149377302Y-85395327D01*
X149610691Y-85492000D01*
X149703250Y-85492000D01*
X149849250Y-85346000D01*
X150103250Y-85346000D01*
X150114000Y-85335250D01*
X150270750Y-85492000D01*
X150363309Y-85492000D01*
X150596698Y-85395327D01*
X150775327Y-85216699D01*
X150872000Y-84983310D01*
X150872000Y-84878250D01*
X150713250Y-84719500D01*
X150112000Y-84719500D01*
X150112000Y-84807975D01*
X149986699Y-84682673D01*
X149753310Y-84586000D01*
X149648250Y-84586000D01*
X149609464Y-84624786D01*
X149609464Y-84444500D01*
X149862000Y-84444500D01*
X149862000Y-83851635D01*
X149893256Y-83830750D01*
X150112000Y-83830750D01*
X150112000Y-84444500D01*
X150713250Y-84444500D01*
X150872000Y-84285750D01*
X150872000Y-84180690D01*
X150775327Y-83947301D01*
X150596698Y-83768673D01*
X150363309Y-83672000D01*
X150270750Y-83672000D01*
X150112000Y-83830750D01*
X149893256Y-83830750D01*
X149984826Y-83769566D01*
X150069034Y-83643539D01*
X150098604Y-83494880D01*
X150098604Y-82683374D01*
X150171310Y-82731954D01*
X150171310Y-82731954D01*
G37*
X150171310Y-82731954D02*
X150183929Y-82740386D01*
X150368000Y-82777000D01*
X151057764Y-82777000D01*
X153583882Y-85303119D01*
X153681708Y-85368484D01*
X153632641Y-85348110D01*
X153381614Y-85347891D01*
X153149611Y-85443752D01*
X152971953Y-85621101D01*
X152875687Y-85852936D01*
X152875468Y-86103963D01*
X152971329Y-86335966D01*
X153148678Y-86513624D01*
X153293536Y-86573774D01*
X153293536Y-87268000D01*
X153323106Y-87416659D01*
X153407314Y-87542686D01*
X153533341Y-87626894D01*
X153543000Y-87628815D01*
X153543000Y-88110332D01*
X153539000Y-88109536D01*
X153039000Y-88109536D01*
X152908000Y-88135593D01*
X152908000Y-87376000D01*
X152890824Y-87289651D01*
X152859664Y-87132995D01*
X152722013Y-86926987D01*
X152370464Y-86575438D01*
X152370464Y-86468000D01*
X152340894Y-86319341D01*
X152256686Y-86193314D01*
X152130659Y-86109106D01*
X151982000Y-86079536D01*
X150482000Y-86079536D01*
X150333341Y-86109106D01*
X150207314Y-86193314D01*
X150180797Y-86233000D01*
X150014668Y-86233000D01*
X150014396Y-86231630D01*
X150165327Y-86080698D01*
X150262000Y-85847309D01*
X150262000Y-85754750D01*
X150103250Y-85596000D01*
X149489500Y-85596000D01*
X149489500Y-85848536D01*
X149214500Y-85848536D01*
X149214500Y-85596000D01*
X149126464Y-85596000D01*
X149126464Y-85346000D01*
X149214500Y-85346000D01*
X149214500Y-85245464D01*
X149221000Y-85245464D01*
X149226370Y-85244396D01*
X149377302Y-85395327D01*
X149610691Y-85492000D01*
X149703250Y-85492000D01*
X149849250Y-85346000D01*
X150103250Y-85346000D01*
X150114000Y-85335250D01*
X150270750Y-85492000D01*
X150363309Y-85492000D01*
X150596698Y-85395327D01*
X150775327Y-85216699D01*
X150872000Y-84983310D01*
X150872000Y-84878250D01*
X150713250Y-84719500D01*
X150112000Y-84719500D01*
X150112000Y-84807975D01*
X149986699Y-84682673D01*
X149753310Y-84586000D01*
X149648250Y-84586000D01*
X149609464Y-84624786D01*
X149609464Y-84444500D01*
X149862000Y-84444500D01*
X149862000Y-83851635D01*
X149893256Y-83830750D01*
X150112000Y-83830750D01*
X150112000Y-84444500D01*
X150713250Y-84444500D01*
X150872000Y-84285750D01*
X150872000Y-84180690D01*
X150775327Y-83947301D01*
X150596698Y-83768673D01*
X150363309Y-83672000D01*
X150270750Y-83672000D01*
X150112000Y-83830750D01*
X149893256Y-83830750D01*
X149984826Y-83769566D01*
X150069034Y-83643539D01*
X150098604Y-83494880D01*
X150098604Y-82683374D01*
X150171310Y-82731954D01*
G36*
X139369800Y-82485378D02*
X139369800Y-83669140D01*
X138826088Y-84212852D01*
X138660899Y-84047376D01*
X138433464Y-83952937D01*
X138433464Y-83803773D01*
X138643119Y-83594118D01*
X138710874Y-83492714D01*
X138747386Y-83438071D01*
X138784000Y-83254000D01*
X138784000Y-82296000D01*
X138781605Y-82283959D01*
X138747387Y-82111930D01*
X138656999Y-81976655D01*
X138656999Y-81772577D01*
X139369800Y-82485378D01*
X139369800Y-82485378D01*
G37*
X139369800Y-82485378D02*
X139369800Y-83669140D01*
X138826088Y-84212852D01*
X138660899Y-84047376D01*
X138433464Y-83952937D01*
X138433464Y-83803773D01*
X138643119Y-83594118D01*
X138710874Y-83492714D01*
X138747386Y-83438071D01*
X138784000Y-83254000D01*
X138784000Y-82296000D01*
X138781605Y-82283959D01*
X138747387Y-82111930D01*
X138656999Y-81976655D01*
X138656999Y-81772577D01*
X139369800Y-82485378D01*
G36*
X154462953Y-72085189D02*
X154586000Y-72208237D01*
X154585999Y-75667852D01*
X154534852Y-75719000D01*
X153157475Y-75719000D01*
X152973404Y-75755614D01*
X152917909Y-75792695D01*
X152817357Y-75859881D01*
X150789882Y-77887357D01*
X150685614Y-78043404D01*
X150649000Y-78227475D01*
X150649000Y-79683764D01*
X149773882Y-80558882D01*
X149673806Y-80708656D01*
X147911820Y-80708656D01*
X147763161Y-80738226D01*
X147656638Y-80809402D01*
X147316043Y-80468807D01*
X147316109Y-80393037D01*
X147220248Y-80161034D01*
X147042899Y-79983376D01*
X147020267Y-79973978D01*
X147301169Y-79693077D01*
X147376938Y-79693143D01*
X147608941Y-79597282D01*
X147704389Y-79502000D01*
X150495000Y-79502000D01*
X150543601Y-79492333D01*
X150584803Y-79464803D01*
X150612333Y-79423601D01*
X150622000Y-79375000D01*
X150622000Y-76592879D01*
X150641926Y-76563057D01*
X150686997Y-76495604D01*
X150745001Y-76203999D01*
X150745001Y-72563801D01*
X150686997Y-72272196D01*
X150622000Y-72174921D01*
X150622000Y-72085188D01*
X154462953Y-72085189D01*
X154462953Y-72085189D01*
G37*
X154462953Y-72085189D02*
X154586000Y-72208237D01*
X154585999Y-75667852D01*
X154534852Y-75719000D01*
X153157475Y-75719000D01*
X152973404Y-75755614D01*
X152917909Y-75792695D01*
X152817357Y-75859881D01*
X150789882Y-77887357D01*
X150685614Y-78043404D01*
X150649000Y-78227475D01*
X150649000Y-79683764D01*
X149773882Y-80558882D01*
X149673806Y-80708656D01*
X147911820Y-80708656D01*
X147763161Y-80738226D01*
X147656638Y-80809402D01*
X147316043Y-80468807D01*
X147316109Y-80393037D01*
X147220248Y-80161034D01*
X147042899Y-79983376D01*
X147020267Y-79973978D01*
X147301169Y-79693077D01*
X147376938Y-79693143D01*
X147608941Y-79597282D01*
X147704389Y-79502000D01*
X150495000Y-79502000D01*
X150543601Y-79492333D01*
X150584803Y-79464803D01*
X150612333Y-79423601D01*
X150622000Y-79375000D01*
X150622000Y-76592879D01*
X150641926Y-76563057D01*
X150686997Y-76495604D01*
X150745001Y-76203999D01*
X150745001Y-72563801D01*
X150686997Y-72272196D01*
X150622000Y-72174921D01*
X150622000Y-72085188D01*
X154462953Y-72085189D01*
G36*
X140970000Y-79502000D02*
X142067763Y-79502000D01*
X141245072Y-80324692D01*
X141148434Y-80469320D01*
X140939811Y-80260697D01*
X140939811Y-79495995D01*
X140970000Y-79502000D01*
X140970000Y-79502000D01*
G37*
X140970000Y-79502000D02*
X142067763Y-79502000D01*
X141245072Y-80324692D01*
X141148434Y-80469320D01*
X140939811Y-80260697D01*
X140939811Y-79495995D01*
X140970000Y-79502000D01*
G36*
X136655957Y-77773194D02*
X136655891Y-77848963D01*
X136751752Y-78080966D01*
X136929101Y-78258624D01*
X137096500Y-78328134D01*
X137096500Y-78613000D01*
X137267978Y-78613000D01*
X137267978Y-79375000D01*
X137096500Y-79375000D01*
X137096500Y-79875536D01*
X136461500Y-79875536D01*
X136461500Y-79375000D01*
X136244000Y-79375000D01*
X136244000Y-78613000D01*
X136461500Y-78613000D01*
X136461500Y-77755750D01*
X136394031Y-77688281D01*
X136394109Y-77599037D01*
X136332363Y-77449600D01*
X136655957Y-77773194D01*
X136655957Y-77773194D01*
G37*
X136655957Y-77773194D02*
X136655891Y-77848963D01*
X136751752Y-78080966D01*
X136929101Y-78258624D01*
X137096500Y-78328134D01*
X137096500Y-78613000D01*
X137267978Y-78613000D01*
X137267978Y-79375000D01*
X137096500Y-79375000D01*
X137096500Y-79875536D01*
X136461500Y-79875536D01*
X136461500Y-79375000D01*
X136244000Y-79375000D01*
X136244000Y-78613000D01*
X136461500Y-78613000D01*
X136461500Y-77755750D01*
X136394031Y-77688281D01*
X136394109Y-77599037D01*
X136332363Y-77449600D01*
X136655957Y-77773194D01*
G36*
X129082800Y-77285818D02*
X128898618Y-77470000D01*
X129096998Y-77668380D01*
X129117602Y-77771963D01*
X129216711Y-77920289D01*
X129942401Y-78645979D01*
X129942401Y-79252019D01*
X129796037Y-79251891D01*
X129564034Y-79347752D01*
X129427021Y-79484527D01*
X129347282Y-79291542D01*
X128990337Y-78933974D01*
X128820702Y-78863536D01*
X128890770Y-78719388D01*
X128270000Y-78098618D01*
X127649230Y-78719388D01*
X127719244Y-78863425D01*
X127551542Y-78932718D01*
X127508000Y-78976184D01*
X127508000Y-77603382D01*
X127641382Y-77470000D01*
X127508000Y-77336618D01*
X127508000Y-75964290D01*
X127549663Y-76006026D01*
X127719298Y-76076464D01*
X127649230Y-76220612D01*
X128270000Y-76841382D01*
X128890770Y-76220612D01*
X128820756Y-76076575D01*
X128988458Y-76007282D01*
X129082800Y-75913104D01*
X129082800Y-77285818D01*
X129082800Y-77285818D01*
G37*
X129082800Y-77285818D02*
X128898618Y-77470000D01*
X129096998Y-77668380D01*
X129117602Y-77771963D01*
X129216711Y-77920289D01*
X129942401Y-78645979D01*
X129942401Y-79252019D01*
X129796037Y-79251891D01*
X129564034Y-79347752D01*
X129427021Y-79484527D01*
X129347282Y-79291542D01*
X128990337Y-78933974D01*
X128820702Y-78863536D01*
X128890770Y-78719388D01*
X128270000Y-78098618D01*
X127649230Y-78719388D01*
X127719244Y-78863425D01*
X127551542Y-78932718D01*
X127508000Y-78976184D01*
X127508000Y-77603382D01*
X127641382Y-77470000D01*
X127508000Y-77336618D01*
X127508000Y-75964290D01*
X127549663Y-76006026D01*
X127719298Y-76076464D01*
X127649230Y-76220612D01*
X128270000Y-76841382D01*
X128890770Y-76220612D01*
X128820756Y-76076575D01*
X128988458Y-76007282D01*
X129082800Y-75913104D01*
X129082800Y-77285818D01*
G36*
X139192000Y-66484500D02*
X139201667Y-66533101D01*
X139229197Y-66574303D01*
X139270399Y-66601833D01*
X139319000Y-66611500D01*
X159512000Y-66611500D01*
X159512000Y-68572536D01*
X157861000Y-68572536D01*
X157712341Y-68602106D01*
X157586314Y-68686314D01*
X157502106Y-68812341D01*
X157472536Y-68961000D01*
X157472536Y-68962485D01*
X157139794Y-69028671D01*
X156851382Y-69221382D01*
X156841092Y-69236782D01*
X156841109Y-69217037D01*
X156745248Y-68985034D01*
X156567899Y-68807376D01*
X156336064Y-68711110D01*
X156085037Y-68710891D01*
X155853034Y-68806752D01*
X155675376Y-68984101D01*
X155579110Y-69215936D01*
X155579094Y-69234134D01*
X152387556Y-69234134D01*
X152395890Y-69214064D01*
X152395982Y-69108198D01*
X152400000Y-69088000D01*
X152396017Y-69067978D01*
X152396109Y-68963037D01*
X152355682Y-68865195D01*
X152351664Y-68844996D01*
X152340322Y-68828022D01*
X152300248Y-68731034D01*
X152225454Y-68656110D01*
X152214013Y-68638987D01*
X152197039Y-68627646D01*
X152122899Y-68553376D01*
X152025129Y-68512778D01*
X152008004Y-68501336D01*
X151987980Y-68497353D01*
X151891064Y-68457110D01*
X151785198Y-68457018D01*
X151765000Y-68453000D01*
X151012026Y-68453000D01*
X150613824Y-68054798D01*
X150407815Y-67917147D01*
X150164811Y-67868811D01*
X148903837Y-67868811D01*
X148277013Y-67241987D01*
X148071004Y-67104336D01*
X147828000Y-67056000D01*
X142112992Y-67056000D01*
X141869988Y-67104336D01*
X141663979Y-67241987D01*
X141291155Y-67614811D01*
X137473837Y-67614811D01*
X136339013Y-66479987D01*
X136322039Y-66468646D01*
X136247899Y-66394376D01*
X136150129Y-66353778D01*
X136133004Y-66342336D01*
X136112980Y-66338353D01*
X136016064Y-66298110D01*
X135910198Y-66298018D01*
X135890000Y-66294000D01*
X134874000Y-66294000D01*
X134853978Y-66297983D01*
X134749037Y-66297891D01*
X134651195Y-66338318D01*
X134630996Y-66342336D01*
X134614022Y-66353678D01*
X134517034Y-66393752D01*
X134442110Y-66468546D01*
X134424987Y-66479987D01*
X134413646Y-66496961D01*
X134339376Y-66571101D01*
X134298778Y-66668871D01*
X134287336Y-66685996D01*
X134283353Y-66706020D01*
X134243110Y-66802936D01*
X134243018Y-66908802D01*
X134239000Y-66929000D01*
X134242983Y-66949022D01*
X134242891Y-67053963D01*
X134283318Y-67151805D01*
X134287336Y-67172004D01*
X134298678Y-67188978D01*
X134338752Y-67285966D01*
X134413546Y-67360890D01*
X134424987Y-67378013D01*
X134441961Y-67389354D01*
X134516101Y-67463624D01*
X134613871Y-67504222D01*
X134630996Y-67515664D01*
X134651020Y-67519647D01*
X134747936Y-67559890D01*
X134785696Y-67559923D01*
X134731300Y-67690923D01*
X134731081Y-67941950D01*
X134826942Y-68173953D01*
X135004291Y-68351611D01*
X135236126Y-68447877D01*
X135487153Y-68448096D01*
X135614145Y-68395625D01*
X135936056Y-68717536D01*
X135840000Y-68717536D01*
X135715000Y-68742400D01*
X135590000Y-68717536D01*
X135090000Y-68717536D01*
X135014567Y-68732541D01*
X134849698Y-68567673D01*
X134616309Y-68471000D01*
X134523750Y-68471000D01*
X134365000Y-68629750D01*
X134365000Y-69356000D01*
X134701536Y-69356000D01*
X134701536Y-69714212D01*
X134681361Y-69815639D01*
X134681361Y-69856000D01*
X134365000Y-69856000D01*
X134365000Y-70438763D01*
X134115000Y-70188764D01*
X134115000Y-69856000D01*
X133782236Y-69856000D01*
X133778464Y-69852228D01*
X133778464Y-69356000D01*
X134115000Y-69356000D01*
X134115000Y-68629750D01*
X133956250Y-68471000D01*
X133863691Y-68471000D01*
X133630302Y-68567673D01*
X133465433Y-68732541D01*
X133390000Y-68717536D01*
X132890000Y-68717536D01*
X132741341Y-68747106D01*
X132615314Y-68831314D01*
X132590000Y-68869199D01*
X132564686Y-68831314D01*
X132438659Y-68747106D01*
X132290000Y-68717536D01*
X131790000Y-68717536D01*
X131641341Y-68747106D01*
X131515314Y-68831314D01*
X131431106Y-68957341D01*
X131401536Y-69106000D01*
X131401536Y-70106000D01*
X131404520Y-70121000D01*
X131123750Y-70121000D01*
X130965000Y-70279750D01*
X130965000Y-72898000D01*
X131191000Y-72898000D01*
X131191000Y-73025000D01*
X131194983Y-73045022D01*
X131194891Y-73149963D01*
X131235318Y-73247805D01*
X131239336Y-73268004D01*
X131250678Y-73284978D01*
X131290752Y-73381966D01*
X131365546Y-73456890D01*
X131376987Y-73474013D01*
X132461000Y-74558026D01*
X132461000Y-75164156D01*
X132314627Y-75164028D01*
X132082624Y-75259889D01*
X131984135Y-75358206D01*
X131975000Y-75360023D01*
X131975000Y-74072750D01*
X131816250Y-73914000D01*
X130965000Y-73914000D01*
X130965000Y-76463294D01*
X130413689Y-77014603D01*
X130314580Y-77162930D01*
X130283613Y-77318615D01*
X130279778Y-77337893D01*
X130279778Y-77690200D01*
X129997200Y-77407622D01*
X129997200Y-77041000D01*
X130056250Y-77041000D01*
X130215000Y-76882250D01*
X130215000Y-73914000D01*
X129997200Y-73914000D01*
X129997200Y-72898000D01*
X130215000Y-72898000D01*
X130215000Y-70279750D01*
X130056250Y-70121000D01*
X129713691Y-70121000D01*
X129646473Y-70148843D01*
X129547464Y-70049834D01*
X129547464Y-69117369D01*
X129583580Y-69171420D01*
X129913193Y-69391662D01*
X130302000Y-69468999D01*
X130690807Y-69391662D01*
X131020420Y-69171420D01*
X131470420Y-68721421D01*
X131470422Y-68721418D01*
X132620609Y-67571232D01*
X132833862Y-67252077D01*
X132840851Y-67241617D01*
X132908646Y-66900788D01*
X136055445Y-63753990D01*
X136271000Y-63753990D01*
X136659806Y-63676652D01*
X136989420Y-63456410D01*
X137209662Y-63126796D01*
X137287000Y-62737990D01*
X137209662Y-62349184D01*
X136989420Y-62019570D01*
X136659806Y-61799328D01*
X136271000Y-61721990D01*
X135634604Y-61721990D01*
X135310304Y-61786497D01*
X135245797Y-61799328D01*
X134916184Y-62019569D01*
X131183769Y-65751985D01*
X130963527Y-66081598D01*
X130963527Y-66081599D01*
X130962172Y-66088410D01*
X130729223Y-65739777D01*
X130358407Y-65492006D01*
X129921000Y-65405000D01*
X128905000Y-65405000D01*
X128467593Y-65492006D01*
X128096777Y-65739777D01*
X127508000Y-66328554D01*
X127508000Y-63692604D01*
X127941753Y-63872714D01*
X128595379Y-63873284D01*
X129199469Y-63623680D01*
X129662055Y-63161900D01*
X129912714Y-62558247D01*
X129913284Y-61904621D01*
X129732877Y-61468000D01*
X139192000Y-61468000D01*
X139192000Y-66484500D01*
X139192000Y-66484500D01*
G37*
X139192000Y-66484500D02*
X139201667Y-66533101D01*
X139229197Y-66574303D01*
X139270399Y-66601833D01*
X139319000Y-66611500D01*
X159512000Y-66611500D01*
X159512000Y-68572536D01*
X157861000Y-68572536D01*
X157712341Y-68602106D01*
X157586314Y-68686314D01*
X157502106Y-68812341D01*
X157472536Y-68961000D01*
X157472536Y-68962485D01*
X157139794Y-69028671D01*
X156851382Y-69221382D01*
X156841092Y-69236782D01*
X156841109Y-69217037D01*
X156745248Y-68985034D01*
X156567899Y-68807376D01*
X156336064Y-68711110D01*
X156085037Y-68710891D01*
X155853034Y-68806752D01*
X155675376Y-68984101D01*
X155579110Y-69215936D01*
X155579094Y-69234134D01*
X152387556Y-69234134D01*
X152395890Y-69214064D01*
X152395982Y-69108198D01*
X152400000Y-69088000D01*
X152396017Y-69067978D01*
X152396109Y-68963037D01*
X152355682Y-68865195D01*
X152351664Y-68844996D01*
X152340322Y-68828022D01*
X152300248Y-68731034D01*
X152225454Y-68656110D01*
X152214013Y-68638987D01*
X152197039Y-68627646D01*
X152122899Y-68553376D01*
X152025129Y-68512778D01*
X152008004Y-68501336D01*
X151987980Y-68497353D01*
X151891064Y-68457110D01*
X151785198Y-68457018D01*
X151765000Y-68453000D01*
X151012026Y-68453000D01*
X150613824Y-68054798D01*
X150407815Y-67917147D01*
X150164811Y-67868811D01*
X148903837Y-67868811D01*
X148277013Y-67241987D01*
X148071004Y-67104336D01*
X147828000Y-67056000D01*
X142112992Y-67056000D01*
X141869988Y-67104336D01*
X141663979Y-67241987D01*
X141291155Y-67614811D01*
X137473837Y-67614811D01*
X136339013Y-66479987D01*
X136322039Y-66468646D01*
X136247899Y-66394376D01*
X136150129Y-66353778D01*
X136133004Y-66342336D01*
X136112980Y-66338353D01*
X136016064Y-66298110D01*
X135910198Y-66298018D01*
X135890000Y-66294000D01*
X134874000Y-66294000D01*
X134853978Y-66297983D01*
X134749037Y-66297891D01*
X134651195Y-66338318D01*
X134630996Y-66342336D01*
X134614022Y-66353678D01*
X134517034Y-66393752D01*
X134442110Y-66468546D01*
X134424987Y-66479987D01*
X134413646Y-66496961D01*
X134339376Y-66571101D01*
X134298778Y-66668871D01*
X134287336Y-66685996D01*
X134283353Y-66706020D01*
X134243110Y-66802936D01*
X134243018Y-66908802D01*
X134239000Y-66929000D01*
X134242983Y-66949022D01*
X134242891Y-67053963D01*
X134283318Y-67151805D01*
X134287336Y-67172004D01*
X134298678Y-67188978D01*
X134338752Y-67285966D01*
X134413546Y-67360890D01*
X134424987Y-67378013D01*
X134441961Y-67389354D01*
X134516101Y-67463624D01*
X134613871Y-67504222D01*
X134630996Y-67515664D01*
X134651020Y-67519647D01*
X134747936Y-67559890D01*
X134785696Y-67559923D01*
X134731300Y-67690923D01*
X134731081Y-67941950D01*
X134826942Y-68173953D01*
X135004291Y-68351611D01*
X135236126Y-68447877D01*
X135487153Y-68448096D01*
X135614145Y-68395625D01*
X135936056Y-68717536D01*
X135840000Y-68717536D01*
X135715000Y-68742400D01*
X135590000Y-68717536D01*
X135090000Y-68717536D01*
X135014567Y-68732541D01*
X134849698Y-68567673D01*
X134616309Y-68471000D01*
X134523750Y-68471000D01*
X134365000Y-68629750D01*
X134365000Y-69356000D01*
X134701536Y-69356000D01*
X134701536Y-69714212D01*
X134681361Y-69815639D01*
X134681361Y-69856000D01*
X134365000Y-69856000D01*
X134365000Y-70438763D01*
X134115000Y-70188764D01*
X134115000Y-69856000D01*
X133782236Y-69856000D01*
X133778464Y-69852228D01*
X133778464Y-69356000D01*
X134115000Y-69356000D01*
X134115000Y-68629750D01*
X133956250Y-68471000D01*
X133863691Y-68471000D01*
X133630302Y-68567673D01*
X133465433Y-68732541D01*
X133390000Y-68717536D01*
X132890000Y-68717536D01*
X132741341Y-68747106D01*
X132615314Y-68831314D01*
X132590000Y-68869199D01*
X132564686Y-68831314D01*
X132438659Y-68747106D01*
X132290000Y-68717536D01*
X131790000Y-68717536D01*
X131641341Y-68747106D01*
X131515314Y-68831314D01*
X131431106Y-68957341D01*
X131401536Y-69106000D01*
X131401536Y-70106000D01*
X131404520Y-70121000D01*
X131123750Y-70121000D01*
X130965000Y-70279750D01*
X130965000Y-72898000D01*
X131191000Y-72898000D01*
X131191000Y-73025000D01*
X131194983Y-73045022D01*
X131194891Y-73149963D01*
X131235318Y-73247805D01*
X131239336Y-73268004D01*
X131250678Y-73284978D01*
X131290752Y-73381966D01*
X131365546Y-73456890D01*
X131376987Y-73474013D01*
X132461000Y-74558026D01*
X132461000Y-75164156D01*
X132314627Y-75164028D01*
X132082624Y-75259889D01*
X131984135Y-75358206D01*
X131975000Y-75360023D01*
X131975000Y-74072750D01*
X131816250Y-73914000D01*
X130965000Y-73914000D01*
X130965000Y-76463294D01*
X130413689Y-77014603D01*
X130314580Y-77162930D01*
X130283613Y-77318615D01*
X130279778Y-77337893D01*
X130279778Y-77690200D01*
X129997200Y-77407622D01*
X129997200Y-77041000D01*
X130056250Y-77041000D01*
X130215000Y-76882250D01*
X130215000Y-73914000D01*
X129997200Y-73914000D01*
X129997200Y-72898000D01*
X130215000Y-72898000D01*
X130215000Y-70279750D01*
X130056250Y-70121000D01*
X129713691Y-70121000D01*
X129646473Y-70148843D01*
X129547464Y-70049834D01*
X129547464Y-69117369D01*
X129583580Y-69171420D01*
X129913193Y-69391662D01*
X130302000Y-69468999D01*
X130690807Y-69391662D01*
X131020420Y-69171420D01*
X131470420Y-68721421D01*
X131470422Y-68721418D01*
X132620609Y-67571232D01*
X132833862Y-67252077D01*
X132840851Y-67241617D01*
X132908646Y-66900788D01*
X136055445Y-63753990D01*
X136271000Y-63753990D01*
X136659806Y-63676652D01*
X136989420Y-63456410D01*
X137209662Y-63126796D01*
X137287000Y-62737990D01*
X137209662Y-62349184D01*
X136989420Y-62019570D01*
X136659806Y-61799328D01*
X136271000Y-61721990D01*
X135634604Y-61721990D01*
X135310304Y-61786497D01*
X135245797Y-61799328D01*
X134916184Y-62019569D01*
X131183769Y-65751985D01*
X130963527Y-66081598D01*
X130963527Y-66081599D01*
X130962172Y-66088410D01*
X130729223Y-65739777D01*
X130358407Y-65492006D01*
X129921000Y-65405000D01*
X128905000Y-65405000D01*
X128467593Y-65492006D01*
X128096777Y-65739777D01*
X127508000Y-66328554D01*
X127508000Y-63692604D01*
X127941753Y-63872714D01*
X128595379Y-63873284D01*
X129199469Y-63623680D01*
X129662055Y-63161900D01*
X129912714Y-62558247D01*
X129913284Y-61904621D01*
X129732877Y-61468000D01*
X139192000Y-61468000D01*
X139192000Y-66484500D01*
G36*
X143590566Y-69599291D02*
X143494300Y-69831126D01*
X143494081Y-70082153D01*
X143589942Y-70314156D01*
X143726504Y-70450956D01*
X143285070Y-70892390D01*
X142779234Y-70892390D01*
X142725703Y-70838766D01*
X142575000Y-70776189D01*
X142575000Y-70629690D01*
X142478327Y-70396301D01*
X142299698Y-70217673D01*
X142066309Y-70121000D01*
X141723750Y-70121000D01*
X141565000Y-70279750D01*
X141565000Y-70993000D01*
X140970000Y-70993000D01*
X140921399Y-71002667D01*
X140880197Y-71030197D01*
X140852667Y-71071399D01*
X140843000Y-71120000D01*
X140843000Y-76594844D01*
X140815000Y-76552939D01*
X140815000Y-73914000D01*
X140481610Y-73914000D01*
X140493184Y-73855816D01*
X140493184Y-73055430D01*
X140546808Y-73001899D01*
X140589950Y-72898000D01*
X140815000Y-72898000D01*
X140815000Y-70693362D01*
X140945966Y-70639248D01*
X141123624Y-70461899D01*
X141219890Y-70230064D01*
X141220109Y-69979037D01*
X141124248Y-69747034D01*
X141073303Y-69696000D01*
X141986000Y-69696000D01*
X142170071Y-69659386D01*
X142326118Y-69555118D01*
X142450290Y-69430946D01*
X143759204Y-69430946D01*
X143590566Y-69599291D01*
X143590566Y-69599291D01*
G37*
X143590566Y-69599291D02*
X143494300Y-69831126D01*
X143494081Y-70082153D01*
X143589942Y-70314156D01*
X143726504Y-70450956D01*
X143285070Y-70892390D01*
X142779234Y-70892390D01*
X142725703Y-70838766D01*
X142575000Y-70776189D01*
X142575000Y-70629690D01*
X142478327Y-70396301D01*
X142299698Y-70217673D01*
X142066309Y-70121000D01*
X141723750Y-70121000D01*
X141565000Y-70279750D01*
X141565000Y-70993000D01*
X140970000Y-70993000D01*
X140921399Y-71002667D01*
X140880197Y-71030197D01*
X140852667Y-71071399D01*
X140843000Y-71120000D01*
X140843000Y-76594844D01*
X140815000Y-76552939D01*
X140815000Y-73914000D01*
X140481610Y-73914000D01*
X140493184Y-73855816D01*
X140493184Y-73055430D01*
X140546808Y-73001899D01*
X140589950Y-72898000D01*
X140815000Y-72898000D01*
X140815000Y-70693362D01*
X140945966Y-70639248D01*
X141123624Y-70461899D01*
X141219890Y-70230064D01*
X141220109Y-69979037D01*
X141124248Y-69747034D01*
X141073303Y-69696000D01*
X141986000Y-69696000D01*
X142170071Y-69659386D01*
X142326118Y-69555118D01*
X142450290Y-69430946D01*
X143759204Y-69430946D01*
X143590566Y-69599291D01*
G36*
X157376101Y-71781624D02*
X157590515Y-71870656D01*
X157480221Y-72136273D01*
X157479831Y-72582538D01*
X156814185Y-73248185D01*
X156687811Y-73437317D01*
X156687811Y-72719425D01*
X157185119Y-72222118D01*
X157289387Y-72066070D01*
X157326000Y-71882000D01*
X157326000Y-71731436D01*
X157376101Y-71781624D01*
X157376101Y-71781624D01*
G37*
X157376101Y-71781624D02*
X157590515Y-71870656D01*
X157480221Y-72136273D01*
X157479831Y-72582538D01*
X156814185Y-73248185D01*
X156687811Y-73437317D01*
X156687811Y-72719425D01*
X157185119Y-72222118D01*
X157289387Y-72066070D01*
X157326000Y-71882000D01*
X157326000Y-71731436D01*
X157376101Y-71781624D01*
G36*
X133448338Y-72025575D02*
X133381195Y-72053318D01*
X133360996Y-72057336D01*
X133344022Y-72068678D01*
X133247034Y-72108752D01*
X133172110Y-72183546D01*
X133154987Y-72194987D01*
X133143646Y-72211961D01*
X133069376Y-72286101D01*
X133028778Y-72383871D01*
X133017336Y-72400996D01*
X133013353Y-72421020D01*
X132973110Y-72517936D01*
X132973018Y-72623802D01*
X132969000Y-72644000D01*
X132969000Y-72761974D01*
X132275013Y-72067987D01*
X132258039Y-72056646D01*
X132183899Y-71982376D01*
X132086129Y-71941778D01*
X132069004Y-71930336D01*
X132048980Y-71926353D01*
X131975000Y-71895634D01*
X131975000Y-71029690D01*
X131936209Y-70936041D01*
X131975000Y-70897250D01*
X131975000Y-70629690D01*
X131920232Y-70497468D01*
X133448338Y-72025575D01*
X133448338Y-72025575D01*
G37*
X133448338Y-72025575D02*
X133381195Y-72053318D01*
X133360996Y-72057336D01*
X133344022Y-72068678D01*
X133247034Y-72108752D01*
X133172110Y-72183546D01*
X133154987Y-72194987D01*
X133143646Y-72211961D01*
X133069376Y-72286101D01*
X133028778Y-72383871D01*
X133017336Y-72400996D01*
X133013353Y-72421020D01*
X132973110Y-72517936D01*
X132973018Y-72623802D01*
X132969000Y-72644000D01*
X132969000Y-72761974D01*
X132275013Y-72067987D01*
X132258039Y-72056646D01*
X132183899Y-71982376D01*
X132086129Y-71941778D01*
X132069004Y-71930336D01*
X132048980Y-71926353D01*
X131975000Y-71895634D01*
X131975000Y-71029690D01*
X131936209Y-70936041D01*
X131975000Y-70897250D01*
X131975000Y-70629690D01*
X131920232Y-70497468D01*
X133448338Y-72025575D01*
G36*
X141736914Y-71247326D02*
X141736695Y-71498353D01*
X141832556Y-71730356D01*
X141856208Y-71754049D01*
X141770836Y-71959648D01*
X141770617Y-72210675D01*
X141866478Y-72442678D01*
X142043827Y-72620336D01*
X142275662Y-72716602D01*
X142526689Y-72716821D01*
X142758692Y-72620960D01*
X142813035Y-72566712D01*
X144713194Y-72566712D01*
X144897265Y-72530098D01*
X145053312Y-72425830D01*
X146015665Y-71463477D01*
X146146185Y-71658815D01*
X146654184Y-72166815D01*
X146834105Y-72287034D01*
X146901395Y-72331996D01*
X147193000Y-72390000D01*
X148528370Y-72390000D01*
X149097992Y-72959623D01*
X149097992Y-74676000D01*
X149098000Y-74676040D01*
X149098000Y-76011369D01*
X147995986Y-77113384D01*
X147830805Y-77360595D01*
X147772802Y-77652199D01*
X147830805Y-77943803D01*
X147995986Y-78191014D01*
X148243197Y-78356195D01*
X148534801Y-78414198D01*
X148826405Y-78356195D01*
X149073616Y-78191014D01*
X150368000Y-76896631D01*
X150368000Y-79248000D01*
X147857992Y-79248000D01*
X147882865Y-79188098D01*
X147883084Y-78937071D01*
X147787223Y-78705068D01*
X147609874Y-78527410D01*
X147378039Y-78431144D01*
X147127012Y-78430925D01*
X146895009Y-78526786D01*
X146717351Y-78704135D01*
X146698286Y-78750048D01*
X146534899Y-78586376D01*
X146303064Y-78490110D01*
X146052037Y-78489891D01*
X145820034Y-78585752D01*
X145642376Y-78763101D01*
X145636271Y-78777804D01*
X145479295Y-78620555D01*
X145247460Y-78524289D01*
X144996433Y-78524070D01*
X144764430Y-78619931D01*
X144710087Y-78674179D01*
X143094821Y-78674179D01*
X142910750Y-78710793D01*
X142848247Y-78752557D01*
X142754703Y-78815060D01*
X142321763Y-79248000D01*
X141097000Y-79248000D01*
X141097000Y-71247000D01*
X141737049Y-71247000D01*
X141736914Y-71247326D01*
X141736914Y-71247326D01*
G37*
X141736914Y-71247326D02*
X141736695Y-71498353D01*
X141832556Y-71730356D01*
X141856208Y-71754049D01*
X141770836Y-71959648D01*
X141770617Y-72210675D01*
X141866478Y-72442678D01*
X142043827Y-72620336D01*
X142275662Y-72716602D01*
X142526689Y-72716821D01*
X142758692Y-72620960D01*
X142813035Y-72566712D01*
X144713194Y-72566712D01*
X144897265Y-72530098D01*
X145053312Y-72425830D01*
X146015665Y-71463477D01*
X146146185Y-71658815D01*
X146654184Y-72166815D01*
X146834105Y-72287034D01*
X146901395Y-72331996D01*
X147193000Y-72390000D01*
X148528370Y-72390000D01*
X149097992Y-72959623D01*
X149097992Y-74676000D01*
X149098000Y-74676040D01*
X149098000Y-76011369D01*
X147995986Y-77113384D01*
X147830805Y-77360595D01*
X147772802Y-77652199D01*
X147830805Y-77943803D01*
X147995986Y-78191014D01*
X148243197Y-78356195D01*
X148534801Y-78414198D01*
X148826405Y-78356195D01*
X149073616Y-78191014D01*
X150368000Y-76896631D01*
X150368000Y-79248000D01*
X147857992Y-79248000D01*
X147882865Y-79188098D01*
X147883084Y-78937071D01*
X147787223Y-78705068D01*
X147609874Y-78527410D01*
X147378039Y-78431144D01*
X147127012Y-78430925D01*
X146895009Y-78526786D01*
X146717351Y-78704135D01*
X146698286Y-78750048D01*
X146534899Y-78586376D01*
X146303064Y-78490110D01*
X146052037Y-78489891D01*
X145820034Y-78585752D01*
X145642376Y-78763101D01*
X145636271Y-78777804D01*
X145479295Y-78620555D01*
X145247460Y-78524289D01*
X144996433Y-78524070D01*
X144764430Y-78619931D01*
X144710087Y-78674179D01*
X143094821Y-78674179D01*
X142910750Y-78710793D01*
X142848247Y-78752557D01*
X142754703Y-78815060D01*
X142321763Y-79248000D01*
X141097000Y-79248000D01*
X141097000Y-71247000D01*
X141737049Y-71247000D01*
X141736914Y-71247326D01*
M02*
