G04 #@! TF.GenerationSoftware,KiCad,Pcbnew,no-vcs-found-bf44d39~61~ubuntu16.04.1*
G04 #@! TF.CreationDate,2018-01-10T12:05:20+02:00*
G04 #@! TF.ProjectId,ESP32-PRO_Rev_B,45535033322D50524F5F5265765F422E,C*
G04 #@! TF.SameCoordinates,Original*
G04 #@! TF.FileFunction,Soldermask,Bot*
G04 #@! TF.FilePolarity,Negative*
%FSLAX46Y46*%
G04 Gerber Fmt 4.6, Leading zero omitted, Abs format (unit mm)*
G04 Created by KiCad (PCBNEW no-vcs-found-bf44d39~61~ubuntu16.04.1) date Wed Jan 10 12:05:20 2018*
%MOMM*%
%LPD*%
G01*
G04 APERTURE LIST*
%ADD10C,0.254000*%
%ADD11O,2.000000X2.000000*%
%ADD12O,1.301600X1.901600*%
%ADD13C,0.700000*%
%ADD14R,1.601600X0.901600*%
%ADD15R,1.625600X1.371600*%
%ADD16R,0.601600X0.651600*%
%ADD17R,1.601600X1.301600*%
%ADD18R,0.601600X1.101600*%
%ADD19R,1.371600X1.625600*%
%ADD20C,1.254000*%
%ADD21R,1.501600X1.501600*%
%ADD22C,1.501600*%
%ADD23R,1.117600X1.117600*%
%ADD24C,1.101600*%
%ADD25C,1.879600*%
%ADD26R,1.879600X1.879600*%
%ADD27R,1.899920X2.499360*%
%ADD28R,2.101600X0.501600*%
%ADD29R,0.501600X2.101600*%
%ADD30R,0.651600X0.601600*%
G04 APERTURE END LIST*
D10*
X151130000Y-109220000D02*
X160020000Y-109220000D01*
X150749000Y-108839000D02*
X151130000Y-109220000D01*
X138811000Y-108839000D02*
X150749000Y-108839000D01*
X138430000Y-109220000D02*
X138811000Y-108839000D01*
X127000000Y-109220000D02*
X138430000Y-109220000D01*
X127000000Y-60960000D02*
X160020000Y-60960000D01*
X127000000Y-109220000D02*
X127000000Y-60960000D01*
X160020000Y-109220000D02*
X160020000Y-60960000D01*
D11*
X145323000Y-74677000D03*
D12*
X148380000Y-106041000D03*
X148380000Y-102571000D03*
X141180000Y-102571000D03*
X141180000Y-106041000D03*
D13*
X146780000Y-103891000D03*
X142780000Y-103891000D03*
D14*
X154432000Y-86868000D03*
X151232000Y-86868000D03*
X151232000Y-81368000D03*
X154432000Y-81368000D03*
D15*
X136652000Y-95250000D03*
X136652000Y-97282000D03*
D16*
X145288000Y-101092000D03*
X144272000Y-101092000D03*
D17*
X130590000Y-75806000D03*
X141190000Y-75806000D03*
X130590000Y-71356000D03*
X141190000Y-71356000D03*
D18*
X139740000Y-69606000D03*
X138640000Y-69606000D03*
X137540000Y-69606000D03*
X136790000Y-69606000D03*
X136090000Y-69606000D03*
X135340000Y-69606000D03*
X134240000Y-69606000D03*
X133140000Y-69606000D03*
X132040000Y-69606000D03*
D19*
X134747000Y-81026000D03*
X136779000Y-81026000D03*
D20*
X128270000Y-62230000D03*
X130810000Y-107950000D03*
X154940000Y-107950000D03*
D21*
X131960620Y-102892860D03*
D22*
X133972300Y-102890320D03*
D23*
X145669000Y-102362000D03*
X143891000Y-102362000D03*
D24*
X135890000Y-107950000D03*
D19*
X133477000Y-104902000D03*
X135509000Y-104902000D03*
X136779000Y-78994000D03*
X134747000Y-78994000D03*
D25*
X128270000Y-105410000D03*
X128270000Y-107950000D03*
X128270000Y-102870000D03*
X128270000Y-100330000D03*
X128270000Y-95250000D03*
X128270000Y-97790000D03*
X128270000Y-92710000D03*
X128270000Y-90170000D03*
X128270000Y-85090000D03*
X128270000Y-87630000D03*
X128270000Y-82550000D03*
X128270000Y-80010000D03*
D26*
X128270000Y-69850000D03*
D25*
X128270000Y-72390000D03*
X128270000Y-74930000D03*
X128270000Y-77470000D03*
X158750000Y-77470000D03*
X158750000Y-74930000D03*
X158750000Y-72390000D03*
D26*
X158750000Y-69850000D03*
D25*
X158750000Y-80010000D03*
X158750000Y-82550000D03*
X158750000Y-87630000D03*
X158750000Y-85090000D03*
X158750000Y-90170000D03*
X158750000Y-92710000D03*
X158750000Y-97790000D03*
X158750000Y-95250000D03*
X158750000Y-100330000D03*
X158750000Y-102870000D03*
X158750000Y-107950000D03*
X158750000Y-105410000D03*
D24*
X133350000Y-107950000D03*
D27*
X148810980Y-82296000D03*
X144813020Y-82296000D03*
D28*
X150710000Y-97865000D03*
X150710000Y-97065000D03*
X150710000Y-96265000D03*
X150710000Y-95465000D03*
X150710000Y-94665000D03*
X150710000Y-93865000D03*
X150710000Y-93065000D03*
X150710000Y-92265000D03*
X150710000Y-91465000D03*
X150710000Y-90665000D03*
X150710000Y-89865000D03*
D29*
X149110000Y-88265000D03*
X148310000Y-88265000D03*
X147510000Y-88265000D03*
X146710000Y-88265000D03*
X145910000Y-88265000D03*
X145110000Y-88265000D03*
X144310000Y-88265000D03*
X143510000Y-88265000D03*
X142710000Y-88265000D03*
X141910000Y-88265000D03*
X141110000Y-88265000D03*
D28*
X139510000Y-89865000D03*
X139510000Y-90665000D03*
X139510000Y-91465000D03*
X139510000Y-92265000D03*
X139510000Y-93065000D03*
X139510000Y-93865000D03*
X139510000Y-94665000D03*
X139510000Y-95465000D03*
X139510000Y-96265000D03*
X139510000Y-97065000D03*
X139510000Y-97865000D03*
D29*
X141110000Y-99465000D03*
X141910000Y-99465000D03*
X142710000Y-99465000D03*
X143510000Y-99465000D03*
X144310000Y-99465000D03*
X145110000Y-99465000D03*
X145910000Y-99465000D03*
X146710000Y-99465000D03*
X147510000Y-99465000D03*
X148310000Y-99465000D03*
X149110000Y-99465000D03*
D30*
X151892000Y-99695000D03*
X151892000Y-98679000D03*
X136017000Y-92964000D03*
X136017000Y-93980000D03*
D16*
X137922000Y-93980000D03*
X136906000Y-93980000D03*
D30*
X152908000Y-93472000D03*
X152908000Y-94488000D03*
X144653000Y-86487000D03*
X144653000Y-85471000D03*
X142748000Y-102489000D03*
X142748000Y-101473000D03*
D16*
X136906000Y-92075000D03*
X135890000Y-92075000D03*
X145669000Y-84582000D03*
X144653000Y-84582000D03*
X149987000Y-84582000D03*
X148971000Y-84582000D03*
X154178000Y-88773000D03*
X155194000Y-88773000D03*
D30*
X149352000Y-85471000D03*
X149352000Y-86487000D03*
D16*
X147574000Y-84582000D03*
X146558000Y-84582000D03*
X153289000Y-88773000D03*
X152273000Y-88773000D03*
X135890000Y-83693000D03*
X134874000Y-83693000D03*
D30*
X148463000Y-86487000D03*
X148463000Y-85471000D03*
D16*
X152273000Y-89789000D03*
X153289000Y-89789000D03*
X137795000Y-82804000D03*
X136779000Y-82804000D03*
X135890000Y-82804000D03*
X134874000Y-82804000D03*
X136779000Y-84582000D03*
X137795000Y-84582000D03*
X136779000Y-83693000D03*
X137795000Y-83693000D03*
X136906000Y-92964000D03*
X137922000Y-92964000D03*
X134937500Y-84582000D03*
X135953500Y-84582000D03*
M02*
