G04 #@! TF.GenerationSoftware,KiCad,Pcbnew,no-vcs-found-bf44d39~61~ubuntu16.04.1*
G04 #@! TF.CreationDate,2018-01-10T12:05:20+02:00*
G04 #@! TF.ProjectId,ESP32-PRO_Rev_B,45535033322D50524F5F5265765F422E,C*
G04 #@! TF.SameCoordinates,Original*
G04 #@! TF.FileFunction,Legend,Top*
G04 #@! TF.FilePolarity,Positive*
%FSLAX46Y46*%
G04 Gerber Fmt 4.6, Leading zero omitted, Abs format (unit mm)*
G04 Created by KiCad (PCBNEW no-vcs-found-bf44d39~61~ubuntu16.04.1) date Wed Jan 10 12:05:20 2018*
%MOMM*%
%LPD*%
G01*
G04 APERTURE LIST*
%ADD10C,0.508000*%
%ADD11C,0.254000*%
%ADD12C,0.127000*%
%ADD13C,0.190500*%
%ADD14C,0.250000*%
%ADD15C,0.203200*%
%ADD16C,0.200000*%
%ADD17C,0.009000*%
%ADD18C,0.100000*%
%ADD19C,0.050000*%
%ADD20C,0.150000*%
%ADD21C,0.400000*%
%ADD22C,0.158750*%
G04 APERTURE END LIST*
D10*
X147750000Y-67000000D02*
X147750000Y-67000000D01*
X146250000Y-67000000D02*
X147750000Y-67000000D01*
D11*
X143000000Y-91000000D02*
X143000000Y-91000000D01*
D10*
X141400000Y-91000000D02*
X143000000Y-91000000D01*
D11*
X139000000Y-89750000D02*
X139000000Y-89750000D01*
D10*
X139000000Y-88000000D02*
X139000000Y-89750000D01*
D11*
X139000000Y-79000000D02*
X139000000Y-79000000D01*
D10*
X139000000Y-76500000D02*
X139000000Y-79000000D01*
D12*
X151892000Y-74358500D02*
X151765000Y-74485500D01*
X151892000Y-74358500D02*
X152019000Y-74485500D01*
X151892000Y-75057000D02*
X151892000Y-74358500D01*
D11*
X144409305Y-97028000D02*
G75*
G03X144409305Y-97028000I-200805J0D01*
G01*
X136652000Y-101346000D02*
G75*
G03X136652000Y-101346000I-254000J0D01*
G01*
X159040285Y-68531619D02*
X158459714Y-68531619D01*
X158750000Y-68531619D02*
X158750000Y-67515619D01*
X158653238Y-67660761D01*
X158556476Y-67757523D01*
X158459714Y-67805904D01*
X135148609Y-91440000D02*
G75*
G03X135148609Y-91440000I-401609J0D01*
G01*
X134005609Y-77724000D02*
G75*
G03X134005609Y-77724000I-401609J0D01*
G01*
D10*
X139000000Y-75000000D02*
X139000000Y-71000000D01*
D13*
X130374571Y-104071964D02*
X130846285Y-104071964D01*
X130592285Y-104362250D01*
X130701142Y-104362250D01*
X130773714Y-104398535D01*
X130810000Y-104434821D01*
X130846285Y-104507392D01*
X130846285Y-104688821D01*
X130810000Y-104761392D01*
X130773714Y-104797678D01*
X130701142Y-104833964D01*
X130483428Y-104833964D01*
X130410857Y-104797678D01*
X130374571Y-104761392D01*
X131172857Y-104761392D02*
X131209142Y-104797678D01*
X131172857Y-104833964D01*
X131136571Y-104797678D01*
X131172857Y-104761392D01*
X131172857Y-104833964D01*
X131463142Y-104071964D02*
X131971142Y-104071964D01*
X131644571Y-104833964D01*
X132152571Y-104071964D02*
X132406571Y-104833964D01*
X132660571Y-104071964D01*
X132733142Y-104906535D02*
X133313714Y-104906535D01*
X133858000Y-104833964D02*
X133495142Y-104833964D01*
X133495142Y-104071964D01*
X134112000Y-104833964D02*
X134112000Y-104325964D01*
X134112000Y-104071964D02*
X134075714Y-104108250D01*
X134112000Y-104144535D01*
X134148285Y-104108250D01*
X134112000Y-104071964D01*
X134112000Y-104144535D01*
X134474857Y-104325964D02*
X134474857Y-105087964D01*
X134474857Y-104362250D02*
X134547428Y-104325964D01*
X134692571Y-104325964D01*
X134765142Y-104362250D01*
X134801428Y-104398535D01*
X134837714Y-104471107D01*
X134837714Y-104688821D01*
X134801428Y-104761392D01*
X134765142Y-104797678D01*
X134692571Y-104833964D01*
X134547428Y-104833964D01*
X134474857Y-104797678D01*
X135273142Y-104833964D02*
X135200571Y-104797678D01*
X135164285Y-104761392D01*
X135128000Y-104688821D01*
X135128000Y-104471107D01*
X135164285Y-104398535D01*
X135200571Y-104362250D01*
X135273142Y-104325964D01*
X135382000Y-104325964D01*
X135454571Y-104362250D01*
X135490857Y-104398535D01*
X135527142Y-104471107D01*
X135527142Y-104688821D01*
X135490857Y-104761392D01*
X135454571Y-104797678D01*
X135382000Y-104833964D01*
X135273142Y-104833964D01*
X131390571Y-105768321D02*
X131499428Y-105804607D01*
X131535714Y-105840892D01*
X131572000Y-105913464D01*
X131572000Y-106022321D01*
X131535714Y-106094892D01*
X131499428Y-106131178D01*
X131426857Y-106167464D01*
X131136571Y-106167464D01*
X131136571Y-105405464D01*
X131390571Y-105405464D01*
X131463142Y-105441750D01*
X131499428Y-105478035D01*
X131535714Y-105550607D01*
X131535714Y-105623178D01*
X131499428Y-105695750D01*
X131463142Y-105732035D01*
X131390571Y-105768321D01*
X131136571Y-105768321D01*
X132225142Y-106167464D02*
X132225142Y-105768321D01*
X132188857Y-105695750D01*
X132116285Y-105659464D01*
X131971142Y-105659464D01*
X131898571Y-105695750D01*
X132225142Y-106131178D02*
X132152571Y-106167464D01*
X131971142Y-106167464D01*
X131898571Y-106131178D01*
X131862285Y-106058607D01*
X131862285Y-105986035D01*
X131898571Y-105913464D01*
X131971142Y-105877178D01*
X132152571Y-105877178D01*
X132225142Y-105840892D01*
X132479142Y-105659464D02*
X132769428Y-105659464D01*
X132588000Y-105405464D02*
X132588000Y-106058607D01*
X132624285Y-106131178D01*
X132696857Y-106167464D01*
X132769428Y-106167464D01*
X132914571Y-105659464D02*
X133204857Y-105659464D01*
X133023428Y-105405464D02*
X133023428Y-106058607D01*
X133059714Y-106131178D01*
X133132285Y-106167464D01*
X133204857Y-106167464D01*
X133749142Y-106131178D02*
X133676571Y-106167464D01*
X133531428Y-106167464D01*
X133458857Y-106131178D01*
X133422571Y-106058607D01*
X133422571Y-105768321D01*
X133458857Y-105695750D01*
X133531428Y-105659464D01*
X133676571Y-105659464D01*
X133749142Y-105695750D01*
X133785428Y-105768321D01*
X133785428Y-105840892D01*
X133422571Y-105913464D01*
X134112000Y-106167464D02*
X134112000Y-105659464D01*
X134112000Y-105804607D02*
X134148285Y-105732035D01*
X134184571Y-105695750D01*
X134257142Y-105659464D01*
X134329714Y-105659464D01*
X134511142Y-105659464D02*
X134692571Y-106167464D01*
X134874000Y-105659464D02*
X134692571Y-106167464D01*
X134620000Y-106348892D01*
X134583714Y-106385178D01*
X134511142Y-106421464D01*
D14*
X135128047Y-102306428D02*
X135889952Y-102306428D01*
D12*
X154849285Y-65701333D02*
X154825095Y-65677142D01*
X154776714Y-65604571D01*
X154752523Y-65556190D01*
X154728333Y-65483619D01*
X154704142Y-65362666D01*
X154704142Y-65265904D01*
X154728333Y-65144952D01*
X154752523Y-65072380D01*
X154776714Y-65024000D01*
X154825095Y-64951428D01*
X154849285Y-64927238D01*
X155333095Y-65459428D02*
X155308904Y-65483619D01*
X155236333Y-65507809D01*
X155187952Y-65507809D01*
X155115380Y-65483619D01*
X155067000Y-65435238D01*
X155042809Y-65386857D01*
X155018619Y-65290095D01*
X155018619Y-65217523D01*
X155042809Y-65120761D01*
X155067000Y-65072380D01*
X155115380Y-65024000D01*
X155187952Y-64999809D01*
X155236333Y-64999809D01*
X155308904Y-65024000D01*
X155333095Y-65048190D01*
X155502428Y-65701333D02*
X155526619Y-65677142D01*
X155575000Y-65604571D01*
X155599190Y-65556190D01*
X155623380Y-65483619D01*
X155647571Y-65362666D01*
X155647571Y-65265904D01*
X155623380Y-65144952D01*
X155599190Y-65072380D01*
X155575000Y-65024000D01*
X155526619Y-64951428D01*
X155502428Y-64927238D01*
X156252333Y-65048190D02*
X156276523Y-65024000D01*
X156324904Y-64999809D01*
X156445857Y-64999809D01*
X156494238Y-65024000D01*
X156518428Y-65048190D01*
X156542619Y-65096571D01*
X156542619Y-65144952D01*
X156518428Y-65217523D01*
X156228142Y-65507809D01*
X156542619Y-65507809D01*
X156857095Y-64999809D02*
X156905476Y-64999809D01*
X156953857Y-65024000D01*
X156978047Y-65048190D01*
X157002238Y-65096571D01*
X157026428Y-65193333D01*
X157026428Y-65314285D01*
X157002238Y-65411047D01*
X156978047Y-65459428D01*
X156953857Y-65483619D01*
X156905476Y-65507809D01*
X156857095Y-65507809D01*
X156808714Y-65483619D01*
X156784523Y-65459428D01*
X156760333Y-65411047D01*
X156736142Y-65314285D01*
X156736142Y-65193333D01*
X156760333Y-65096571D01*
X156784523Y-65048190D01*
X156808714Y-65024000D01*
X156857095Y-64999809D01*
X157510238Y-65507809D02*
X157219952Y-65507809D01*
X157365095Y-65507809D02*
X157365095Y-64999809D01*
X157316714Y-65072380D01*
X157268333Y-65120761D01*
X157219952Y-65144952D01*
X157800523Y-65217523D02*
X157752142Y-65193333D01*
X157727952Y-65169142D01*
X157703761Y-65120761D01*
X157703761Y-65096571D01*
X157727952Y-65048190D01*
X157752142Y-65024000D01*
X157800523Y-64999809D01*
X157897285Y-64999809D01*
X157945666Y-65024000D01*
X157969857Y-65048190D01*
X157994047Y-65096571D01*
X157994047Y-65120761D01*
X157969857Y-65169142D01*
X157945666Y-65193333D01*
X157897285Y-65217523D01*
X157800523Y-65217523D01*
X157752142Y-65241714D01*
X157727952Y-65265904D01*
X157703761Y-65314285D01*
X157703761Y-65411047D01*
X157727952Y-65459428D01*
X157752142Y-65483619D01*
X157800523Y-65507809D01*
X157897285Y-65507809D01*
X157945666Y-65483619D01*
X157969857Y-65459428D01*
X157994047Y-65411047D01*
X157994047Y-65314285D01*
X157969857Y-65265904D01*
X157945666Y-65241714D01*
X157897285Y-65217523D01*
D11*
X151130000Y-109220000D02*
X160020000Y-109220000D01*
X150749000Y-108839000D02*
X151130000Y-109220000D01*
X138811000Y-108839000D02*
X150749000Y-108839000D01*
X138430000Y-109220000D02*
X138811000Y-108839000D01*
X127000000Y-109220000D02*
X138430000Y-109220000D01*
X140353142Y-91993357D02*
X140734142Y-91993357D01*
X140897428Y-92592071D02*
X140353142Y-92592071D01*
X140353142Y-91449071D01*
X140897428Y-91449071D01*
X141332857Y-92537642D02*
X141496142Y-92592071D01*
X141768285Y-92592071D01*
X141877142Y-92537642D01*
X141931571Y-92483214D01*
X141986000Y-92374357D01*
X141986000Y-92265500D01*
X141931571Y-92156642D01*
X141877142Y-92102214D01*
X141768285Y-92047785D01*
X141550571Y-91993357D01*
X141441714Y-91938928D01*
X141387285Y-91884500D01*
X141332857Y-91775642D01*
X141332857Y-91666785D01*
X141387285Y-91557928D01*
X141441714Y-91503500D01*
X141550571Y-91449071D01*
X141822714Y-91449071D01*
X141986000Y-91503500D01*
X142475857Y-92592071D02*
X142475857Y-91449071D01*
X142911285Y-91449071D01*
X143020142Y-91503500D01*
X143074571Y-91557928D01*
X143129000Y-91666785D01*
X143129000Y-91830071D01*
X143074571Y-91938928D01*
X143020142Y-91993357D01*
X142911285Y-92047785D01*
X142475857Y-92047785D01*
X143510000Y-91449071D02*
X144217571Y-91449071D01*
X143836571Y-91884500D01*
X143999857Y-91884500D01*
X144108714Y-91938928D01*
X144163142Y-91993357D01*
X144217571Y-92102214D01*
X144217571Y-92374357D01*
X144163142Y-92483214D01*
X144108714Y-92537642D01*
X143999857Y-92592071D01*
X143673285Y-92592071D01*
X143564428Y-92537642D01*
X143510000Y-92483214D01*
X144653000Y-91557928D02*
X144707428Y-91503500D01*
X144816285Y-91449071D01*
X145088428Y-91449071D01*
X145197285Y-91503500D01*
X145251714Y-91557928D01*
X145306142Y-91666785D01*
X145306142Y-91775642D01*
X145251714Y-91938928D01*
X144598571Y-92592071D01*
X145306142Y-92592071D01*
X145796000Y-92156642D02*
X146666857Y-92156642D01*
X147211142Y-92592071D02*
X147211142Y-91449071D01*
X147646571Y-91449071D01*
X147755428Y-91503500D01*
X147809857Y-91557928D01*
X147864285Y-91666785D01*
X147864285Y-91830071D01*
X147809857Y-91938928D01*
X147755428Y-91993357D01*
X147646571Y-92047785D01*
X147211142Y-92047785D01*
X149007285Y-92592071D02*
X148626285Y-92047785D01*
X148354142Y-92592071D02*
X148354142Y-91449071D01*
X148789571Y-91449071D01*
X148898428Y-91503500D01*
X148952857Y-91557928D01*
X149007285Y-91666785D01*
X149007285Y-91830071D01*
X148952857Y-91938928D01*
X148898428Y-91993357D01*
X148789571Y-92047785D01*
X148354142Y-92047785D01*
X149714857Y-91449071D02*
X149932571Y-91449071D01*
X150041428Y-91503500D01*
X150150285Y-91612357D01*
X150204714Y-91830071D01*
X150204714Y-92211071D01*
X150150285Y-92428785D01*
X150041428Y-92537642D01*
X149932571Y-92592071D01*
X149714857Y-92592071D01*
X149606000Y-92537642D01*
X149497142Y-92428785D01*
X149442714Y-92211071D01*
X149442714Y-91830071D01*
X149497142Y-91612357D01*
X149606000Y-91503500D01*
X149714857Y-91449071D01*
X153089428Y-92592071D02*
X152708428Y-92047785D01*
X152436285Y-92592071D02*
X152436285Y-91449071D01*
X152871714Y-91449071D01*
X152980571Y-91503500D01*
X153035000Y-91557928D01*
X153089428Y-91666785D01*
X153089428Y-91830071D01*
X153035000Y-91938928D01*
X152980571Y-91993357D01*
X152871714Y-92047785D01*
X152436285Y-92047785D01*
X154014714Y-92537642D02*
X153905857Y-92592071D01*
X153688142Y-92592071D01*
X153579285Y-92537642D01*
X153524857Y-92428785D01*
X153524857Y-91993357D01*
X153579285Y-91884500D01*
X153688142Y-91830071D01*
X153905857Y-91830071D01*
X154014714Y-91884500D01*
X154069142Y-91993357D01*
X154069142Y-92102214D01*
X153524857Y-92211071D01*
X154450142Y-91830071D02*
X154722285Y-92592071D01*
X154994428Y-91830071D01*
X155429857Y-92483214D02*
X155484285Y-92537642D01*
X155429857Y-92592071D01*
X155375428Y-92537642D01*
X155429857Y-92483214D01*
X155429857Y-92592071D01*
X156355142Y-91993357D02*
X156518428Y-92047785D01*
X156572857Y-92102214D01*
X156627285Y-92211071D01*
X156627285Y-92374357D01*
X156572857Y-92483214D01*
X156518428Y-92537642D01*
X156409571Y-92592071D01*
X155974142Y-92592071D01*
X155974142Y-91449071D01*
X156355142Y-91449071D01*
X156464000Y-91503500D01*
X156518428Y-91557928D01*
X156572857Y-91666785D01*
X156572857Y-91775642D01*
X156518428Y-91884500D01*
X156464000Y-91938928D01*
X156355142Y-91993357D01*
X155974142Y-91993357D01*
X128560285Y-68531619D02*
X127979714Y-68531619D01*
X128270000Y-68531619D02*
X128270000Y-67515619D01*
X128173238Y-67660761D01*
X128076476Y-67757523D01*
X127979714Y-67805904D01*
D14*
X129921047Y-102306428D02*
X130682952Y-102306428D01*
X130302000Y-102687380D02*
X130302000Y-101925476D01*
D11*
X127000000Y-60960000D02*
X160020000Y-60960000D01*
X127000000Y-109220000D02*
X127000000Y-60960000D01*
X160020000Y-109220000D02*
X160020000Y-60960000D01*
X152781000Y-96291400D02*
X152781000Y-95580200D01*
X151942800Y-96291400D02*
X152781000Y-96291400D01*
X151942800Y-93446600D02*
X152781000Y-93446600D01*
X152781000Y-94157800D02*
X152781000Y-93446600D01*
X157167000Y-101113000D02*
X152967000Y-101113000D01*
X152967000Y-101113000D02*
X152967000Y-106913000D01*
X152967000Y-106913000D02*
X157167000Y-106913000D01*
X157167000Y-106913000D02*
X157167000Y-101113000D01*
X154467000Y-102713000D02*
X154467000Y-105313000D01*
X154467000Y-105313000D02*
X155667000Y-105313000D01*
X155667000Y-102713000D02*
X155667000Y-105313000D01*
X154467000Y-102713000D02*
X155667000Y-102713000D01*
D15*
X143580566Y-87433680D02*
G75*
G03X143580566Y-87433680I-197566J0D01*
G01*
D11*
X142711000Y-85528680D02*
X147611000Y-85528680D01*
X142711000Y-87798680D02*
X142711000Y-85528680D01*
X143011000Y-88068680D02*
X142711000Y-87798680D01*
X147611000Y-88068680D02*
X143011000Y-88068680D01*
X147611000Y-85528680D02*
X147611000Y-88068680D01*
D15*
X142633146Y-88462380D02*
G75*
G03X142633146Y-88462380I-197566J0D01*
G01*
D11*
X148478240Y-84206080D02*
X153273760Y-84206080D01*
X148742400Y-88005920D02*
X148478240Y-87739220D01*
X153273760Y-88005920D02*
X148742400Y-88005920D01*
X148463000Y-84201000D02*
X148463000Y-87757000D01*
X153289000Y-84201000D02*
X153289000Y-88011000D01*
X148238981Y-89408000D02*
G75*
G03X148238981Y-89408000I-283981J0D01*
G01*
X149381981Y-87376000D02*
G75*
G03X149381981Y-87376000I-283981J0D01*
G01*
X146608800Y-100203000D02*
X145478500Y-100203000D01*
X146608800Y-97396300D02*
X145478500Y-97396300D01*
X139065000Y-104673400D02*
X139065000Y-103962200D01*
X138226800Y-104673400D02*
X139065000Y-104673400D01*
X138226800Y-101828600D02*
X139065000Y-101828600D01*
X139065000Y-102539800D02*
X139065000Y-101828600D01*
X134469000Y-98957000D02*
X134469000Y-101957000D01*
X134109512Y-101257000D02*
G75*
G03X134109512Y-101257000I-390512J0D01*
G01*
X134469000Y-98957000D02*
X131469000Y-98957000D01*
X131469000Y-98957000D02*
X131469000Y-101957000D01*
X131469000Y-101957000D02*
X134469000Y-101957000D01*
X133072000Y-93037000D02*
X133072000Y-92637000D01*
X130072000Y-93037000D02*
X130072000Y-92637000D01*
D16*
X131322000Y-92937000D02*
G75*
G02X131822000Y-92937000I250000J0D01*
G01*
X130822000Y-92937000D02*
G75*
G02X131322000Y-92937000I250000J0D01*
G01*
X131822000Y-92937000D02*
G75*
G02X132322000Y-92937000I250000J0D01*
G01*
X130822000Y-92987000D02*
X130472000Y-92987000D01*
X132322000Y-92987000D02*
X132672000Y-92987000D01*
D11*
X136702800Y-94742000D02*
X135572500Y-94742000D01*
X136702800Y-91935300D02*
X135572500Y-91935300D01*
X142325800Y-71679800D02*
X142833800Y-71679800D01*
X142325800Y-72187800D02*
X142325800Y-71679800D01*
X142325800Y-77674200D02*
X142325800Y-77166200D01*
X142833800Y-77674200D02*
X142325800Y-77674200D01*
X148320200Y-77674200D02*
X148320200Y-77166200D01*
X147812200Y-77674200D02*
X148320200Y-77674200D01*
X148296605Y-71883000D02*
G75*
G03X148296605Y-71883000I-179605J0D01*
G01*
X140716000Y-109220000D02*
X141097000Y-108204000D01*
X148844000Y-109220000D02*
X148463000Y-108204000D01*
X148480000Y-103691000D02*
X148480000Y-104891000D01*
X141080000Y-108191000D02*
X141080000Y-107191000D01*
X148844000Y-109291000D02*
X140716000Y-109291000D01*
X148480000Y-107191000D02*
X148480000Y-108191000D01*
X147580000Y-102191000D02*
X146580000Y-102191000D01*
X142980000Y-102191000D02*
X141980000Y-102191000D01*
X141080000Y-103691000D02*
X141080000Y-104891000D01*
X148480000Y-108191000D02*
X141080000Y-108191000D01*
X140589000Y-106299000D02*
X140589000Y-107315000D01*
X138557000Y-106299000D02*
X138557000Y-107315000D01*
X140843000Y-100457000D02*
X140843000Y-99441000D01*
X138811000Y-100457000D02*
X138811000Y-99441000D01*
X150177500Y-72580500D02*
X149923500Y-72580500D01*
X150177500Y-72580500D02*
X150431500Y-72580500D01*
X150177500Y-73469500D02*
X150431500Y-73469500D01*
X150177500Y-73469500D02*
X149923500Y-73469500D01*
X155956000Y-74295000D02*
X155956000Y-73787000D01*
X153416000Y-74295000D02*
X153416000Y-73787000D01*
D17*
G36*
X150125973Y-64981916D02*
X150118647Y-65035002D01*
X150097880Y-65086066D01*
X150079533Y-65113862D01*
X150059762Y-65136796D01*
X150038316Y-65157611D01*
X150030091Y-65164295D01*
X150005200Y-65182750D01*
X150004990Y-65596135D01*
X150004780Y-66009520D01*
X149959060Y-66009520D01*
X149959060Y-64977010D01*
X149955993Y-64942815D01*
X149945425Y-64920758D01*
X149925302Y-64908743D01*
X149893571Y-64904675D01*
X149888126Y-64904620D01*
X149862471Y-64906395D01*
X149841642Y-64910928D01*
X149834368Y-64914349D01*
X149821147Y-64932345D01*
X149814167Y-64958891D01*
X149813437Y-64988667D01*
X149818968Y-65016350D01*
X149830768Y-65036617D01*
X149834138Y-65039503D01*
X149854243Y-65047286D01*
X149881749Y-65049836D01*
X149910520Y-65047449D01*
X149934420Y-65040426D01*
X149943820Y-65034160D01*
X149953675Y-65019476D01*
X149958275Y-64998019D01*
X149959060Y-64977010D01*
X149959060Y-66009520D01*
X149886670Y-66009520D01*
X149768560Y-66009520D01*
X149768538Y-65596135D01*
X149768516Y-65182750D01*
X149745201Y-65167510D01*
X149722413Y-65147852D01*
X149697732Y-65119103D01*
X149675010Y-65086288D01*
X149658096Y-65054432D01*
X149657549Y-65053138D01*
X149647092Y-65011865D01*
X149645886Y-64964699D01*
X149653640Y-64917625D01*
X149665735Y-64884796D01*
X149696619Y-64836660D01*
X149738067Y-64793707D01*
X149785441Y-64760609D01*
X149792757Y-64756791D01*
X149842277Y-64740142D01*
X149895753Y-64735996D01*
X149948427Y-64744355D01*
X149980583Y-64756791D01*
X150032067Y-64789713D01*
X150072907Y-64830705D01*
X150102544Y-64877748D01*
X150120419Y-64928825D01*
X150125973Y-64981916D01*
X150125973Y-64981916D01*
G37*
X150125973Y-64981916D02*
X150118647Y-65035002D01*
X150097880Y-65086066D01*
X150079533Y-65113862D01*
X150059762Y-65136796D01*
X150038316Y-65157611D01*
X150030091Y-65164295D01*
X150005200Y-65182750D01*
X150004990Y-65596135D01*
X150004780Y-66009520D01*
X149959060Y-66009520D01*
X149959060Y-64977010D01*
X149955993Y-64942815D01*
X149945425Y-64920758D01*
X149925302Y-64908743D01*
X149893571Y-64904675D01*
X149888126Y-64904620D01*
X149862471Y-64906395D01*
X149841642Y-64910928D01*
X149834368Y-64914349D01*
X149821147Y-64932345D01*
X149814167Y-64958891D01*
X149813437Y-64988667D01*
X149818968Y-65016350D01*
X149830768Y-65036617D01*
X149834138Y-65039503D01*
X149854243Y-65047286D01*
X149881749Y-65049836D01*
X149910520Y-65047449D01*
X149934420Y-65040426D01*
X149943820Y-65034160D01*
X149953675Y-65019476D01*
X149958275Y-64998019D01*
X149959060Y-64977010D01*
X149959060Y-66009520D01*
X149886670Y-66009520D01*
X149768560Y-66009520D01*
X149768538Y-65596135D01*
X149768516Y-65182750D01*
X149745201Y-65167510D01*
X149722413Y-65147852D01*
X149697732Y-65119103D01*
X149675010Y-65086288D01*
X149658096Y-65054432D01*
X149657549Y-65053138D01*
X149647092Y-65011865D01*
X149645886Y-64964699D01*
X149653640Y-64917625D01*
X149665735Y-64884796D01*
X149696619Y-64836660D01*
X149738067Y-64793707D01*
X149785441Y-64760609D01*
X149792757Y-64756791D01*
X149842277Y-64740142D01*
X149895753Y-64735996D01*
X149948427Y-64744355D01*
X149980583Y-64756791D01*
X150032067Y-64789713D01*
X150072907Y-64830705D01*
X150102544Y-64877748D01*
X150120419Y-64928825D01*
X150125973Y-64981916D01*
G36*
X148977319Y-65669469D02*
X148977196Y-65750315D01*
X148976828Y-65829484D01*
X148976215Y-65905439D01*
X148975356Y-65976645D01*
X148974251Y-66041565D01*
X148972900Y-66098665D01*
X148971301Y-66146407D01*
X148969455Y-66183258D01*
X148967361Y-66207680D01*
X148965436Y-66217410D01*
X148956077Y-66231554D01*
X148937708Y-66253533D01*
X148912511Y-66281183D01*
X148882672Y-66312335D01*
X148850374Y-66344824D01*
X148817802Y-66376484D01*
X148787138Y-66405148D01*
X148760568Y-66428650D01*
X148740274Y-66444824D01*
X148739860Y-66445073D01*
X148739860Y-66128070D01*
X148739860Y-65663221D01*
X148739860Y-65198372D01*
X148688629Y-65146746D01*
X148637399Y-65095120D01*
X148458316Y-65095120D01*
X148279232Y-65095120D01*
X148227606Y-65146351D01*
X148203714Y-65170358D01*
X148188636Y-65187321D01*
X148180344Y-65200906D01*
X148176812Y-65214780D01*
X148176012Y-65232609D01*
X148176002Y-65239696D01*
X148176817Y-65264693D01*
X148180666Y-65279776D01*
X148189707Y-65290243D01*
X148199339Y-65297050D01*
X148224007Y-65318443D01*
X148249443Y-65349045D01*
X148271743Y-65383561D01*
X148286520Y-65415302D01*
X148297400Y-65468092D01*
X148294596Y-65522326D01*
X148279045Y-65575152D01*
X148251684Y-65623717D01*
X148213449Y-65665166D01*
X148201291Y-65674835D01*
X148176400Y-65693290D01*
X148176190Y-65906459D01*
X148175980Y-66119627D01*
X148227211Y-66171254D01*
X148278441Y-66222880D01*
X148461321Y-66222880D01*
X148644200Y-66222880D01*
X148692030Y-66175475D01*
X148739860Y-66128070D01*
X148739860Y-66445073D01*
X148729839Y-66451102D01*
X148714810Y-66453766D01*
X148686967Y-66455904D01*
X148648595Y-66457531D01*
X148601978Y-66458660D01*
X148549400Y-66459304D01*
X148493144Y-66459478D01*
X148435497Y-66459195D01*
X148378740Y-66458470D01*
X148325160Y-66457314D01*
X148277039Y-66455743D01*
X148236663Y-66453770D01*
X148206314Y-66451409D01*
X148188279Y-66448672D01*
X148185748Y-66447842D01*
X148170702Y-66438161D01*
X148147750Y-66419578D01*
X148130260Y-66404121D01*
X148130260Y-65487550D01*
X148127193Y-65453355D01*
X148116625Y-65431298D01*
X148096502Y-65419283D01*
X148064771Y-65415215D01*
X148059326Y-65415160D01*
X148033671Y-65416935D01*
X148012842Y-65421468D01*
X148005568Y-65424889D01*
X147992347Y-65442885D01*
X147985367Y-65469431D01*
X147984637Y-65499207D01*
X147990168Y-65526890D01*
X148001968Y-65547157D01*
X148005338Y-65550043D01*
X148025443Y-65557826D01*
X148052949Y-65560376D01*
X148081720Y-65557989D01*
X148105620Y-65550966D01*
X148115020Y-65544700D01*
X148124875Y-65530016D01*
X148129475Y-65508559D01*
X148130260Y-65487550D01*
X148130260Y-66404121D01*
X148119142Y-66394295D01*
X148087127Y-66364509D01*
X148053953Y-66332423D01*
X148021872Y-66300234D01*
X147993131Y-66270144D01*
X147969980Y-66244352D01*
X147954669Y-66225058D01*
X147950136Y-66217410D01*
X147947109Y-66206799D01*
X147944687Y-66189833D01*
X147942815Y-66165081D01*
X147941439Y-66131113D01*
X147940505Y-66086498D01*
X147939958Y-66029806D01*
X147939746Y-65959605D01*
X147939738Y-65943090D01*
X147939716Y-65693290D01*
X147916401Y-65678050D01*
X147893613Y-65658392D01*
X147868932Y-65629643D01*
X147846210Y-65596828D01*
X147829296Y-65564972D01*
X147828749Y-65563678D01*
X147820498Y-65531773D01*
X147817355Y-65492296D01*
X147819317Y-65452035D01*
X147826386Y-65417775D01*
X147828749Y-65411422D01*
X147845320Y-65379723D01*
X147867869Y-65346845D01*
X147892544Y-65317813D01*
X147915496Y-65297652D01*
X147916401Y-65297050D01*
X147939716Y-65281810D01*
X147939738Y-65208011D01*
X147940565Y-65173419D01*
X147942761Y-65142387D01*
X147945935Y-65119589D01*
X147947756Y-65112761D01*
X147956218Y-65099425D01*
X147973811Y-65077949D01*
X147998415Y-65050473D01*
X148027908Y-65019132D01*
X148060168Y-64986067D01*
X148093076Y-64953414D01*
X148124508Y-64923312D01*
X148152344Y-64897899D01*
X148174462Y-64879313D01*
X148188742Y-64869692D01*
X148189070Y-64869545D01*
X148204337Y-64866317D01*
X148232520Y-64863613D01*
X148271305Y-64861434D01*
X148318377Y-64859782D01*
X148371421Y-64858656D01*
X148428123Y-64858059D01*
X148486167Y-64857991D01*
X148543240Y-64858454D01*
X148597026Y-64859448D01*
X148645210Y-64860976D01*
X148685479Y-64863038D01*
X148715517Y-64865635D01*
X148733009Y-64868768D01*
X148734390Y-64869276D01*
X148749011Y-64878892D01*
X148771405Y-64897763D01*
X148799368Y-64923624D01*
X148830698Y-64954211D01*
X148863192Y-64987257D01*
X148894646Y-65020498D01*
X148922858Y-65051667D01*
X148945625Y-65078499D01*
X148960743Y-65098729D01*
X148965156Y-65106585D01*
X148967462Y-65119744D01*
X148969527Y-65146583D01*
X148971350Y-65185565D01*
X148972931Y-65235156D01*
X148974271Y-65293819D01*
X148975367Y-65360019D01*
X148976221Y-65432219D01*
X148976831Y-65508885D01*
X148977197Y-65588480D01*
X148977319Y-65669469D01*
X148977319Y-65669469D01*
G37*
X148977319Y-65669469D02*
X148977196Y-65750315D01*
X148976828Y-65829484D01*
X148976215Y-65905439D01*
X148975356Y-65976645D01*
X148974251Y-66041565D01*
X148972900Y-66098665D01*
X148971301Y-66146407D01*
X148969455Y-66183258D01*
X148967361Y-66207680D01*
X148965436Y-66217410D01*
X148956077Y-66231554D01*
X148937708Y-66253533D01*
X148912511Y-66281183D01*
X148882672Y-66312335D01*
X148850374Y-66344824D01*
X148817802Y-66376484D01*
X148787138Y-66405148D01*
X148760568Y-66428650D01*
X148740274Y-66444824D01*
X148739860Y-66445073D01*
X148739860Y-66128070D01*
X148739860Y-65663221D01*
X148739860Y-65198372D01*
X148688629Y-65146746D01*
X148637399Y-65095120D01*
X148458316Y-65095120D01*
X148279232Y-65095120D01*
X148227606Y-65146351D01*
X148203714Y-65170358D01*
X148188636Y-65187321D01*
X148180344Y-65200906D01*
X148176812Y-65214780D01*
X148176012Y-65232609D01*
X148176002Y-65239696D01*
X148176817Y-65264693D01*
X148180666Y-65279776D01*
X148189707Y-65290243D01*
X148199339Y-65297050D01*
X148224007Y-65318443D01*
X148249443Y-65349045D01*
X148271743Y-65383561D01*
X148286520Y-65415302D01*
X148297400Y-65468092D01*
X148294596Y-65522326D01*
X148279045Y-65575152D01*
X148251684Y-65623717D01*
X148213449Y-65665166D01*
X148201291Y-65674835D01*
X148176400Y-65693290D01*
X148176190Y-65906459D01*
X148175980Y-66119627D01*
X148227211Y-66171254D01*
X148278441Y-66222880D01*
X148461321Y-66222880D01*
X148644200Y-66222880D01*
X148692030Y-66175475D01*
X148739860Y-66128070D01*
X148739860Y-66445073D01*
X148729839Y-66451102D01*
X148714810Y-66453766D01*
X148686967Y-66455904D01*
X148648595Y-66457531D01*
X148601978Y-66458660D01*
X148549400Y-66459304D01*
X148493144Y-66459478D01*
X148435497Y-66459195D01*
X148378740Y-66458470D01*
X148325160Y-66457314D01*
X148277039Y-66455743D01*
X148236663Y-66453770D01*
X148206314Y-66451409D01*
X148188279Y-66448672D01*
X148185748Y-66447842D01*
X148170702Y-66438161D01*
X148147750Y-66419578D01*
X148130260Y-66404121D01*
X148130260Y-65487550D01*
X148127193Y-65453355D01*
X148116625Y-65431298D01*
X148096502Y-65419283D01*
X148064771Y-65415215D01*
X148059326Y-65415160D01*
X148033671Y-65416935D01*
X148012842Y-65421468D01*
X148005568Y-65424889D01*
X147992347Y-65442885D01*
X147985367Y-65469431D01*
X147984637Y-65499207D01*
X147990168Y-65526890D01*
X148001968Y-65547157D01*
X148005338Y-65550043D01*
X148025443Y-65557826D01*
X148052949Y-65560376D01*
X148081720Y-65557989D01*
X148105620Y-65550966D01*
X148115020Y-65544700D01*
X148124875Y-65530016D01*
X148129475Y-65508559D01*
X148130260Y-65487550D01*
X148130260Y-66404121D01*
X148119142Y-66394295D01*
X148087127Y-66364509D01*
X148053953Y-66332423D01*
X148021872Y-66300234D01*
X147993131Y-66270144D01*
X147969980Y-66244352D01*
X147954669Y-66225058D01*
X147950136Y-66217410D01*
X147947109Y-66206799D01*
X147944687Y-66189833D01*
X147942815Y-66165081D01*
X147941439Y-66131113D01*
X147940505Y-66086498D01*
X147939958Y-66029806D01*
X147939746Y-65959605D01*
X147939738Y-65943090D01*
X147939716Y-65693290D01*
X147916401Y-65678050D01*
X147893613Y-65658392D01*
X147868932Y-65629643D01*
X147846210Y-65596828D01*
X147829296Y-65564972D01*
X147828749Y-65563678D01*
X147820498Y-65531773D01*
X147817355Y-65492296D01*
X147819317Y-65452035D01*
X147826386Y-65417775D01*
X147828749Y-65411422D01*
X147845320Y-65379723D01*
X147867869Y-65346845D01*
X147892544Y-65317813D01*
X147915496Y-65297652D01*
X147916401Y-65297050D01*
X147939716Y-65281810D01*
X147939738Y-65208011D01*
X147940565Y-65173419D01*
X147942761Y-65142387D01*
X147945935Y-65119589D01*
X147947756Y-65112761D01*
X147956218Y-65099425D01*
X147973811Y-65077949D01*
X147998415Y-65050473D01*
X148027908Y-65019132D01*
X148060168Y-64986067D01*
X148093076Y-64953414D01*
X148124508Y-64923312D01*
X148152344Y-64897899D01*
X148174462Y-64879313D01*
X148188742Y-64869692D01*
X148189070Y-64869545D01*
X148204337Y-64866317D01*
X148232520Y-64863613D01*
X148271305Y-64861434D01*
X148318377Y-64859782D01*
X148371421Y-64858656D01*
X148428123Y-64858059D01*
X148486167Y-64857991D01*
X148543240Y-64858454D01*
X148597026Y-64859448D01*
X148645210Y-64860976D01*
X148685479Y-64863038D01*
X148715517Y-64865635D01*
X148733009Y-64868768D01*
X148734390Y-64869276D01*
X148749011Y-64878892D01*
X148771405Y-64897763D01*
X148799368Y-64923624D01*
X148830698Y-64954211D01*
X148863192Y-64987257D01*
X148894646Y-65020498D01*
X148922858Y-65051667D01*
X148945625Y-65078499D01*
X148960743Y-65098729D01*
X148965156Y-65106585D01*
X148967462Y-65119744D01*
X148969527Y-65146583D01*
X148971350Y-65185565D01*
X148972931Y-65235156D01*
X148974271Y-65293819D01*
X148975367Y-65360019D01*
X148976221Y-65432219D01*
X148976831Y-65508885D01*
X148977197Y-65588480D01*
X148977319Y-65669469D01*
G36*
X154185302Y-66331094D02*
X154183114Y-66379273D01*
X154173154Y-66422558D01*
X154167205Y-66436742D01*
X154143667Y-66473381D01*
X154110921Y-66509932D01*
X154074020Y-66541350D01*
X154043882Y-66559900D01*
X154020520Y-66567751D01*
X154020520Y-66340990D01*
X154017454Y-66306795D01*
X154006885Y-66284738D01*
X153986762Y-66272723D01*
X153955031Y-66268655D01*
X153949586Y-66268600D01*
X153923931Y-66270375D01*
X153903102Y-66274908D01*
X153895828Y-66278329D01*
X153882607Y-66296325D01*
X153875627Y-66322871D01*
X153874897Y-66352647D01*
X153880428Y-66380330D01*
X153892228Y-66400597D01*
X153895597Y-66403483D01*
X153915703Y-66411266D01*
X153943209Y-66413816D01*
X153971980Y-66411429D01*
X153995880Y-66404406D01*
X154005280Y-66398140D01*
X154015135Y-66383456D01*
X154019735Y-66361999D01*
X154020520Y-66340990D01*
X154020520Y-66567751D01*
X154008252Y-66571874D01*
X153965496Y-66578290D01*
X153921877Y-66578784D01*
X153883657Y-66572993D01*
X153873634Y-66569770D01*
X153823767Y-66543326D01*
X153778409Y-66505044D01*
X153740960Y-66458288D01*
X153718783Y-66416577D01*
X153710614Y-66384803D01*
X153707589Y-66345414D01*
X153709685Y-66305131D01*
X153716879Y-66270675D01*
X153719314Y-66264133D01*
X153731480Y-66235015D01*
X153618920Y-66122267D01*
X153506361Y-66009520D01*
X153464311Y-66009520D01*
X153422261Y-66009520D01*
X153178465Y-66254123D01*
X153127437Y-66305019D01*
X153078963Y-66352788D01*
X153034248Y-66396287D01*
X152994496Y-66434369D01*
X152960911Y-66465888D01*
X152934696Y-66489701D01*
X152917057Y-66504660D01*
X152910150Y-66509393D01*
X152894417Y-66512808D01*
X152865922Y-66515628D01*
X152827134Y-66517854D01*
X152780518Y-66519484D01*
X152728543Y-66520516D01*
X152673675Y-66520948D01*
X152618381Y-66520780D01*
X152565129Y-66520009D01*
X152516386Y-66518635D01*
X152474618Y-66516655D01*
X152442294Y-66514069D01*
X152421880Y-66510874D01*
X152418170Y-66509684D01*
X152403549Y-66500068D01*
X152381155Y-66481197D01*
X152353192Y-66455336D01*
X152321862Y-66424749D01*
X152289368Y-66391703D01*
X152257914Y-66358462D01*
X152229702Y-66327293D01*
X152206935Y-66300461D01*
X152191817Y-66280231D01*
X152187404Y-66272375D01*
X152185119Y-66259253D01*
X152183070Y-66232392D01*
X152181257Y-66193292D01*
X152179681Y-66143453D01*
X152178342Y-66084374D01*
X152177239Y-66017556D01*
X152176373Y-65944497D01*
X152175744Y-65866698D01*
X152175351Y-65785658D01*
X152175194Y-65702877D01*
X152175275Y-65619854D01*
X152175591Y-65538089D01*
X152176145Y-65459082D01*
X152176935Y-65384333D01*
X152177961Y-65315340D01*
X152179224Y-65253604D01*
X152180724Y-65200625D01*
X152182460Y-65157901D01*
X152184433Y-65126933D01*
X152186642Y-65109221D01*
X152187404Y-65106585D01*
X152197040Y-65091256D01*
X152215609Y-65068002D01*
X152240910Y-65039089D01*
X152270739Y-65006783D01*
X152302894Y-64973348D01*
X152335171Y-64941050D01*
X152365367Y-64912155D01*
X152391280Y-64888928D01*
X152410706Y-64873635D01*
X152418170Y-64869276D01*
X152434101Y-64865881D01*
X152462757Y-64863093D01*
X152501674Y-64860913D01*
X152548382Y-64859339D01*
X152600415Y-64858369D01*
X152655307Y-64858001D01*
X152710589Y-64858235D01*
X152763794Y-64859068D01*
X152812456Y-64860500D01*
X152854107Y-64862529D01*
X152886281Y-64865153D01*
X152906509Y-64868372D01*
X152910150Y-64869567D01*
X152920514Y-64877079D01*
X152940362Y-64894309D01*
X152968490Y-64920112D01*
X153003695Y-64953343D01*
X153044772Y-64992855D01*
X153090517Y-65037504D01*
X153139727Y-65086144D01*
X153178465Y-65124837D01*
X153422261Y-65369440D01*
X153464311Y-65369440D01*
X153506361Y-65369440D01*
X153618920Y-65256692D01*
X153731480Y-65143945D01*
X153719314Y-65114827D01*
X153708577Y-65072661D01*
X153707378Y-65024810D01*
X153715440Y-64977244D01*
X153727195Y-64945756D01*
X153758079Y-64897620D01*
X153799527Y-64854667D01*
X153846901Y-64821569D01*
X153854217Y-64817751D01*
X153903737Y-64801102D01*
X153957213Y-64796956D01*
X154009887Y-64805315D01*
X154042043Y-64817751D01*
X154086471Y-64846297D01*
X154126961Y-64884123D01*
X154158706Y-64926484D01*
X154166452Y-64940663D01*
X154176498Y-64964926D01*
X154182052Y-64990259D01*
X154184201Y-65022559D01*
X154184350Y-65037970D01*
X154180866Y-65087951D01*
X154169083Y-65129444D01*
X154147006Y-65167189D01*
X154114366Y-65204206D01*
X154067104Y-65242813D01*
X154020520Y-65265034D01*
X154020520Y-65037970D01*
X154017454Y-65003775D01*
X154006885Y-64981718D01*
X153986762Y-64969703D01*
X153955031Y-64965635D01*
X153949586Y-64965580D01*
X153923931Y-64967355D01*
X153903102Y-64971888D01*
X153895828Y-64975309D01*
X153882607Y-64993305D01*
X153875627Y-65019851D01*
X153874897Y-65049627D01*
X153880428Y-65077310D01*
X153892228Y-65097577D01*
X153895597Y-65100463D01*
X153915703Y-65108246D01*
X153943209Y-65110796D01*
X153971980Y-65108409D01*
X153995880Y-65101386D01*
X154005280Y-65095120D01*
X154015135Y-65080436D01*
X154019735Y-65058979D01*
X154020520Y-65037970D01*
X154020520Y-65265034D01*
X154016808Y-65266805D01*
X153967594Y-65276346D01*
X153925270Y-65279509D01*
X153769060Y-65434600D01*
X153728079Y-65474836D01*
X153689617Y-65511749D01*
X153655256Y-65543885D01*
X153626578Y-65569793D01*
X153605163Y-65588023D01*
X153592594Y-65597121D01*
X153591399Y-65597675D01*
X153572362Y-65601570D01*
X153542132Y-65604197D01*
X153504425Y-65605594D01*
X153462957Y-65605801D01*
X153421445Y-65604855D01*
X153383604Y-65602795D01*
X153353150Y-65599659D01*
X153333800Y-65595487D01*
X153332570Y-65594993D01*
X153322206Y-65587481D01*
X153302358Y-65570251D01*
X153274230Y-65544448D01*
X153239025Y-65511217D01*
X153197948Y-65471705D01*
X153152203Y-65427056D01*
X153102993Y-65378416D01*
X153064255Y-65339723D01*
X152820459Y-65095120D01*
X152667810Y-65095120D01*
X152515161Y-65095120D01*
X152463931Y-65146746D01*
X152412700Y-65198372D01*
X152412700Y-65371536D01*
X152412700Y-65544700D01*
X152563195Y-65544678D01*
X152713690Y-65544656D01*
X152728930Y-65521341D01*
X152748326Y-65498837D01*
X152776717Y-65474345D01*
X152809041Y-65451762D01*
X152840237Y-65434986D01*
X152842163Y-65434165D01*
X152881013Y-65424310D01*
X152926431Y-65422551D01*
X152972267Y-65428586D01*
X153012371Y-65442112D01*
X153013343Y-65442591D01*
X153057771Y-65471137D01*
X153098261Y-65508963D01*
X153130006Y-65551324D01*
X153137752Y-65565503D01*
X153151040Y-65605748D01*
X153156602Y-65652914D01*
X153154414Y-65701093D01*
X153144454Y-65744378D01*
X153138505Y-65758562D01*
X153115011Y-65795149D01*
X153082355Y-65831619D01*
X153045561Y-65862954D01*
X153015182Y-65881616D01*
X152991820Y-65889398D01*
X152991820Y-65662810D01*
X152988754Y-65628615D01*
X152978185Y-65606558D01*
X152958062Y-65594543D01*
X152926331Y-65590475D01*
X152920886Y-65590420D01*
X152895231Y-65592195D01*
X152874402Y-65596728D01*
X152867128Y-65600149D01*
X152853907Y-65618145D01*
X152846927Y-65644691D01*
X152846197Y-65674467D01*
X152851728Y-65702150D01*
X152863528Y-65722417D01*
X152866897Y-65725303D01*
X152887003Y-65733086D01*
X152914509Y-65735636D01*
X152943280Y-65733249D01*
X152967180Y-65726226D01*
X152976580Y-65719960D01*
X152986435Y-65705276D01*
X152991035Y-65683819D01*
X152991820Y-65662810D01*
X152991820Y-65889398D01*
X152972263Y-65895912D01*
X152923660Y-65901798D01*
X152876111Y-65898826D01*
X152850800Y-65892572D01*
X152815860Y-65876662D01*
X152780246Y-65853849D01*
X152749185Y-65827921D01*
X152728930Y-65804279D01*
X152713690Y-65780964D01*
X152563195Y-65780942D01*
X152412700Y-65780920D01*
X152412700Y-65981149D01*
X152412700Y-66181379D01*
X152464326Y-66232609D01*
X152515952Y-66283840D01*
X152668206Y-66283840D01*
X152820459Y-66283840D01*
X153064255Y-66039237D01*
X153115283Y-65988341D01*
X153163757Y-65940572D01*
X153208472Y-65897073D01*
X153248224Y-65858991D01*
X153281809Y-65827471D01*
X153308024Y-65803659D01*
X153325663Y-65788700D01*
X153332570Y-65783967D01*
X153352377Y-65779076D01*
X153383554Y-65775587D01*
X153422296Y-65773500D01*
X153464795Y-65772815D01*
X153507248Y-65773532D01*
X153545849Y-65775652D01*
X153576791Y-65779174D01*
X153595950Y-65783957D01*
X153607620Y-65792043D01*
X153628292Y-65809536D01*
X153656337Y-65834926D01*
X153690123Y-65866701D01*
X153728021Y-65903352D01*
X153768398Y-65943368D01*
X153772799Y-65947787D01*
X153925127Y-66100960D01*
X153963707Y-66100960D01*
X154008054Y-66107929D01*
X154053370Y-66127360D01*
X154096514Y-66157042D01*
X154134342Y-66194763D01*
X154163713Y-66238309D01*
X154166452Y-66243683D01*
X154179740Y-66283928D01*
X154185302Y-66331094D01*
X154185302Y-66331094D01*
G37*
X154185302Y-66331094D02*
X154183114Y-66379273D01*
X154173154Y-66422558D01*
X154167205Y-66436742D01*
X154143667Y-66473381D01*
X154110921Y-66509932D01*
X154074020Y-66541350D01*
X154043882Y-66559900D01*
X154020520Y-66567751D01*
X154020520Y-66340990D01*
X154017454Y-66306795D01*
X154006885Y-66284738D01*
X153986762Y-66272723D01*
X153955031Y-66268655D01*
X153949586Y-66268600D01*
X153923931Y-66270375D01*
X153903102Y-66274908D01*
X153895828Y-66278329D01*
X153882607Y-66296325D01*
X153875627Y-66322871D01*
X153874897Y-66352647D01*
X153880428Y-66380330D01*
X153892228Y-66400597D01*
X153895597Y-66403483D01*
X153915703Y-66411266D01*
X153943209Y-66413816D01*
X153971980Y-66411429D01*
X153995880Y-66404406D01*
X154005280Y-66398140D01*
X154015135Y-66383456D01*
X154019735Y-66361999D01*
X154020520Y-66340990D01*
X154020520Y-66567751D01*
X154008252Y-66571874D01*
X153965496Y-66578290D01*
X153921877Y-66578784D01*
X153883657Y-66572993D01*
X153873634Y-66569770D01*
X153823767Y-66543326D01*
X153778409Y-66505044D01*
X153740960Y-66458288D01*
X153718783Y-66416577D01*
X153710614Y-66384803D01*
X153707589Y-66345414D01*
X153709685Y-66305131D01*
X153716879Y-66270675D01*
X153719314Y-66264133D01*
X153731480Y-66235015D01*
X153618920Y-66122267D01*
X153506361Y-66009520D01*
X153464311Y-66009520D01*
X153422261Y-66009520D01*
X153178465Y-66254123D01*
X153127437Y-66305019D01*
X153078963Y-66352788D01*
X153034248Y-66396287D01*
X152994496Y-66434369D01*
X152960911Y-66465888D01*
X152934696Y-66489701D01*
X152917057Y-66504660D01*
X152910150Y-66509393D01*
X152894417Y-66512808D01*
X152865922Y-66515628D01*
X152827134Y-66517854D01*
X152780518Y-66519484D01*
X152728543Y-66520516D01*
X152673675Y-66520948D01*
X152618381Y-66520780D01*
X152565129Y-66520009D01*
X152516386Y-66518635D01*
X152474618Y-66516655D01*
X152442294Y-66514069D01*
X152421880Y-66510874D01*
X152418170Y-66509684D01*
X152403549Y-66500068D01*
X152381155Y-66481197D01*
X152353192Y-66455336D01*
X152321862Y-66424749D01*
X152289368Y-66391703D01*
X152257914Y-66358462D01*
X152229702Y-66327293D01*
X152206935Y-66300461D01*
X152191817Y-66280231D01*
X152187404Y-66272375D01*
X152185119Y-66259253D01*
X152183070Y-66232392D01*
X152181257Y-66193292D01*
X152179681Y-66143453D01*
X152178342Y-66084374D01*
X152177239Y-66017556D01*
X152176373Y-65944497D01*
X152175744Y-65866698D01*
X152175351Y-65785658D01*
X152175194Y-65702877D01*
X152175275Y-65619854D01*
X152175591Y-65538089D01*
X152176145Y-65459082D01*
X152176935Y-65384333D01*
X152177961Y-65315340D01*
X152179224Y-65253604D01*
X152180724Y-65200625D01*
X152182460Y-65157901D01*
X152184433Y-65126933D01*
X152186642Y-65109221D01*
X152187404Y-65106585D01*
X152197040Y-65091256D01*
X152215609Y-65068002D01*
X152240910Y-65039089D01*
X152270739Y-65006783D01*
X152302894Y-64973348D01*
X152335171Y-64941050D01*
X152365367Y-64912155D01*
X152391280Y-64888928D01*
X152410706Y-64873635D01*
X152418170Y-64869276D01*
X152434101Y-64865881D01*
X152462757Y-64863093D01*
X152501674Y-64860913D01*
X152548382Y-64859339D01*
X152600415Y-64858369D01*
X152655307Y-64858001D01*
X152710589Y-64858235D01*
X152763794Y-64859068D01*
X152812456Y-64860500D01*
X152854107Y-64862529D01*
X152886281Y-64865153D01*
X152906509Y-64868372D01*
X152910150Y-64869567D01*
X152920514Y-64877079D01*
X152940362Y-64894309D01*
X152968490Y-64920112D01*
X153003695Y-64953343D01*
X153044772Y-64992855D01*
X153090517Y-65037504D01*
X153139727Y-65086144D01*
X153178465Y-65124837D01*
X153422261Y-65369440D01*
X153464311Y-65369440D01*
X153506361Y-65369440D01*
X153618920Y-65256692D01*
X153731480Y-65143945D01*
X153719314Y-65114827D01*
X153708577Y-65072661D01*
X153707378Y-65024810D01*
X153715440Y-64977244D01*
X153727195Y-64945756D01*
X153758079Y-64897620D01*
X153799527Y-64854667D01*
X153846901Y-64821569D01*
X153854217Y-64817751D01*
X153903737Y-64801102D01*
X153957213Y-64796956D01*
X154009887Y-64805315D01*
X154042043Y-64817751D01*
X154086471Y-64846297D01*
X154126961Y-64884123D01*
X154158706Y-64926484D01*
X154166452Y-64940663D01*
X154176498Y-64964926D01*
X154182052Y-64990259D01*
X154184201Y-65022559D01*
X154184350Y-65037970D01*
X154180866Y-65087951D01*
X154169083Y-65129444D01*
X154147006Y-65167189D01*
X154114366Y-65204206D01*
X154067104Y-65242813D01*
X154020520Y-65265034D01*
X154020520Y-65037970D01*
X154017454Y-65003775D01*
X154006885Y-64981718D01*
X153986762Y-64969703D01*
X153955031Y-64965635D01*
X153949586Y-64965580D01*
X153923931Y-64967355D01*
X153903102Y-64971888D01*
X153895828Y-64975309D01*
X153882607Y-64993305D01*
X153875627Y-65019851D01*
X153874897Y-65049627D01*
X153880428Y-65077310D01*
X153892228Y-65097577D01*
X153895597Y-65100463D01*
X153915703Y-65108246D01*
X153943209Y-65110796D01*
X153971980Y-65108409D01*
X153995880Y-65101386D01*
X154005280Y-65095120D01*
X154015135Y-65080436D01*
X154019735Y-65058979D01*
X154020520Y-65037970D01*
X154020520Y-65265034D01*
X154016808Y-65266805D01*
X153967594Y-65276346D01*
X153925270Y-65279509D01*
X153769060Y-65434600D01*
X153728079Y-65474836D01*
X153689617Y-65511749D01*
X153655256Y-65543885D01*
X153626578Y-65569793D01*
X153605163Y-65588023D01*
X153592594Y-65597121D01*
X153591399Y-65597675D01*
X153572362Y-65601570D01*
X153542132Y-65604197D01*
X153504425Y-65605594D01*
X153462957Y-65605801D01*
X153421445Y-65604855D01*
X153383604Y-65602795D01*
X153353150Y-65599659D01*
X153333800Y-65595487D01*
X153332570Y-65594993D01*
X153322206Y-65587481D01*
X153302358Y-65570251D01*
X153274230Y-65544448D01*
X153239025Y-65511217D01*
X153197948Y-65471705D01*
X153152203Y-65427056D01*
X153102993Y-65378416D01*
X153064255Y-65339723D01*
X152820459Y-65095120D01*
X152667810Y-65095120D01*
X152515161Y-65095120D01*
X152463931Y-65146746D01*
X152412700Y-65198372D01*
X152412700Y-65371536D01*
X152412700Y-65544700D01*
X152563195Y-65544678D01*
X152713690Y-65544656D01*
X152728930Y-65521341D01*
X152748326Y-65498837D01*
X152776717Y-65474345D01*
X152809041Y-65451762D01*
X152840237Y-65434986D01*
X152842163Y-65434165D01*
X152881013Y-65424310D01*
X152926431Y-65422551D01*
X152972267Y-65428586D01*
X153012371Y-65442112D01*
X153013343Y-65442591D01*
X153057771Y-65471137D01*
X153098261Y-65508963D01*
X153130006Y-65551324D01*
X153137752Y-65565503D01*
X153151040Y-65605748D01*
X153156602Y-65652914D01*
X153154414Y-65701093D01*
X153144454Y-65744378D01*
X153138505Y-65758562D01*
X153115011Y-65795149D01*
X153082355Y-65831619D01*
X153045561Y-65862954D01*
X153015182Y-65881616D01*
X152991820Y-65889398D01*
X152991820Y-65662810D01*
X152988754Y-65628615D01*
X152978185Y-65606558D01*
X152958062Y-65594543D01*
X152926331Y-65590475D01*
X152920886Y-65590420D01*
X152895231Y-65592195D01*
X152874402Y-65596728D01*
X152867128Y-65600149D01*
X152853907Y-65618145D01*
X152846927Y-65644691D01*
X152846197Y-65674467D01*
X152851728Y-65702150D01*
X152863528Y-65722417D01*
X152866897Y-65725303D01*
X152887003Y-65733086D01*
X152914509Y-65735636D01*
X152943280Y-65733249D01*
X152967180Y-65726226D01*
X152976580Y-65719960D01*
X152986435Y-65705276D01*
X152991035Y-65683819D01*
X152991820Y-65662810D01*
X152991820Y-65889398D01*
X152972263Y-65895912D01*
X152923660Y-65901798D01*
X152876111Y-65898826D01*
X152850800Y-65892572D01*
X152815860Y-65876662D01*
X152780246Y-65853849D01*
X152749185Y-65827921D01*
X152728930Y-65804279D01*
X152713690Y-65780964D01*
X152563195Y-65780942D01*
X152412700Y-65780920D01*
X152412700Y-65981149D01*
X152412700Y-66181379D01*
X152464326Y-66232609D01*
X152515952Y-66283840D01*
X152668206Y-66283840D01*
X152820459Y-66283840D01*
X153064255Y-66039237D01*
X153115283Y-65988341D01*
X153163757Y-65940572D01*
X153208472Y-65897073D01*
X153248224Y-65858991D01*
X153281809Y-65827471D01*
X153308024Y-65803659D01*
X153325663Y-65788700D01*
X153332570Y-65783967D01*
X153352377Y-65779076D01*
X153383554Y-65775587D01*
X153422296Y-65773500D01*
X153464795Y-65772815D01*
X153507248Y-65773532D01*
X153545849Y-65775652D01*
X153576791Y-65779174D01*
X153595950Y-65783957D01*
X153607620Y-65792043D01*
X153628292Y-65809536D01*
X153656337Y-65834926D01*
X153690123Y-65866701D01*
X153728021Y-65903352D01*
X153768398Y-65943368D01*
X153772799Y-65947787D01*
X153925127Y-66100960D01*
X153963707Y-66100960D01*
X154008054Y-66107929D01*
X154053370Y-66127360D01*
X154096514Y-66157042D01*
X154134342Y-66194763D01*
X154163713Y-66238309D01*
X154166452Y-66243683D01*
X154179740Y-66283928D01*
X154185302Y-66331094D01*
G36*
X152068057Y-66316021D02*
X152067454Y-66364796D01*
X152058170Y-66411946D01*
X152048576Y-66436742D01*
X152025415Y-66473127D01*
X151992912Y-66509594D01*
X151956084Y-66541112D01*
X151925522Y-66560065D01*
X151902160Y-66567681D01*
X151902160Y-66340990D01*
X151899093Y-66306795D01*
X151888525Y-66284738D01*
X151868402Y-66272723D01*
X151836671Y-66268655D01*
X151831226Y-66268600D01*
X151805571Y-66270375D01*
X151784742Y-66274908D01*
X151777468Y-66278329D01*
X151764247Y-66296325D01*
X151757267Y-66322871D01*
X151756537Y-66352647D01*
X151762068Y-66380330D01*
X151773868Y-66400597D01*
X151777238Y-66403483D01*
X151797343Y-66411266D01*
X151824849Y-66413816D01*
X151853620Y-66411429D01*
X151877520Y-66404406D01*
X151886920Y-66398140D01*
X151896775Y-66383456D01*
X151901375Y-66361999D01*
X151902160Y-66340990D01*
X151902160Y-66567681D01*
X151885719Y-66573041D01*
X151838735Y-66578235D01*
X151790475Y-66575672D01*
X151746850Y-66565373D01*
X151732463Y-66559312D01*
X151689301Y-66531247D01*
X151649304Y-66492753D01*
X151617119Y-66448570D01*
X151608835Y-66433204D01*
X151594288Y-66390365D01*
X151588474Y-66342759D01*
X151591683Y-66296372D01*
X151600649Y-66264862D01*
X151617220Y-66233163D01*
X151639769Y-66200285D01*
X151664444Y-66171253D01*
X151687396Y-66151092D01*
X151688301Y-66150490D01*
X151711616Y-66135250D01*
X151711638Y-65615185D01*
X151711660Y-65095120D01*
X151679219Y-65095120D01*
X151670486Y-65095327D01*
X151662286Y-65096644D01*
X151653402Y-65100112D01*
X151642618Y-65106775D01*
X151628714Y-65117673D01*
X151610476Y-65133850D01*
X151586683Y-65156347D01*
X151556121Y-65186208D01*
X151517571Y-65224473D01*
X151469816Y-65272186D01*
X151454429Y-65287580D01*
X151262080Y-65480040D01*
X151262102Y-65552375D01*
X151262267Y-65585999D01*
X151263354Y-65607842D01*
X151266283Y-65621361D01*
X151271977Y-65630015D01*
X151281356Y-65637263D01*
X151285439Y-65639950D01*
X151310862Y-65662062D01*
X151336698Y-65693597D01*
X151359162Y-65729331D01*
X151373732Y-65761820D01*
X151382257Y-65805481D01*
X151381654Y-65854256D01*
X151372370Y-65901406D01*
X151362776Y-65926202D01*
X151339615Y-65962587D01*
X151307112Y-65999053D01*
X151270284Y-66030572D01*
X151239722Y-66049524D01*
X151216360Y-66057141D01*
X151216360Y-65830450D01*
X151213293Y-65796255D01*
X151202725Y-65774198D01*
X151182602Y-65762183D01*
X151150871Y-65758115D01*
X151145426Y-65758060D01*
X151119771Y-65759835D01*
X151098942Y-65764368D01*
X151091668Y-65767789D01*
X151078447Y-65785785D01*
X151071467Y-65812331D01*
X151070737Y-65842107D01*
X151076268Y-65869790D01*
X151088068Y-65890057D01*
X151091438Y-65892943D01*
X151111543Y-65900726D01*
X151139049Y-65903276D01*
X151167820Y-65900889D01*
X151191720Y-65893866D01*
X151201120Y-65887600D01*
X151210975Y-65872916D01*
X151215575Y-65851459D01*
X151216360Y-65830450D01*
X151216360Y-66057141D01*
X151199919Y-66062501D01*
X151152935Y-66067695D01*
X151104675Y-66065132D01*
X151061050Y-66054833D01*
X151046664Y-66048772D01*
X151003501Y-66020707D01*
X150963504Y-65982213D01*
X150931319Y-65938030D01*
X150923035Y-65922664D01*
X150908488Y-65879825D01*
X150902674Y-65832219D01*
X150905883Y-65785832D01*
X150914849Y-65754322D01*
X150931420Y-65722623D01*
X150953969Y-65689745D01*
X150978644Y-65660713D01*
X151001596Y-65640552D01*
X151002501Y-65639950D01*
X151013306Y-65632405D01*
X151020120Y-65624600D01*
X151023864Y-65613078D01*
X151025460Y-65594379D01*
X151025828Y-65565046D01*
X151025838Y-65552375D01*
X151025860Y-65480040D01*
X150833511Y-65287580D01*
X150782924Y-65236999D01*
X150741887Y-65196160D01*
X150709183Y-65164022D01*
X150683594Y-65139543D01*
X150663904Y-65121679D01*
X150648895Y-65109390D01*
X150637350Y-65101632D01*
X150628051Y-65097364D01*
X150619781Y-65095543D01*
X150611323Y-65095127D01*
X150608721Y-65095120D01*
X150576280Y-65095120D01*
X150576302Y-65615185D01*
X150576324Y-66135250D01*
X150599639Y-66150490D01*
X150625062Y-66172602D01*
X150650898Y-66204137D01*
X150673362Y-66239871D01*
X150687932Y-66272360D01*
X150696457Y-66316021D01*
X150695854Y-66364796D01*
X150686570Y-66411946D01*
X150676976Y-66436742D01*
X150653756Y-66473213D01*
X150621205Y-66509694D01*
X150584367Y-66541136D01*
X150553922Y-66559900D01*
X150530560Y-66567751D01*
X150530560Y-66340990D01*
X150527493Y-66306795D01*
X150516925Y-66284738D01*
X150496802Y-66272723D01*
X150465071Y-66268655D01*
X150459626Y-66268600D01*
X150433971Y-66270375D01*
X150413142Y-66274908D01*
X150405868Y-66278329D01*
X150392647Y-66296325D01*
X150385667Y-66322871D01*
X150384937Y-66352647D01*
X150390468Y-66380330D01*
X150402268Y-66400597D01*
X150405638Y-66403483D01*
X150425743Y-66411266D01*
X150453249Y-66413816D01*
X150482020Y-66411429D01*
X150505920Y-66404406D01*
X150515320Y-66398140D01*
X150525175Y-66383456D01*
X150529775Y-66361999D01*
X150530560Y-66340990D01*
X150530560Y-66567751D01*
X150518292Y-66571874D01*
X150475536Y-66578290D01*
X150431917Y-66578784D01*
X150393697Y-66572993D01*
X150383674Y-66569770D01*
X150333807Y-66543326D01*
X150288449Y-66505044D01*
X150251000Y-66458288D01*
X150228823Y-66416577D01*
X150220731Y-66385138D01*
X150217648Y-66346049D01*
X150219564Y-66306051D01*
X150226468Y-66271885D01*
X150229049Y-66264862D01*
X150245620Y-66233163D01*
X150268169Y-66200285D01*
X150292844Y-66171253D01*
X150315796Y-66151092D01*
X150316701Y-66150490D01*
X150340016Y-66135250D01*
X150340038Y-65497075D01*
X150340060Y-64858900D01*
X150522444Y-64858900D01*
X150581251Y-64859240D01*
X150632650Y-64860214D01*
X150674798Y-64861748D01*
X150705855Y-64863771D01*
X150723979Y-64866211D01*
X150726279Y-64866880D01*
X150736473Y-64873977D01*
X150756018Y-64890654D01*
X150783561Y-64915643D01*
X150817748Y-64947674D01*
X150857224Y-64985481D01*
X150900637Y-65027795D01*
X150945904Y-65072621D01*
X151144079Y-65270383D01*
X151338335Y-65075304D01*
X151383938Y-65029887D01*
X151427097Y-64987625D01*
X151466422Y-64949823D01*
X151500523Y-64917791D01*
X151528009Y-64892835D01*
X151547491Y-64876264D01*
X151557110Y-64869563D01*
X151569272Y-64865940D01*
X151588130Y-64863172D01*
X151615393Y-64861172D01*
X151652768Y-64859852D01*
X151701961Y-64859123D01*
X151764679Y-64858900D01*
X151764755Y-64858900D01*
X151947880Y-64858900D01*
X151947902Y-65497075D01*
X151947924Y-66135250D01*
X151971239Y-66150490D01*
X151996662Y-66172602D01*
X152022498Y-66204137D01*
X152044962Y-66239871D01*
X152059532Y-66272360D01*
X152068057Y-66316021D01*
X152068057Y-66316021D01*
G37*
X152068057Y-66316021D02*
X152067454Y-66364796D01*
X152058170Y-66411946D01*
X152048576Y-66436742D01*
X152025415Y-66473127D01*
X151992912Y-66509594D01*
X151956084Y-66541112D01*
X151925522Y-66560065D01*
X151902160Y-66567681D01*
X151902160Y-66340990D01*
X151899093Y-66306795D01*
X151888525Y-66284738D01*
X151868402Y-66272723D01*
X151836671Y-66268655D01*
X151831226Y-66268600D01*
X151805571Y-66270375D01*
X151784742Y-66274908D01*
X151777468Y-66278329D01*
X151764247Y-66296325D01*
X151757267Y-66322871D01*
X151756537Y-66352647D01*
X151762068Y-66380330D01*
X151773868Y-66400597D01*
X151777238Y-66403483D01*
X151797343Y-66411266D01*
X151824849Y-66413816D01*
X151853620Y-66411429D01*
X151877520Y-66404406D01*
X151886920Y-66398140D01*
X151896775Y-66383456D01*
X151901375Y-66361999D01*
X151902160Y-66340990D01*
X151902160Y-66567681D01*
X151885719Y-66573041D01*
X151838735Y-66578235D01*
X151790475Y-66575672D01*
X151746850Y-66565373D01*
X151732463Y-66559312D01*
X151689301Y-66531247D01*
X151649304Y-66492753D01*
X151617119Y-66448570D01*
X151608835Y-66433204D01*
X151594288Y-66390365D01*
X151588474Y-66342759D01*
X151591683Y-66296372D01*
X151600649Y-66264862D01*
X151617220Y-66233163D01*
X151639769Y-66200285D01*
X151664444Y-66171253D01*
X151687396Y-66151092D01*
X151688301Y-66150490D01*
X151711616Y-66135250D01*
X151711638Y-65615185D01*
X151711660Y-65095120D01*
X151679219Y-65095120D01*
X151670486Y-65095327D01*
X151662286Y-65096644D01*
X151653402Y-65100112D01*
X151642618Y-65106775D01*
X151628714Y-65117673D01*
X151610476Y-65133850D01*
X151586683Y-65156347D01*
X151556121Y-65186208D01*
X151517571Y-65224473D01*
X151469816Y-65272186D01*
X151454429Y-65287580D01*
X151262080Y-65480040D01*
X151262102Y-65552375D01*
X151262267Y-65585999D01*
X151263354Y-65607842D01*
X151266283Y-65621361D01*
X151271977Y-65630015D01*
X151281356Y-65637263D01*
X151285439Y-65639950D01*
X151310862Y-65662062D01*
X151336698Y-65693597D01*
X151359162Y-65729331D01*
X151373732Y-65761820D01*
X151382257Y-65805481D01*
X151381654Y-65854256D01*
X151372370Y-65901406D01*
X151362776Y-65926202D01*
X151339615Y-65962587D01*
X151307112Y-65999053D01*
X151270284Y-66030572D01*
X151239722Y-66049524D01*
X151216360Y-66057141D01*
X151216360Y-65830450D01*
X151213293Y-65796255D01*
X151202725Y-65774198D01*
X151182602Y-65762183D01*
X151150871Y-65758115D01*
X151145426Y-65758060D01*
X151119771Y-65759835D01*
X151098942Y-65764368D01*
X151091668Y-65767789D01*
X151078447Y-65785785D01*
X151071467Y-65812331D01*
X151070737Y-65842107D01*
X151076268Y-65869790D01*
X151088068Y-65890057D01*
X151091438Y-65892943D01*
X151111543Y-65900726D01*
X151139049Y-65903276D01*
X151167820Y-65900889D01*
X151191720Y-65893866D01*
X151201120Y-65887600D01*
X151210975Y-65872916D01*
X151215575Y-65851459D01*
X151216360Y-65830450D01*
X151216360Y-66057141D01*
X151199919Y-66062501D01*
X151152935Y-66067695D01*
X151104675Y-66065132D01*
X151061050Y-66054833D01*
X151046664Y-66048772D01*
X151003501Y-66020707D01*
X150963504Y-65982213D01*
X150931319Y-65938030D01*
X150923035Y-65922664D01*
X150908488Y-65879825D01*
X150902674Y-65832219D01*
X150905883Y-65785832D01*
X150914849Y-65754322D01*
X150931420Y-65722623D01*
X150953969Y-65689745D01*
X150978644Y-65660713D01*
X151001596Y-65640552D01*
X151002501Y-65639950D01*
X151013306Y-65632405D01*
X151020120Y-65624600D01*
X151023864Y-65613078D01*
X151025460Y-65594379D01*
X151025828Y-65565046D01*
X151025838Y-65552375D01*
X151025860Y-65480040D01*
X150833511Y-65287580D01*
X150782924Y-65236999D01*
X150741887Y-65196160D01*
X150709183Y-65164022D01*
X150683594Y-65139543D01*
X150663904Y-65121679D01*
X150648895Y-65109390D01*
X150637350Y-65101632D01*
X150628051Y-65097364D01*
X150619781Y-65095543D01*
X150611323Y-65095127D01*
X150608721Y-65095120D01*
X150576280Y-65095120D01*
X150576302Y-65615185D01*
X150576324Y-66135250D01*
X150599639Y-66150490D01*
X150625062Y-66172602D01*
X150650898Y-66204137D01*
X150673362Y-66239871D01*
X150687932Y-66272360D01*
X150696457Y-66316021D01*
X150695854Y-66364796D01*
X150686570Y-66411946D01*
X150676976Y-66436742D01*
X150653756Y-66473213D01*
X150621205Y-66509694D01*
X150584367Y-66541136D01*
X150553922Y-66559900D01*
X150530560Y-66567751D01*
X150530560Y-66340990D01*
X150527493Y-66306795D01*
X150516925Y-66284738D01*
X150496802Y-66272723D01*
X150465071Y-66268655D01*
X150459626Y-66268600D01*
X150433971Y-66270375D01*
X150413142Y-66274908D01*
X150405868Y-66278329D01*
X150392647Y-66296325D01*
X150385667Y-66322871D01*
X150384937Y-66352647D01*
X150390468Y-66380330D01*
X150402268Y-66400597D01*
X150405638Y-66403483D01*
X150425743Y-66411266D01*
X150453249Y-66413816D01*
X150482020Y-66411429D01*
X150505920Y-66404406D01*
X150515320Y-66398140D01*
X150525175Y-66383456D01*
X150529775Y-66361999D01*
X150530560Y-66340990D01*
X150530560Y-66567751D01*
X150518292Y-66571874D01*
X150475536Y-66578290D01*
X150431917Y-66578784D01*
X150393697Y-66572993D01*
X150383674Y-66569770D01*
X150333807Y-66543326D01*
X150288449Y-66505044D01*
X150251000Y-66458288D01*
X150228823Y-66416577D01*
X150220731Y-66385138D01*
X150217648Y-66346049D01*
X150219564Y-66306051D01*
X150226468Y-66271885D01*
X150229049Y-66264862D01*
X150245620Y-66233163D01*
X150268169Y-66200285D01*
X150292844Y-66171253D01*
X150315796Y-66151092D01*
X150316701Y-66150490D01*
X150340016Y-66135250D01*
X150340038Y-65497075D01*
X150340060Y-64858900D01*
X150522444Y-64858900D01*
X150581251Y-64859240D01*
X150632650Y-64860214D01*
X150674798Y-64861748D01*
X150705855Y-64863771D01*
X150723979Y-64866211D01*
X150726279Y-64866880D01*
X150736473Y-64873977D01*
X150756018Y-64890654D01*
X150783561Y-64915643D01*
X150817748Y-64947674D01*
X150857224Y-64985481D01*
X150900637Y-65027795D01*
X150945904Y-65072621D01*
X151144079Y-65270383D01*
X151338335Y-65075304D01*
X151383938Y-65029887D01*
X151427097Y-64987625D01*
X151466422Y-64949823D01*
X151500523Y-64917791D01*
X151528009Y-64892835D01*
X151547491Y-64876264D01*
X151557110Y-64869563D01*
X151569272Y-64865940D01*
X151588130Y-64863172D01*
X151615393Y-64861172D01*
X151652768Y-64859852D01*
X151701961Y-64859123D01*
X151764679Y-64858900D01*
X151764755Y-64858900D01*
X151947880Y-64858900D01*
X151947902Y-65497075D01*
X151947924Y-66135250D01*
X151971239Y-66150490D01*
X151996662Y-66172602D01*
X152022498Y-66204137D01*
X152044962Y-66239871D01*
X152059532Y-66272360D01*
X152068057Y-66316021D01*
G36*
X150123842Y-66331094D02*
X150121654Y-66379273D01*
X150111694Y-66422558D01*
X150105745Y-66436742D01*
X150082207Y-66473381D01*
X150049461Y-66509932D01*
X150012560Y-66541350D01*
X149982422Y-66559900D01*
X149959060Y-66567740D01*
X149959060Y-66340990D01*
X149955993Y-66306795D01*
X149945425Y-66284738D01*
X149925302Y-66272723D01*
X149893571Y-66268655D01*
X149888126Y-66268600D01*
X149862471Y-66270375D01*
X149841642Y-66274908D01*
X149834368Y-66278329D01*
X149821147Y-66296325D01*
X149814167Y-66322871D01*
X149813437Y-66352647D01*
X149818968Y-66380330D01*
X149830768Y-66400597D01*
X149834138Y-66403483D01*
X149854243Y-66411266D01*
X149881749Y-66413816D01*
X149910520Y-66411429D01*
X149934420Y-66404406D01*
X149943820Y-66398140D01*
X149953675Y-66383456D01*
X149958275Y-66361999D01*
X149959060Y-66340990D01*
X149959060Y-66567740D01*
X149946446Y-66571973D01*
X149903351Y-66578359D01*
X149859433Y-66578700D01*
X149820990Y-66572637D01*
X149811730Y-66569617D01*
X149780232Y-66554013D01*
X149747103Y-66531825D01*
X149717560Y-66506987D01*
X149696817Y-66483432D01*
X149696170Y-66482459D01*
X149680930Y-66459144D01*
X149518760Y-66459122D01*
X149459492Y-66458844D01*
X149413586Y-66457956D01*
X149379176Y-66456349D01*
X149354391Y-66453914D01*
X149337363Y-66450544D01*
X149330445Y-66448176D01*
X149315116Y-66438540D01*
X149291862Y-66419971D01*
X149262949Y-66394670D01*
X149230643Y-66364840D01*
X149197208Y-66332686D01*
X149164910Y-66300409D01*
X149136015Y-66270213D01*
X149112788Y-66244300D01*
X149097495Y-66224874D01*
X149093136Y-66217410D01*
X149091273Y-66210664D01*
X149089637Y-66199195D01*
X149088213Y-66182117D01*
X149086988Y-66158543D01*
X149085951Y-66127586D01*
X149085086Y-66088358D01*
X149084381Y-66039974D01*
X149083822Y-65981546D01*
X149083397Y-65912186D01*
X149083091Y-65831009D01*
X149082892Y-65737128D01*
X149082787Y-65629654D01*
X149082760Y-65525895D01*
X149082760Y-64858900D01*
X149200870Y-64858900D01*
X149318980Y-64858900D01*
X149318980Y-65489659D01*
X149318980Y-66120419D01*
X149370606Y-66171649D01*
X149422232Y-66222880D01*
X149551581Y-66222858D01*
X149680930Y-66222836D01*
X149696170Y-66199521D01*
X149715566Y-66177018D01*
X149743957Y-66152525D01*
X149776281Y-66129942D01*
X149807477Y-66113166D01*
X149809403Y-66112345D01*
X149848253Y-66102490D01*
X149893671Y-66100731D01*
X149939507Y-66106766D01*
X149979611Y-66120292D01*
X149980583Y-66120771D01*
X150025011Y-66149317D01*
X150065501Y-66187143D01*
X150097246Y-66229504D01*
X150104992Y-66243683D01*
X150118280Y-66283928D01*
X150123842Y-66331094D01*
X150123842Y-66331094D01*
G37*
X150123842Y-66331094D02*
X150121654Y-66379273D01*
X150111694Y-66422558D01*
X150105745Y-66436742D01*
X150082207Y-66473381D01*
X150049461Y-66509932D01*
X150012560Y-66541350D01*
X149982422Y-66559900D01*
X149959060Y-66567740D01*
X149959060Y-66340990D01*
X149955993Y-66306795D01*
X149945425Y-66284738D01*
X149925302Y-66272723D01*
X149893571Y-66268655D01*
X149888126Y-66268600D01*
X149862471Y-66270375D01*
X149841642Y-66274908D01*
X149834368Y-66278329D01*
X149821147Y-66296325D01*
X149814167Y-66322871D01*
X149813437Y-66352647D01*
X149818968Y-66380330D01*
X149830768Y-66400597D01*
X149834138Y-66403483D01*
X149854243Y-66411266D01*
X149881749Y-66413816D01*
X149910520Y-66411429D01*
X149934420Y-66404406D01*
X149943820Y-66398140D01*
X149953675Y-66383456D01*
X149958275Y-66361999D01*
X149959060Y-66340990D01*
X149959060Y-66567740D01*
X149946446Y-66571973D01*
X149903351Y-66578359D01*
X149859433Y-66578700D01*
X149820990Y-66572637D01*
X149811730Y-66569617D01*
X149780232Y-66554013D01*
X149747103Y-66531825D01*
X149717560Y-66506987D01*
X149696817Y-66483432D01*
X149696170Y-66482459D01*
X149680930Y-66459144D01*
X149518760Y-66459122D01*
X149459492Y-66458844D01*
X149413586Y-66457956D01*
X149379176Y-66456349D01*
X149354391Y-66453914D01*
X149337363Y-66450544D01*
X149330445Y-66448176D01*
X149315116Y-66438540D01*
X149291862Y-66419971D01*
X149262949Y-66394670D01*
X149230643Y-66364840D01*
X149197208Y-66332686D01*
X149164910Y-66300409D01*
X149136015Y-66270213D01*
X149112788Y-66244300D01*
X149097495Y-66224874D01*
X149093136Y-66217410D01*
X149091273Y-66210664D01*
X149089637Y-66199195D01*
X149088213Y-66182117D01*
X149086988Y-66158543D01*
X149085951Y-66127586D01*
X149085086Y-66088358D01*
X149084381Y-66039974D01*
X149083822Y-65981546D01*
X149083397Y-65912186D01*
X149083091Y-65831009D01*
X149082892Y-65737128D01*
X149082787Y-65629654D01*
X149082760Y-65525895D01*
X149082760Y-64858900D01*
X149200870Y-64858900D01*
X149318980Y-64858900D01*
X149318980Y-65489659D01*
X149318980Y-66120419D01*
X149370606Y-66171649D01*
X149422232Y-66222880D01*
X149551581Y-66222858D01*
X149680930Y-66222836D01*
X149696170Y-66199521D01*
X149715566Y-66177018D01*
X149743957Y-66152525D01*
X149776281Y-66129942D01*
X149807477Y-66113166D01*
X149809403Y-66112345D01*
X149848253Y-66102490D01*
X149893671Y-66100731D01*
X149939507Y-66106766D01*
X149979611Y-66120292D01*
X149980583Y-66120771D01*
X150025011Y-66149317D01*
X150065501Y-66187143D01*
X150097246Y-66229504D01*
X150104992Y-66243683D01*
X150118280Y-66283928D01*
X150123842Y-66331094D01*
D11*
X149225000Y-69469000D02*
X149225000Y-68453000D01*
X150749000Y-69469000D02*
X150749000Y-68453000D01*
D15*
X133928566Y-73914000D02*
G75*
G03X133928566Y-73914000I-197566J0D01*
G01*
D11*
X133059000Y-72009000D02*
X137959000Y-72009000D01*
X133059000Y-74279000D02*
X133059000Y-72009000D01*
X133359000Y-74549000D02*
X133059000Y-74279000D01*
X137959000Y-74549000D02*
X133359000Y-74549000D01*
X137959000Y-72009000D02*
X137959000Y-74549000D01*
D15*
X132981146Y-74942700D02*
G75*
G03X132981146Y-74942700I-197566J0D01*
G01*
D11*
X129905760Y-102895400D02*
X135961120Y-102892860D01*
X129903220Y-102890320D02*
X129903220Y-109199680D01*
X129903220Y-109199680D02*
X135983980Y-109199680D01*
X135983980Y-109199680D02*
X135983980Y-102905560D01*
X135382000Y-88265000D02*
X135382000Y-89281000D01*
X137414000Y-88265000D02*
X137414000Y-89281000D01*
D12*
X137998200Y-61087000D02*
X137998200Y-62103000D01*
X136829800Y-61087000D02*
X136829800Y-62103000D01*
X137998200Y-61087000D02*
X136829800Y-61087000D01*
X136829800Y-63881000D02*
X136829800Y-62865000D01*
X138049000Y-62865000D02*
X138049000Y-63881000D01*
D18*
X137414000Y-62224000D02*
X137414000Y-62744000D01*
X137524000Y-62394000D02*
X137304000Y-62394000D01*
X137524000Y-62394000D02*
X137424000Y-62504000D01*
X137304000Y-62394000D02*
X137404000Y-62494000D01*
X137524000Y-62584000D02*
X137304000Y-62584000D01*
D19*
X137664000Y-62374000D02*
X137774000Y-62504000D01*
X137794000Y-62514000D02*
X137784000Y-62434000D01*
X137794000Y-62514000D02*
X137714000Y-62514000D01*
X137794000Y-62704000D02*
X137714000Y-62704000D01*
X137794000Y-62704000D02*
X137784000Y-62624000D01*
X137664000Y-62564000D02*
X137774000Y-62694000D01*
D20*
X138277600Y-61937900D02*
X138849100Y-62484000D01*
X138849100Y-62496700D02*
X138760200Y-62077600D01*
X138836400Y-62496700D02*
X138442700Y-62445900D01*
X138836400Y-63284100D02*
X138442700Y-63233300D01*
X138849100Y-63284100D02*
X138760200Y-62865000D01*
X138277600Y-62725300D02*
X138849100Y-63271400D01*
D11*
X137985500Y-63893700D02*
X137858500Y-64046100D01*
X136893300Y-63893700D02*
X137020300Y-64033400D01*
X137858500Y-64046100D02*
X137033000Y-64046100D01*
X136931400Y-63881000D02*
X137972800Y-63881000D01*
X132359400Y-63881000D02*
X133400800Y-63881000D01*
X133286500Y-64046100D02*
X132461000Y-64046100D01*
X132321300Y-63893700D02*
X132448300Y-64033400D01*
X133413500Y-63893700D02*
X133286500Y-64046100D01*
D20*
X133705600Y-62725300D02*
X134277100Y-63271400D01*
X134277100Y-63284100D02*
X134188200Y-62865000D01*
X134264400Y-63284100D02*
X133870700Y-63233300D01*
X134264400Y-62496700D02*
X133870700Y-62445900D01*
X134277100Y-62496700D02*
X134188200Y-62077600D01*
X133705600Y-61937900D02*
X134277100Y-62484000D01*
D19*
X133092000Y-62564000D02*
X133202000Y-62694000D01*
X133222000Y-62704000D02*
X133212000Y-62624000D01*
X133222000Y-62704000D02*
X133142000Y-62704000D01*
X133222000Y-62514000D02*
X133142000Y-62514000D01*
X133222000Y-62514000D02*
X133212000Y-62434000D01*
X133092000Y-62374000D02*
X133202000Y-62504000D01*
D18*
X132952000Y-62584000D02*
X132732000Y-62584000D01*
X132732000Y-62394000D02*
X132832000Y-62494000D01*
X132952000Y-62394000D02*
X132852000Y-62504000D01*
X132952000Y-62394000D02*
X132732000Y-62394000D01*
X132842000Y-62224000D02*
X132842000Y-62744000D01*
D12*
X133477000Y-62865000D02*
X133477000Y-63881000D01*
X132257800Y-63881000D02*
X132257800Y-62865000D01*
X133426200Y-61087000D02*
X132257800Y-61087000D01*
X132257800Y-61087000D02*
X132257800Y-62103000D01*
X133426200Y-61087000D02*
X133426200Y-62103000D01*
D11*
X134645400Y-63881000D02*
X135686800Y-63881000D01*
X135572500Y-64046100D02*
X134747000Y-64046100D01*
X134607300Y-63893700D02*
X134734300Y-64033400D01*
X135699500Y-63893700D02*
X135572500Y-64046100D01*
D20*
X135991600Y-62725300D02*
X136563100Y-63271400D01*
X136563100Y-63284100D02*
X136474200Y-62865000D01*
X136550400Y-63284100D02*
X136156700Y-63233300D01*
X136550400Y-62496700D02*
X136156700Y-62445900D01*
X136563100Y-62496700D02*
X136474200Y-62077600D01*
X135991600Y-61937900D02*
X136563100Y-62484000D01*
D19*
X135378000Y-62564000D02*
X135488000Y-62694000D01*
X135508000Y-62704000D02*
X135498000Y-62624000D01*
X135508000Y-62704000D02*
X135428000Y-62704000D01*
X135508000Y-62514000D02*
X135428000Y-62514000D01*
X135508000Y-62514000D02*
X135498000Y-62434000D01*
X135378000Y-62374000D02*
X135488000Y-62504000D01*
D18*
X135238000Y-62584000D02*
X135018000Y-62584000D01*
X135018000Y-62394000D02*
X135118000Y-62494000D01*
X135238000Y-62394000D02*
X135138000Y-62504000D01*
X135238000Y-62394000D02*
X135018000Y-62394000D01*
X135128000Y-62224000D02*
X135128000Y-62744000D01*
D12*
X135763000Y-62865000D02*
X135763000Y-63881000D01*
X134543800Y-63881000D02*
X134543800Y-62865000D01*
X135712200Y-61087000D02*
X134543800Y-61087000D01*
X134543800Y-61087000D02*
X134543800Y-62103000D01*
X135712200Y-61087000D02*
X135712200Y-62103000D01*
D11*
X152273000Y-69469000D02*
X152273000Y-68453000D01*
X150749000Y-69469000D02*
X150749000Y-68453000D01*
X130073400Y-63881000D02*
X131114800Y-63881000D01*
X131000500Y-64046100D02*
X130175000Y-64046100D01*
X130035300Y-63893700D02*
X130162300Y-64033400D01*
X131127500Y-63893700D02*
X131000500Y-64046100D01*
D20*
X131419600Y-62725300D02*
X131991100Y-63271400D01*
X131991100Y-63284100D02*
X131902200Y-62865000D01*
X131978400Y-63284100D02*
X131584700Y-63233300D01*
X131978400Y-62496700D02*
X131584700Y-62445900D01*
X131991100Y-62496700D02*
X131902200Y-62077600D01*
X131419600Y-61937900D02*
X131991100Y-62484000D01*
D19*
X130806000Y-62564000D02*
X130916000Y-62694000D01*
X130936000Y-62704000D02*
X130926000Y-62624000D01*
X130936000Y-62704000D02*
X130856000Y-62704000D01*
X130936000Y-62514000D02*
X130856000Y-62514000D01*
X130936000Y-62514000D02*
X130926000Y-62434000D01*
X130806000Y-62374000D02*
X130916000Y-62504000D01*
D18*
X130666000Y-62584000D02*
X130446000Y-62584000D01*
X130446000Y-62394000D02*
X130546000Y-62494000D01*
X130666000Y-62394000D02*
X130566000Y-62504000D01*
X130666000Y-62394000D02*
X130446000Y-62394000D01*
X130556000Y-62224000D02*
X130556000Y-62744000D01*
D12*
X131191000Y-62865000D02*
X131191000Y-63881000D01*
X129971800Y-63881000D02*
X129971800Y-62865000D01*
X131140200Y-61087000D02*
X129971800Y-61087000D01*
X129971800Y-61087000D02*
X129971800Y-62103000D01*
X131140200Y-61087000D02*
X131140200Y-62103000D01*
D11*
X136271000Y-106299000D02*
X136271000Y-107315000D01*
X138303000Y-106299000D02*
X138303000Y-107315000D01*
X142621000Y-96139000D02*
X141605000Y-96139000D01*
X142621000Y-98171000D02*
X141605000Y-98171000D01*
X138658600Y-98933000D02*
X138658600Y-97917000D01*
X136626600Y-98933000D02*
X136626600Y-97917000D01*
X149352000Y-99822000D02*
X150368000Y-99822000D01*
X149352000Y-97790000D02*
X150368000Y-97790000D01*
X142621000Y-81026000D02*
X141605000Y-81026000D01*
X142621000Y-79502000D02*
X141605000Y-79502000D01*
X132668000Y-71461000D02*
X132668000Y-66461000D01*
X129968000Y-70091000D02*
X132668000Y-70091000D01*
X129968000Y-66461000D02*
X129968000Y-71461000D01*
X129968000Y-69651000D02*
X132668000Y-69651000D01*
X145868000Y-92884000D02*
X145868000Y-95584000D01*
X149058000Y-92884000D02*
X144058000Y-92884000D01*
X145428000Y-92884000D02*
X145428000Y-95584000D01*
X144058000Y-95584000D02*
X149058000Y-95584000D01*
X137058400Y-80721200D02*
X137058400Y-80314800D01*
X135737600Y-79095600D02*
X136525000Y-79095600D01*
X135737600Y-79756000D02*
X135737600Y-79095600D01*
X135737600Y-81940400D02*
X135737600Y-81280000D01*
X136525000Y-81940400D02*
X135737600Y-81940400D01*
D21*
X132412000Y-75377000D02*
X129412000Y-75377000D01*
D11*
X132539740Y-73827640D02*
X132539740Y-78826360D01*
X129334260Y-78826360D02*
X129334260Y-73827640D01*
X130302000Y-76962000D02*
X131572000Y-76962000D01*
X131572000Y-76962000D02*
X130937000Y-75946000D01*
X130302000Y-76962000D02*
X130937000Y-75946000D01*
X130302000Y-75946000D02*
X131572000Y-75946000D01*
X146431000Y-67246500D02*
X146177000Y-67246500D01*
X146431000Y-67246500D02*
X146685000Y-67246500D01*
X146431000Y-68135500D02*
X146685000Y-68135500D01*
X146431000Y-68135500D02*
X146177000Y-68135500D01*
X148272500Y-68199000D02*
X148272500Y-68453000D01*
X148272500Y-68199000D02*
X148272500Y-67945000D01*
X147383500Y-68199000D02*
X147383500Y-67945000D01*
X147383500Y-68199000D02*
X147383500Y-68453000D01*
X148336000Y-69151500D02*
X148082000Y-69151500D01*
X148336000Y-69151500D02*
X148590000Y-69151500D01*
X148336000Y-70040500D02*
X148590000Y-70040500D01*
X148336000Y-70040500D02*
X148082000Y-70040500D01*
D12*
X159397700Y-66497200D02*
X159397700Y-61036200D01*
X143649700Y-66497200D02*
X159397700Y-66497200D01*
X143649700Y-61036200D02*
X143649700Y-66497200D01*
X159397700Y-61036200D02*
X143649700Y-61036200D01*
D11*
X152209500Y-71374000D02*
X152209500Y-71120000D01*
X152209500Y-71374000D02*
X152209500Y-71628000D01*
X151320500Y-71374000D02*
X151320500Y-71628000D01*
X151320500Y-71374000D02*
X151320500Y-71120000D01*
X153098500Y-73406000D02*
X153098500Y-73152000D01*
X153098500Y-73406000D02*
X153098500Y-73660000D01*
X152209500Y-73406000D02*
X152209500Y-73660000D01*
X152209500Y-73406000D02*
X152209500Y-73152000D01*
X153098500Y-75438000D02*
X153098500Y-75692000D01*
X153098500Y-75438000D02*
X153098500Y-75184000D01*
X152209500Y-75438000D02*
X152209500Y-75184000D01*
X152209500Y-75438000D02*
X152209500Y-75692000D01*
X150318437Y-71374000D02*
X150318437Y-71628000D01*
X150318437Y-71374000D02*
X150318437Y-71120000D01*
X149429437Y-71374000D02*
X149429437Y-71120000D01*
X149429437Y-71374000D02*
X149429437Y-71628000D01*
X145732500Y-68961000D02*
X145732500Y-68707000D01*
X145732500Y-68961000D02*
X145732500Y-69215000D01*
X144843500Y-68961000D02*
X144843500Y-69215000D01*
X144843500Y-68961000D02*
X144843500Y-68707000D01*
X143573500Y-68961000D02*
X143573500Y-68707000D01*
X143573500Y-68961000D02*
X143573500Y-69215000D01*
X144462500Y-68961000D02*
X144462500Y-69215000D01*
X144462500Y-68961000D02*
X144462500Y-68707000D01*
X150876000Y-75247500D02*
X150622000Y-75247500D01*
X150876000Y-75247500D02*
X151130000Y-75247500D01*
X150876000Y-74358500D02*
X151130000Y-74358500D01*
X150876000Y-74358500D02*
X150622000Y-74358500D01*
X143192500Y-68961000D02*
X143192500Y-69215000D01*
X143192500Y-68961000D02*
X143192500Y-68707000D01*
X142303500Y-68961000D02*
X142303500Y-68707000D01*
X142303500Y-68961000D02*
X142303500Y-69215000D01*
X146113500Y-69850000D02*
X146113500Y-70104000D01*
X146113500Y-69850000D02*
X146113500Y-69596000D01*
X147002500Y-69850000D02*
X147002500Y-69596000D01*
X147002500Y-69850000D02*
X147002500Y-70104000D01*
X139509500Y-75184000D02*
X139509500Y-74930000D01*
X139509500Y-75184000D02*
X139509500Y-75438000D01*
X140398500Y-75184000D02*
X140398500Y-75438000D01*
X140398500Y-75184000D02*
X140398500Y-74930000D01*
X148910691Y-78165309D02*
X148731086Y-77985704D01*
X148910691Y-78165309D02*
X149090296Y-78344914D01*
X149539309Y-77536691D02*
X149718914Y-77716296D01*
X149539309Y-77536691D02*
X149359704Y-77357086D01*
X150431500Y-71374000D02*
X150431500Y-71120000D01*
X150431500Y-71374000D02*
X150431500Y-71628000D01*
X151320500Y-71374000D02*
X151320500Y-71628000D01*
X151320500Y-71374000D02*
X151320500Y-71120000D01*
X152209500Y-73406000D02*
X152209500Y-73152000D01*
X152209500Y-73406000D02*
X152209500Y-73660000D01*
X151320500Y-73406000D02*
X151320500Y-73660000D01*
X151320500Y-73406000D02*
X151320500Y-73152000D01*
X141414500Y-68961000D02*
X141414500Y-68707000D01*
X141414500Y-68961000D02*
X141414500Y-69215000D01*
X142303500Y-68961000D02*
X142303500Y-69215000D01*
X142303500Y-68961000D02*
X142303500Y-68707000D01*
X141538309Y-78165309D02*
X141717914Y-77985704D01*
X141538309Y-78165309D02*
X141358704Y-78344914D01*
X140909691Y-77536691D02*
X140730086Y-77716296D01*
X140909691Y-77536691D02*
X141089296Y-77357086D01*
X148399500Y-81534000D02*
X148399500Y-81280000D01*
X148399500Y-81534000D02*
X148399500Y-81788000D01*
X147510500Y-81534000D02*
X147510500Y-81788000D01*
X147510500Y-81534000D02*
X147510500Y-81280000D01*
X142367000Y-82105500D02*
X142113000Y-82105500D01*
X142367000Y-82105500D02*
X142621000Y-82105500D01*
X142367000Y-82994500D02*
X142621000Y-82994500D01*
X142367000Y-82994500D02*
X142113000Y-82994500D01*
X150434691Y-76768309D02*
X150614296Y-76947914D01*
X150434691Y-76768309D02*
X150255086Y-76588704D01*
X151063309Y-76139691D02*
X150883704Y-75960086D01*
X151063309Y-76139691D02*
X151242914Y-76319296D01*
X151003000Y-81470500D02*
X150749000Y-81470500D01*
X151003000Y-81470500D02*
X151257000Y-81470500D01*
X151003000Y-80581500D02*
X151257000Y-80581500D01*
X151003000Y-80581500D02*
X150749000Y-80581500D01*
X146240500Y-82042000D02*
X146240500Y-81788000D01*
X146240500Y-82042000D02*
X146240500Y-82296000D01*
X145351500Y-82042000D02*
X145351500Y-82296000D01*
X145351500Y-82042000D02*
X145351500Y-81788000D01*
X143319500Y-82042000D02*
X143319500Y-81788000D01*
X143319500Y-82042000D02*
X143319500Y-82296000D01*
X144208500Y-82042000D02*
X144208500Y-82296000D01*
X144208500Y-82042000D02*
X144208500Y-81788000D01*
X142367000Y-81978500D02*
X142113000Y-81978500D01*
X142367000Y-81978500D02*
X142621000Y-81978500D01*
X142367000Y-81089500D02*
X142621000Y-81089500D01*
X142367000Y-81089500D02*
X142113000Y-81089500D01*
X141541500Y-100584000D02*
X141541500Y-100838000D01*
X141541500Y-100584000D02*
X141541500Y-100330000D01*
X142430500Y-100584000D02*
X142430500Y-100330000D01*
X142430500Y-100584000D02*
X142430500Y-100838000D01*
X129032000Y-64706500D02*
X128778000Y-64706500D01*
X129032000Y-64706500D02*
X129286000Y-64706500D01*
X129032000Y-65595500D02*
X129286000Y-65595500D01*
X129032000Y-65595500D02*
X128778000Y-65595500D01*
X150368000Y-97726500D02*
X150114000Y-97726500D01*
X150368000Y-97726500D02*
X150622000Y-97726500D01*
X150368000Y-96837500D02*
X150622000Y-96837500D01*
X150368000Y-96837500D02*
X150114000Y-96837500D01*
X149733000Y-100774500D02*
X149987000Y-100774500D01*
X149733000Y-100774500D02*
X149479000Y-100774500D01*
X149733000Y-99885500D02*
X149479000Y-99885500D01*
X149733000Y-99885500D02*
X149987000Y-99885500D01*
X151130000Y-102171500D02*
X151384000Y-102171500D01*
X151130000Y-102171500D02*
X150876000Y-102171500D01*
X151130000Y-103060500D02*
X150876000Y-103060500D01*
X151130000Y-103060500D02*
X151384000Y-103060500D01*
X133159500Y-67437000D02*
X133159500Y-67183000D01*
X133159500Y-67437000D02*
X133159500Y-67691000D01*
X134048500Y-67437000D02*
X134048500Y-67691000D01*
X134048500Y-67437000D02*
X134048500Y-67183000D01*
X130619500Y-97663000D02*
X130619500Y-97917000D01*
X130619500Y-97663000D02*
X130619500Y-97409000D01*
X131508500Y-97663000D02*
X131508500Y-97409000D01*
X131508500Y-97663000D02*
X131508500Y-97917000D01*
X154114500Y-95377000D02*
X154114500Y-95123000D01*
X154114500Y-95377000D02*
X154114500Y-95631000D01*
X155003500Y-95377000D02*
X155003500Y-95631000D01*
X155003500Y-95377000D02*
X155003500Y-95123000D01*
X151130000Y-102171500D02*
X150876000Y-102171500D01*
X151130000Y-102171500D02*
X151384000Y-102171500D01*
X151130000Y-101282500D02*
X151384000Y-101282500D01*
X151130000Y-101282500D02*
X150876000Y-101282500D01*
X137414000Y-65087500D02*
X137160000Y-65087500D01*
X137414000Y-65087500D02*
X137668000Y-65087500D01*
X137414000Y-64198500D02*
X137668000Y-64198500D01*
X137414000Y-64198500D02*
X137160000Y-64198500D01*
X135509000Y-64198500D02*
X135255000Y-64198500D01*
X135509000Y-64198500D02*
X135763000Y-64198500D01*
X135509000Y-65087500D02*
X135763000Y-65087500D01*
X135509000Y-65087500D02*
X135255000Y-65087500D01*
X130492500Y-97663000D02*
X130492500Y-97917000D01*
X130492500Y-97663000D02*
X130492500Y-97409000D01*
X129603500Y-97663000D02*
X129603500Y-97409000D01*
X129603500Y-97663000D02*
X129603500Y-97917000D01*
X133223000Y-64198500D02*
X132969000Y-64198500D01*
X133223000Y-64198500D02*
X133477000Y-64198500D01*
X133223000Y-65087500D02*
X133477000Y-65087500D01*
X133223000Y-65087500D02*
X132969000Y-65087500D01*
X129032000Y-63817500D02*
X129286000Y-63817500D01*
X129032000Y-63817500D02*
X128778000Y-63817500D01*
X129032000Y-64706500D02*
X128778000Y-64706500D01*
X129032000Y-64706500D02*
X129286000Y-64706500D01*
X136969500Y-67437000D02*
X136969500Y-67183000D01*
X136969500Y-67437000D02*
X136969500Y-67691000D01*
X136080500Y-67437000D02*
X136080500Y-67691000D01*
X136080500Y-67437000D02*
X136080500Y-67183000D01*
X136969500Y-67437000D02*
X136969500Y-67183000D01*
X136969500Y-67437000D02*
X136969500Y-67691000D01*
X137858500Y-67437000D02*
X137858500Y-67691000D01*
X137858500Y-67437000D02*
X137858500Y-67183000D01*
X152273000Y-96837500D02*
X152527000Y-96837500D01*
X152273000Y-96837500D02*
X152019000Y-96837500D01*
X152273000Y-97726500D02*
X152019000Y-97726500D01*
X152273000Y-97726500D02*
X152527000Y-97726500D01*
X132397500Y-97663000D02*
X132397500Y-97409000D01*
X132397500Y-97663000D02*
X132397500Y-97917000D01*
X131508500Y-97663000D02*
X131508500Y-97917000D01*
X131508500Y-97663000D02*
X131508500Y-97409000D01*
X138620500Y-89154000D02*
X138620500Y-89408000D01*
X138620500Y-89154000D02*
X138620500Y-88900000D01*
X137731500Y-89154000D02*
X137731500Y-88900000D01*
X137731500Y-89154000D02*
X137731500Y-89408000D01*
X138620500Y-91059000D02*
X138620500Y-90805000D01*
X138620500Y-91059000D02*
X138620500Y-91313000D01*
X137731500Y-91059000D02*
X137731500Y-91313000D01*
X137731500Y-91059000D02*
X137731500Y-90805000D01*
X141033500Y-68961000D02*
X141033500Y-69215000D01*
X141033500Y-68961000D02*
X141033500Y-68707000D01*
X140144500Y-68961000D02*
X140144500Y-68707000D01*
X140144500Y-68961000D02*
X140144500Y-69215000D01*
X145415000Y-96456500D02*
X145669000Y-96456500D01*
X145415000Y-96456500D02*
X145161000Y-96456500D01*
X145415000Y-97345500D02*
X145161000Y-97345500D01*
X145415000Y-97345500D02*
X145669000Y-97345500D01*
X145415000Y-101155500D02*
X145669000Y-101155500D01*
X145415000Y-101155500D02*
X145161000Y-101155500D01*
X145415000Y-100266500D02*
X145161000Y-100266500D01*
X145415000Y-100266500D02*
X145669000Y-100266500D01*
X151130000Y-103822500D02*
X151384000Y-103822500D01*
X151130000Y-103822500D02*
X150876000Y-103822500D01*
X151130000Y-104711500D02*
X150876000Y-104711500D01*
X151130000Y-104711500D02*
X151384000Y-104711500D01*
X133413500Y-81788000D02*
X133413500Y-82042000D01*
X133413500Y-81788000D02*
X133413500Y-81534000D01*
X134302500Y-81788000D02*
X134302500Y-81534000D01*
X134302500Y-81788000D02*
X134302500Y-82042000D01*
X131953000Y-88646000D02*
X130937000Y-88646000D01*
X131953000Y-90678000D02*
X130937000Y-90678000D01*
X133794500Y-84201000D02*
X133794500Y-84455000D01*
X133794500Y-84201000D02*
X133794500Y-83947000D01*
X134683500Y-84201000D02*
X134683500Y-83947000D01*
X134683500Y-84201000D02*
X134683500Y-84455000D01*
X154178000Y-97726500D02*
X153924000Y-97726500D01*
X154178000Y-97726500D02*
X154432000Y-97726500D01*
X154178000Y-96837500D02*
X154432000Y-96837500D01*
X154178000Y-96837500D02*
X153924000Y-96837500D01*
X135826500Y-84201000D02*
X135826500Y-83947000D01*
X135826500Y-84201000D02*
X135826500Y-84455000D01*
X134937500Y-84201000D02*
X134937500Y-84455000D01*
X134937500Y-84201000D02*
X134937500Y-83947000D01*
X133223000Y-82804000D02*
X133223000Y-85598000D01*
X132969000Y-82550000D02*
X131445000Y-82550000D01*
X132969000Y-85852000D02*
X131445000Y-85852000D01*
X131191000Y-85598000D02*
X131191000Y-82804000D01*
X131445000Y-82550000D02*
G75*
G03X131191000Y-82804000I0J-254000D01*
G01*
X131191000Y-85598000D02*
G75*
G03X131445000Y-85852000I254000J0D01*
G01*
X132969000Y-85852000D02*
G75*
G03X133223000Y-85598000I0J254000D01*
G01*
X133223000Y-82804000D02*
G75*
G03X132969000Y-82550000I-254000J0D01*
G01*
D22*
X153437166Y-93680642D02*
X153225500Y-93680642D01*
X153225500Y-94013261D02*
X153225500Y-93378261D01*
X153527880Y-93378261D01*
X153769785Y-93680642D02*
X153981452Y-93680642D01*
X154072166Y-94013261D02*
X153769785Y-94013261D01*
X153769785Y-93378261D01*
X154072166Y-93378261D01*
X154253595Y-93378261D02*
X154616452Y-93378261D01*
X154435023Y-94013261D02*
X154435023Y-93378261D01*
X154797880Y-93438738D02*
X154828119Y-93408500D01*
X154888595Y-93378261D01*
X155039785Y-93378261D01*
X155100261Y-93408500D01*
X155130500Y-93438738D01*
X155160738Y-93499214D01*
X155160738Y-93559690D01*
X155130500Y-93650404D01*
X154767642Y-94013261D01*
X155160738Y-94013261D01*
D11*
X156627285Y-100088095D02*
X156687761Y-99906666D01*
X156748238Y-99846190D01*
X156869190Y-99785714D01*
X157050619Y-99785714D01*
X157171571Y-99846190D01*
X157232047Y-99906666D01*
X157292523Y-100027619D01*
X157292523Y-100511428D01*
X156022523Y-100511428D01*
X156022523Y-100088095D01*
X156083000Y-99967142D01*
X156143476Y-99906666D01*
X156264428Y-99846190D01*
X156385380Y-99846190D01*
X156506333Y-99906666D01*
X156566809Y-99967142D01*
X156627285Y-100088095D01*
X156627285Y-100511428D01*
X156022523Y-99241428D02*
X157050619Y-99241428D01*
X157171571Y-99180952D01*
X157232047Y-99120476D01*
X157292523Y-98999523D01*
X157292523Y-98757619D01*
X157232047Y-98636666D01*
X157171571Y-98576190D01*
X157050619Y-98515714D01*
X156022523Y-98515714D01*
X156022523Y-98092380D02*
X156022523Y-97366666D01*
X157292523Y-97729523D02*
X156022523Y-97729523D01*
X157292523Y-96278095D02*
X157292523Y-97003809D01*
X157292523Y-96640952D02*
X156022523Y-96640952D01*
X156203952Y-96761904D01*
X156324904Y-96882857D01*
X156385380Y-97003809D01*
D13*
X141568714Y-87448571D02*
X142185571Y-87448571D01*
X142258142Y-87412285D01*
X142294428Y-87376000D01*
X142330714Y-87303428D01*
X142330714Y-87158285D01*
X142294428Y-87085714D01*
X142258142Y-87049428D01*
X142185571Y-87013142D01*
X141568714Y-87013142D01*
X141895285Y-86541428D02*
X141859000Y-86614000D01*
X141822714Y-86650285D01*
X141750142Y-86686571D01*
X141713857Y-86686571D01*
X141641285Y-86650285D01*
X141605000Y-86614000D01*
X141568714Y-86541428D01*
X141568714Y-86396285D01*
X141605000Y-86323714D01*
X141641285Y-86287428D01*
X141713857Y-86251142D01*
X141750142Y-86251142D01*
X141822714Y-86287428D01*
X141859000Y-86323714D01*
X141895285Y-86396285D01*
X141895285Y-86541428D01*
X141931571Y-86614000D01*
X141967857Y-86650285D01*
X142040428Y-86686571D01*
X142185571Y-86686571D01*
X142258142Y-86650285D01*
X142294428Y-86614000D01*
X142330714Y-86541428D01*
X142330714Y-86396285D01*
X142294428Y-86323714D01*
X142258142Y-86287428D01*
X142185571Y-86251142D01*
X142040428Y-86251142D01*
X141967857Y-86287428D01*
X141931571Y-86323714D01*
X141895285Y-86396285D01*
X143203022Y-86835328D02*
X143311880Y-86871614D01*
X143493308Y-86871614D01*
X143565880Y-86835328D01*
X143602165Y-86799042D01*
X143638451Y-86726471D01*
X143638451Y-86653900D01*
X143602165Y-86581328D01*
X143565880Y-86545042D01*
X143493308Y-86508757D01*
X143348165Y-86472471D01*
X143275594Y-86436185D01*
X143239308Y-86399900D01*
X143203022Y-86327328D01*
X143203022Y-86254757D01*
X143239308Y-86182185D01*
X143275594Y-86145900D01*
X143348165Y-86109614D01*
X143529594Y-86109614D01*
X143638451Y-86145900D01*
X144110165Y-86109614D02*
X144255308Y-86109614D01*
X144327880Y-86145900D01*
X144400451Y-86218471D01*
X144436737Y-86363614D01*
X144436737Y-86617614D01*
X144400451Y-86762757D01*
X144327880Y-86835328D01*
X144255308Y-86871614D01*
X144110165Y-86871614D01*
X144037594Y-86835328D01*
X143965022Y-86762757D01*
X143928737Y-86617614D01*
X143928737Y-86363614D01*
X143965022Y-86218471D01*
X144037594Y-86145900D01*
X144110165Y-86109614D01*
X144763308Y-86871614D02*
X144763308Y-86109614D01*
X145561594Y-86799042D02*
X145525308Y-86835328D01*
X145416451Y-86871614D01*
X145343880Y-86871614D01*
X145235022Y-86835328D01*
X145162451Y-86762757D01*
X145126165Y-86690185D01*
X145089880Y-86545042D01*
X145089880Y-86436185D01*
X145126165Y-86291042D01*
X145162451Y-86218471D01*
X145235022Y-86145900D01*
X145343880Y-86109614D01*
X145416451Y-86109614D01*
X145525308Y-86145900D01*
X145561594Y-86182185D01*
X145888165Y-86581328D02*
X146468737Y-86581328D01*
X146940451Y-86436185D02*
X146867880Y-86399900D01*
X146831594Y-86363614D01*
X146795308Y-86291042D01*
X146795308Y-86254757D01*
X146831594Y-86182185D01*
X146867880Y-86145900D01*
X146940451Y-86109614D01*
X147085594Y-86109614D01*
X147158165Y-86145900D01*
X147194451Y-86182185D01*
X147230737Y-86254757D01*
X147230737Y-86291042D01*
X147194451Y-86363614D01*
X147158165Y-86399900D01*
X147085594Y-86436185D01*
X146940451Y-86436185D01*
X146867880Y-86472471D01*
X146831594Y-86508757D01*
X146795308Y-86581328D01*
X146795308Y-86726471D01*
X146831594Y-86799042D01*
X146867880Y-86835328D01*
X146940451Y-86871614D01*
X147085594Y-86871614D01*
X147158165Y-86835328D01*
X147194451Y-86799042D01*
X147230737Y-86726471D01*
X147230737Y-86581328D01*
X147194451Y-86508757D01*
X147158165Y-86472471D01*
X147085594Y-86436185D01*
D22*
X144504833Y-87797141D02*
X144141976Y-87797141D01*
X144323404Y-87797141D02*
X144323404Y-87162141D01*
X144262928Y-87252856D01*
X144202452Y-87313332D01*
X144141976Y-87343570D01*
X145079357Y-87162141D02*
X144776976Y-87162141D01*
X144746738Y-87464522D01*
X144776976Y-87434284D01*
X144837452Y-87404046D01*
X144988642Y-87404046D01*
X145049119Y-87434284D01*
X145079357Y-87464522D01*
X145109595Y-87524999D01*
X145109595Y-87676189D01*
X145079357Y-87736665D01*
X145049119Y-87766903D01*
X144988642Y-87797141D01*
X144837452Y-87797141D01*
X144776976Y-87766903D01*
X144746738Y-87736665D01*
X145502690Y-87162141D02*
X145563166Y-87162141D01*
X145623642Y-87192380D01*
X145653880Y-87222618D01*
X145684119Y-87283094D01*
X145714357Y-87404046D01*
X145714357Y-87555237D01*
X145684119Y-87676189D01*
X145653880Y-87736665D01*
X145623642Y-87766903D01*
X145563166Y-87797141D01*
X145502690Y-87797141D01*
X145442214Y-87766903D01*
X145411976Y-87736665D01*
X145381738Y-87676189D01*
X145351500Y-87555237D01*
X145351500Y-87404046D01*
X145381738Y-87283094D01*
X145411976Y-87222618D01*
X145442214Y-87192380D01*
X145502690Y-87162141D01*
X145986500Y-87797141D02*
X145986500Y-87373808D01*
X145986500Y-87434284D02*
X146016738Y-87404046D01*
X146077214Y-87373808D01*
X146167928Y-87373808D01*
X146228404Y-87404046D01*
X146258642Y-87464522D01*
X146258642Y-87797141D01*
X146258642Y-87464522D02*
X146288880Y-87404046D01*
X146349357Y-87373808D01*
X146440071Y-87373808D01*
X146500547Y-87404046D01*
X146530785Y-87464522D01*
X146530785Y-87797141D01*
X146833166Y-87797141D02*
X146833166Y-87373808D01*
X146833166Y-87162141D02*
X146802928Y-87192380D01*
X146833166Y-87222618D01*
X146863404Y-87192380D01*
X146833166Y-87162141D01*
X146833166Y-87222618D01*
X147226261Y-87797141D02*
X147165785Y-87766903D01*
X147135547Y-87706427D01*
X147135547Y-87162141D01*
D13*
X153633714Y-86686571D02*
X154250571Y-86686571D01*
X154323142Y-86650285D01*
X154359428Y-86614000D01*
X154395714Y-86541428D01*
X154395714Y-86396285D01*
X154359428Y-86323714D01*
X154323142Y-86287428D01*
X154250571Y-86251142D01*
X153633714Y-86251142D01*
X153633714Y-85960857D02*
X153633714Y-85452857D01*
X154395714Y-85779428D01*
D15*
X148940761Y-85628238D02*
X149085904Y-85676619D01*
X149327809Y-85676619D01*
X149424571Y-85628238D01*
X149472952Y-85579857D01*
X149521333Y-85483095D01*
X149521333Y-85386333D01*
X149472952Y-85289571D01*
X149424571Y-85241190D01*
X149327809Y-85192809D01*
X149134285Y-85144428D01*
X149037523Y-85096047D01*
X148989142Y-85047666D01*
X148940761Y-84950904D01*
X148940761Y-84854142D01*
X148989142Y-84757380D01*
X149037523Y-84709000D01*
X149134285Y-84660619D01*
X149376190Y-84660619D01*
X149521333Y-84709000D01*
X150150285Y-84660619D02*
X150343809Y-84660619D01*
X150440571Y-84709000D01*
X150537333Y-84805761D01*
X150585714Y-84999285D01*
X150585714Y-85337952D01*
X150537333Y-85531476D01*
X150440571Y-85628238D01*
X150343809Y-85676619D01*
X150150285Y-85676619D01*
X150053523Y-85628238D01*
X149956761Y-85531476D01*
X149908380Y-85337952D01*
X149908380Y-84999285D01*
X149956761Y-84805761D01*
X150053523Y-84709000D01*
X150150285Y-84660619D01*
X151021142Y-85289571D02*
X151795238Y-85289571D01*
X152424190Y-85096047D02*
X152327428Y-85047666D01*
X152279047Y-84999285D01*
X152230666Y-84902523D01*
X152230666Y-84854142D01*
X152279047Y-84757380D01*
X152327428Y-84709000D01*
X152424190Y-84660619D01*
X152617714Y-84660619D01*
X152714476Y-84709000D01*
X152762857Y-84757380D01*
X152811238Y-84854142D01*
X152811238Y-84902523D01*
X152762857Y-84999285D01*
X152714476Y-85047666D01*
X152617714Y-85096047D01*
X152424190Y-85096047D01*
X152327428Y-85144428D01*
X152279047Y-85192809D01*
X152230666Y-85289571D01*
X152230666Y-85483095D01*
X152279047Y-85579857D01*
X152327428Y-85628238D01*
X152424190Y-85676619D01*
X152617714Y-85676619D01*
X152714476Y-85628238D01*
X152762857Y-85579857D01*
X152811238Y-85483095D01*
X152811238Y-85289571D01*
X152762857Y-85192809D01*
X152714476Y-85144428D01*
X152617714Y-85096047D01*
D13*
X149043571Y-86142285D02*
X149079857Y-86106000D01*
X149152428Y-86069714D01*
X149333857Y-86069714D01*
X149406428Y-86106000D01*
X149442714Y-86142285D01*
X149479000Y-86214857D01*
X149479000Y-86287428D01*
X149442714Y-86396285D01*
X149007285Y-86831714D01*
X149479000Y-86831714D01*
X149950714Y-86069714D02*
X150023285Y-86069714D01*
X150095857Y-86106000D01*
X150132142Y-86142285D01*
X150168428Y-86214857D01*
X150204714Y-86360000D01*
X150204714Y-86541428D01*
X150168428Y-86686571D01*
X150132142Y-86759142D01*
X150095857Y-86795428D01*
X150023285Y-86831714D01*
X149950714Y-86831714D01*
X149878142Y-86795428D01*
X149841857Y-86759142D01*
X149805571Y-86686571D01*
X149769285Y-86541428D01*
X149769285Y-86360000D01*
X149805571Y-86214857D01*
X149841857Y-86142285D01*
X149878142Y-86106000D01*
X149950714Y-86069714D01*
X150640142Y-86396285D02*
X150567571Y-86360000D01*
X150531285Y-86323714D01*
X150495000Y-86251142D01*
X150495000Y-86214857D01*
X150531285Y-86142285D01*
X150567571Y-86106000D01*
X150640142Y-86069714D01*
X150785285Y-86069714D01*
X150857857Y-86106000D01*
X150894142Y-86142285D01*
X150930428Y-86214857D01*
X150930428Y-86251142D01*
X150894142Y-86323714D01*
X150857857Y-86360000D01*
X150785285Y-86396285D01*
X150640142Y-86396285D01*
X150567571Y-86432571D01*
X150531285Y-86468857D01*
X150495000Y-86541428D01*
X150495000Y-86686571D01*
X150531285Y-86759142D01*
X150567571Y-86795428D01*
X150640142Y-86831714D01*
X150785285Y-86831714D01*
X150857857Y-86795428D01*
X150894142Y-86759142D01*
X150930428Y-86686571D01*
X150930428Y-86541428D01*
X150894142Y-86468857D01*
X150857857Y-86432571D01*
X150785285Y-86396285D01*
X151257000Y-86831714D02*
X151257000Y-86323714D01*
X151257000Y-86396285D02*
X151293285Y-86360000D01*
X151365857Y-86323714D01*
X151474714Y-86323714D01*
X151547285Y-86360000D01*
X151583571Y-86432571D01*
X151583571Y-86831714D01*
X151583571Y-86432571D02*
X151619857Y-86360000D01*
X151692428Y-86323714D01*
X151801285Y-86323714D01*
X151873857Y-86360000D01*
X151910142Y-86432571D01*
X151910142Y-86831714D01*
X152273000Y-86831714D02*
X152273000Y-86323714D01*
X152273000Y-86069714D02*
X152236714Y-86106000D01*
X152273000Y-86142285D01*
X152309285Y-86106000D01*
X152273000Y-86069714D01*
X152273000Y-86142285D01*
X152744714Y-86831714D02*
X152672142Y-86795428D01*
X152635857Y-86722857D01*
X152635857Y-86069714D01*
X142675428Y-98642714D02*
X142675428Y-99259571D01*
X142711714Y-99332142D01*
X142748000Y-99368428D01*
X142820571Y-99404714D01*
X142965714Y-99404714D01*
X143038285Y-99368428D01*
X143074571Y-99332142D01*
X143110857Y-99259571D01*
X143110857Y-98642714D01*
X143800285Y-98896714D02*
X143800285Y-99404714D01*
X143618857Y-98606428D02*
X143437428Y-99150714D01*
X143909142Y-99150714D01*
D22*
X137181166Y-101173642D02*
X136969500Y-101173642D01*
X136969500Y-101506261D02*
X136969500Y-100871261D01*
X137271880Y-100871261D01*
X137513785Y-101173642D02*
X137725452Y-101173642D01*
X137816166Y-101506261D02*
X137513785Y-101506261D01*
X137513785Y-100871261D01*
X137816166Y-100871261D01*
X137997595Y-100871261D02*
X138360452Y-100871261D01*
X138179023Y-101506261D02*
X138179023Y-100871261D01*
X138904738Y-101506261D02*
X138541880Y-101506261D01*
X138723309Y-101506261D02*
X138723309Y-100871261D01*
X138662833Y-100961976D01*
X138602357Y-101022452D01*
X138541880Y-101052690D01*
X133247190Y-97950261D02*
X133247190Y-98464309D01*
X133277428Y-98524785D01*
X133307666Y-98555023D01*
X133368142Y-98585261D01*
X133489095Y-98585261D01*
X133549571Y-98555023D01*
X133579809Y-98524785D01*
X133610047Y-98464309D01*
X133610047Y-97950261D01*
X133882190Y-98010738D02*
X133912428Y-97980500D01*
X133972904Y-97950261D01*
X134124095Y-97950261D01*
X134184571Y-97980500D01*
X134214809Y-98010738D01*
X134245047Y-98071214D01*
X134245047Y-98131690D01*
X134214809Y-98222404D01*
X133851952Y-98585261D01*
X134245047Y-98585261D01*
D13*
X134075714Y-91059000D02*
X134075714Y-91421857D01*
X133313714Y-91421857D01*
X133386285Y-90841285D02*
X133350000Y-90805000D01*
X133313714Y-90732428D01*
X133313714Y-90551000D01*
X133350000Y-90478428D01*
X133386285Y-90442142D01*
X133458857Y-90405857D01*
X133531428Y-90405857D01*
X133640285Y-90442142D01*
X134075714Y-90877571D01*
X134075714Y-90405857D01*
X135563428Y-90895714D02*
X135563428Y-91512571D01*
X135599714Y-91585142D01*
X135636000Y-91621428D01*
X135708571Y-91657714D01*
X135853714Y-91657714D01*
X135926285Y-91621428D01*
X135962571Y-91585142D01*
X135998857Y-91512571D01*
X135998857Y-90895714D01*
X136289142Y-90895714D02*
X136760857Y-90895714D01*
X136506857Y-91186000D01*
X136615714Y-91186000D01*
X136688285Y-91222285D01*
X136724571Y-91258571D01*
X136760857Y-91331142D01*
X136760857Y-91512571D01*
X136724571Y-91585142D01*
X136688285Y-91621428D01*
X136615714Y-91657714D01*
X136398000Y-91657714D01*
X136325428Y-91621428D01*
X136289142Y-91585142D01*
D12*
X147867309Y-71443547D02*
X148278547Y-71443547D01*
X148326928Y-71419357D01*
X148351119Y-71395166D01*
X148375309Y-71346785D01*
X148375309Y-71250023D01*
X148351119Y-71201642D01*
X148326928Y-71177452D01*
X148278547Y-71153261D01*
X147867309Y-71153261D01*
X147867309Y-70669452D02*
X147867309Y-70911357D01*
X148109214Y-70935547D01*
X148085023Y-70911357D01*
X148060833Y-70862976D01*
X148060833Y-70742023D01*
X148085023Y-70693642D01*
X148109214Y-70669452D01*
X148157595Y-70645261D01*
X148278547Y-70645261D01*
X148326928Y-70669452D01*
X148351119Y-70693642D01*
X148375309Y-70742023D01*
X148375309Y-70862976D01*
X148351119Y-70911357D01*
X148326928Y-70935547D01*
D22*
X149385261Y-108306809D02*
X149899309Y-108306809D01*
X149959785Y-108276571D01*
X149990023Y-108246333D01*
X150020261Y-108185857D01*
X150020261Y-108064904D01*
X149990023Y-108004428D01*
X149959785Y-107974190D01*
X149899309Y-107943952D01*
X149385261Y-107943952D01*
X149990023Y-107671809D02*
X150020261Y-107581095D01*
X150020261Y-107429904D01*
X149990023Y-107369428D01*
X149959785Y-107339190D01*
X149899309Y-107308952D01*
X149838833Y-107308952D01*
X149778357Y-107339190D01*
X149748119Y-107369428D01*
X149717880Y-107429904D01*
X149687642Y-107550857D01*
X149657404Y-107611333D01*
X149627166Y-107641571D01*
X149566690Y-107671809D01*
X149506214Y-107671809D01*
X149445738Y-107641571D01*
X149415500Y-107611333D01*
X149385261Y-107550857D01*
X149385261Y-107399666D01*
X149415500Y-107308952D01*
X149687642Y-106825142D02*
X149717880Y-106734428D01*
X149748119Y-106704190D01*
X149808595Y-106673952D01*
X149899309Y-106673952D01*
X149959785Y-106704190D01*
X149990023Y-106734428D01*
X150020261Y-106794904D01*
X150020261Y-107036809D01*
X149385261Y-107036809D01*
X149385261Y-106825142D01*
X149415500Y-106764666D01*
X149445738Y-106734428D01*
X149506214Y-106704190D01*
X149566690Y-106704190D01*
X149627166Y-106734428D01*
X149657404Y-106764666D01*
X149687642Y-106825142D01*
X149687642Y-107036809D01*
X149778357Y-106401809D02*
X149778357Y-105918000D01*
X149385261Y-105494666D02*
X149385261Y-105373714D01*
X149415500Y-105313238D01*
X149475976Y-105252761D01*
X149596928Y-105222523D01*
X149808595Y-105222523D01*
X149929547Y-105252761D01*
X149990023Y-105313238D01*
X150020261Y-105373714D01*
X150020261Y-105494666D01*
X149990023Y-105555142D01*
X149929547Y-105615619D01*
X149808595Y-105645857D01*
X149596928Y-105645857D01*
X149475976Y-105615619D01*
X149415500Y-105555142D01*
X149385261Y-105494666D01*
X149385261Y-105041095D02*
X149385261Y-104678238D01*
X150020261Y-104859666D02*
X149385261Y-104859666D01*
X149415500Y-104133952D02*
X149385261Y-104194428D01*
X149385261Y-104285142D01*
X149415500Y-104375857D01*
X149475976Y-104436333D01*
X149536452Y-104466571D01*
X149657404Y-104496809D01*
X149748119Y-104496809D01*
X149869071Y-104466571D01*
X149929547Y-104436333D01*
X149990023Y-104375857D01*
X150020261Y-104285142D01*
X150020261Y-104224666D01*
X149990023Y-104133952D01*
X149959785Y-104103714D01*
X149748119Y-104103714D01*
X149748119Y-104224666D01*
X150020261Y-103498952D02*
X150020261Y-103861809D01*
X150020261Y-103680380D02*
X149385261Y-103680380D01*
X149475976Y-103740857D01*
X149536452Y-103801333D01*
X149566690Y-103861809D01*
X140812761Y-104499833D02*
X140812761Y-104802214D01*
X140177761Y-104802214D01*
X140177761Y-104348642D02*
X140177761Y-103955547D01*
X140419666Y-104167214D01*
X140419666Y-104076500D01*
X140449904Y-104016023D01*
X140480142Y-103985785D01*
X140540619Y-103955547D01*
X140691809Y-103955547D01*
X140752285Y-103985785D01*
X140782523Y-104016023D01*
X140812761Y-104076500D01*
X140812761Y-104257928D01*
X140782523Y-104318404D01*
X140752285Y-104348642D01*
D13*
X139917714Y-97663000D02*
X139917714Y-98025857D01*
X139155714Y-98025857D01*
X139409714Y-97082428D02*
X139917714Y-97082428D01*
X139119428Y-97263857D02*
X139663714Y-97445285D01*
X139663714Y-96973571D01*
D12*
X149596928Y-74095428D02*
X149572738Y-74119619D01*
X149500166Y-74143809D01*
X149451785Y-74143809D01*
X149379214Y-74119619D01*
X149330833Y-74071238D01*
X149306642Y-74022857D01*
X149282452Y-73926095D01*
X149282452Y-73853523D01*
X149306642Y-73756761D01*
X149330833Y-73708380D01*
X149379214Y-73660000D01*
X149451785Y-73635809D01*
X149500166Y-73635809D01*
X149572738Y-73660000D01*
X149596928Y-73684190D01*
X149790452Y-73684190D02*
X149814642Y-73660000D01*
X149863023Y-73635809D01*
X149983976Y-73635809D01*
X150032357Y-73660000D01*
X150056547Y-73684190D01*
X150080738Y-73732571D01*
X150080738Y-73780952D01*
X150056547Y-73853523D01*
X149766261Y-74143809D01*
X150080738Y-74143809D01*
X150540357Y-73635809D02*
X150298452Y-73635809D01*
X150274261Y-73877714D01*
X150298452Y-73853523D01*
X150346833Y-73829333D01*
X150467785Y-73829333D01*
X150516166Y-73853523D01*
X150540357Y-73877714D01*
X150564547Y-73926095D01*
X150564547Y-74047047D01*
X150540357Y-74095428D01*
X150516166Y-74119619D01*
X150467785Y-74143809D01*
X150346833Y-74143809D01*
X150298452Y-74119619D01*
X150274261Y-74095428D01*
D13*
X155248428Y-71854785D02*
X155175857Y-71818500D01*
X155103285Y-71745928D01*
X154994428Y-71637071D01*
X154921857Y-71600785D01*
X154849285Y-71600785D01*
X154885571Y-71782214D02*
X154813000Y-71745928D01*
X154740428Y-71673357D01*
X154704142Y-71528214D01*
X154704142Y-71274214D01*
X154740428Y-71129071D01*
X154813000Y-71056500D01*
X154885571Y-71020214D01*
X155030714Y-71020214D01*
X155103285Y-71056500D01*
X155175857Y-71129071D01*
X155212142Y-71274214D01*
X155212142Y-71528214D01*
X155175857Y-71673357D01*
X155103285Y-71745928D01*
X155030714Y-71782214D01*
X154885571Y-71782214D01*
X155466142Y-71020214D02*
X155937857Y-71020214D01*
X155683857Y-71310500D01*
X155792714Y-71310500D01*
X155865285Y-71346785D01*
X155901571Y-71383071D01*
X155937857Y-71455642D01*
X155937857Y-71637071D01*
X155901571Y-71709642D01*
X155865285Y-71745928D01*
X155792714Y-71782214D01*
X155575000Y-71782214D01*
X155502428Y-71745928D01*
X155466142Y-71709642D01*
D16*
X154095404Y-71875642D02*
X154057309Y-71951833D01*
X154019214Y-71989928D01*
X153943023Y-72028023D01*
X153714452Y-72028023D01*
X153638261Y-71989928D01*
X153600166Y-71951833D01*
X153562071Y-71875642D01*
X153562071Y-71761357D01*
X153600166Y-71685166D01*
X153638261Y-71647071D01*
X153714452Y-71608976D01*
X153943023Y-71608976D01*
X154019214Y-71647071D01*
X154057309Y-71685166D01*
X154095404Y-71761357D01*
X154095404Y-71875642D01*
D22*
X153134785Y-68924714D02*
X153165023Y-68954952D01*
X153195261Y-69045666D01*
X153195261Y-69106142D01*
X153165023Y-69196857D01*
X153104547Y-69257333D01*
X153044071Y-69287571D01*
X152923119Y-69317809D01*
X152832404Y-69317809D01*
X152711452Y-69287571D01*
X152650976Y-69257333D01*
X152590500Y-69196857D01*
X152560261Y-69106142D01*
X152560261Y-69045666D01*
X152590500Y-68954952D01*
X152620738Y-68924714D01*
X153195261Y-68319952D02*
X153195261Y-68682809D01*
X153195261Y-68501380D02*
X152560261Y-68501380D01*
X152650976Y-68561857D01*
X152711452Y-68622333D01*
X152741690Y-68682809D01*
X152832404Y-67957095D02*
X152802166Y-68017571D01*
X152771928Y-68047809D01*
X152711452Y-68078047D01*
X152681214Y-68078047D01*
X152620738Y-68047809D01*
X152590500Y-68017571D01*
X152560261Y-67957095D01*
X152560261Y-67836142D01*
X152590500Y-67775666D01*
X152620738Y-67745428D01*
X152681214Y-67715190D01*
X152711452Y-67715190D01*
X152771928Y-67745428D01*
X152802166Y-67775666D01*
X152832404Y-67836142D01*
X152832404Y-67957095D01*
X152862642Y-68017571D01*
X152892880Y-68047809D01*
X152953357Y-68078047D01*
X153074309Y-68078047D01*
X153134785Y-68047809D01*
X153165023Y-68017571D01*
X153195261Y-67957095D01*
X153195261Y-67836142D01*
X153165023Y-67775666D01*
X153134785Y-67745428D01*
X153074309Y-67715190D01*
X152953357Y-67715190D01*
X152892880Y-67745428D01*
X152862642Y-67775666D01*
X152832404Y-67836142D01*
D13*
X134674428Y-77306714D02*
X134674428Y-77923571D01*
X134710714Y-77996142D01*
X134747000Y-78032428D01*
X134819571Y-78068714D01*
X134964714Y-78068714D01*
X135037285Y-78032428D01*
X135073571Y-77996142D01*
X135109857Y-77923571D01*
X135109857Y-77306714D01*
X135799285Y-77306714D02*
X135654142Y-77306714D01*
X135581571Y-77343000D01*
X135545285Y-77379285D01*
X135472714Y-77488142D01*
X135436428Y-77633285D01*
X135436428Y-77923571D01*
X135472714Y-77996142D01*
X135509000Y-78032428D01*
X135581571Y-78068714D01*
X135726714Y-78068714D01*
X135799285Y-78032428D01*
X135835571Y-77996142D01*
X135871857Y-77923571D01*
X135871857Y-77742142D01*
X135835571Y-77669571D01*
X135799285Y-77633285D01*
X135726714Y-77597000D01*
X135581571Y-77597000D01*
X135509000Y-77633285D01*
X135472714Y-77669571D01*
X135436428Y-77742142D01*
X133495142Y-73206428D02*
X133604000Y-73242714D01*
X133785428Y-73242714D01*
X133858000Y-73206428D01*
X133894285Y-73170142D01*
X133930571Y-73097571D01*
X133930571Y-73025000D01*
X133894285Y-72952428D01*
X133858000Y-72916142D01*
X133785428Y-72879857D01*
X133640285Y-72843571D01*
X133567714Y-72807285D01*
X133531428Y-72771000D01*
X133495142Y-72698428D01*
X133495142Y-72625857D01*
X133531428Y-72553285D01*
X133567714Y-72517000D01*
X133640285Y-72480714D01*
X133821714Y-72480714D01*
X133930571Y-72517000D01*
X134402285Y-72480714D02*
X134547428Y-72480714D01*
X134620000Y-72517000D01*
X134692571Y-72589571D01*
X134728857Y-72734714D01*
X134728857Y-72988714D01*
X134692571Y-73133857D01*
X134620000Y-73206428D01*
X134547428Y-73242714D01*
X134402285Y-73242714D01*
X134329714Y-73206428D01*
X134257142Y-73133857D01*
X134220857Y-72988714D01*
X134220857Y-72734714D01*
X134257142Y-72589571D01*
X134329714Y-72517000D01*
X134402285Y-72480714D01*
X135055428Y-73242714D02*
X135055428Y-72480714D01*
X135853714Y-73170142D02*
X135817428Y-73206428D01*
X135708571Y-73242714D01*
X135636000Y-73242714D01*
X135527142Y-73206428D01*
X135454571Y-73133857D01*
X135418285Y-73061285D01*
X135382000Y-72916142D01*
X135382000Y-72807285D01*
X135418285Y-72662142D01*
X135454571Y-72589571D01*
X135527142Y-72517000D01*
X135636000Y-72480714D01*
X135708571Y-72480714D01*
X135817428Y-72517000D01*
X135853714Y-72553285D01*
X136180285Y-72952428D02*
X136760857Y-72952428D01*
X137232571Y-72807285D02*
X137160000Y-72771000D01*
X137123714Y-72734714D01*
X137087428Y-72662142D01*
X137087428Y-72625857D01*
X137123714Y-72553285D01*
X137160000Y-72517000D01*
X137232571Y-72480714D01*
X137377714Y-72480714D01*
X137450285Y-72517000D01*
X137486571Y-72553285D01*
X137522857Y-72625857D01*
X137522857Y-72662142D01*
X137486571Y-72734714D01*
X137450285Y-72771000D01*
X137377714Y-72807285D01*
X137232571Y-72807285D01*
X137160000Y-72843571D01*
X137123714Y-72879857D01*
X137087428Y-72952428D01*
X137087428Y-73097571D01*
X137123714Y-73170142D01*
X137160000Y-73206428D01*
X137232571Y-73242714D01*
X137377714Y-73242714D01*
X137450285Y-73206428D01*
X137486571Y-73170142D01*
X137522857Y-73097571D01*
X137522857Y-72952428D01*
X137486571Y-72879857D01*
X137450285Y-72843571D01*
X137377714Y-72807285D01*
D22*
X134852833Y-74277461D02*
X134489976Y-74277461D01*
X134671404Y-74277461D02*
X134671404Y-73642461D01*
X134610928Y-73733176D01*
X134550452Y-73793652D01*
X134489976Y-73823890D01*
X135427357Y-73642461D02*
X135124976Y-73642461D01*
X135094738Y-73944842D01*
X135124976Y-73914604D01*
X135185452Y-73884366D01*
X135336642Y-73884366D01*
X135397119Y-73914604D01*
X135427357Y-73944842D01*
X135457595Y-74005319D01*
X135457595Y-74156509D01*
X135427357Y-74216985D01*
X135397119Y-74247223D01*
X135336642Y-74277461D01*
X135185452Y-74277461D01*
X135124976Y-74247223D01*
X135094738Y-74216985D01*
X135850690Y-73642461D02*
X135911166Y-73642461D01*
X135971642Y-73672700D01*
X136001880Y-73702938D01*
X136032119Y-73763414D01*
X136062357Y-73884366D01*
X136062357Y-74035557D01*
X136032119Y-74156509D01*
X136001880Y-74216985D01*
X135971642Y-74247223D01*
X135911166Y-74277461D01*
X135850690Y-74277461D01*
X135790214Y-74247223D01*
X135759976Y-74216985D01*
X135729738Y-74156509D01*
X135699500Y-74035557D01*
X135699500Y-73884366D01*
X135729738Y-73763414D01*
X135759976Y-73702938D01*
X135790214Y-73672700D01*
X135850690Y-73642461D01*
X136334500Y-74277461D02*
X136334500Y-73854128D01*
X136334500Y-73914604D02*
X136364738Y-73884366D01*
X136425214Y-73854128D01*
X136515928Y-73854128D01*
X136576404Y-73884366D01*
X136606642Y-73944842D01*
X136606642Y-74277461D01*
X136606642Y-73944842D02*
X136636880Y-73884366D01*
X136697357Y-73854128D01*
X136788071Y-73854128D01*
X136848547Y-73884366D01*
X136878785Y-73944842D01*
X136878785Y-74277461D01*
X137181166Y-74277461D02*
X137181166Y-73854128D01*
X137181166Y-73642461D02*
X137150928Y-73672700D01*
X137181166Y-73702938D01*
X137211404Y-73672700D01*
X137181166Y-73642461D01*
X137181166Y-73702938D01*
X137574261Y-74277461D02*
X137513785Y-74247223D01*
X137483547Y-74186747D01*
X137483547Y-73642461D01*
X132832928Y-108285642D02*
X132923642Y-108315880D01*
X132953880Y-108346119D01*
X132984119Y-108406595D01*
X132984119Y-108497309D01*
X132953880Y-108557785D01*
X132923642Y-108588023D01*
X132863166Y-108618261D01*
X132621261Y-108618261D01*
X132621261Y-107983261D01*
X132832928Y-107983261D01*
X132893404Y-108013500D01*
X132923642Y-108043738D01*
X132953880Y-108104214D01*
X132953880Y-108164690D01*
X132923642Y-108225166D01*
X132893404Y-108255404D01*
X132832928Y-108285642D01*
X132621261Y-108285642D01*
X133226023Y-108436833D02*
X133528404Y-108436833D01*
X133165547Y-108618261D02*
X133377214Y-107983261D01*
X133588880Y-108618261D01*
X133709833Y-107983261D02*
X134072690Y-107983261D01*
X133891261Y-108618261D02*
X133891261Y-107983261D01*
X134616976Y-108618261D02*
X134254119Y-108618261D01*
X134435547Y-108618261D02*
X134435547Y-107983261D01*
X134375071Y-108073976D01*
X134314595Y-108134452D01*
X134254119Y-108164690D01*
D13*
X135019142Y-88500857D02*
X135055428Y-88537142D01*
X135091714Y-88646000D01*
X135091714Y-88718571D01*
X135055428Y-88827428D01*
X134982857Y-88900000D01*
X134910285Y-88936285D01*
X134765142Y-88972571D01*
X134656285Y-88972571D01*
X134511142Y-88936285D01*
X134438571Y-88900000D01*
X134366000Y-88827428D01*
X134329714Y-88718571D01*
X134329714Y-88646000D01*
X134366000Y-88537142D01*
X134402285Y-88500857D01*
X135091714Y-87775142D02*
X135091714Y-88210571D01*
X135091714Y-87992857D02*
X134329714Y-87992857D01*
X134438571Y-88065428D01*
X134511142Y-88138000D01*
X134547428Y-88210571D01*
X134329714Y-87303428D02*
X134329714Y-87230857D01*
X134366000Y-87158285D01*
X134402285Y-87122000D01*
X134474857Y-87085714D01*
X134620000Y-87049428D01*
X134801428Y-87049428D01*
X134946571Y-87085714D01*
X135019142Y-87122000D01*
X135055428Y-87158285D01*
X135091714Y-87230857D01*
X135091714Y-87303428D01*
X135055428Y-87376000D01*
X135019142Y-87412285D01*
X134946571Y-87448571D01*
X134801428Y-87484857D01*
X134620000Y-87484857D01*
X134474857Y-87448571D01*
X134402285Y-87412285D01*
X134366000Y-87376000D01*
X134329714Y-87303428D01*
D12*
X142977809Y-65489666D02*
X142469809Y-65489666D01*
X142469809Y-65296142D01*
X142494000Y-65247761D01*
X142518190Y-65223571D01*
X142566571Y-65199380D01*
X142639142Y-65199380D01*
X142687523Y-65223571D01*
X142711714Y-65247761D01*
X142735904Y-65296142D01*
X142735904Y-65489666D01*
X142469809Y-65030047D02*
X142977809Y-64909095D01*
X142614952Y-64812333D01*
X142977809Y-64715571D01*
X142469809Y-64594619D01*
X142977809Y-64110809D02*
X142735904Y-64280142D01*
X142977809Y-64401095D02*
X142469809Y-64401095D01*
X142469809Y-64207571D01*
X142494000Y-64159190D01*
X142518190Y-64135000D01*
X142566571Y-64110809D01*
X142639142Y-64110809D01*
X142687523Y-64135000D01*
X142711714Y-64159190D01*
X142735904Y-64207571D01*
X142735904Y-64401095D01*
X142977809Y-63651190D02*
X142977809Y-63893095D01*
X142469809Y-63893095D01*
X142711714Y-63481857D02*
X142711714Y-63312523D01*
X142977809Y-63239952D02*
X142977809Y-63481857D01*
X142469809Y-63481857D01*
X142469809Y-63239952D01*
X142977809Y-63022238D02*
X142469809Y-63022238D01*
X142469809Y-62901285D01*
X142494000Y-62828714D01*
X142542380Y-62780333D01*
X142590761Y-62756142D01*
X142687523Y-62731952D01*
X142760095Y-62731952D01*
X142856857Y-62756142D01*
X142905238Y-62780333D01*
X142953619Y-62828714D01*
X142977809Y-62901285D01*
X142977809Y-63022238D01*
X142977809Y-62248142D02*
X142977809Y-62538428D01*
X142977809Y-62393285D02*
X142469809Y-62393285D01*
X142542380Y-62441666D01*
X142590761Y-62490047D01*
X142614952Y-62538428D01*
X140897428Y-65217523D02*
X140921619Y-65241714D01*
X140945809Y-65314285D01*
X140945809Y-65362666D01*
X140921619Y-65435238D01*
X140873238Y-65483619D01*
X140824857Y-65507809D01*
X140728095Y-65532000D01*
X140655523Y-65532000D01*
X140558761Y-65507809D01*
X140510380Y-65483619D01*
X140462000Y-65435238D01*
X140437809Y-65362666D01*
X140437809Y-65314285D01*
X140462000Y-65241714D01*
X140486190Y-65217523D01*
X140945809Y-64999809D02*
X140437809Y-64999809D01*
X140679714Y-64999809D02*
X140679714Y-64709523D01*
X140945809Y-64709523D02*
X140437809Y-64709523D01*
X140800666Y-64491809D02*
X140800666Y-64249904D01*
X140945809Y-64540190D02*
X140437809Y-64370857D01*
X140945809Y-64201523D01*
X140945809Y-63741904D02*
X140703904Y-63911238D01*
X140945809Y-64032190D02*
X140437809Y-64032190D01*
X140437809Y-63838666D01*
X140462000Y-63790285D01*
X140486190Y-63766095D01*
X140534571Y-63741904D01*
X140607142Y-63741904D01*
X140655523Y-63766095D01*
X140679714Y-63790285D01*
X140703904Y-63838666D01*
X140703904Y-64032190D01*
X140462000Y-63258095D02*
X140437809Y-63306476D01*
X140437809Y-63379047D01*
X140462000Y-63451619D01*
X140510380Y-63500000D01*
X140558761Y-63524190D01*
X140655523Y-63548380D01*
X140728095Y-63548380D01*
X140824857Y-63524190D01*
X140873238Y-63500000D01*
X140921619Y-63451619D01*
X140945809Y-63379047D01*
X140945809Y-63330666D01*
X140921619Y-63258095D01*
X140897428Y-63233904D01*
X140728095Y-63233904D01*
X140728095Y-63330666D01*
X140945809Y-63016190D02*
X140437809Y-63016190D01*
X140945809Y-62774285D02*
X140437809Y-62774285D01*
X140945809Y-62484000D01*
X140437809Y-62484000D01*
X140462000Y-61976000D02*
X140437809Y-62024380D01*
X140437809Y-62096952D01*
X140462000Y-62169523D01*
X140510380Y-62217904D01*
X140558761Y-62242095D01*
X140655523Y-62266285D01*
X140728095Y-62266285D01*
X140824857Y-62242095D01*
X140873238Y-62217904D01*
X140921619Y-62169523D01*
X140945809Y-62096952D01*
X140945809Y-62048571D01*
X140921619Y-61976000D01*
X140897428Y-61951809D01*
X140728095Y-61951809D01*
X140728095Y-62048571D01*
X140945809Y-61468000D02*
X140945809Y-61758285D01*
X140945809Y-61613142D02*
X140437809Y-61613142D01*
X140510380Y-61661523D01*
X140558761Y-61709904D01*
X140582952Y-61758285D01*
X141913428Y-65253809D02*
X141937619Y-65278000D01*
X141961809Y-65350571D01*
X141961809Y-65398952D01*
X141937619Y-65471523D01*
X141889238Y-65519904D01*
X141840857Y-65544095D01*
X141744095Y-65568285D01*
X141671523Y-65568285D01*
X141574761Y-65544095D01*
X141526380Y-65519904D01*
X141478000Y-65471523D01*
X141453809Y-65398952D01*
X141453809Y-65350571D01*
X141478000Y-65278000D01*
X141502190Y-65253809D01*
X141453809Y-64939333D02*
X141453809Y-64842571D01*
X141478000Y-64794190D01*
X141526380Y-64745809D01*
X141623142Y-64721619D01*
X141792476Y-64721619D01*
X141889238Y-64745809D01*
X141937619Y-64794190D01*
X141961809Y-64842571D01*
X141961809Y-64939333D01*
X141937619Y-64987714D01*
X141889238Y-65036095D01*
X141792476Y-65060285D01*
X141623142Y-65060285D01*
X141526380Y-65036095D01*
X141478000Y-64987714D01*
X141453809Y-64939333D01*
X141961809Y-64503904D02*
X141453809Y-64503904D01*
X141816666Y-64334571D01*
X141453809Y-64165238D01*
X141961809Y-64165238D01*
X141961809Y-63923333D02*
X141453809Y-63923333D01*
X141453809Y-63729809D01*
X141478000Y-63681428D01*
X141502190Y-63657238D01*
X141550571Y-63633047D01*
X141623142Y-63633047D01*
X141671523Y-63657238D01*
X141695714Y-63681428D01*
X141719904Y-63729809D01*
X141719904Y-63923333D01*
X141961809Y-63173428D02*
X141961809Y-63415333D01*
X141453809Y-63415333D01*
X141695714Y-63004095D02*
X141695714Y-62834761D01*
X141961809Y-62762190D02*
X141961809Y-63004095D01*
X141453809Y-63004095D01*
X141453809Y-62762190D01*
X141453809Y-62617047D02*
X141453809Y-62326761D01*
X141961809Y-62471904D02*
X141453809Y-62471904D01*
X141695714Y-62157428D02*
X141695714Y-61988095D01*
X141961809Y-61915523D02*
X141961809Y-62157428D01*
X141453809Y-62157428D01*
X141453809Y-61915523D01*
X141961809Y-61431714D02*
X141961809Y-61722000D01*
X141961809Y-61576857D02*
X141453809Y-61576857D01*
X141526380Y-61625238D01*
X141574761Y-61673619D01*
X141598952Y-61722000D01*
D22*
X154150785Y-68924714D02*
X154181023Y-68954952D01*
X154211261Y-69045666D01*
X154211261Y-69106142D01*
X154181023Y-69196857D01*
X154120547Y-69257333D01*
X154060071Y-69287571D01*
X153939119Y-69317809D01*
X153848404Y-69317809D01*
X153727452Y-69287571D01*
X153666976Y-69257333D01*
X153606500Y-69196857D01*
X153576261Y-69106142D01*
X153576261Y-69045666D01*
X153606500Y-68954952D01*
X153636738Y-68924714D01*
X153636738Y-68682809D02*
X153606500Y-68652571D01*
X153576261Y-68592095D01*
X153576261Y-68440904D01*
X153606500Y-68380428D01*
X153636738Y-68350190D01*
X153697214Y-68319952D01*
X153757690Y-68319952D01*
X153848404Y-68350190D01*
X154211261Y-68713047D01*
X154211261Y-68319952D01*
X153576261Y-67775666D02*
X153576261Y-67896619D01*
X153606500Y-67957095D01*
X153636738Y-67987333D01*
X153727452Y-68047809D01*
X153848404Y-68078047D01*
X154090309Y-68078047D01*
X154150785Y-68047809D01*
X154181023Y-68017571D01*
X154211261Y-67957095D01*
X154211261Y-67836142D01*
X154181023Y-67775666D01*
X154150785Y-67745428D01*
X154090309Y-67715190D01*
X153939119Y-67715190D01*
X153878642Y-67745428D01*
X153848404Y-67775666D01*
X153818166Y-67836142D01*
X153818166Y-67957095D01*
X153848404Y-68017571D01*
X153878642Y-68047809D01*
X153939119Y-68078047D01*
D12*
X139929809Y-65525952D02*
X139421809Y-65525952D01*
X139421809Y-65332428D01*
X139446000Y-65284047D01*
X139470190Y-65259857D01*
X139518571Y-65235666D01*
X139591142Y-65235666D01*
X139639523Y-65259857D01*
X139663714Y-65284047D01*
X139687904Y-65332428D01*
X139687904Y-65525952D01*
X139421809Y-65066333D02*
X139929809Y-64945380D01*
X139566952Y-64848619D01*
X139929809Y-64751857D01*
X139421809Y-64630904D01*
X139929809Y-64147095D02*
X139687904Y-64316428D01*
X139929809Y-64437380D02*
X139421809Y-64437380D01*
X139421809Y-64243857D01*
X139446000Y-64195476D01*
X139470190Y-64171285D01*
X139518571Y-64147095D01*
X139591142Y-64147095D01*
X139639523Y-64171285D01*
X139663714Y-64195476D01*
X139687904Y-64243857D01*
X139687904Y-64437380D01*
X139978190Y-64050333D02*
X139978190Y-63663285D01*
X139446000Y-63276238D02*
X139421809Y-63324619D01*
X139421809Y-63397190D01*
X139446000Y-63469761D01*
X139494380Y-63518142D01*
X139542761Y-63542333D01*
X139639523Y-63566523D01*
X139712095Y-63566523D01*
X139808857Y-63542333D01*
X139857238Y-63518142D01*
X139905619Y-63469761D01*
X139929809Y-63397190D01*
X139929809Y-63348809D01*
X139905619Y-63276238D01*
X139881428Y-63252047D01*
X139712095Y-63252047D01*
X139712095Y-63348809D01*
X139421809Y-62937571D02*
X139421809Y-62840809D01*
X139446000Y-62792428D01*
X139494380Y-62744047D01*
X139591142Y-62719857D01*
X139760476Y-62719857D01*
X139857238Y-62744047D01*
X139905619Y-62792428D01*
X139929809Y-62840809D01*
X139929809Y-62937571D01*
X139905619Y-62985952D01*
X139857238Y-63034333D01*
X139760476Y-63058523D01*
X139591142Y-63058523D01*
X139494380Y-63034333D01*
X139446000Y-62985952D01*
X139421809Y-62937571D01*
X139421809Y-62405380D02*
X139421809Y-62308619D01*
X139446000Y-62260238D01*
X139494380Y-62211857D01*
X139591142Y-62187666D01*
X139760476Y-62187666D01*
X139857238Y-62211857D01*
X139905619Y-62260238D01*
X139929809Y-62308619D01*
X139929809Y-62405380D01*
X139905619Y-62453761D01*
X139857238Y-62502142D01*
X139760476Y-62526333D01*
X139591142Y-62526333D01*
X139494380Y-62502142D01*
X139446000Y-62453761D01*
X139421809Y-62405380D01*
X139929809Y-61969952D02*
X139421809Y-61969952D01*
X139421809Y-61849000D01*
X139446000Y-61776428D01*
X139494380Y-61728047D01*
X139542761Y-61703857D01*
X139639523Y-61679666D01*
X139712095Y-61679666D01*
X139808857Y-61703857D01*
X139857238Y-61728047D01*
X139905619Y-61776428D01*
X139929809Y-61849000D01*
X139929809Y-61969952D01*
X139929809Y-61195857D02*
X139929809Y-61486142D01*
X139929809Y-61341000D02*
X139421809Y-61341000D01*
X139494380Y-61389380D01*
X139542761Y-61437761D01*
X139566952Y-61486142D01*
D22*
X139863285Y-104499833D02*
X139893523Y-104530071D01*
X139923761Y-104620785D01*
X139923761Y-104681261D01*
X139893523Y-104771976D01*
X139833047Y-104832452D01*
X139772571Y-104862690D01*
X139651619Y-104892928D01*
X139560904Y-104892928D01*
X139439952Y-104862690D01*
X139379476Y-104832452D01*
X139319000Y-104771976D01*
X139288761Y-104681261D01*
X139288761Y-104620785D01*
X139319000Y-104530071D01*
X139349238Y-104499833D01*
X139560904Y-104136976D02*
X139530666Y-104197452D01*
X139500428Y-104227690D01*
X139439952Y-104257928D01*
X139409714Y-104257928D01*
X139349238Y-104227690D01*
X139319000Y-104197452D01*
X139288761Y-104136976D01*
X139288761Y-104016023D01*
X139319000Y-103955547D01*
X139349238Y-103925309D01*
X139409714Y-103895071D01*
X139439952Y-103895071D01*
X139500428Y-103925309D01*
X139530666Y-103955547D01*
X139560904Y-104016023D01*
X139560904Y-104136976D01*
X139591142Y-104197452D01*
X139621380Y-104227690D01*
X139681857Y-104257928D01*
X139802809Y-104257928D01*
X139863285Y-104227690D01*
X139893523Y-104197452D01*
X139923761Y-104136976D01*
X139923761Y-104016023D01*
X139893523Y-103955547D01*
X139863285Y-103925309D01*
X139802809Y-103895071D01*
X139681857Y-103895071D01*
X139621380Y-103925309D01*
X139591142Y-103955547D01*
X139560904Y-104016023D01*
X141704785Y-95857785D02*
X141674547Y-95888023D01*
X141583833Y-95918261D01*
X141523357Y-95918261D01*
X141432642Y-95888023D01*
X141372166Y-95827547D01*
X141341928Y-95767071D01*
X141311690Y-95646119D01*
X141311690Y-95555404D01*
X141341928Y-95434452D01*
X141372166Y-95373976D01*
X141432642Y-95313500D01*
X141523357Y-95283261D01*
X141583833Y-95283261D01*
X141674547Y-95313500D01*
X141704785Y-95343738D01*
X141916452Y-95283261D02*
X142309547Y-95283261D01*
X142097880Y-95525166D01*
X142188595Y-95525166D01*
X142249071Y-95555404D01*
X142279309Y-95585642D01*
X142309547Y-95646119D01*
X142309547Y-95797309D01*
X142279309Y-95857785D01*
X142249071Y-95888023D01*
X142188595Y-95918261D01*
X142007166Y-95918261D01*
X141946690Y-95888023D01*
X141916452Y-95857785D01*
X142914309Y-95918261D02*
X142551452Y-95918261D01*
X142732880Y-95918261D02*
X142732880Y-95283261D01*
X142672404Y-95373976D01*
X142611928Y-95434452D01*
X142551452Y-95464690D01*
X137259785Y-96365785D02*
X137229547Y-96396023D01*
X137138833Y-96426261D01*
X137078357Y-96426261D01*
X136987642Y-96396023D01*
X136927166Y-96335547D01*
X136896928Y-96275071D01*
X136866690Y-96154119D01*
X136866690Y-96063404D01*
X136896928Y-95942452D01*
X136927166Y-95881976D01*
X136987642Y-95821500D01*
X137078357Y-95791261D01*
X137138833Y-95791261D01*
X137229547Y-95821500D01*
X137259785Y-95851738D01*
X137471452Y-95791261D02*
X137864547Y-95791261D01*
X137652880Y-96033166D01*
X137743595Y-96033166D01*
X137804071Y-96063404D01*
X137834309Y-96093642D01*
X137864547Y-96154119D01*
X137864547Y-96305309D01*
X137834309Y-96365785D01*
X137804071Y-96396023D01*
X137743595Y-96426261D01*
X137562166Y-96426261D01*
X137501690Y-96396023D01*
X137471452Y-96365785D01*
X138408833Y-96002928D02*
X138408833Y-96426261D01*
X138257642Y-95761023D02*
X138106452Y-96214595D01*
X138499547Y-96214595D01*
X152245785Y-99540785D02*
X152215547Y-99571023D01*
X152124833Y-99601261D01*
X152064357Y-99601261D01*
X151973642Y-99571023D01*
X151913166Y-99510547D01*
X151882928Y-99450071D01*
X151852690Y-99329119D01*
X151852690Y-99238404D01*
X151882928Y-99117452D01*
X151913166Y-99056976D01*
X151973642Y-98996500D01*
X152064357Y-98966261D01*
X152124833Y-98966261D01*
X152215547Y-98996500D01*
X152245785Y-99026738D01*
X152457452Y-98966261D02*
X152850547Y-98966261D01*
X152638880Y-99208166D01*
X152729595Y-99208166D01*
X152790071Y-99238404D01*
X152820309Y-99268642D01*
X152850547Y-99329119D01*
X152850547Y-99480309D01*
X152820309Y-99540785D01*
X152790071Y-99571023D01*
X152729595Y-99601261D01*
X152548166Y-99601261D01*
X152487690Y-99571023D01*
X152457452Y-99540785D01*
X153062214Y-98966261D02*
X153485547Y-98966261D01*
X153213404Y-99601261D01*
X144117785Y-80490785D02*
X144087547Y-80521023D01*
X143996833Y-80551261D01*
X143936357Y-80551261D01*
X143845642Y-80521023D01*
X143785166Y-80460547D01*
X143754928Y-80400071D01*
X143724690Y-80279119D01*
X143724690Y-80188404D01*
X143754928Y-80067452D01*
X143785166Y-80006976D01*
X143845642Y-79946500D01*
X143936357Y-79916261D01*
X143996833Y-79916261D01*
X144087547Y-79946500D01*
X144117785Y-79976738D01*
X144329452Y-79916261D02*
X144722547Y-79916261D01*
X144510880Y-80158166D01*
X144601595Y-80158166D01*
X144662071Y-80188404D01*
X144692309Y-80218642D01*
X144722547Y-80279119D01*
X144722547Y-80430309D01*
X144692309Y-80490785D01*
X144662071Y-80521023D01*
X144601595Y-80551261D01*
X144420166Y-80551261D01*
X144359690Y-80521023D01*
X144329452Y-80490785D01*
X145024928Y-80551261D02*
X145145880Y-80551261D01*
X145206357Y-80521023D01*
X145236595Y-80490785D01*
X145297071Y-80400071D01*
X145327309Y-80279119D01*
X145327309Y-80037214D01*
X145297071Y-79976738D01*
X145266833Y-79946500D01*
X145206357Y-79916261D01*
X145085404Y-79916261D01*
X145024928Y-79946500D01*
X144994690Y-79976738D01*
X144964452Y-80037214D01*
X144964452Y-80188404D01*
X144994690Y-80248880D01*
X145024928Y-80279119D01*
X145085404Y-80309357D01*
X145206357Y-80309357D01*
X145266833Y-80279119D01*
X145297071Y-80248880D01*
X145327309Y-80188404D01*
D13*
X133041571Y-69305714D02*
X133041571Y-68543714D01*
X133223000Y-68543714D01*
X133331857Y-68580000D01*
X133404428Y-68652571D01*
X133440714Y-68725142D01*
X133477000Y-68870285D01*
X133477000Y-68979142D01*
X133440714Y-69124285D01*
X133404428Y-69196857D01*
X133331857Y-69269428D01*
X133223000Y-69305714D01*
X133041571Y-69305714D01*
X134202714Y-69305714D02*
X133767285Y-69305714D01*
X133985000Y-69305714D02*
X133985000Y-68543714D01*
X133912428Y-68652571D01*
X133839857Y-68725142D01*
X133767285Y-68761428D01*
X141423571Y-94578714D02*
X141423571Y-93816714D01*
X141605000Y-93816714D01*
X141713857Y-93853000D01*
X141786428Y-93925571D01*
X141822714Y-93998142D01*
X141859000Y-94143285D01*
X141859000Y-94252142D01*
X141822714Y-94397285D01*
X141786428Y-94469857D01*
X141713857Y-94542428D01*
X141605000Y-94578714D01*
X141423571Y-94578714D01*
X142113000Y-93816714D02*
X142584714Y-93816714D01*
X142330714Y-94107000D01*
X142439571Y-94107000D01*
X142512142Y-94143285D01*
X142548428Y-94179571D01*
X142584714Y-94252142D01*
X142584714Y-94433571D01*
X142548428Y-94506142D01*
X142512142Y-94542428D01*
X142439571Y-94578714D01*
X142221857Y-94578714D01*
X142149285Y-94542428D01*
X142113000Y-94506142D01*
X136978571Y-78703714D02*
X136978571Y-77941714D01*
X137160000Y-77941714D01*
X137268857Y-77978000D01*
X137341428Y-78050571D01*
X137377714Y-78123142D01*
X137414000Y-78268285D01*
X137414000Y-78377142D01*
X137377714Y-78522285D01*
X137341428Y-78594857D01*
X137268857Y-78667428D01*
X137160000Y-78703714D01*
X136978571Y-78703714D01*
X138067142Y-78195714D02*
X138067142Y-78703714D01*
X137885714Y-77905428D02*
X137704285Y-78449714D01*
X138176000Y-78449714D01*
X130374571Y-80481714D02*
X130374571Y-79719714D01*
X130556000Y-79719714D01*
X130664857Y-79756000D01*
X130737428Y-79828571D01*
X130773714Y-79901142D01*
X130810000Y-80046285D01*
X130810000Y-80155142D01*
X130773714Y-80300285D01*
X130737428Y-80372857D01*
X130664857Y-80445428D01*
X130556000Y-80481714D01*
X130374571Y-80481714D01*
X131100285Y-79792285D02*
X131136571Y-79756000D01*
X131209142Y-79719714D01*
X131390571Y-79719714D01*
X131463142Y-79756000D01*
X131499428Y-79792285D01*
X131535714Y-79864857D01*
X131535714Y-79937428D01*
X131499428Y-80046285D01*
X131064000Y-80481714D01*
X131535714Y-80481714D01*
D12*
X144580428Y-67872428D02*
X144556238Y-67896619D01*
X144483666Y-67920809D01*
X144435285Y-67920809D01*
X144362714Y-67896619D01*
X144314333Y-67848238D01*
X144290142Y-67799857D01*
X144265952Y-67703095D01*
X144265952Y-67630523D01*
X144290142Y-67533761D01*
X144314333Y-67485380D01*
X144362714Y-67437000D01*
X144435285Y-67412809D01*
X144483666Y-67412809D01*
X144556238Y-67437000D01*
X144580428Y-67461190D01*
X144773952Y-67461190D02*
X144798142Y-67437000D01*
X144846523Y-67412809D01*
X144967476Y-67412809D01*
X145015857Y-67437000D01*
X145040047Y-67461190D01*
X145064238Y-67509571D01*
X145064238Y-67557952D01*
X145040047Y-67630523D01*
X144749761Y-67920809D01*
X145064238Y-67920809D01*
X145233571Y-67412809D02*
X145548047Y-67412809D01*
X145378714Y-67606333D01*
X145451285Y-67606333D01*
X145499666Y-67630523D01*
X145523857Y-67654714D01*
X145548047Y-67703095D01*
X145548047Y-67824047D01*
X145523857Y-67872428D01*
X145499666Y-67896619D01*
X145451285Y-67920809D01*
X145306142Y-67920809D01*
X145257761Y-67896619D01*
X145233571Y-67872428D01*
X148535571Y-67872428D02*
X148511380Y-67848238D01*
X148487190Y-67775666D01*
X148487190Y-67727285D01*
X148511380Y-67654714D01*
X148559761Y-67606333D01*
X148608142Y-67582142D01*
X148704904Y-67557952D01*
X148777476Y-67557952D01*
X148874238Y-67582142D01*
X148922619Y-67606333D01*
X148971000Y-67654714D01*
X148995190Y-67727285D01*
X148995190Y-67775666D01*
X148971000Y-67848238D01*
X148946809Y-67872428D01*
X148995190Y-68041761D02*
X148995190Y-68356238D01*
X148801666Y-68186904D01*
X148801666Y-68259476D01*
X148777476Y-68307857D01*
X148753285Y-68332047D01*
X148704904Y-68356238D01*
X148583952Y-68356238D01*
X148535571Y-68332047D01*
X148511380Y-68307857D01*
X148487190Y-68259476D01*
X148487190Y-68114333D01*
X148511380Y-68065952D01*
X148535571Y-68041761D01*
X148995190Y-68670714D02*
X148995190Y-68719095D01*
X148971000Y-68767476D01*
X148946809Y-68791666D01*
X148898428Y-68815857D01*
X148801666Y-68840047D01*
X148680714Y-68840047D01*
X148583952Y-68815857D01*
X148535571Y-68791666D01*
X148511380Y-68767476D01*
X148487190Y-68719095D01*
X148487190Y-68670714D01*
X148511380Y-68622333D01*
X148535571Y-68598142D01*
X148583952Y-68573952D01*
X148680714Y-68549761D01*
X148801666Y-68549761D01*
X148898428Y-68573952D01*
X148946809Y-68598142D01*
X148971000Y-68622333D01*
X148995190Y-68670714D01*
X147489333Y-70524309D02*
X147247428Y-70524309D01*
X147247428Y-70016309D01*
X147900571Y-70016309D02*
X147658666Y-70016309D01*
X147634476Y-70258214D01*
X147658666Y-70234023D01*
X147707047Y-70209833D01*
X147828000Y-70209833D01*
X147876380Y-70234023D01*
X147900571Y-70258214D01*
X147924761Y-70306595D01*
X147924761Y-70427547D01*
X147900571Y-70475928D01*
X147876380Y-70500119D01*
X147828000Y-70524309D01*
X147707047Y-70524309D01*
X147658666Y-70500119D01*
X147634476Y-70475928D01*
D13*
X146177000Y-65495714D02*
X146177000Y-65132857D01*
X146394714Y-65568285D02*
X145632714Y-65314285D01*
X146394714Y-65060285D01*
X146394714Y-64806285D02*
X145632714Y-64806285D01*
X146394714Y-64370857D01*
X145632714Y-64370857D01*
X145632714Y-64116857D02*
X145632714Y-63681428D01*
X146394714Y-63899142D02*
X145632714Y-63899142D01*
X146394714Y-63028285D02*
X146394714Y-63463714D01*
X146394714Y-63246000D02*
X145632714Y-63246000D01*
X145741571Y-63318571D01*
X145814142Y-63391142D01*
X145850428Y-63463714D01*
D12*
X153724428Y-70875071D02*
X153748619Y-70899261D01*
X153772809Y-70971833D01*
X153772809Y-71020214D01*
X153748619Y-71092785D01*
X153700238Y-71141166D01*
X153651857Y-71165357D01*
X153555095Y-71189547D01*
X153482523Y-71189547D01*
X153385761Y-71165357D01*
X153337380Y-71141166D01*
X153289000Y-71092785D01*
X153264809Y-71020214D01*
X153264809Y-70971833D01*
X153289000Y-70899261D01*
X153313190Y-70875071D01*
X153772809Y-70391261D02*
X153772809Y-70681547D01*
X153772809Y-70536404D02*
X153264809Y-70536404D01*
X153337380Y-70584785D01*
X153385761Y-70633166D01*
X153409952Y-70681547D01*
X153772809Y-70149357D02*
X153772809Y-70052595D01*
X153748619Y-70004214D01*
X153724428Y-69980023D01*
X153651857Y-69931642D01*
X153555095Y-69907452D01*
X153361571Y-69907452D01*
X153313190Y-69931642D01*
X153289000Y-69955833D01*
X153264809Y-70004214D01*
X153264809Y-70100976D01*
X153289000Y-70149357D01*
X153313190Y-70173547D01*
X153361571Y-70197738D01*
X153482523Y-70197738D01*
X153530904Y-70173547D01*
X153555095Y-70149357D01*
X153579285Y-70100976D01*
X153579285Y-70004214D01*
X153555095Y-69955833D01*
X153530904Y-69931642D01*
X153482523Y-69907452D01*
X152614868Y-72368210D02*
X152614868Y-72402420D01*
X152580658Y-72470841D01*
X152546447Y-72505052D01*
X152478026Y-72539262D01*
X152409605Y-72539262D01*
X152358289Y-72522157D01*
X152272763Y-72470841D01*
X152221447Y-72419525D01*
X152170132Y-72333999D01*
X152153026Y-72282683D01*
X152153026Y-72214262D01*
X152187237Y-72145841D01*
X152221447Y-72111631D01*
X152289868Y-72077420D01*
X152324079Y-72077420D01*
X152460921Y-71940579D02*
X152460921Y-71906368D01*
X152478026Y-71855052D01*
X152563552Y-71769526D01*
X152614868Y-71752421D01*
X152649079Y-71752421D01*
X152700394Y-71769526D01*
X152734605Y-71803737D01*
X152768815Y-71872158D01*
X152768815Y-72282683D01*
X152991183Y-72060315D01*
X152854341Y-71478737D02*
X152888552Y-71444526D01*
X152939868Y-71427421D01*
X152974078Y-71427421D01*
X153025394Y-71444526D01*
X153110920Y-71495842D01*
X153196446Y-71581368D01*
X153247762Y-71666895D01*
X153264867Y-71718210D01*
X153264867Y-71752421D01*
X153247762Y-71803737D01*
X153213552Y-71837947D01*
X153162236Y-71855052D01*
X153128025Y-71855052D01*
X153076710Y-71837947D01*
X152991183Y-71786631D01*
X152905657Y-71701105D01*
X152854341Y-71615579D01*
X152837236Y-71564263D01*
X152837236Y-71530053D01*
X152854341Y-71478737D01*
D22*
X152880785Y-77687714D02*
X152911023Y-77717952D01*
X152941261Y-77808666D01*
X152941261Y-77869142D01*
X152911023Y-77959857D01*
X152850547Y-78020333D01*
X152790071Y-78050571D01*
X152669119Y-78080809D01*
X152578404Y-78080809D01*
X152457452Y-78050571D01*
X152396976Y-78020333D01*
X152336500Y-77959857D01*
X152306261Y-77869142D01*
X152306261Y-77808666D01*
X152336500Y-77717952D01*
X152366738Y-77687714D01*
X152366738Y-77445809D02*
X152336500Y-77415571D01*
X152306261Y-77355095D01*
X152306261Y-77203904D01*
X152336500Y-77143428D01*
X152366738Y-77113190D01*
X152427214Y-77082952D01*
X152487690Y-77082952D01*
X152578404Y-77113190D01*
X152941261Y-77476047D01*
X152941261Y-77082952D01*
X152941261Y-76478190D02*
X152941261Y-76841047D01*
X152941261Y-76659619D02*
X152306261Y-76659619D01*
X152396976Y-76720095D01*
X152457452Y-76780571D01*
X152487690Y-76841047D01*
D12*
X149152428Y-71700571D02*
X149176619Y-71724761D01*
X149200809Y-71797333D01*
X149200809Y-71845714D01*
X149176619Y-71918285D01*
X149128238Y-71966666D01*
X149079857Y-71990857D01*
X148983095Y-72015047D01*
X148910523Y-72015047D01*
X148813761Y-71990857D01*
X148765380Y-71966666D01*
X148717000Y-71918285D01*
X148692809Y-71845714D01*
X148692809Y-71797333D01*
X148717000Y-71724761D01*
X148741190Y-71700571D01*
X148741190Y-71507047D02*
X148717000Y-71482857D01*
X148692809Y-71434476D01*
X148692809Y-71313523D01*
X148717000Y-71265142D01*
X148741190Y-71240952D01*
X148789571Y-71216761D01*
X148837952Y-71216761D01*
X148910523Y-71240952D01*
X149200809Y-71531238D01*
X149200809Y-71216761D01*
X148692809Y-71047428D02*
X148692809Y-70708761D01*
X149200809Y-70926476D01*
X145342428Y-70811571D02*
X145366619Y-70835761D01*
X145390809Y-70908333D01*
X145390809Y-70956714D01*
X145366619Y-71029285D01*
X145318238Y-71077666D01*
X145269857Y-71101857D01*
X145173095Y-71126047D01*
X145100523Y-71126047D01*
X145003761Y-71101857D01*
X144955380Y-71077666D01*
X144907000Y-71029285D01*
X144882809Y-70956714D01*
X144882809Y-70908333D01*
X144907000Y-70835761D01*
X144931190Y-70811571D01*
X144931190Y-70618047D02*
X144907000Y-70593857D01*
X144882809Y-70545476D01*
X144882809Y-70424523D01*
X144907000Y-70376142D01*
X144931190Y-70351952D01*
X144979571Y-70327761D01*
X145027952Y-70327761D01*
X145100523Y-70351952D01*
X145390809Y-70642238D01*
X145390809Y-70327761D01*
X145100523Y-70037476D02*
X145076333Y-70085857D01*
X145052142Y-70110047D01*
X145003761Y-70134238D01*
X144979571Y-70134238D01*
X144931190Y-70110047D01*
X144907000Y-70085857D01*
X144882809Y-70037476D01*
X144882809Y-69940714D01*
X144907000Y-69892333D01*
X144931190Y-69868142D01*
X144979571Y-69843952D01*
X145003761Y-69843952D01*
X145052142Y-69868142D01*
X145076333Y-69892333D01*
X145100523Y-69940714D01*
X145100523Y-70037476D01*
X145124714Y-70085857D01*
X145148904Y-70110047D01*
X145197285Y-70134238D01*
X145294047Y-70134238D01*
X145342428Y-70110047D01*
X145366619Y-70085857D01*
X145390809Y-70037476D01*
X145390809Y-69940714D01*
X145366619Y-69892333D01*
X145342428Y-69868142D01*
X145294047Y-69843952D01*
X145197285Y-69843952D01*
X145148904Y-69868142D01*
X145124714Y-69892333D01*
X145100523Y-69940714D01*
X144199428Y-70811571D02*
X144223619Y-70835761D01*
X144247809Y-70908333D01*
X144247809Y-70956714D01*
X144223619Y-71029285D01*
X144175238Y-71077666D01*
X144126857Y-71101857D01*
X144030095Y-71126047D01*
X143957523Y-71126047D01*
X143860761Y-71101857D01*
X143812380Y-71077666D01*
X143764000Y-71029285D01*
X143739809Y-70956714D01*
X143739809Y-70908333D01*
X143764000Y-70835761D01*
X143788190Y-70811571D01*
X143788190Y-70618047D02*
X143764000Y-70593857D01*
X143739809Y-70545476D01*
X143739809Y-70424523D01*
X143764000Y-70376142D01*
X143788190Y-70351952D01*
X143836571Y-70327761D01*
X143884952Y-70327761D01*
X143957523Y-70351952D01*
X144247809Y-70642238D01*
X144247809Y-70327761D01*
X144247809Y-70085857D02*
X144247809Y-69989095D01*
X144223619Y-69940714D01*
X144199428Y-69916523D01*
X144126857Y-69868142D01*
X144030095Y-69843952D01*
X143836571Y-69843952D01*
X143788190Y-69868142D01*
X143764000Y-69892333D01*
X143739809Y-69940714D01*
X143739809Y-70037476D01*
X143764000Y-70085857D01*
X143788190Y-70110047D01*
X143836571Y-70134238D01*
X143957523Y-70134238D01*
X144005904Y-70110047D01*
X144030095Y-70085857D01*
X144054285Y-70037476D01*
X144054285Y-69940714D01*
X144030095Y-69892333D01*
X144005904Y-69868142D01*
X143957523Y-69843952D01*
X149787428Y-75320071D02*
X149811619Y-75344261D01*
X149835809Y-75416833D01*
X149835809Y-75465214D01*
X149811619Y-75537785D01*
X149763238Y-75586166D01*
X149714857Y-75610357D01*
X149618095Y-75634547D01*
X149545523Y-75634547D01*
X149448761Y-75610357D01*
X149400380Y-75586166D01*
X149352000Y-75537785D01*
X149327809Y-75465214D01*
X149327809Y-75416833D01*
X149352000Y-75344261D01*
X149376190Y-75320071D01*
X149376190Y-75126547D02*
X149352000Y-75102357D01*
X149327809Y-75053976D01*
X149327809Y-74933023D01*
X149352000Y-74884642D01*
X149376190Y-74860452D01*
X149424571Y-74836261D01*
X149472952Y-74836261D01*
X149545523Y-74860452D01*
X149835809Y-75150738D01*
X149835809Y-74836261D01*
X149376190Y-74642738D02*
X149352000Y-74618547D01*
X149327809Y-74570166D01*
X149327809Y-74449214D01*
X149352000Y-74400833D01*
X149376190Y-74376642D01*
X149424571Y-74352452D01*
X149472952Y-74352452D01*
X149545523Y-74376642D01*
X149835809Y-74666928D01*
X149835809Y-74352452D01*
X142675428Y-70938571D02*
X142699619Y-70962761D01*
X142723809Y-71035333D01*
X142723809Y-71083714D01*
X142699619Y-71156285D01*
X142651238Y-71204666D01*
X142602857Y-71228857D01*
X142506095Y-71253047D01*
X142433523Y-71253047D01*
X142336761Y-71228857D01*
X142288380Y-71204666D01*
X142240000Y-71156285D01*
X142215809Y-71083714D01*
X142215809Y-71035333D01*
X142240000Y-70962761D01*
X142264190Y-70938571D01*
X142215809Y-70769238D02*
X142215809Y-70454761D01*
X142409333Y-70624095D01*
X142409333Y-70551523D01*
X142433523Y-70503142D01*
X142457714Y-70478952D01*
X142506095Y-70454761D01*
X142627047Y-70454761D01*
X142675428Y-70478952D01*
X142699619Y-70503142D01*
X142723809Y-70551523D01*
X142723809Y-70696666D01*
X142699619Y-70745047D01*
X142675428Y-70769238D01*
X142264190Y-70261238D02*
X142240000Y-70237047D01*
X142215809Y-70188666D01*
X142215809Y-70067714D01*
X142240000Y-70019333D01*
X142264190Y-69995142D01*
X142312571Y-69970952D01*
X142360952Y-69970952D01*
X142433523Y-69995142D01*
X142723809Y-70285428D01*
X142723809Y-69970952D01*
X146231428Y-68888428D02*
X146207238Y-68912619D01*
X146134666Y-68936809D01*
X146086285Y-68936809D01*
X146013714Y-68912619D01*
X145965333Y-68864238D01*
X145941142Y-68815857D01*
X145916952Y-68719095D01*
X145916952Y-68646523D01*
X145941142Y-68549761D01*
X145965333Y-68501380D01*
X146013714Y-68453000D01*
X146086285Y-68428809D01*
X146134666Y-68428809D01*
X146207238Y-68453000D01*
X146231428Y-68477190D01*
X146400761Y-68428809D02*
X146715238Y-68428809D01*
X146545904Y-68622333D01*
X146618476Y-68622333D01*
X146666857Y-68646523D01*
X146691047Y-68670714D01*
X146715238Y-68719095D01*
X146715238Y-68840047D01*
X146691047Y-68888428D01*
X146666857Y-68912619D01*
X146618476Y-68936809D01*
X146473333Y-68936809D01*
X146424952Y-68912619D01*
X146400761Y-68888428D01*
X146884571Y-68428809D02*
X147199047Y-68428809D01*
X147029714Y-68622333D01*
X147102285Y-68622333D01*
X147150666Y-68646523D01*
X147174857Y-68670714D01*
X147199047Y-68719095D01*
X147199047Y-68840047D01*
X147174857Y-68888428D01*
X147150666Y-68912619D01*
X147102285Y-68936809D01*
X146957142Y-68936809D01*
X146908761Y-68912619D01*
X146884571Y-68888428D01*
D22*
X140180785Y-73814214D02*
X140211023Y-73844452D01*
X140241261Y-73935166D01*
X140241261Y-73995642D01*
X140211023Y-74086357D01*
X140150547Y-74146833D01*
X140090071Y-74177071D01*
X139969119Y-74207309D01*
X139878404Y-74207309D01*
X139757452Y-74177071D01*
X139696976Y-74146833D01*
X139636500Y-74086357D01*
X139606261Y-73995642D01*
X139606261Y-73935166D01*
X139636500Y-73844452D01*
X139666738Y-73814214D01*
X139606261Y-73602547D02*
X139606261Y-73209452D01*
X139848166Y-73421119D01*
X139848166Y-73330404D01*
X139878404Y-73269928D01*
X139908642Y-73239690D01*
X139969119Y-73209452D01*
X140120309Y-73209452D01*
X140180785Y-73239690D01*
X140211023Y-73269928D01*
X140241261Y-73330404D01*
X140241261Y-73511833D01*
X140211023Y-73572309D01*
X140180785Y-73602547D01*
X139606261Y-72634928D02*
X139606261Y-72937309D01*
X139908642Y-72967547D01*
X139878404Y-72937309D01*
X139848166Y-72876833D01*
X139848166Y-72725642D01*
X139878404Y-72665166D01*
X139908642Y-72634928D01*
X139969119Y-72604690D01*
X140120309Y-72604690D01*
X140180785Y-72634928D01*
X140211023Y-72665166D01*
X140241261Y-72725642D01*
X140241261Y-72876833D01*
X140211023Y-72937309D01*
X140180785Y-72967547D01*
X148140987Y-78611710D02*
X148098224Y-78611710D01*
X148012697Y-78568947D01*
X147969934Y-78526184D01*
X147927171Y-78440658D01*
X147927171Y-78355131D01*
X147948553Y-78290987D01*
X148012697Y-78184079D01*
X148076842Y-78119934D01*
X148183750Y-78055790D01*
X148247895Y-78034408D01*
X148333421Y-78034408D01*
X148418947Y-78077171D01*
X148461710Y-78119934D01*
X148504473Y-78205460D01*
X148504473Y-78248224D01*
X148696907Y-78355131D02*
X148974868Y-78633092D01*
X148654144Y-78654473D01*
X148718289Y-78718618D01*
X148739670Y-78782763D01*
X148739670Y-78825526D01*
X148718289Y-78889670D01*
X148611381Y-78996578D01*
X148547236Y-79017960D01*
X148504473Y-79017960D01*
X148440329Y-78996578D01*
X148312039Y-78868289D01*
X148290658Y-78804144D01*
X148290658Y-78761381D01*
X149359736Y-79017960D02*
X149274209Y-78932434D01*
X149210065Y-78911052D01*
X149167302Y-78911052D01*
X149060394Y-78932434D01*
X148953486Y-78996578D01*
X148782434Y-79167631D01*
X148761052Y-79231775D01*
X148761052Y-79274539D01*
X148782434Y-79338683D01*
X148867960Y-79424209D01*
X148932104Y-79445591D01*
X148974868Y-79445591D01*
X149039012Y-79424209D01*
X149145920Y-79317302D01*
X149167302Y-79253157D01*
X149167302Y-79210394D01*
X149145920Y-79146249D01*
X149060394Y-79060723D01*
X148996249Y-79039341D01*
X148953486Y-79039341D01*
X148889341Y-79060723D01*
D12*
X152947309Y-70875071D02*
X152705404Y-71044404D01*
X152947309Y-71165357D02*
X152439309Y-71165357D01*
X152439309Y-70971833D01*
X152463500Y-70923452D01*
X152487690Y-70899261D01*
X152536071Y-70875071D01*
X152608642Y-70875071D01*
X152657023Y-70899261D01*
X152681214Y-70923452D01*
X152705404Y-70971833D01*
X152705404Y-71165357D01*
X152487690Y-70681547D02*
X152463500Y-70657357D01*
X152439309Y-70608976D01*
X152439309Y-70488023D01*
X152463500Y-70439642D01*
X152487690Y-70415452D01*
X152536071Y-70391261D01*
X152584452Y-70391261D01*
X152657023Y-70415452D01*
X152947309Y-70705738D01*
X152947309Y-70391261D01*
X152439309Y-69931642D02*
X152439309Y-70173547D01*
X152681214Y-70197738D01*
X152657023Y-70173547D01*
X152632833Y-70125166D01*
X152632833Y-70004214D01*
X152657023Y-69955833D01*
X152681214Y-69931642D01*
X152729595Y-69907452D01*
X152850547Y-69907452D01*
X152898928Y-69931642D01*
X152923119Y-69955833D01*
X152947309Y-70004214D01*
X152947309Y-70125166D01*
X152923119Y-70173547D01*
X152898928Y-70197738D01*
X151994809Y-76209071D02*
X151752904Y-76378404D01*
X151994809Y-76499357D02*
X151486809Y-76499357D01*
X151486809Y-76305833D01*
X151511000Y-76257452D01*
X151535190Y-76233261D01*
X151583571Y-76209071D01*
X151656142Y-76209071D01*
X151704523Y-76233261D01*
X151728714Y-76257452D01*
X151752904Y-76305833D01*
X151752904Y-76499357D01*
X151535190Y-76015547D02*
X151511000Y-75991357D01*
X151486809Y-75942976D01*
X151486809Y-75822023D01*
X151511000Y-75773642D01*
X151535190Y-75749452D01*
X151583571Y-75725261D01*
X151631952Y-75725261D01*
X151704523Y-75749452D01*
X151994809Y-76039738D01*
X151994809Y-75725261D01*
X151486809Y-75289833D02*
X151486809Y-75386595D01*
X151511000Y-75434976D01*
X151535190Y-75459166D01*
X151607761Y-75507547D01*
X151704523Y-75531738D01*
X151898047Y-75531738D01*
X151946428Y-75507547D01*
X151970619Y-75483357D01*
X151994809Y-75434976D01*
X151994809Y-75338214D01*
X151970619Y-75289833D01*
X151946428Y-75265642D01*
X151898047Y-75241452D01*
X151777095Y-75241452D01*
X151728714Y-75265642D01*
X151704523Y-75289833D01*
X151680333Y-75338214D01*
X151680333Y-75434976D01*
X151704523Y-75483357D01*
X151728714Y-75507547D01*
X151777095Y-75531738D01*
X141834809Y-70938571D02*
X141592904Y-71107904D01*
X141834809Y-71228857D02*
X141326809Y-71228857D01*
X141326809Y-71035333D01*
X141351000Y-70986952D01*
X141375190Y-70962761D01*
X141423571Y-70938571D01*
X141496142Y-70938571D01*
X141544523Y-70962761D01*
X141568714Y-70986952D01*
X141592904Y-71035333D01*
X141592904Y-71228857D01*
X141375190Y-70745047D02*
X141351000Y-70720857D01*
X141326809Y-70672476D01*
X141326809Y-70551523D01*
X141351000Y-70503142D01*
X141375190Y-70478952D01*
X141423571Y-70454761D01*
X141471952Y-70454761D01*
X141544523Y-70478952D01*
X141834809Y-70769238D01*
X141834809Y-70454761D01*
X141834809Y-69970952D02*
X141834809Y-70261238D01*
X141834809Y-70116095D02*
X141326809Y-70116095D01*
X141399380Y-70164476D01*
X141447761Y-70212857D01*
X141471952Y-70261238D01*
D22*
X140503473Y-77580775D02*
X140139987Y-77516631D01*
X140246895Y-77837354D02*
X139797882Y-77388341D01*
X139968934Y-77217289D01*
X140033079Y-77195907D01*
X140075842Y-77195907D01*
X140139987Y-77217289D01*
X140204131Y-77281434D01*
X140225513Y-77345578D01*
X140225513Y-77388341D01*
X140204131Y-77452486D01*
X140033079Y-77623539D01*
X140589000Y-76896565D02*
X140888341Y-77195907D01*
X140311039Y-76832421D02*
X140524855Y-77260052D01*
X140802815Y-76982092D01*
X140631763Y-76554460D02*
X140931104Y-76255119D01*
X141187683Y-76896565D01*
X147483285Y-80490785D02*
X147453047Y-80521023D01*
X147362333Y-80551261D01*
X147301857Y-80551261D01*
X147211142Y-80521023D01*
X147150666Y-80460547D01*
X147120428Y-80400071D01*
X147090190Y-80279119D01*
X147090190Y-80188404D01*
X147120428Y-80067452D01*
X147150666Y-80006976D01*
X147211142Y-79946500D01*
X147301857Y-79916261D01*
X147362333Y-79916261D01*
X147453047Y-79946500D01*
X147483285Y-79976738D01*
X148027571Y-80127928D02*
X148027571Y-80551261D01*
X147876380Y-79886023D02*
X147725190Y-80339595D01*
X148118285Y-80339595D01*
X148692809Y-80551261D02*
X148329952Y-80551261D01*
X148511380Y-80551261D02*
X148511380Y-79916261D01*
X148450904Y-80006976D01*
X148390428Y-80067452D01*
X148329952Y-80097690D01*
X140053785Y-82776785D02*
X140023547Y-82807023D01*
X139932833Y-82837261D01*
X139872357Y-82837261D01*
X139781642Y-82807023D01*
X139721166Y-82746547D01*
X139690928Y-82686071D01*
X139660690Y-82565119D01*
X139660690Y-82474404D01*
X139690928Y-82353452D01*
X139721166Y-82292976D01*
X139781642Y-82232500D01*
X139872357Y-82202261D01*
X139932833Y-82202261D01*
X140023547Y-82232500D01*
X140053785Y-82262738D01*
X140658547Y-82837261D02*
X140295690Y-82837261D01*
X140477119Y-82837261D02*
X140477119Y-82202261D01*
X140416642Y-82292976D01*
X140356166Y-82353452D01*
X140295690Y-82383690D01*
X141263309Y-82837261D02*
X140900452Y-82837261D01*
X141081880Y-82837261D02*
X141081880Y-82202261D01*
X141021404Y-82292976D01*
X140960928Y-82353452D01*
X140900452Y-82383690D01*
X149495224Y-77130473D02*
X149559368Y-76766987D01*
X149238645Y-76873895D02*
X149687658Y-76424882D01*
X149858710Y-76595934D01*
X149880092Y-76660079D01*
X149880092Y-76702842D01*
X149858710Y-76766987D01*
X149794565Y-76831131D01*
X149730421Y-76852513D01*
X149687658Y-76852513D01*
X149623513Y-76831131D01*
X149452460Y-76660079D01*
X150093907Y-76831131D02*
X150371868Y-77109092D01*
X150051144Y-77130473D01*
X150115289Y-77194618D01*
X150136670Y-77258763D01*
X150136670Y-77301526D01*
X150115289Y-77365670D01*
X150008381Y-77472578D01*
X149944236Y-77493960D01*
X149901473Y-77493960D01*
X149837329Y-77472578D01*
X149709039Y-77344289D01*
X149687658Y-77280144D01*
X149687658Y-77237381D01*
X150607065Y-77643631D02*
X150307723Y-77942973D01*
X150671209Y-77365670D02*
X150243578Y-77579486D01*
X150521539Y-77857446D01*
X152372785Y-81313261D02*
X152161119Y-81010880D01*
X152009928Y-81313261D02*
X152009928Y-80678261D01*
X152251833Y-80678261D01*
X152312309Y-80708500D01*
X152342547Y-80738738D01*
X152372785Y-80799214D01*
X152372785Y-80889928D01*
X152342547Y-80950404D01*
X152312309Y-80980642D01*
X152251833Y-81010880D01*
X152009928Y-81010880D01*
X152917071Y-80889928D02*
X152917071Y-81313261D01*
X152765880Y-80648023D02*
X152614690Y-81101595D01*
X153007785Y-81101595D01*
X153521833Y-80889928D02*
X153521833Y-81313261D01*
X153370642Y-80648023D02*
X153219452Y-81101595D01*
X153612547Y-81101595D01*
X147099261Y-82450214D02*
X146796880Y-82661880D01*
X147099261Y-82813071D02*
X146464261Y-82813071D01*
X146464261Y-82571166D01*
X146494500Y-82510690D01*
X146524738Y-82480452D01*
X146585214Y-82450214D01*
X146675928Y-82450214D01*
X146736404Y-82480452D01*
X146766642Y-82510690D01*
X146796880Y-82571166D01*
X146796880Y-82813071D01*
X146675928Y-81905928D02*
X147099261Y-81905928D01*
X146434023Y-82057119D02*
X146887595Y-82208309D01*
X146887595Y-81815214D01*
X146464261Y-81270928D02*
X146464261Y-81573309D01*
X146766642Y-81603547D01*
X146736404Y-81573309D01*
X146706166Y-81512833D01*
X146706166Y-81361642D01*
X146736404Y-81301166D01*
X146766642Y-81270928D01*
X146827119Y-81240690D01*
X146978309Y-81240690D01*
X147038785Y-81270928D01*
X147069023Y-81301166D01*
X147099261Y-81361642D01*
X147099261Y-81512833D01*
X147069023Y-81573309D01*
X147038785Y-81603547D01*
X145067261Y-82450214D02*
X144764880Y-82661880D01*
X145067261Y-82813071D02*
X144432261Y-82813071D01*
X144432261Y-82571166D01*
X144462500Y-82510690D01*
X144492738Y-82480452D01*
X144553214Y-82450214D01*
X144643928Y-82450214D01*
X144704404Y-82480452D01*
X144734642Y-82510690D01*
X144764880Y-82571166D01*
X144764880Y-82813071D01*
X144643928Y-81905928D02*
X145067261Y-81905928D01*
X144402023Y-82057119D02*
X144855595Y-82208309D01*
X144855595Y-81815214D01*
X144432261Y-81301166D02*
X144432261Y-81422119D01*
X144462500Y-81482595D01*
X144492738Y-81512833D01*
X144583452Y-81573309D01*
X144704404Y-81603547D01*
X144946309Y-81603547D01*
X145006785Y-81573309D01*
X145037023Y-81543071D01*
X145067261Y-81482595D01*
X145067261Y-81361642D01*
X145037023Y-81301166D01*
X145006785Y-81270928D01*
X144946309Y-81240690D01*
X144795119Y-81240690D01*
X144734642Y-81270928D01*
X144704404Y-81301166D01*
X144674166Y-81361642D01*
X144674166Y-81482595D01*
X144704404Y-81543071D01*
X144734642Y-81573309D01*
X144795119Y-81603547D01*
X140053785Y-81821261D02*
X139842119Y-81518880D01*
X139690928Y-81821261D02*
X139690928Y-81186261D01*
X139932833Y-81186261D01*
X139993309Y-81216500D01*
X140023547Y-81246738D01*
X140053785Y-81307214D01*
X140053785Y-81397928D01*
X140023547Y-81458404D01*
X139993309Y-81488642D01*
X139932833Y-81518880D01*
X139690928Y-81518880D01*
X140598071Y-81397928D02*
X140598071Y-81821261D01*
X140446880Y-81156023D02*
X140295690Y-81609595D01*
X140688785Y-81609595D01*
X141021404Y-81458404D02*
X140960928Y-81428166D01*
X140930690Y-81397928D01*
X140900452Y-81337452D01*
X140900452Y-81307214D01*
X140930690Y-81246738D01*
X140960928Y-81216500D01*
X141021404Y-81186261D01*
X141142357Y-81186261D01*
X141202833Y-81216500D01*
X141233071Y-81246738D01*
X141263309Y-81307214D01*
X141263309Y-81337452D01*
X141233071Y-81397928D01*
X141202833Y-81428166D01*
X141142357Y-81458404D01*
X141021404Y-81458404D01*
X140960928Y-81488642D01*
X140930690Y-81518880D01*
X140900452Y-81579357D01*
X140900452Y-81700309D01*
X140930690Y-81760785D01*
X140960928Y-81791023D01*
X141021404Y-81821261D01*
X141142357Y-81821261D01*
X141202833Y-81791023D01*
X141233071Y-81760785D01*
X141263309Y-81700309D01*
X141263309Y-81579357D01*
X141233071Y-81518880D01*
X141202833Y-81488642D01*
X141142357Y-81458404D01*
X143228785Y-100992214D02*
X143259023Y-101022452D01*
X143289261Y-101113166D01*
X143289261Y-101173642D01*
X143259023Y-101264357D01*
X143198547Y-101324833D01*
X143138071Y-101355071D01*
X143017119Y-101385309D01*
X142926404Y-101385309D01*
X142805452Y-101355071D01*
X142744976Y-101324833D01*
X142684500Y-101264357D01*
X142654261Y-101173642D01*
X142654261Y-101113166D01*
X142684500Y-101022452D01*
X142714738Y-100992214D01*
X142714738Y-100750309D02*
X142684500Y-100720071D01*
X142654261Y-100659595D01*
X142654261Y-100508404D01*
X142684500Y-100447928D01*
X142714738Y-100417690D01*
X142775214Y-100387452D01*
X142835690Y-100387452D01*
X142926404Y-100417690D01*
X143289261Y-100780547D01*
X143289261Y-100387452D01*
X142865928Y-99843166D02*
X143289261Y-99843166D01*
X142624023Y-99994357D02*
X143077595Y-100145547D01*
X143077595Y-99752452D01*
D12*
X128058333Y-66269809D02*
X127889000Y-66027904D01*
X127768047Y-66269809D02*
X127768047Y-65761809D01*
X127961571Y-65761809D01*
X128009952Y-65786000D01*
X128034142Y-65810190D01*
X128058333Y-65858571D01*
X128058333Y-65931142D01*
X128034142Y-65979523D01*
X128009952Y-66003714D01*
X127961571Y-66027904D01*
X127768047Y-66027904D01*
X128227666Y-65761809D02*
X128542142Y-65761809D01*
X128372809Y-65955333D01*
X128445380Y-65955333D01*
X128493761Y-65979523D01*
X128517952Y-66003714D01*
X128542142Y-66052095D01*
X128542142Y-66173047D01*
X128517952Y-66221428D01*
X128493761Y-66245619D01*
X128445380Y-66269809D01*
X128300238Y-66269809D01*
X128251857Y-66245619D01*
X128227666Y-66221428D01*
D22*
X148181785Y-97442261D02*
X147970119Y-97139880D01*
X147818928Y-97442261D02*
X147818928Y-96807261D01*
X148060833Y-96807261D01*
X148121309Y-96837500D01*
X148151547Y-96867738D01*
X148181785Y-96928214D01*
X148181785Y-97018928D01*
X148151547Y-97079404D01*
X148121309Y-97109642D01*
X148060833Y-97139880D01*
X147818928Y-97139880D01*
X148423690Y-96867738D02*
X148453928Y-96837500D01*
X148514404Y-96807261D01*
X148665595Y-96807261D01*
X148726071Y-96837500D01*
X148756309Y-96867738D01*
X148786547Y-96928214D01*
X148786547Y-96988690D01*
X148756309Y-97079404D01*
X148393452Y-97442261D01*
X148786547Y-97442261D01*
X149028452Y-96867738D02*
X149058690Y-96837500D01*
X149119166Y-96807261D01*
X149270357Y-96807261D01*
X149330833Y-96837500D01*
X149361071Y-96867738D01*
X149391309Y-96928214D01*
X149391309Y-96988690D01*
X149361071Y-97079404D01*
X148998214Y-97442261D01*
X149391309Y-97442261D01*
X151102785Y-100617261D02*
X150891119Y-100314880D01*
X150739928Y-100617261D02*
X150739928Y-99982261D01*
X150981833Y-99982261D01*
X151042309Y-100012500D01*
X151072547Y-100042738D01*
X151102785Y-100103214D01*
X151102785Y-100193928D01*
X151072547Y-100254404D01*
X151042309Y-100284642D01*
X150981833Y-100314880D01*
X150739928Y-100314880D01*
X151314452Y-99982261D02*
X151707547Y-99982261D01*
X151495880Y-100224166D01*
X151586595Y-100224166D01*
X151647071Y-100254404D01*
X151677309Y-100284642D01*
X151707547Y-100345119D01*
X151707547Y-100496309D01*
X151677309Y-100556785D01*
X151647071Y-100587023D01*
X151586595Y-100617261D01*
X151405166Y-100617261D01*
X151344690Y-100587023D01*
X151314452Y-100556785D01*
X152312309Y-100617261D02*
X151949452Y-100617261D01*
X152130880Y-100617261D02*
X152130880Y-99982261D01*
X152070404Y-100072976D01*
X152009928Y-100133452D01*
X151949452Y-100163690D01*
X152687261Y-103024214D02*
X152384880Y-103235880D01*
X152687261Y-103387071D02*
X152052261Y-103387071D01*
X152052261Y-103145166D01*
X152082500Y-103084690D01*
X152112738Y-103054452D01*
X152173214Y-103024214D01*
X152263928Y-103024214D01*
X152324404Y-103054452D01*
X152354642Y-103084690D01*
X152384880Y-103145166D01*
X152384880Y-103387071D01*
X152263928Y-102479928D02*
X152687261Y-102479928D01*
X152022023Y-102631119D02*
X152475595Y-102782309D01*
X152475595Y-102389214D01*
X152052261Y-102026357D02*
X152052261Y-101965880D01*
X152082500Y-101905404D01*
X152112738Y-101875166D01*
X152173214Y-101844928D01*
X152294166Y-101814690D01*
X152445357Y-101814690D01*
X152566309Y-101844928D01*
X152626785Y-101875166D01*
X152657023Y-101905404D01*
X152687261Y-101965880D01*
X152687261Y-102026357D01*
X152657023Y-102086833D01*
X152626785Y-102117071D01*
X152566309Y-102147309D01*
X152445357Y-102177547D01*
X152294166Y-102177547D01*
X152173214Y-102147309D01*
X152112738Y-102117071D01*
X152082500Y-102086833D01*
X152052261Y-102026357D01*
D12*
X134801428Y-67763571D02*
X134825619Y-67787761D01*
X134849809Y-67860333D01*
X134849809Y-67908714D01*
X134825619Y-67981285D01*
X134777238Y-68029666D01*
X134728857Y-68053857D01*
X134632095Y-68078047D01*
X134559523Y-68078047D01*
X134462761Y-68053857D01*
X134414380Y-68029666D01*
X134366000Y-67981285D01*
X134341809Y-67908714D01*
X134341809Y-67860333D01*
X134366000Y-67787761D01*
X134390190Y-67763571D01*
X134511142Y-67328142D02*
X134849809Y-67328142D01*
X134317619Y-67449095D02*
X134680476Y-67570047D01*
X134680476Y-67255571D01*
X134341809Y-66965285D02*
X134341809Y-66916904D01*
X134366000Y-66868523D01*
X134390190Y-66844333D01*
X134438571Y-66820142D01*
X134535333Y-66795952D01*
X134656285Y-66795952D01*
X134753047Y-66820142D01*
X134801428Y-66844333D01*
X134825619Y-66868523D01*
X134849809Y-66916904D01*
X134849809Y-66965285D01*
X134825619Y-67013666D01*
X134801428Y-67037857D01*
X134753047Y-67062047D01*
X134656285Y-67086238D01*
X134535333Y-67086238D01*
X134438571Y-67062047D01*
X134390190Y-67037857D01*
X134366000Y-67013666D01*
X134341809Y-66965285D01*
D22*
X131351261Y-96293214D02*
X131048880Y-96504880D01*
X131351261Y-96656071D02*
X130716261Y-96656071D01*
X130716261Y-96414166D01*
X130746500Y-96353690D01*
X130776738Y-96323452D01*
X130837214Y-96293214D01*
X130927928Y-96293214D01*
X130988404Y-96323452D01*
X131018642Y-96353690D01*
X131048880Y-96414166D01*
X131048880Y-96656071D01*
X131351261Y-95688452D02*
X131351261Y-96051309D01*
X131351261Y-95869880D02*
X130716261Y-95869880D01*
X130806976Y-95930357D01*
X130867452Y-95990833D01*
X130897690Y-96051309D01*
X131351261Y-95083690D02*
X131351261Y-95446547D01*
X131351261Y-95265119D02*
X130716261Y-95265119D01*
X130806976Y-95325595D01*
X130867452Y-95386071D01*
X130897690Y-95446547D01*
X155674785Y-95664261D02*
X155463119Y-95361880D01*
X155311928Y-95664261D02*
X155311928Y-95029261D01*
X155553833Y-95029261D01*
X155614309Y-95059500D01*
X155644547Y-95089738D01*
X155674785Y-95150214D01*
X155674785Y-95240928D01*
X155644547Y-95301404D01*
X155614309Y-95331642D01*
X155553833Y-95361880D01*
X155311928Y-95361880D01*
X156279547Y-95664261D02*
X155916690Y-95664261D01*
X156098119Y-95664261D02*
X156098119Y-95029261D01*
X156037642Y-95119976D01*
X155977166Y-95180452D01*
X155916690Y-95210690D01*
X156491214Y-95029261D02*
X156884309Y-95029261D01*
X156672642Y-95271166D01*
X156763357Y-95271166D01*
X156823833Y-95301404D01*
X156854071Y-95331642D01*
X156884309Y-95392119D01*
X156884309Y-95543309D01*
X156854071Y-95603785D01*
X156823833Y-95634023D01*
X156763357Y-95664261D01*
X156581928Y-95664261D01*
X156521452Y-95634023D01*
X156491214Y-95603785D01*
X150020261Y-102262214D02*
X149717880Y-102473880D01*
X150020261Y-102625071D02*
X149385261Y-102625071D01*
X149385261Y-102383166D01*
X149415500Y-102322690D01*
X149445738Y-102292452D01*
X149506214Y-102262214D01*
X149596928Y-102262214D01*
X149657404Y-102292452D01*
X149687642Y-102322690D01*
X149717880Y-102383166D01*
X149717880Y-102625071D01*
X149596928Y-101717928D02*
X150020261Y-101717928D01*
X149355023Y-101869119D02*
X149808595Y-102020309D01*
X149808595Y-101627214D01*
X150020261Y-101052690D02*
X150020261Y-101415547D01*
X150020261Y-101234119D02*
X149385261Y-101234119D01*
X149475976Y-101294595D01*
X149536452Y-101355071D01*
X149566690Y-101415547D01*
X137308166Y-65946261D02*
X137096500Y-65643880D01*
X136945309Y-65946261D02*
X136945309Y-65311261D01*
X137187214Y-65311261D01*
X137247690Y-65341500D01*
X137277928Y-65371738D01*
X137308166Y-65432214D01*
X137308166Y-65522928D01*
X137277928Y-65583404D01*
X137247690Y-65613642D01*
X137187214Y-65643880D01*
X136945309Y-65643880D01*
X137852452Y-65522928D02*
X137852452Y-65946261D01*
X137701261Y-65281023D02*
X137550071Y-65734595D01*
X137943166Y-65734595D01*
X135403166Y-65946261D02*
X135191500Y-65643880D01*
X135040309Y-65946261D02*
X135040309Y-65311261D01*
X135282214Y-65311261D01*
X135342690Y-65341500D01*
X135372928Y-65371738D01*
X135403166Y-65432214D01*
X135403166Y-65522928D01*
X135372928Y-65583404D01*
X135342690Y-65613642D01*
X135282214Y-65643880D01*
X135040309Y-65643880D01*
X135977690Y-65311261D02*
X135675309Y-65311261D01*
X135645071Y-65613642D01*
X135675309Y-65583404D01*
X135735785Y-65553166D01*
X135886976Y-65553166D01*
X135947452Y-65583404D01*
X135977690Y-65613642D01*
X136007928Y-65674119D01*
X136007928Y-65825309D01*
X135977690Y-65885785D01*
X135947452Y-65916023D01*
X135886976Y-65946261D01*
X135735785Y-65946261D01*
X135675309Y-65916023D01*
X135645071Y-65885785D01*
X130335261Y-96244833D02*
X130032880Y-96456500D01*
X130335261Y-96607690D02*
X129700261Y-96607690D01*
X129700261Y-96365785D01*
X129730500Y-96305309D01*
X129760738Y-96275071D01*
X129821214Y-96244833D01*
X129911928Y-96244833D01*
X129972404Y-96275071D01*
X130002642Y-96305309D01*
X130032880Y-96365785D01*
X130032880Y-96607690D01*
X129700261Y-95700547D02*
X129700261Y-95821500D01*
X129730500Y-95881976D01*
X129760738Y-95912214D01*
X129851452Y-95972690D01*
X129972404Y-96002928D01*
X130214309Y-96002928D01*
X130274785Y-95972690D01*
X130305023Y-95942452D01*
X130335261Y-95881976D01*
X130335261Y-95761023D01*
X130305023Y-95700547D01*
X130274785Y-95670309D01*
X130214309Y-95640071D01*
X130063119Y-95640071D01*
X130002642Y-95670309D01*
X129972404Y-95700547D01*
X129942166Y-95761023D01*
X129942166Y-95881976D01*
X129972404Y-95942452D01*
X130002642Y-95972690D01*
X130063119Y-96002928D01*
X133117166Y-65946261D02*
X132905500Y-65643880D01*
X132754309Y-65946261D02*
X132754309Y-65311261D01*
X132996214Y-65311261D01*
X133056690Y-65341500D01*
X133086928Y-65371738D01*
X133117166Y-65432214D01*
X133117166Y-65522928D01*
X133086928Y-65583404D01*
X133056690Y-65613642D01*
X132996214Y-65643880D01*
X132754309Y-65643880D01*
X133328833Y-65311261D02*
X133752166Y-65311261D01*
X133480023Y-65946261D01*
D12*
X128705428Y-63602809D02*
X128536095Y-63360904D01*
X128415142Y-63602809D02*
X128415142Y-63094809D01*
X128608666Y-63094809D01*
X128657047Y-63119000D01*
X128681238Y-63143190D01*
X128705428Y-63191571D01*
X128705428Y-63264142D01*
X128681238Y-63312523D01*
X128657047Y-63336714D01*
X128608666Y-63360904D01*
X128415142Y-63360904D01*
X129189238Y-63602809D02*
X128898952Y-63602809D01*
X129044095Y-63602809D02*
X129044095Y-63094809D01*
X128995714Y-63167380D01*
X128947333Y-63215761D01*
X128898952Y-63239952D01*
X129382761Y-63143190D02*
X129406952Y-63119000D01*
X129455333Y-63094809D01*
X129576285Y-63094809D01*
X129624666Y-63119000D01*
X129648857Y-63143190D01*
X129673047Y-63191571D01*
X129673047Y-63239952D01*
X129648857Y-63312523D01*
X129358571Y-63602809D01*
X129673047Y-63602809D01*
X135738809Y-67763571D02*
X135496904Y-67932904D01*
X135738809Y-68053857D02*
X135230809Y-68053857D01*
X135230809Y-67860333D01*
X135255000Y-67811952D01*
X135279190Y-67787761D01*
X135327571Y-67763571D01*
X135400142Y-67763571D01*
X135448523Y-67787761D01*
X135472714Y-67811952D01*
X135496904Y-67860333D01*
X135496904Y-68053857D01*
X135400142Y-67328142D02*
X135738809Y-67328142D01*
X135206619Y-67449095D02*
X135569476Y-67570047D01*
X135569476Y-67255571D01*
X135279190Y-67086238D02*
X135255000Y-67062047D01*
X135230809Y-67013666D01*
X135230809Y-66892714D01*
X135255000Y-66844333D01*
X135279190Y-66820142D01*
X135327571Y-66795952D01*
X135375952Y-66795952D01*
X135448523Y-66820142D01*
X135738809Y-67110428D01*
X135738809Y-66795952D01*
X138659809Y-67763571D02*
X138417904Y-67932904D01*
X138659809Y-68053857D02*
X138151809Y-68053857D01*
X138151809Y-67860333D01*
X138176000Y-67811952D01*
X138200190Y-67787761D01*
X138248571Y-67763571D01*
X138321142Y-67763571D01*
X138369523Y-67787761D01*
X138393714Y-67811952D01*
X138417904Y-67860333D01*
X138417904Y-68053857D01*
X138321142Y-67328142D02*
X138659809Y-67328142D01*
X138127619Y-67449095D02*
X138490476Y-67570047D01*
X138490476Y-67255571D01*
X138151809Y-67110428D02*
X138151809Y-66795952D01*
X138345333Y-66965285D01*
X138345333Y-66892714D01*
X138369523Y-66844333D01*
X138393714Y-66820142D01*
X138442095Y-66795952D01*
X138563047Y-66795952D01*
X138611428Y-66820142D01*
X138635619Y-66844333D01*
X138659809Y-66892714D01*
X138659809Y-67037857D01*
X138635619Y-67086238D01*
X138611428Y-67110428D01*
D22*
X152294166Y-98585261D02*
X152082500Y-98282880D01*
X151931309Y-98585261D02*
X151931309Y-97950261D01*
X152173214Y-97950261D01*
X152233690Y-97980500D01*
X152263928Y-98010738D01*
X152294166Y-98071214D01*
X152294166Y-98161928D01*
X152263928Y-98222404D01*
X152233690Y-98252642D01*
X152173214Y-98282880D01*
X151931309Y-98282880D01*
X152596547Y-98585261D02*
X152717500Y-98585261D01*
X152777976Y-98555023D01*
X152808214Y-98524785D01*
X152868690Y-98434071D01*
X152898928Y-98313119D01*
X152898928Y-98071214D01*
X152868690Y-98010738D01*
X152838452Y-97980500D01*
X152777976Y-97950261D01*
X152657023Y-97950261D01*
X152596547Y-97980500D01*
X152566309Y-98010738D01*
X152536071Y-98071214D01*
X152536071Y-98222404D01*
X152566309Y-98282880D01*
X152596547Y-98313119D01*
X152657023Y-98343357D01*
X152777976Y-98343357D01*
X152838452Y-98313119D01*
X152868690Y-98282880D01*
X152898928Y-98222404D01*
X132367261Y-96293214D02*
X132064880Y-96504880D01*
X132367261Y-96656071D02*
X131732261Y-96656071D01*
X131732261Y-96414166D01*
X131762500Y-96353690D01*
X131792738Y-96323452D01*
X131853214Y-96293214D01*
X131943928Y-96293214D01*
X132004404Y-96323452D01*
X132034642Y-96353690D01*
X132064880Y-96414166D01*
X132064880Y-96656071D01*
X132367261Y-95688452D02*
X132367261Y-96051309D01*
X132367261Y-95869880D02*
X131732261Y-95869880D01*
X131822976Y-95930357D01*
X131883452Y-95990833D01*
X131913690Y-96051309D01*
X131732261Y-95295357D02*
X131732261Y-95234880D01*
X131762500Y-95174404D01*
X131792738Y-95144166D01*
X131853214Y-95113928D01*
X131974166Y-95083690D01*
X132125357Y-95083690D01*
X132246309Y-95113928D01*
X132306785Y-95144166D01*
X132337023Y-95174404D01*
X132367261Y-95234880D01*
X132367261Y-95295357D01*
X132337023Y-95355833D01*
X132306785Y-95386071D01*
X132246309Y-95416309D01*
X132125357Y-95446547D01*
X131974166Y-95446547D01*
X131853214Y-95416309D01*
X131792738Y-95386071D01*
X131762500Y-95355833D01*
X131732261Y-95295357D01*
X138463261Y-87784214D02*
X138160880Y-87995880D01*
X138463261Y-88147071D02*
X137828261Y-88147071D01*
X137828261Y-87905166D01*
X137858500Y-87844690D01*
X137888738Y-87814452D01*
X137949214Y-87784214D01*
X138039928Y-87784214D01*
X138100404Y-87814452D01*
X138130642Y-87844690D01*
X138160880Y-87905166D01*
X138160880Y-88147071D01*
X138463261Y-87179452D02*
X138463261Y-87542309D01*
X138463261Y-87360880D02*
X137828261Y-87360880D01*
X137918976Y-87421357D01*
X137979452Y-87481833D01*
X138009690Y-87542309D01*
X138100404Y-86816595D02*
X138070166Y-86877071D01*
X138039928Y-86907309D01*
X137979452Y-86937547D01*
X137949214Y-86937547D01*
X137888738Y-86907309D01*
X137858500Y-86877071D01*
X137828261Y-86816595D01*
X137828261Y-86695642D01*
X137858500Y-86635166D01*
X137888738Y-86604928D01*
X137949214Y-86574690D01*
X137979452Y-86574690D01*
X138039928Y-86604928D01*
X138070166Y-86635166D01*
X138100404Y-86695642D01*
X138100404Y-86816595D01*
X138130642Y-86877071D01*
X138160880Y-86907309D01*
X138221357Y-86937547D01*
X138342309Y-86937547D01*
X138402785Y-86907309D01*
X138433023Y-86877071D01*
X138463261Y-86816595D01*
X138463261Y-86695642D01*
X138433023Y-86635166D01*
X138402785Y-86604928D01*
X138342309Y-86574690D01*
X138221357Y-86574690D01*
X138160880Y-86604928D01*
X138130642Y-86635166D01*
X138100404Y-86695642D01*
X139352261Y-92737214D02*
X139049880Y-92948880D01*
X139352261Y-93100071D02*
X138717261Y-93100071D01*
X138717261Y-92858166D01*
X138747500Y-92797690D01*
X138777738Y-92767452D01*
X138838214Y-92737214D01*
X138928928Y-92737214D01*
X138989404Y-92767452D01*
X139019642Y-92797690D01*
X139049880Y-92858166D01*
X139049880Y-93100071D01*
X139352261Y-92132452D02*
X139352261Y-92495309D01*
X139352261Y-92313880D02*
X138717261Y-92313880D01*
X138807976Y-92374357D01*
X138868452Y-92434833D01*
X138898690Y-92495309D01*
X139352261Y-91830071D02*
X139352261Y-91709119D01*
X139322023Y-91648642D01*
X139291785Y-91618404D01*
X139201071Y-91557928D01*
X139080119Y-91527690D01*
X138838214Y-91527690D01*
X138777738Y-91557928D01*
X138747500Y-91588166D01*
X138717261Y-91648642D01*
X138717261Y-91769595D01*
X138747500Y-91830071D01*
X138777738Y-91860309D01*
X138838214Y-91890547D01*
X138989404Y-91890547D01*
X139049880Y-91860309D01*
X139080119Y-91830071D01*
X139110357Y-91769595D01*
X139110357Y-91648642D01*
X139080119Y-91588166D01*
X139049880Y-91557928D01*
X138989404Y-91527690D01*
D12*
X140818809Y-70938571D02*
X140576904Y-71107904D01*
X140818809Y-71228857D02*
X140310809Y-71228857D01*
X140310809Y-71035333D01*
X140335000Y-70986952D01*
X140359190Y-70962761D01*
X140407571Y-70938571D01*
X140480142Y-70938571D01*
X140528523Y-70962761D01*
X140552714Y-70986952D01*
X140576904Y-71035333D01*
X140576904Y-71228857D01*
X140359190Y-70745047D02*
X140335000Y-70720857D01*
X140310809Y-70672476D01*
X140310809Y-70551523D01*
X140335000Y-70503142D01*
X140359190Y-70478952D01*
X140407571Y-70454761D01*
X140455952Y-70454761D01*
X140528523Y-70478952D01*
X140818809Y-70769238D01*
X140818809Y-70454761D01*
X140310809Y-70140285D02*
X140310809Y-70091904D01*
X140335000Y-70043523D01*
X140359190Y-70019333D01*
X140407571Y-69995142D01*
X140504333Y-69970952D01*
X140625285Y-69970952D01*
X140722047Y-69995142D01*
X140770428Y-70019333D01*
X140794619Y-70043523D01*
X140818809Y-70091904D01*
X140818809Y-70140285D01*
X140794619Y-70188666D01*
X140770428Y-70212857D01*
X140722047Y-70237047D01*
X140625285Y-70261238D01*
X140504333Y-70261238D01*
X140407571Y-70237047D01*
X140359190Y-70212857D01*
X140335000Y-70188666D01*
X140310809Y-70140285D01*
D22*
X146784785Y-96553261D02*
X146573119Y-96250880D01*
X146421928Y-96553261D02*
X146421928Y-95918261D01*
X146663833Y-95918261D01*
X146724309Y-95948500D01*
X146754547Y-95978738D01*
X146784785Y-96039214D01*
X146784785Y-96129928D01*
X146754547Y-96190404D01*
X146724309Y-96220642D01*
X146663833Y-96250880D01*
X146421928Y-96250880D01*
X147026690Y-95978738D02*
X147056928Y-95948500D01*
X147117404Y-95918261D01*
X147268595Y-95918261D01*
X147329071Y-95948500D01*
X147359309Y-95978738D01*
X147389547Y-96039214D01*
X147389547Y-96099690D01*
X147359309Y-96190404D01*
X146996452Y-96553261D01*
X147389547Y-96553261D01*
X147601214Y-95918261D02*
X147994309Y-95918261D01*
X147782642Y-96160166D01*
X147873357Y-96160166D01*
X147933833Y-96190404D01*
X147964071Y-96220642D01*
X147994309Y-96281119D01*
X147994309Y-96432309D01*
X147964071Y-96492785D01*
X147933833Y-96523023D01*
X147873357Y-96553261D01*
X147691928Y-96553261D01*
X147631452Y-96523023D01*
X147601214Y-96492785D01*
X146784785Y-101125261D02*
X146573119Y-100822880D01*
X146421928Y-101125261D02*
X146421928Y-100490261D01*
X146663833Y-100490261D01*
X146724309Y-100520500D01*
X146754547Y-100550738D01*
X146784785Y-100611214D01*
X146784785Y-100701928D01*
X146754547Y-100762404D01*
X146724309Y-100792642D01*
X146663833Y-100822880D01*
X146421928Y-100822880D01*
X147026690Y-100550738D02*
X147056928Y-100520500D01*
X147117404Y-100490261D01*
X147268595Y-100490261D01*
X147329071Y-100520500D01*
X147359309Y-100550738D01*
X147389547Y-100611214D01*
X147389547Y-100671690D01*
X147359309Y-100762404D01*
X146996452Y-101125261D01*
X147389547Y-101125261D01*
X147933833Y-100701928D02*
X147933833Y-101125261D01*
X147782642Y-100460023D02*
X147631452Y-100913595D01*
X148024547Y-100913595D01*
X151102785Y-105697261D02*
X150891119Y-105394880D01*
X150739928Y-105697261D02*
X150739928Y-105062261D01*
X150981833Y-105062261D01*
X151042309Y-105092500D01*
X151072547Y-105122738D01*
X151102785Y-105183214D01*
X151102785Y-105273928D01*
X151072547Y-105334404D01*
X151042309Y-105364642D01*
X150981833Y-105394880D01*
X150739928Y-105394880D01*
X151314452Y-105062261D02*
X151707547Y-105062261D01*
X151495880Y-105304166D01*
X151586595Y-105304166D01*
X151647071Y-105334404D01*
X151677309Y-105364642D01*
X151707547Y-105425119D01*
X151707547Y-105576309D01*
X151677309Y-105636785D01*
X151647071Y-105667023D01*
X151586595Y-105697261D01*
X151405166Y-105697261D01*
X151344690Y-105667023D01*
X151314452Y-105636785D01*
X151949452Y-105122738D02*
X151979690Y-105092500D01*
X152040166Y-105062261D01*
X152191357Y-105062261D01*
X152251833Y-105092500D01*
X152282071Y-105122738D01*
X152312309Y-105183214D01*
X152312309Y-105243690D01*
X152282071Y-105334404D01*
X151919214Y-105697261D01*
X152312309Y-105697261D01*
X134145261Y-80418214D02*
X133842880Y-80629880D01*
X134145261Y-80781071D02*
X133510261Y-80781071D01*
X133510261Y-80539166D01*
X133540500Y-80478690D01*
X133570738Y-80448452D01*
X133631214Y-80418214D01*
X133721928Y-80418214D01*
X133782404Y-80448452D01*
X133812642Y-80478690D01*
X133842880Y-80539166D01*
X133842880Y-80781071D01*
X133510261Y-80206547D02*
X133510261Y-79813452D01*
X133752166Y-80025119D01*
X133752166Y-79934404D01*
X133782404Y-79873928D01*
X133812642Y-79843690D01*
X133873119Y-79813452D01*
X134024309Y-79813452D01*
X134084785Y-79843690D01*
X134115023Y-79873928D01*
X134145261Y-79934404D01*
X134145261Y-80115833D01*
X134115023Y-80176309D01*
X134084785Y-80206547D01*
X133510261Y-79601785D02*
X133510261Y-79178452D01*
X134145261Y-79450595D01*
X131036785Y-88237785D02*
X131006547Y-88268023D01*
X130915833Y-88298261D01*
X130855357Y-88298261D01*
X130764642Y-88268023D01*
X130704166Y-88207547D01*
X130673928Y-88147071D01*
X130643690Y-88026119D01*
X130643690Y-87935404D01*
X130673928Y-87814452D01*
X130704166Y-87753976D01*
X130764642Y-87693500D01*
X130855357Y-87663261D01*
X130915833Y-87663261D01*
X131006547Y-87693500D01*
X131036785Y-87723738D01*
X131641547Y-88298261D02*
X131278690Y-88298261D01*
X131460119Y-88298261D02*
X131460119Y-87663261D01*
X131399642Y-87753976D01*
X131339166Y-87814452D01*
X131278690Y-87844690D01*
X131883452Y-87723738D02*
X131913690Y-87693500D01*
X131974166Y-87663261D01*
X132125357Y-87663261D01*
X132185833Y-87693500D01*
X132216071Y-87723738D01*
X132246309Y-87784214D01*
X132246309Y-87844690D01*
X132216071Y-87935404D01*
X131853214Y-88298261D01*
X132246309Y-88298261D01*
X136624785Y-84609214D02*
X136655023Y-84639452D01*
X136685261Y-84730166D01*
X136685261Y-84790642D01*
X136655023Y-84881357D01*
X136594547Y-84941833D01*
X136534071Y-84972071D01*
X136413119Y-85002309D01*
X136322404Y-85002309D01*
X136201452Y-84972071D01*
X136140976Y-84941833D01*
X136080500Y-84881357D01*
X136050261Y-84790642D01*
X136050261Y-84730166D01*
X136080500Y-84639452D01*
X136110738Y-84609214D01*
X136685261Y-84004452D02*
X136685261Y-84367309D01*
X136685261Y-84185880D02*
X136050261Y-84185880D01*
X136140976Y-84246357D01*
X136201452Y-84306833D01*
X136231690Y-84367309D01*
X136050261Y-83792785D02*
X136050261Y-83369452D01*
X136685261Y-83641595D01*
X154072166Y-98585261D02*
X153860500Y-98282880D01*
X153709309Y-98585261D02*
X153709309Y-97950261D01*
X153951214Y-97950261D01*
X154011690Y-97980500D01*
X154041928Y-98010738D01*
X154072166Y-98071214D01*
X154072166Y-98161928D01*
X154041928Y-98222404D01*
X154011690Y-98252642D01*
X153951214Y-98282880D01*
X153709309Y-98282880D01*
X154435023Y-98222404D02*
X154374547Y-98192166D01*
X154344309Y-98161928D01*
X154314071Y-98101452D01*
X154314071Y-98071214D01*
X154344309Y-98010738D01*
X154374547Y-97980500D01*
X154435023Y-97950261D01*
X154555976Y-97950261D01*
X154616452Y-97980500D01*
X154646690Y-98010738D01*
X154676928Y-98071214D01*
X154676928Y-98101452D01*
X154646690Y-98161928D01*
X154616452Y-98192166D01*
X154555976Y-98222404D01*
X154435023Y-98222404D01*
X154374547Y-98252642D01*
X154344309Y-98282880D01*
X154314071Y-98343357D01*
X154314071Y-98464309D01*
X154344309Y-98524785D01*
X154374547Y-98555023D01*
X154435023Y-98585261D01*
X154555976Y-98585261D01*
X154616452Y-98555023D01*
X154646690Y-98524785D01*
X154676928Y-98464309D01*
X154676928Y-98343357D01*
X154646690Y-98282880D01*
X154616452Y-98252642D01*
X154555976Y-98222404D01*
X137701261Y-84609214D02*
X137398880Y-84820880D01*
X137701261Y-84972071D02*
X137066261Y-84972071D01*
X137066261Y-84730166D01*
X137096500Y-84669690D01*
X137126738Y-84639452D01*
X137187214Y-84609214D01*
X137277928Y-84609214D01*
X137338404Y-84639452D01*
X137368642Y-84669690D01*
X137398880Y-84730166D01*
X137398880Y-84972071D01*
X137066261Y-84397547D02*
X137066261Y-84004452D01*
X137308166Y-84216119D01*
X137308166Y-84125404D01*
X137338404Y-84064928D01*
X137368642Y-84034690D01*
X137429119Y-84004452D01*
X137580309Y-84004452D01*
X137640785Y-84034690D01*
X137671023Y-84064928D01*
X137701261Y-84125404D01*
X137701261Y-84306833D01*
X137671023Y-84367309D01*
X137640785Y-84397547D01*
X137066261Y-83429928D02*
X137066261Y-83732309D01*
X137368642Y-83762547D01*
X137338404Y-83732309D01*
X137308166Y-83671833D01*
X137308166Y-83520642D01*
X137338404Y-83460166D01*
X137368642Y-83429928D01*
X137429119Y-83399690D01*
X137580309Y-83399690D01*
X137640785Y-83429928D01*
X137671023Y-83460166D01*
X137701261Y-83520642D01*
X137701261Y-83671833D01*
X137671023Y-83732309D01*
X137640785Y-83762547D01*
D16*
X130663904Y-87096238D02*
X129863904Y-87096238D01*
X129863904Y-86791476D01*
X129902000Y-86715285D01*
X129940095Y-86677190D01*
X130016285Y-86639095D01*
X130130571Y-86639095D01*
X130206761Y-86677190D01*
X130244857Y-86715285D01*
X130282952Y-86791476D01*
X130282952Y-87096238D01*
X130663904Y-85839095D02*
X130282952Y-86105761D01*
X130663904Y-86296238D02*
X129863904Y-86296238D01*
X129863904Y-85991476D01*
X129902000Y-85915285D01*
X129940095Y-85877190D01*
X130016285Y-85839095D01*
X130130571Y-85839095D01*
X130206761Y-85877190D01*
X130244857Y-85915285D01*
X130282952Y-85991476D01*
X130282952Y-86296238D01*
X129863904Y-85343857D02*
X129863904Y-85191476D01*
X129902000Y-85115285D01*
X129978190Y-85039095D01*
X130130571Y-85001000D01*
X130397238Y-85001000D01*
X130549619Y-85039095D01*
X130625809Y-85115285D01*
X130663904Y-85191476D01*
X130663904Y-85343857D01*
X130625809Y-85420047D01*
X130549619Y-85496238D01*
X130397238Y-85534333D01*
X130130571Y-85534333D01*
X129978190Y-85496238D01*
X129902000Y-85420047D01*
X129863904Y-85343857D01*
X129902000Y-84239095D02*
X129863904Y-84315285D01*
X129863904Y-84429571D01*
X129902000Y-84543857D01*
X129978190Y-84620047D01*
X130054380Y-84658142D01*
X130206761Y-84696238D01*
X130321047Y-84696238D01*
X130473428Y-84658142D01*
X130549619Y-84620047D01*
X130625809Y-84543857D01*
X130663904Y-84429571D01*
X130663904Y-84353380D01*
X130625809Y-84239095D01*
X130587714Y-84201000D01*
X130321047Y-84201000D01*
X130321047Y-84353380D01*
X130740095Y-84048619D02*
X130740095Y-83439095D01*
X130244857Y-83248619D02*
X130244857Y-82981952D01*
X130663904Y-82867666D02*
X130663904Y-83248619D01*
X129863904Y-83248619D01*
X129863904Y-82867666D01*
X130663904Y-82524809D02*
X129863904Y-82524809D01*
X130663904Y-82067666D01*
X129863904Y-82067666D01*
X130663904Y-81267666D02*
X130663904Y-81724809D01*
X130663904Y-81496238D02*
X129863904Y-81496238D01*
X129978190Y-81572428D01*
X130054380Y-81648619D01*
X130092476Y-81724809D01*
M02*
