G04 #@! TF.GenerationSoftware,KiCad,Pcbnew,no-vcs-found-bf44d39~61~ubuntu16.04.1*
G04 #@! TF.CreationDate,2018-01-10T12:05:20+02:00*
G04 #@! TF.ProjectId,ESP32-PRO_Rev_B,45535033322D50524F5F5265765F422E,C*
G04 #@! TF.SameCoordinates,Original*
G04 #@! TF.FileFunction,Paste,Top*
G04 #@! TF.FilePolarity,Positive*
%FSLAX46Y46*%
G04 Gerber Fmt 4.6, Leading zero omitted, Abs format (unit mm)*
G04 Created by KiCad (PCBNEW no-vcs-found-bf44d39~61~ubuntu16.04.1) date Wed Jan 10 12:05:20 2018*
%MOMM*%
%LPD*%
G01*
G04 APERTURE LIST*
%ADD10C,0.254000*%
%ADD11R,1.400000X1.000000*%
%ADD12R,1.270000X1.524000*%
%ADD13R,0.600000X2.200000*%
%ADD14R,1.200000X0.550000*%
%ADD15R,0.980000X0.230000*%
%ADD16R,3.000000X1.600000*%
%ADD17O,1.400000X1.800000*%
%ADD18O,1.800000X1.400000*%
%ADD19R,0.811000X0.211000*%
%ADD20R,0.211000X0.811000*%
%ADD21R,1.100000X1.000000*%
%ADD22R,0.325000X2.150000*%
%ADD23R,1.524000X1.270000*%
%ADD24R,0.500000X0.550000*%
%ADD25R,1.200000X1.400000*%
%ADD26R,1.016000X1.016000*%
%ADD27R,0.800000X0.800000*%
%ADD28R,1.700000X2.000000*%
%ADD29R,2.000000X1.700000*%
%ADD30R,2.286000X1.778000*%
%ADD31R,0.550000X0.500000*%
%ADD32C,0.500000*%
%ADD33C,0.100000*%
G04 APERTURE END LIST*
D10*
X151130000Y-109220000D02*
X160020000Y-109220000D01*
X150749000Y-108839000D02*
X151130000Y-109220000D01*
X138811000Y-108839000D02*
X150749000Y-108839000D01*
X138430000Y-109220000D02*
X138811000Y-108839000D01*
X127000000Y-109220000D02*
X138430000Y-109220000D01*
X127000000Y-60960000D02*
X160020000Y-60960000D01*
X127000000Y-109220000D02*
X127000000Y-60960000D01*
X160020000Y-109220000D02*
X160020000Y-60960000D01*
D11*
X151038560Y-93919040D03*
X151038560Y-95821500D03*
X153248360Y-94866460D03*
D12*
X155067000Y-99949000D03*
X155067000Y-108077000D03*
D13*
X143256000Y-84298680D03*
X144526000Y-84298680D03*
X145796000Y-84298680D03*
X147066000Y-84298680D03*
X147066000Y-89298680D03*
X145796000Y-89298680D03*
X144526000Y-89298680D03*
X143256000Y-89298680D03*
X148971000Y-82871000D03*
X150241000Y-82871000D03*
X151511000Y-82871000D03*
X152781000Y-82871000D03*
X152781000Y-89341000D03*
X151511000Y-89341000D03*
X150241000Y-89341000D03*
X148971000Y-89341000D03*
D14*
X144750000Y-97856000D03*
X144750000Y-98806000D03*
X144750000Y-99756000D03*
X147350000Y-97856000D03*
X147350000Y-99756000D03*
D11*
X137322560Y-102301040D03*
X137322560Y-104203500D03*
X139532360Y-103248460D03*
D15*
X130569000Y-101457000D03*
X130569000Y-100957000D03*
X130569000Y-100457000D03*
X130569000Y-99957000D03*
X130569000Y-99457000D03*
X135369000Y-99457000D03*
X135369000Y-99957000D03*
X135369000Y-100457000D03*
X135369000Y-100957000D03*
X135369000Y-101457000D03*
D16*
X131572000Y-91637000D03*
X131572000Y-94037000D03*
D14*
X134844000Y-92395000D03*
X134844000Y-93345000D03*
X134844000Y-94295000D03*
X137444000Y-92395000D03*
X137444000Y-94295000D03*
D17*
X143723000Y-74677000D03*
X146923000Y-74677000D03*
D18*
X145323000Y-76277000D03*
X145323000Y-73077000D03*
D19*
X148243000Y-72477000D03*
X148243000Y-72877000D03*
X148243000Y-73277000D03*
X148243000Y-73677000D03*
X148243000Y-74077000D03*
X148243000Y-74477000D03*
X148243000Y-74877000D03*
X148243000Y-75277000D03*
X148243000Y-75677000D03*
X148243000Y-76077000D03*
X148243000Y-76477000D03*
X148243000Y-76877000D03*
D20*
X147523000Y-77597000D03*
X147123000Y-77597000D03*
X146723000Y-77597000D03*
X146323000Y-77597000D03*
X145923000Y-77597000D03*
X145523000Y-77597000D03*
X145123000Y-77597000D03*
X144723000Y-77597000D03*
X144323000Y-77597000D03*
X143923000Y-77597000D03*
X143523000Y-77597000D03*
X143123000Y-77597000D03*
D19*
X142403000Y-76877000D03*
X142403000Y-76477000D03*
X142403000Y-76077000D03*
X142403000Y-75677000D03*
X142403000Y-75277000D03*
X142403000Y-74877000D03*
X142403000Y-74477000D03*
X142403000Y-74077000D03*
X142403000Y-73677000D03*
X142403000Y-73277000D03*
X142403000Y-72877000D03*
X142403000Y-72477000D03*
D20*
X143123000Y-71757000D03*
X143523000Y-71757000D03*
X143923000Y-71757000D03*
X144323000Y-71757000D03*
X144723000Y-71757000D03*
X145123000Y-71757000D03*
X145523000Y-71757000D03*
X145923000Y-71757000D03*
X146323000Y-71757000D03*
X146723000Y-71757000D03*
X147123000Y-71757000D03*
X147523000Y-71757000D03*
D21*
X146280000Y-107191000D03*
X143280000Y-107191000D03*
D22*
X146080000Y-102891000D03*
X145430000Y-102891000D03*
X144780000Y-102891000D03*
X144130000Y-102891000D03*
X143480000Y-102891000D03*
D23*
X139573000Y-107823000D03*
X139573000Y-105791000D03*
X139827000Y-100965000D03*
X139827000Y-98933000D03*
D24*
X149669500Y-73025000D03*
X150685500Y-73025000D03*
D25*
X155486000Y-72941000D03*
X153886000Y-75141000D03*
X155486000Y-75141000D03*
X153886000Y-72941000D03*
D26*
X149987000Y-68072000D03*
X149987000Y-69850000D03*
D13*
X133604000Y-70779000D03*
X134874000Y-70779000D03*
X136144000Y-70779000D03*
X137414000Y-70779000D03*
X137414000Y-75779000D03*
X136144000Y-75779000D03*
X134874000Y-75779000D03*
X133604000Y-75779000D03*
D23*
X136398000Y-87757000D03*
X136398000Y-89789000D03*
D27*
X137414000Y-63246000D03*
X137414000Y-61722000D03*
X132842000Y-61722000D03*
X132842000Y-63246000D03*
X135128000Y-61722000D03*
X135128000Y-63246000D03*
D26*
X151511000Y-69850000D03*
X151511000Y-68072000D03*
D27*
X130556000Y-61722000D03*
X130556000Y-63246000D03*
D23*
X137287000Y-105791000D03*
X137287000Y-107823000D03*
D12*
X143129000Y-97155000D03*
X141097000Y-97155000D03*
D23*
X137642600Y-99441000D03*
X137642600Y-97409000D03*
D12*
X148844000Y-98806000D03*
X150876000Y-98806000D03*
D26*
X141224000Y-80264000D03*
X143002000Y-80264000D03*
D28*
X131318000Y-66461000D03*
X131318000Y-71461000D03*
D29*
X144058000Y-94234000D03*
X149058000Y-94234000D03*
D11*
X135298000Y-80518000D03*
X137498000Y-79568000D03*
X137498000Y-81468000D03*
D30*
X130937000Y-78504000D03*
X130937000Y-74150000D03*
D24*
X145923000Y-67691000D03*
X146939000Y-67691000D03*
D31*
X147828000Y-67691000D03*
X147828000Y-68707000D03*
D24*
X147828000Y-69596000D03*
X148844000Y-69596000D03*
D31*
X151765000Y-70866000D03*
X151765000Y-71882000D03*
X152654000Y-72898000D03*
X152654000Y-73914000D03*
X152654000Y-74930000D03*
X152654000Y-75946000D03*
X149873937Y-70866000D03*
X149873937Y-71882000D03*
X145288000Y-68453000D03*
X145288000Y-69469000D03*
X144018000Y-69469000D03*
X144018000Y-68453000D03*
D24*
X151384000Y-74803000D03*
X150368000Y-74803000D03*
D31*
X142748000Y-68453000D03*
X142748000Y-69469000D03*
X146558000Y-70358000D03*
X146558000Y-69342000D03*
X139954000Y-75692000D03*
X139954000Y-74676000D03*
D32*
X149584210Y-78210210D03*
D33*
G36*
X149212979Y-78227888D02*
X149601888Y-77838979D01*
X149955441Y-78192532D01*
X149566532Y-78581441D01*
X149212979Y-78227888D01*
X149212979Y-78227888D01*
G37*
D32*
X148865790Y-77491790D03*
D33*
G36*
X149237021Y-77474112D02*
X148848112Y-77863021D01*
X148494559Y-77509468D01*
X148883468Y-77120559D01*
X149237021Y-77474112D01*
X149237021Y-77474112D01*
G37*
D31*
X150876000Y-71882000D03*
X150876000Y-70866000D03*
X151765000Y-72898000D03*
X151765000Y-73914000D03*
X141859000Y-69469000D03*
X141859000Y-68453000D03*
D32*
X141583210Y-77491790D03*
D33*
G36*
X141600888Y-77863021D02*
X141211979Y-77474112D01*
X141565532Y-77120559D01*
X141954441Y-77509468D01*
X141600888Y-77863021D01*
X141600888Y-77863021D01*
G37*
D32*
X140864790Y-78210210D03*
D33*
G36*
X140847112Y-77838979D02*
X141236021Y-78227888D01*
X140882468Y-78581441D01*
X140493559Y-78192532D01*
X140847112Y-77838979D01*
X140847112Y-77838979D01*
G37*
D31*
X147955000Y-81026000D03*
X147955000Y-82042000D03*
D24*
X141859000Y-82550000D03*
X142875000Y-82550000D03*
D32*
X151108210Y-76813210D03*
D33*
G36*
X150736979Y-76830888D02*
X151125888Y-76441979D01*
X151479441Y-76795532D01*
X151090532Y-77184441D01*
X150736979Y-76830888D01*
X150736979Y-76830888D01*
G37*
D32*
X150389790Y-76094790D03*
D33*
G36*
X150761021Y-76077112D02*
X150372112Y-76466021D01*
X150018559Y-76112468D01*
X150407468Y-75723559D01*
X150761021Y-76077112D01*
X150761021Y-76077112D01*
G37*
D24*
X151511000Y-81026000D03*
X150495000Y-81026000D03*
D31*
X145796000Y-81534000D03*
X145796000Y-82550000D03*
X143764000Y-82550000D03*
X143764000Y-81534000D03*
D24*
X142875000Y-81534000D03*
X141859000Y-81534000D03*
D31*
X141986000Y-101092000D03*
X141986000Y-100076000D03*
D24*
X128524000Y-65151000D03*
X129540000Y-65151000D03*
X150876000Y-97282000D03*
X149860000Y-97282000D03*
X150241000Y-100330000D03*
X149225000Y-100330000D03*
X150622000Y-102616000D03*
X151638000Y-102616000D03*
D31*
X133604000Y-67945000D03*
X133604000Y-66929000D03*
X131064000Y-98171000D03*
X131064000Y-97155000D03*
X154559000Y-95885000D03*
X154559000Y-94869000D03*
D24*
X151638000Y-101727000D03*
X150622000Y-101727000D03*
X137922000Y-64643000D03*
X136906000Y-64643000D03*
X135001000Y-64643000D03*
X136017000Y-64643000D03*
D31*
X130048000Y-97155000D03*
X130048000Y-98171000D03*
D24*
X132715000Y-64643000D03*
X133731000Y-64643000D03*
X128524000Y-64262000D03*
X129540000Y-64262000D03*
D31*
X136525000Y-66929000D03*
X136525000Y-67945000D03*
X137414000Y-67945000D03*
X137414000Y-66929000D03*
D24*
X151765000Y-97282000D03*
X152781000Y-97282000D03*
D31*
X131953000Y-97155000D03*
X131953000Y-98171000D03*
X138176000Y-88646000D03*
X138176000Y-89662000D03*
X138176000Y-90551000D03*
X138176000Y-91567000D03*
X140589000Y-68453000D03*
X140589000Y-69469000D03*
D24*
X144907000Y-96901000D03*
X145923000Y-96901000D03*
X145923000Y-100711000D03*
X144907000Y-100711000D03*
X150622000Y-104267000D03*
X151638000Y-104267000D03*
D31*
X133858000Y-82296000D03*
X133858000Y-81280000D03*
D12*
X132461000Y-89662000D03*
X130429000Y-89662000D03*
D31*
X134239000Y-84709000D03*
X134239000Y-83693000D03*
D24*
X154686000Y-97282000D03*
X153670000Y-97282000D03*
D31*
X135382000Y-83693000D03*
X135382000Y-84709000D03*
M02*
